<svg width="611" height="718" viewBox="0 0 611 718" fill="none" xmlns="http://www.w3.org/2000/svg">
<g filter="url(#filter0_d_16_562)">
<path d="M317.3 315.7C307.1 313.4 344.3 131.4 400.9 109C441 93.1999 479.2 222.9 461.2 289.1C443.2 355.3 353.5 323.9 317.3 315.7Z" fill="url(#paint0_linear_16_562)"/>
<path d="M591.3 311.1C550 369.4 455.2 357.3 408.9 355.1C405.1 354.9 401.633 354.8 398.5 354.8C357.9 354.8 323.3 321.3 323.3 321.3C323.3 321.3 408.6 142.6 501.4 111.7C529.6 102.3 553.2 110.9 571.1 129.4C612.3 171.7 623.6 265.7 591.3 311.1Z" fill="url(#paint1_linear_16_562)"/>
<path style="mix-blend-mode:multiply" opacity="0.6" d="M591.3 311.1C550 369.4 455.2 357.3 408.9 355.1L396.1 327.5C396.1 327.5 527.8 365.8 582.7 309.7C623.4 268 596.3 177.4 571.1 129.4C612.3 171.7 623.6 265.7 591.3 311.1Z" fill="url(#paint2_linear_16_562)"/>
<g style="mix-blend-mode:soft-light" opacity="0.9">
<path d="M444.999 328C398.099 295.7 468.199 202.6 534.699 211C601.299 219.5 600.699 309.6 542.399 327.1C483.999 344.6 444.999 328 444.999 328Z" fill="#9F98FF"/>
</g>
<g style="mix-blend-mode:soft-light" opacity="0.9">
<path d="M497.899 286.1C467.899 339.6 545.799 341.6 554.199 296.2C562.499 250.8 497.899 286.1 497.899 286.1Z" fill="#ACFFEA"/>
</g>
<path style="mix-blend-mode:multiply" opacity="0.6" d="M387.4 212.9C387.4 212.9 410.2 217.1 426.3 260.1C442.5 303.1 400.6 324.9 400.6 324.9L377.8 321.7C377.8 321.7 413.1 243 387.4 212.9Z" fill="url(#paint3_linear_16_562)"/>
<path d="M74.1995 136.6C33.8995 128.3 16.2995 79.8 16.9995 47.8V47.7C17.1995 33.5 20.9995 22.5 27.9995 19.6C45.6995 12.3 77.2995 64.1999 91.2995 94.2999C95.2995 103 97.8995 109.8 98.1995 113C99.8995 126.8 82.6995 138.4 74.1995 136.6Z" fill="url(#paint4_linear_16_562)"/>
<path style="mix-blend-mode:multiply" opacity="0.5" d="M74.1995 136.6C33.8995 128.3 16.2995 79.7998 16.9995 47.7998C17.1995 49.0998 25.1995 95.6998 63.1995 102.5C78.9995 105.3 87.1995 100.7 91.2995 94.2998C95.2995 103 97.8995 109.8 98.1995 113C99.8995 126.8 82.6995 138.4 74.1995 136.6Z" fill="url(#paint5_linear_16_562)"/>
<path d="M216.399 362C201.699 362.8 86.2994 412.6 83.0994 473.1C81.6994 499.5 234.499 387.7 260.199 369.9C260.199 369.9 224.799 361.6 216.399 362Z" fill="url(#paint6_linear_16_562)"/>
<path d="M450.5 376.5C463.7 369.7 503.3 399.4 503.9 406.4C504.6 413.3 455.3 445.6 446.3 443.7C437.3 441.8 450.5 376.5 450.5 376.5Z" fill="url(#paint7_linear_16_562)"/>
<path d="M459.799 421.7C418.299 498.8 340.699 475.3 277.099 428C250.699 408.4 226.699 384.6 208.699 362.3C202.399 314.7 326.199 322.2 326.199 322.2C354.699 306 410.499 311.9 442.499 339.1C463.799 357.2 474.599 384.8 459.799 421.7Z" fill="url(#paint8_linear_16_562)"/>
<path d="M398 299.7C384.5 363.7 231.1 369.8 148.8 365.5C69.2996 361.4 30.1996 339.3 12.7996 315.2V315.1C10.9996 312.633 9.43294 310.133 8.09961 307.6C8.03294 307.467 7.96628 307.367 7.89961 307.3C7.69961 307 7.59961 306.7 7.39961 306.4C-4.20039 283.7 0.999607 260.9 7.69961 250.9C7.69961 250.9 39.5996 95.8999 169.9 89.1999C260.9 84.4999 318.5 112 353.4 149.8C376.3 174.6 389.4 203.8 395.8 231.2C401.9 257.5 401.7 282.1 398 299.7Z" fill="url(#paint9_linear_16_562)"/>
<path d="M313.699 452.7C313.699 452.7 372.299 449.5 396.099 404C419.999 358.5 408.599 320.4 408.599 320.4C408.599 320.4 446.399 332.5 459.599 360.2C459.599 360.2 477.499 444.1 389.399 472C389.399 472 358.499 475 313.699 452.7Z" fill="url(#paint10_linear_16_562)"/>
<path d="M353.399 252.7C353.399 290.6 322.699 321.3 284.899 321.3C247.099 321.3 216.399 290.6 216.399 252.7C216.399 214.9 247.099 184.2 284.899 184.2C322.699 184.2 353.399 214.9 353.399 252.7Z" fill="url(#paint11_linear_16_562)"/>
<path d="M346.7 256.1C346.7 290.3 319 317.9 284.9 317.9C250.8 317.9 223.1 290.3 223.1 256.1C223.1 222 250.8 194.3 284.9 194.3C319 194.3 346.7 222 346.7 256.1Z" fill="url(#paint12_radial_16_562)"/>
<path d="M88.9994 257C82.6994 292 60.4994 316.6 39.2994 311.9C18.0994 307.2 5.99943 275.1 12.1994 240.1C18.4994 205.1 40.6994 180.5 61.8994 185.2C83.0994 189.8 95.1994 222 88.9994 257Z" fill="url(#paint13_linear_16_562)"/>
<path d="M86.7993 256.5C82.8993 278.9 71.5993 296.6 58.4993 303.4C53.1993 306.2 47.5993 307.2 42.0993 306C22.9993 301.8 12.0993 272.8 17.6993 241.3C23.2993 209.8 43.3993 187.6 62.4993 191.8C73.1993 194.2 81.3993 204.4 85.4993 218.5C88.5993 229.5 89.2993 242.8 86.7993 256.5Z" fill="url(#paint14_radial_16_562)"/>
<path d="M346.9 255.6C346.9 287 321.4 312.5 290 312.5C258.5 312.5 233 287 233 255.6C233 224.2 258.5 198.7 290 198.7C321.4 198.7 346.9 224.2 346.9 255.6Z" fill="url(#paint15_linear_16_562)"/>
<g style="mix-blend-mode:multiply">
<path d="M328.9 255.6C328.9 275.6 312.7 291.8 292.7 291.8C272.7 291.8 256.6 275.6 256.6 255.6C256.6 235.6 272.7 219.4 292.7 219.4C312.7 219.4 328.9 235.6 328.9 255.6Z" fill="#9C27B3"/>
</g>
<path d="M86.4996 256.7C82.1996 280.5 70.1996 299.2 56.3996 306.4C38.7996 303.6 25.0996 281.1 25.0996 253.7C25.0996 224.4 40.7996 200.7 60.0996 200.7C69.8996 200.7 78.6996 206.7 84.9996 216.4C88.2996 228 89.0996 242.1 86.4996 256.7Z" fill="url(#paint16_linear_16_562)"/>
<g style="mix-blend-mode:multiply">
<path d="M86.8994 255.8C83.9994 272.5 75.4994 285.6 65.7994 290.7C53.4994 288.7 43.8994 272.9 43.8994 253.7C43.8994 233.1 54.8994 216.4 68.3994 216.4C75.2994 216.4 81.4994 220.6 85.8994 227.5C88.1994 235.6 88.7994 245.5 86.8994 255.8Z" fill="#9C27B3"/>
</g>
<path d="M100.699 296.4C100.699 296.4 113.299 307.9 139.299 310.5C165.399 313.1 199.199 296.4 199.199 296.4C199.199 296.4 172.599 326.5 146.999 324.8C121.499 323.2 100.699 296.4 100.699 296.4Z" fill="url(#paint17_linear_16_562)"/>
<path d="M90.4997 233.9C90.4997 233.9 94.7997 198.6 60.8997 177.2C32.5997 159.2 15.7997 183.3 16.9997 189.8C18.0997 196.3 25.1997 205.9 25.1997 205.9C25.1997 205.9 39.6997 185.7 57.0997 188.5C80.2997 192.2 88.2997 214 90.4997 233.9Z" fill="url(#paint18_linear_16_562)"/>
<path d="M221.699 225.4C221.699 225.4 233.499 179.7 291.599 170.6C349.699 161.6 371.099 203.3 367.999 214.2C364.999 225 350.399 229 350.399 229C350.399 229 336.399 189.1 293.599 185.4C250.799 181.8 221.699 225.4 221.699 225.4Z" fill="url(#paint19_linear_16_562)"/>
<path style="mix-blend-mode:multiply" opacity="0.8" d="M221.7 248.5C221.7 248.5 230.4 203.6 284.3 199.2C338.3 194.8 351.6 244.3 351.6 244.3C351.6 244.3 350 190.8 290.9 185.3C231.7 179.7 219 238.4 221.7 248.5Z" fill="url(#paint20_linear_16_562)"/>
<path style="mix-blend-mode:multiply" opacity="0.8" d="M21 224.9C21 224.9 35.8 197.3 60.2 199.2C84.6 201.1 88 232.7 88 232.7C88 232.7 89.4 197.1 62.3 189.7C35.3 182.3 22 210.4 21 224.9Z" fill="url(#paint21_linear_16_562)"/>
<path style="mix-blend-mode:multiply" d="M248.799 404.7C248.799 404.7 302.699 453.4 364.999 334.1C364.999 334.1 337.499 362 212.199 366.6C212.199 366.6 236.599 396 248.799 404.7Z" fill="url(#paint22_linear_16_562)"/>
<path style="mix-blend-mode:multiply" opacity="0.5" d="M398 299.7C384.5 363.7 231.1 369.8 148.8 365.5C69.2998 361.4 30.1998 339.3 12.7998 315.2C91.1998 380.2 295.3 358.5 335.9 296.9C376.4 235.2 353.4 149.8 353.4 149.8C376.3 174.6 389.4 203.8 395.8 231.2C401.9 257.5 401.7 282.1 398 299.7Z" fill="url(#paint23_linear_16_562)"/>
<path d="M242.399 306.5C242.399 306.5 275.299 327.2 307.699 313.6C340.199 299.9 350.699 271.9 350.699 271.9C350.699 271.9 342.199 314.3 304.799 324.8C267.299 335.3 242.399 306.5 242.399 306.5Z" fill="#FFD142"/>
<g style="mix-blend-mode:soft-light" opacity="0.9">
<path d="M96.1993 129.6C75.6993 158.9 112.699 200.5 175.199 193.6C237.699 186.6 249.799 123.9 242.399 107.9C235.099 91.7998 136.699 71.5998 96.1993 129.6Z" fill="#FFA96F"/>
</g>
<g style="mix-blend-mode:soft-light" opacity="0.9">
<path d="M183.899 116.7C174.799 135.3 205.999 141.7 206.699 120.9C207.499 100 187.299 109.8 183.899 116.7Z" fill="white"/>
</g>
<path style="mix-blend-mode:multiply" opacity="0.5" d="M278.9 109.9C264.3 113.9 308.1 140.4 344 140.4C344 140.4 315.3 111.9 278.9 109.9Z" fill="url(#paint24_linear_16_562)"/>
<path d="M348.2 76.8999C338.6 110 311.7 125.9 302.4 125.2C293.2 124.5 285.1 118 284.4 114.5C284 111.8 285.2 102.8 287.7 90.8999C294.4 59.4999 310.1 8.29991 327.7 1.59991C335.8 -1.50009 341.8 2.1999 345.9 9.6999C354.1 24.6999 354.6 54.8999 348.2 76.8999Z" fill="url(#paint25_linear_16_562)"/>
<path style="mix-blend-mode:multiply" opacity="0.5" d="M348.2 76.8999C338.6 110 311.7 125.9 302.4 125.2C293.2 124.5 285.1 118 284.4 114.5C284 111.8 285.2 102.8 287.7 90.8999L288.6 89.3999C284.5 110.3 334.3 91.3999 344.7 45.8999C348.4 29.6999 348 18 345.9 9.69995C354.1 24.7 354.6 54.8999 348.2 76.8999Z" fill="url(#paint26_linear_16_562)"/>
<path style="mix-blend-mode:multiply" opacity="0.5" d="M459.8 421.7C418.3 498.8 340.7 475.3 277.1 428C279.5 428.9 354.2 458.2 405 434.1C456.4 409.6 454.8 355.5 442.5 339.1C463.8 357.2 474.6 384.8 459.8 421.7Z" fill="url(#paint27_linear_16_562)"/>
<path d="M306.099 546.5C306.166 546.5 306.133 546.6 305.999 546.8C305.933 547 305.866 547.167 305.799 547.3C305.799 547.433 305.766 547.567 305.699 547.7C285.999 601.5 239.899 643 184.599 632.9C130.999 623.1 102.899 584.3 92.3993 540.6H92.2993C86.0993 514.5 86.0993 486.7 90.7993 462.3L311.299 454.4C319.199 484.5 316.599 517.2 306.099 546.5Z" fill="url(#paint28_linear_16_562)"/>
<path style="mix-blend-mode:multiply" d="M305.699 547.7C285.999 601.5 239.899 643 184.599 632.9C130.999 623.1 102.899 584.3 92.3994 540.6C93.9994 542.8 149.599 615 219.499 604.8C283.499 595.4 302.599 555.3 305.699 547.7Z" fill="url(#paint29_linear_16_562)"/>
<path d="M94.5995 448.7C64.2995 499 220.699 572.2 297.199 493.6C373.599 414.9 142.399 369.5 94.5995 448.7Z" fill="#D46E47"/>
<path d="M131.2 455.2C111.2 488.3 214.2 536.5 264.6 484.7C314.9 432.9 162.7 403.1 131.2 455.2Z" fill="url(#paint30_linear_16_562)"/>
<path d="M357.399 500.2C330.499 550.9 275.399 538.4 274.699 530.7C274.399 527.4 280.399 521.5 288.499 513.4C288.566 513.333 288.599 513.3 288.599 513.3C298.799 503.1 312.399 489.3 321.199 472.3C337.199 441.6 338.699 372 349.999 370.9C354.499 370.5 359.499 377.7 363.399 389.4C363.399 389.4 363.433 389.4 363.499 389.4C363.499 389.467 363.533 389.633 363.599 389.9C372.399 416.4 375.899 465.2 357.399 500.2Z" fill="url(#paint31_linear_16_562)"/>
<path opacity="0.8" d="M273.1 471.8C271.5 478.9 257.1 491.4 257.1 491.4C257.1 491.4 254.2 526.5 244.1 542.4C234 558.4 232.3 544.2 222.6 561.8C221.8 563.2 221.1 565.3 220.5 568C212.7 600.7 210.4 723.4 175.3 717.3C137.4 710.7 141.8 640.3 135.9 623.2C130 606.1 118.4 630.4 104.8 602.8C98.5001 590.1 94.9001 567.8 96.6001 544.4C98.5001 517.2 107.8 488.5 128.7 471.8C159 447.5 220.5 450.8 253.5 461.5C260.8 463.9 266.7 466.6 270.5 469.5C271.5 470.233 272.367 471 273.1 471.8Z" fill="url(#paint32_linear_16_562)"/>
<path style="mix-blend-mode:multiply" d="M357.399 500.2C330.499 550.9 275.399 538.4 274.699 530.7C274.399 527.4 280.399 521.5 288.499 513.4C274.899 530.7 342.499 523.4 360.699 481.8C377.799 442.6 365.099 395.3 363.599 389.9C372.399 416.4 375.899 465.2 357.399 500.2Z" fill="url(#paint33_linear_16_562)"/>
<path style="mix-blend-mode:multiply" d="M367.6 470.6C367.6 470.6 381.9 476.9 389.5 461.7C397.2 446.4 365 396.3 365 396.3C365 396.3 375.6 436.5 367.6 470.6Z" fill="url(#paint34_linear_16_562)"/>
<path style="mix-blend-mode:multiply" d="M164.3 383.9C199.7 372.9 213.9 402.6 213.9 402.6L233 388.5L212.2 366.6L201.1 366.5C201.1 366.5 171.7 379.7 164.3 383.9Z" fill="url(#paint35_linear_16_562)"/>
<path d="M392.5 207C392.5 207 454.8 136 506.2 125.1C557.6 114.3 586.5 149.8 586.5 149.8C586.5 149.8 566 103.9 517.7 107.7C469.4 111.5 413.5 180.1 392.5 207Z" fill="#7EFFEA"/>
<path d="M14.1992 283.7C14.1992 283.7 24.2992 308.8 44.3992 308.8C64.4992 308.9 77.5992 288.6 77.5992 288.6C77.5992 288.6 63.3992 315.9 40.4992 314.6C17.5992 313.3 14.1992 283.7 14.1992 283.7Z" fill="#FFD142"/>
<path style="mix-blend-mode:multiply" opacity="0.7" d="M105.1 290.4C105.1 290.4 98.5997 291.7 94.8997 294C91.2997 296.4 98.8997 308.8 98.8997 308.8C98.8997 308.8 99.5997 294.3 105.1 290.4Z" fill="url(#paint36_linear_16_562)"/>
<path style="mix-blend-mode:multiply" opacity="0.7" d="M191.6 290.4C191.6 290.4 202.8 297.1 205.4 308.8C205.4 308.8 211.2 293.5 206.7 290.4C202.3 287.3 191.6 290.4 191.6 290.4Z" fill="url(#paint37_linear_16_562)"/>
<path d="M117.899 308.8C117.899 308.8 140.499 318.5 169.999 311.8C169.999 311.8 158.499 321.5 147.199 321.7C135.899 321.8 117.899 308.8 117.899 308.8Z" fill="url(#paint38_linear_16_562)"/>
<path d="M107 303.4C107 303.4 127 329.5 148.9 330.3C170.8 331 193.4 303.4 193.4 303.4C193.4 303.4 164.8 326.1 145.5 324.9C126.2 323.7 107 303.4 107 303.4Z" fill="#FFD142"/>
<path style="mix-blend-mode:screen" opacity="0.5" d="M310.5 254.7C306.8 255.7 299.9 284.8 306.1 295.2C310.7 302.8 333 287.8 329.7 270C327.1 255.8 314.7 253.5 310.5 254.7Z" fill="url(#paint39_linear_16_562)"/>
<path style="mix-blend-mode:screen" opacity="0.5" d="M58.6996 263.6C54.4996 264.4 46.6996 288.6 53.7996 295.1C59.1996 300 77.6996 291.1 74.0996 279.5C70.4996 268 63.2996 262.6 58.6996 263.6Z" fill="url(#paint40_linear_16_562)"/>
<path d="M228.999 248C225.699 261.8 249.499 258.3 246.399 247.6C243.299 237 231.499 237.9 228.999 248Z" fill="white"/>
<path d="M66 138.2C66 138.2 100.3 115.1 152.9 100.9C205.4 86.6999 249.2 94.0999 249.2 94.0999C249.2 94.0999 188.4 79.8999 142.5 92.4999C96.7 105 66 138.2 66 138.2Z" fill="#FFE84A"/>
<path d="M20.2992 246.5C16.9992 260.4 40.7992 256.8 37.6992 246.2C34.5992 235.5 22.7992 236.4 20.2992 246.5Z" fill="white"/>
<path d="M125.699 313.8C122.799 312.1 143.199 314 143.199 314C143.199 314 160.299 312.6 164.299 312.9C168.199 313.1 161.999 317.9 161.999 317.9C161.999 317.9 178.099 311 183.899 306.5C183.899 306.5 160.799 314.3 143.899 313C126.999 311.7 115.399 306.5 115.399 306.5C115.399 306.5 116.999 310.8 125.699 313.8Z" fill="#7C001F"/>
<path style="mix-blend-mode:multiply" d="M134.399 467.8C134.399 467.8 177.299 459.2 263.099 465.2C263.099 465.2 249.099 423.4 189.399 428.3C129.699 433.2 134.399 467.8 134.399 467.8Z" fill="url(#paint41_linear_16_562)"/>
<path style="mix-blend-mode:multiply" opacity="0.4" d="M273.1 471.8C271.5 478.9 257.1 491.4 257.1 491.4C257.1 491.4 254.2 526.5 244.1 542.4C234 558.4 232.3 544.2 222.6 561.8C212.8 579.4 213.3 723.9 175.3 717.3C137.4 710.7 141.8 640.3 135.9 623.2C130 606.1 118.4 630.4 104.8 602.8C98.5001 590.1 94.9001 567.8 96.6001 544.4C96.6001 544.4 97.2001 601.2 122 610.5C149.9 621 165.6 575.2 166.8 573.1C166.4 574.8 158.6 603.3 143.9 619.9C143.9 619.9 134.3 690.2 171.7 697.5C209 704.8 204.4 543.4 206.7 537.9C209 532.4 229.7 539.8 240.1 528.1C250.6 516.5 253.3 486.7 253.3 486.7C253.3 486.7 272.5 480.2 270.5 469.5C271.5 470.233 272.367 471 273.1 471.8Z" fill="url(#paint42_linear_16_562)"/>
<path style="mix-blend-mode:multiply" opacity="0.3" d="M138.199 469.5C112.699 471.4 104.799 529.7 117.899 566.2C130.899 602.7 159.599 588.1 169.999 562C169.999 562 162.699 603.7 154.299 618.3C145.999 632.9 153.299 686.6 180.399 680.3C207.499 674.1 201.699 517.2 201.699 517.2C201.699 517.2 219.199 529.7 235.999 517.8C252.799 505.8 249.699 463.9 249.699 463.9C249.699 463.9 174.299 451.8 138.199 469.5Z" fill="url(#paint43_linear_16_562)"/>
<path d="M134.3 580.3C125.1 589.9 136.7 598.9 146.5 590.2C156.4 581.5 138.5 575.9 134.3 580.3Z" fill="white"/>
<path d="M188.199 656.9C182.599 669.9 197.799 668.1 198.699 656.9C199.499 645.7 191.299 649.6 188.199 656.9Z" fill="white"/>
<path style="mix-blend-mode:screen" opacity="0.5" d="M140.2 471.9C116.8 471.4 96.1 530.1 113.7 550.5C131.4 570.9 180 501.1 183.9 481.3C187.7 461.5 140.2 471.9 140.2 471.9Z" fill="url(#paint44_linear_16_562)"/>
<path style="mix-blend-mode:multiply" d="M273.1 471.8C271.5 478.9 257.1 491.4 257.1 491.4C257.1 491.4 254.2 526.5 244.1 542.4C234 558.4 232.3 544.2 222.6 561.8C221.8 563.2 221.1 565.3 220.5 568C220.5 568 222.1 548.3 224.5 544.4C226.9 540.5 235.7 541.3 246.3 517.5C256.9 493.6 254 483.9 254 483.9C254 483.9 262.4 468.3 254.4 462.4C254 462.133 253.7 461.833 253.5 461.5C260.8 463.9 266.7 466.6 270.5 469.5C271.5 470.233 272.367 471 273.1 471.8Z" fill="url(#paint45_linear_16_562)"/>
<path d="M152.6 609.5C152.6 609.5 159 607.8 160.4 603C161.8 598.3 162 591.1 162 591.1L152.6 609.5Z" fill="white"/>
<g style="mix-blend-mode:soft-light">
<path d="M159.599 612.4C156.699 613.4 160.199 633.6 161.999 637.1C163.699 640.6 167.899 616.2 167.499 609.5C167.199 602.7 159.599 612.4 159.599 612.4Z" fill="white"/>
</g>
<path d="M380.699 424.4C380.699 424.4 400.299 410.8 408.599 382C416.999 353.3 410.399 329.8 410.399 329.8C410.399 329.8 415.999 389.9 380.699 424.4Z" fill="#FFD142"/>
<g style="mix-blend-mode:soft-light" opacity="0.9">
<path d="M299.899 521.5C281.799 513.8 325.199 468.3 341.599 469.2C357.899 470 354.799 522.7 299.899 521.5Z" fill="#A2888B"/>
</g>
<path d="M154.8 365.8C154.8 365.8 209.6 368.8 235.4 392.5C235.4 392.5 299.9 367.2 323.3 352.3C323.3 352.3 245.4 370.7 154.8 365.8Z" fill="#6D001F"/>
<path d="M281.1 119.4C281.1 119.4 291.4 127.9 310.7 134.4C330.1 140.9 337.9 140.4 337.9 140.4C337.9 140.4 328.5 145.3 310 142.6C291.6 140 281.1 119.4 281.1 119.4Z" fill="#FFE84A"/>
<g style="mix-blend-mode:soft-light" opacity="0.4">
<path d="M326.299 9.69986C312.199 11.9999 311.999 44.2999 328.899 42.4999C345.699 40.7999 335.699 8.19986 326.299 9.69986Z" fill="#FFA96F"/>
</g>
<g style="mix-blend-mode:soft-light" opacity="0.4">
<path d="M28.9991 33.2C17.6991 38.2 22.9992 62.9 41.7992 55.6C60.5991 48.3 40.2991 28.1 28.9991 33.2Z" fill="#FFA96F"/>
</g>
<path d="M248.7 94.4999C209.8 90.6999 146 103.5 114.6 110.5C103 113.2 95.7997 115 95.7997 115C95.7997 115 74.0997 102.2 95.7997 95.8999C99.3331 94.8999 102.633 94.0332 105.7 93.2999C113.4 91.3999 119.7 90.2999 124.1 89.5999C122.5 88.9999 78.5997 54.2999 94.3997 41.9999C94.6664 41.7999 94.9664 41.5999 95.2997 41.3999C118.8 25.4999 176.6 74.6999 178.6 76.0999C178.733 76.2332 178.8 76.2999 178.8 76.2999C178.8 76.2999 148.6 37.5999 178.8 45.4999C181.6 46.1665 184.166 47.0665 186.5 48.1999H186.6C201.8 55.2999 208.9 69.0999 212.1 77.9999C211.7 74.5999 212.6 71.7999 217.3 73.4999C227.2 77.0999 248.7 94.4999 248.7 94.4999Z" fill="#FFE84A"/>
<path style="mix-blend-mode:multiply" opacity="0.5" d="M114.6 110.5C103 113.2 95.7997 115 95.7997 115C95.7997 115 74.0997 102.2 95.7997 95.8998C99.3331 94.8998 102.633 94.0331 105.7 93.2998C102.1 94.8998 99.0997 97.0998 97.4997 100.2C93.6997 107.5 105.4 109.8 114.6 110.5Z" fill="url(#paint46_linear_16_562)"/>
<path style="mix-blend-mode:multiply" opacity="0.5" d="M178.799 76.2999C178.799 76.2999 148.599 37.5999 178.799 45.4999C181.599 46.1665 184.166 47.0665 186.499 48.1999C164.899 43.4999 195.199 88.7999 195.199 88.7999L178.799 76.2999Z" fill="url(#paint47_linear_16_562)"/>
<path style="mix-blend-mode:multiply" opacity="0.5" d="M146 93.2999C146 93.2999 138.6 91.1999 124.2 89.5999H124.1C122.5 88.9999 78.5997 54.2999 94.3997 41.9999C94.6664 41.7999 94.9664 41.5999 95.2997 41.3999C91.4997 58.2999 146 93.2999 146 93.2999Z" fill="url(#paint48_linear_16_562)"/>
<path d="M92.0998 470.6C92.0998 470.6 102 430.5 152.8 415.6C203.6 400.8 253.3 414.5 253.3 414.5C253.3 414.5 209.1 396.2 140.3 414.5C71.4998 432.8 92.0998 470.6 92.0998 470.6Z" fill="#F49747"/>
<g style="mix-blend-mode:soft-light" opacity="0.9">
<path d="M377.799 349.5C345.799 359 378.599 397.7 387.399 396.3C396.199 394.8 416.299 338 377.799 349.5Z" fill="#FFA96F"/>
</g>
<g style="mix-blend-mode:soft-light" opacity="0.9">
<path d="M389.999 360.1C372.699 365.3 390.499 386.3 395.199 385.5C399.999 384.7 410.899 353.9 389.999 360.1Z" fill="white"/>
</g>
<g style="mix-blend-mode:soft-light" opacity="0.9">
<path d="M427.2 366.6C409.8 371.9 413.4 392.9 417.9 394.5C431.2 399.5 438.6 363.1 427.2 366.6Z" fill="white"/>
</g>
<path d="M372.399 471.8C372.399 471.8 400.899 474.4 428.499 454.4C456.099 434.4 463.899 409.5 463.899 409.5C463.899 409.5 453.999 445.9 428.199 461.5C402.399 477.1 374.699 472.9 372.399 471.8Z" fill="#FFC54A"/>
</g>
<defs>
<filter id="filter0_d_16_562" x="-8.46191" y="0.501465" width="618.474" height="725.018" filterUnits="userSpaceOnUse" color-interpolation-filters="sRGB">
<feFlood flood-opacity="0" result="BackgroundImageFix"/>
<feColorMatrix in="SourceAlpha" type="matrix" values="0 0 0 0 0 0 0 0 0 0 0 0 0 0 0 0 0 0 127 0" result="hardAlpha"/>
<feOffset dx="-5" dy="4"/>
<feGaussianBlur stdDeviation="2"/>
<feColorMatrix type="matrix" values="0 0 0 0 0 0 0 0 0 0 0 0 0 0 0 0 0 0 0.25 0"/>
<feBlend mode="normal" in2="BackgroundImageFix" result="effect1_dropShadow_16_562"/>
<feBlend mode="normal" in="SourceGraphic" in2="effect1_dropShadow_16_562" result="shape"/>
</filter>
<linearGradient id="paint0_linear_16_562" x1="150.7" y1="330.3" x2="212.5" y2="107.7" gradientUnits="userSpaceOnUse">
<stop stop-color="#B6ECC2"/>
<stop offset="1" stop-color="#7086CF"/>
</linearGradient>
<linearGradient id="paint1_linear_16_562" x1="357.9" y1="357.6" x2="357.9" y2="107.9" gradientUnits="userSpaceOnUse">
<stop stop-color="#B6ECC2"/>
<stop offset="1" stop-color="#909FDC"/>
</linearGradient>
<linearGradient id="paint2_linear_16_562" x1="381.3" y1="357.6" x2="381.3" y2="129.4" gradientUnits="userSpaceOnUse">
<stop stop-color="#5C60B5"/>
<stop offset="1" stop-color="white"/>
</linearGradient>
<linearGradient id="paint3_linear_16_562" x1="283.7" y1="324.9" x2="283.7" y2="212.9" gradientUnits="userSpaceOnUse">
<stop stop-color="#5B8EFF"/>
<stop offset="1" stop-color="#1D0090"/>
</linearGradient>
<linearGradient id="paint4_linear_16_562" x1="-27.7005" y1="136.8" x2="-27.7005" y2="18.9" gradientUnits="userSpaceOnUse">
<stop stop-color="#630E19"/>
<stop offset="1" stop-color="#8B311B"/>
</linearGradient>
<linearGradient id="paint5_linear_16_562" x1="16.8995" y1="47.7998" x2="98.3995" y2="47.7998" gradientUnits="userSpaceOnUse">
<stop stop-color="#8B0081"/>
<stop offset="1" stop-color="#B842FF"/>
</linearGradient>
<linearGradient id="paint6_linear_16_562" x1="134.299" y1="477.1" x2="134.299" y2="362" gradientUnits="userSpaceOnUse">
<stop stop-color="#3E0E19"/>
<stop offset="1" stop-color="#683131"/>
</linearGradient>
<linearGradient id="paint7_linear_16_562" x1="435.2" y1="443.8" x2="435.2" y2="375.5" gradientUnits="userSpaceOnUse">
<stop stop-color="#3E0E19"/>
<stop offset="1" stop-color="#31074B"/>
</linearGradient>
<linearGradient id="paint8_linear_16_562" x1="288.899" y1="471.7" x2="288.899" y2="313.3" gradientUnits="userSpaceOnUse">
<stop stop-color="#E5602F"/>
<stop offset="1" stop-color="#FFA400"/>
</linearGradient>
<linearGradient id="paint9_linear_16_562" x1="104.1" y1="366.6" x2="104.1" y2="88.6999" gradientUnits="userSpaceOnUse">
<stop stop-color="#FF962F"/>
<stop offset="1" stop-color="#FFC700"/>
</linearGradient>
<linearGradient id="paint10_linear_16_562" x1="309.299" y1="472.2" x2="309.299" y2="320.4" gradientUnits="userSpaceOnUse">
<stop offset="0.006" stop-color="#982F00"/>
<stop offset="1" stop-color="#E36B00"/>
</linearGradient>
<linearGradient id="paint11_linear_16_562" x1="216.399" y1="321.3" x2="216.399" y2="184.2" gradientUnits="userSpaceOnUse">
<stop stop-color="#F28727"/>
<stop offset="1" stop-color="#C72200"/>
</linearGradient>
<radialGradient id="paint12_radial_16_562" cx="0" cy="0" r="1" gradientUnits="userSpaceOnUse" gradientTransform="translate(280.4 250.7) scale(65.8)">
<stop offset="0.469" stop-color="white"/>
<stop offset="0.802" stop-color="#FFE5DD"/>
<stop offset="1" stop-color="#E3AAD7"/>
</radialGradient>
<linearGradient id="paint13_linear_16_562" x1="-8.80057" y1="338.1" x2="-8.80057" y2="185.1" gradientUnits="userSpaceOnUse">
<stop stop-color="#F28727"/>
<stop offset="1" stop-color="#C72200"/>
</linearGradient>
<radialGradient id="paint14_radial_16_562" cx="0" cy="0" r="1" gradientUnits="userSpaceOnUse" gradientTransform="translate(49.6993 243.9) scale(47.6 47.6)">
<stop offset="0.469" stop-color="white"/>
<stop offset="0.802" stop-color="#FFE5DD"/>
<stop offset="1" stop-color="#E3AAD7"/>
</radialGradient>
<linearGradient id="paint15_linear_16_562" x1="233" y1="312.5" x2="233" y2="198.7" gradientUnits="userSpaceOnUse">
<stop stop-color="#683155"/>
<stop offset="1" stop-color="#3E0E19"/>
</linearGradient>
<linearGradient id="paint16_linear_16_562" x1="-32.4004" y1="306.4" x2="-32.4004" y2="200.7" gradientUnits="userSpaceOnUse">
<stop stop-color="#683155"/>
<stop offset="1" stop-color="#3E0E19"/>
</linearGradient>
<linearGradient id="paint17_linear_16_562" x1="145.799" y1="324.9" x2="145.799" y2="296.4" gradientUnits="userSpaceOnUse">
<stop offset="0.006" stop-color="#862200"/>
<stop offset="1" stop-color="#C23600"/>
</linearGradient>
<linearGradient id="paint18_linear_16_562" x1="91.5997" y1="233.8" x2="83.3997" y2="165.4" gradientUnits="userSpaceOnUse">
<stop stop-color="#3E0E19"/>
<stop offset="1" stop-color="#31074B"/>
</linearGradient>
<linearGradient id="paint19_linear_16_562" x1="307.099" y1="229" x2="307.099" y2="169.4" gradientUnits="userSpaceOnUse">
<stop stop-color="#3E0E19"/>
<stop offset="1" stop-color="#31074B"/>
</linearGradient>
<linearGradient id="paint20_linear_16_562" x1="281.4" y1="275.6" x2="243.1" y2="176.5" gradientUnits="userSpaceOnUse">
<stop stop-color="#A69CEA"/>
<stop offset="1" stop-color="#DE27B3"/>
</linearGradient>
<linearGradient id="paint21_linear_16_562" x1="46.1" y1="248.9" x2="22.6" y2="187.9" gradientUnits="userSpaceOnUse">
<stop stop-color="#A69CEA"/>
<stop offset="1" stop-color="#DE27B3"/>
</linearGradient>
<linearGradient id="paint22_linear_16_562" x1="212.199" y1="334.1" x2="364.999" y2="334.1" gradientUnits="userSpaceOnUse">
<stop stop-color="#8B0081"/>
<stop offset="1" stop-color="#B842FF"/>
</linearGradient>
<linearGradient id="paint23_linear_16_562" x1="179.1" y1="452" x2="56.0998" y2="133.1" gradientUnits="userSpaceOnUse">
<stop stop-color="#8B0081"/>
<stop offset="1" stop-color="#B842FF"/>
</linearGradient>
<linearGradient id="paint24_linear_16_562" x1="303.1" y1="140.4" x2="303.1" y2="109.9" gradientUnits="userSpaceOnUse">
<stop stop-color="#8B0081"/>
<stop offset="1" stop-color="#B842FF"/>
</linearGradient>
<linearGradient id="paint25_linear_16_562" x1="204.4" y1="125.2" x2="204.4" y2="0.499904" gradientUnits="userSpaceOnUse">
<stop stop-color="#630E19"/>
<stop offset="1" stop-color="#8B311B"/>
</linearGradient>
<linearGradient id="paint26_linear_16_562" x1="284.4" y1="9.69995" x2="352.6" y2="9.69995" gradientUnits="userSpaceOnUse">
<stop stop-color="#8B0081"/>
<stop offset="1" stop-color="#B842FF"/>
</linearGradient>
<linearGradient id="paint27_linear_16_562" x1="325.4" y1="471.7" x2="325.4" y2="339.1" gradientUnits="userSpaceOnUse">
<stop stop-color="#8B0081"/>
<stop offset="1" stop-color="#B842FF"/>
</linearGradient>
<linearGradient id="paint28_linear_16_562" x1="87.4993" y1="454.4" x2="315.899" y2="454.4" gradientUnits="userSpaceOnUse">
<stop stop-color="#9F423B"/>
<stop offset="1" stop-color="#702019"/>
</linearGradient>
<linearGradient id="paint29_linear_16_562" x1="178.399" y1="634.4" x2="178.399" y2="540.6" gradientUnits="userSpaceOnUse">
<stop stop-color="#8B0081"/>
<stop offset="1" stop-color="#DFA9FF"/>
</linearGradient>
<linearGradient id="paint30_linear_16_562" x1="128.7" y1="428" x2="274.6" y2="428" gradientUnits="userSpaceOnUse">
<stop stop-color="#702019"/>
<stop offset="1" stop-color="#9F423B"/>
</linearGradient>
<linearGradient id="paint31_linear_16_562" x1="177.599" y1="537.9" x2="177.599" y2="370.9" gradientUnits="userSpaceOnUse">
<stop stop-color="#3E0E19"/>
<stop offset="1" stop-color="#683131"/>
</linearGradient>
<linearGradient id="paint32_linear_16_562" x1="-12.4999" y1="717.5" x2="-12.4999" y2="453.4" gradientUnits="userSpaceOnUse">
<stop stop-color="#FFC000"/>
<stop offset="1" stop-color="#FF602F"/>
</linearGradient>
<linearGradient id="paint33_linear_16_562" x1="208.699" y1="537.9" x2="208.699" y2="389.9" gradientUnits="userSpaceOnUse">
<stop stop-color="#8B0081"/>
<stop offset="1" stop-color="#B842FF"/>
</linearGradient>
<linearGradient id="paint34_linear_16_562" x1="266.5" y1="471.9" x2="266.5" y2="396.3" gradientUnits="userSpaceOnUse">
<stop stop-color="#8B0081"/>
<stop offset="1" stop-color="#B842FF"/>
</linearGradient>
<linearGradient id="paint35_linear_16_562" x1="189.2" y1="402.6" x2="189.2" y2="366.5" gradientUnits="userSpaceOnUse">
<stop stop-color="#8B0081"/>
<stop offset="1" stop-color="#B842FF"/>
</linearGradient>
<linearGradient id="paint36_linear_16_562" x1="89.4997" y1="317.9" x2="78.6997" y2="299.2" gradientUnits="userSpaceOnUse">
<stop stop-color="white"/>
<stop offset="1" stop-color="#8B0081"/>
</linearGradient>
<linearGradient id="paint37_linear_16_562" x1="193.3" y1="317.5" x2="180.5" y2="295.4" gradientUnits="userSpaceOnUse">
<stop stop-color="white"/>
<stop offset="1" stop-color="#8B0081"/>
</linearGradient>
<linearGradient id="paint38_linear_16_562" x1="117.899" y1="308.8" x2="169.999" y2="308.8" gradientUnits="userSpaceOnUse">
<stop stop-color="#FFBE8C"/>
<stop offset="1" stop-color="#FFE5BC"/>
</linearGradient>
<linearGradient id="paint39_linear_16_562" x1="294.2" y1="318" x2="269" y2="274.4" gradientUnits="userSpaceOnUse">
<stop/>
<stop offset="1" stop-color="#39FFFF"/>
</linearGradient>
<linearGradient id="paint40_linear_16_562" x1="48.3996" y1="311.5" x2="28.1996" y2="276.6" gradientUnits="userSpaceOnUse">
<stop/>
<stop offset="1" stop-color="#39FFFF"/>
</linearGradient>
<linearGradient id="paint41_linear_16_562" x1="192.499" y1="467.8" x2="192.499" y2="427.9" gradientUnits="userSpaceOnUse">
<stop stop-color="#FF9FFF"/>
<stop offset="1" stop-color="#8B0081"/>
</linearGradient>
<linearGradient id="paint42_linear_16_562" x1="10.8001" y1="717.5" x2="10.8001" y2="469.5" gradientUnits="userSpaceOnUse">
<stop stop-color="#A90081"/>
<stop offset="1" stop-color="white"/>
</linearGradient>
<linearGradient id="paint43_linear_16_562" x1="4.19929" y1="680.8" x2="4.19929" y2="459.9" gradientUnits="userSpaceOnUse">
<stop stop-color="#FFCCC8"/>
<stop offset="1" stop-color="#CF0081"/>
</linearGradient>
<linearGradient id="paint44_linear_16_562" x1="107.1" y1="469.2" x2="184.1" y2="469.2" gradientUnits="userSpaceOnUse">
<stop stop-color="#39FFFF"/>
<stop offset="1"/>
</linearGradient>
<linearGradient id="paint45_linear_16_562" x1="139" y1="568" x2="139" y2="461.5" gradientUnits="userSpaceOnUse">
<stop stop-color="#DFA9FF"/>
<stop offset="1" stop-color="#8B0081"/>
</linearGradient>
<linearGradient id="paint46_linear_16_562" x1="86.1997" y1="93.2998" x2="114.6" y2="93.2998" gradientUnits="userSpaceOnUse">
<stop stop-color="#C62A96"/>
<stop offset="1" stop-color="white"/>
</linearGradient>
<linearGradient id="paint47_linear_16_562" x1="165.399" y1="44.3999" x2="195.199" y2="44.3999" gradientUnits="userSpaceOnUse">
<stop stop-color="#C62A96"/>
<stop offset="1" stop-color="white"/>
</linearGradient>
<linearGradient id="paint48_linear_16_562" x1="90.9997" y1="41.3999" x2="146" y2="41.3999" gradientUnits="userSpaceOnUse">
<stop stop-color="#C62A96"/>
<stop offset="1" stop-color="white"/>
</linearGradient>
</defs>
</svg>
