<svg version="1.2" xmlns="http://www.w3.org/2000/svg" viewBox="0 0 595 643" width="595" height="643">
	<title>vecteezy_cute-bee-emotion-mascot-cartoon-happy-character_24592398-ai</title>
	<defs>
		<linearGradient id="g1" x1="32.4" y1="429.1" x2="32.4" y2="236.7" gradientUnits="userSpaceOnUse">
			<stop offset="0" stop-color="#b6ecc2"/>
			<stop offset="1" stop-color="#909fdc"/>
		</linearGradient>
		<linearGradient id="g2" x1="388.7" y1="432.7" x2="388.7" y2="236.7" gradientUnits="userSpaceOnUse">
			<stop offset="0" stop-color="#b6ecc2"/>
			<stop offset="1" stop-color="#909fdc"/>
		</linearGradient>
		<linearGradient id="g3" x1="54.2" y1="429.1" x2="54.2" y2="307.1" gradientUnits="userSpaceOnUse">
			<stop offset="0" stop-color="#5c60b5"/>
			<stop offset="1" stop-color="#ffffff"/>
		</linearGradient>
		<linearGradient id="g4" x1="464.2" y1="432.7" x2="464.2" y2="314.2" gradientUnits="userSpaceOnUse">
			<stop offset="0" stop-color="#5c60b5"/>
			<stop offset="1" stop-color="#ffffff"/>
		</linearGradient>
		<linearGradient id="g5" x1="276.8" y1="404.4" x2="276.8" y2="293.5" gradientUnits="userSpaceOnUse">
			<stop offset="0" stop-color="#5b8eff"/>
			<stop offset="1" stop-color="#1d0090"/>
		</linearGradient>
		<linearGradient id="g6" x1="120.5" y1="117.4" x2="120.5" y2="44.4" gradientUnits="userSpaceOnUse">
			<stop offset="0" stop-color="#630e19"/>
			<stop offset="1" stop-color="#8b311b"/>
		</linearGradient>
		<linearGradient id="g7" x1="458.1" y1="124.9" x2="458.1" y2="53.8" gradientUnits="userSpaceOnUse">
			<stop offset="0" stop-color="#630e19"/>
			<stop offset="1" stop-color="#8b311b"/>
		</linearGradient>
		<linearGradient id="g8" x1="419" y1="57.5" x2="539.3" y2="57.5" gradientUnits="userSpaceOnUse">
			<stop offset="0" stop-color="#8b0081"/>
			<stop offset="1" stop-color="#b842ff"/>
		</linearGradient>
		<linearGradient id="g9" x1="83.2" y1="46.4" x2="202.5" y2="46.4" gradientUnits="userSpaceOnUse">
			<stop offset="0" stop-color="#8b0081"/>
			<stop offset="1" stop-color="#b842ff"/>
		</linearGradient>
		<linearGradient id="g10" x1="299.6" y1="547" x2="315.3" y2="501.7" gradientUnits="userSpaceOnUse">
			<stop offset="0" stop-color="#3e0e19"/>
			<stop offset="1" stop-color="#31074b"/>
		</linearGradient>
		<linearGradient id="g11" x1="165.2" y1="485.1" x2="235.7" y2="281.9" gradientUnits="userSpaceOnUse">
			<stop offset="0" stop-color="#e5602f"/>
			<stop offset="1" stop-color="#ffa400"/>
		</linearGradient>
		<linearGradient id="g12" x1="235.9" y1="496.6" x2="282.9" y2="361.2" gradientUnits="userSpaceOnUse">
			<stop offset=".006" stop-color="#982f00"/>
			<stop offset="1" stop-color="#e36b00"/>
		</linearGradient>
		<linearGradient id="g13" x1="204" y1="338.4" x2="204" y2="61.5" gradientUnits="userSpaceOnUse">
			<stop offset="0" stop-color="#ff962f"/>
			<stop offset="1" stop-color="#ffc700"/>
		</linearGradient>
		<linearGradient id="g14" x1="112.5" y1="303.6" x2="112.5" y2="138.8" gradientUnits="userSpaceOnUse">
			<stop offset="0" stop-color="#ff9d2f"/>
			<stop offset="1" stop-color="#ffc713"/>
		</linearGradient>
		<linearGradient id="g15" x1="491.5" y1="303.2" x2="491.5" y2="139.6" gradientUnits="userSpaceOnUse">
			<stop offset="0" stop-color="#ff9d2f"/>
			<stop offset="1" stop-color="#ffc713"/>
		</linearGradient>
		<linearGradient id="g16" x1="292" y1="282" x2="292" y2="235" gradientUnits="userSpaceOnUse">
			<stop offset=".006" stop-color="#862200"/>
			<stop offset="1" stop-color="#c23600"/>
		</linearGradient>
		<linearGradient id="g17" x1="445.9" y1="253.5" x2="445.9" y2="205.5" gradientUnits="userSpaceOnUse">
			<stop offset="0" stop-color="#3e0e19"/>
			<stop offset="1" stop-color="#683131"/>
		</linearGradient>
		<linearGradient id="g18" x1="159.9" y1="253.5" x2="159.9" y2="205.5" gradientUnits="userSpaceOnUse">
			<stop offset="0" stop-color="#3e0e19"/>
			<stop offset="1" stop-color="#683131"/>
		</linearGradient>
		<linearGradient id="g19" x1="99.1" y1="631.2" x2="99.1" y2="368.4" gradientUnits="userSpaceOnUse">
			<stop offset="0" stop-color="#005e54"/>
			<stop offset="1" stop-color="#438b6d"/>
		</linearGradient>
		<linearGradient id="g20" x1="195.6" y1="498.3" x2="195.6" y2="363.9" gradientUnits="userSpaceOnUse">
			<stop offset="0" stop-color="#3e0e19"/>
			<stop offset="1" stop-color="#683131"/>
		</linearGradient>
		<linearGradient id="g21" x1="315.4" y1="480.6" x2="315.4" y2="356.3" gradientUnits="userSpaceOnUse">
			<stop offset="0" stop-color="#3e0e19"/>
			<stop offset="1" stop-color="#683131"/>
		</linearGradient>
		<linearGradient id="g22" x1="104.9" y1="229.5" x2="204" y2="229.5" gradientUnits="userSpaceOnUse">
			<stop offset="0" stop-color="#a69cea"/>
			<stop offset="1" stop-color="#de27b3"/>
		</linearGradient>
		<linearGradient id="g23" x1="399.1" y1="228.5" x2="500.6" y2="228.5" gradientUnits="userSpaceOnUse">
			<stop offset="0" stop-color="#a69cea"/>
			<stop offset="1" stop-color="#de27b3"/>
		</linearGradient>
		<linearGradient id="g24" x1="350.5" y1="258.1" x2="337.8" y2="235.9" gradientUnits="userSpaceOnUse">
			<stop offset="0" stop-color="#ffffff"/>
			<stop offset="1" stop-color="#8b0081"/>
		</linearGradient>
		<linearGradient id="g25" x1="251.2" y1="258.1" x2="264" y2="235.9" gradientUnits="userSpaceOnUse">
			<stop offset="0" stop-color="#ffffff"/>
			<stop offset="1" stop-color="#8b0081"/>
		</linearGradient>
		<linearGradient id="g26" x1="290.9" y1="338.4" x2="290.9" y2="257.4" gradientUnits="userSpaceOnUse">
			<stop offset="0" stop-color="#8b0081"/>
			<stop offset="1" stop-color="#b842ff"/>
		</linearGradient>
		<linearGradient id="g27" x1="250.7" y1="491.9" x2="250.7" y2="285.8" gradientUnits="userSpaceOnUse">
			<stop offset="0" stop-color="#ffbe8c"/>
			<stop offset="1" stop-color="#fff6e8"/>
		</linearGradient>
		<linearGradient id="g28" x1="291" y1="395.4" x2="291" y2="329.6" gradientUnits="userSpaceOnUse">
			<stop offset="0" stop-color="#ff892f"/>
			<stop offset="1" stop-color="#ffb500"/>
		</linearGradient>
		<linearGradient id="g29" x1="289.6" y1="401" x2="289.6" y2="342" gradientUnits="userSpaceOnUse">
			<stop offset="0" stop-color="#8b0081"/>
			<stop offset="1" stop-color="#b842ff"/>
		</linearGradient>
		<linearGradient id="g30" x1="163.1" y1="447.9" x2="163.1" y2="370.5" gradientUnits="userSpaceOnUse">
			<stop offset="0" stop-color="#8b0081"/>
			<stop offset="1" stop-color="#ff86a4"/>
		</linearGradient>
		<linearGradient id="g31" x1="154.9" y1="363.9" x2="154.9" y2="311.6" gradientUnits="userSpaceOnUse">
			<stop offset="0" stop-color="#8b0081"/>
			<stop offset="1" stop-color="#ff86a4"/>
		</linearGradient>
		<linearGradient id="g32" x1="293.4" y1="491.9" x2="293.4" y2="403.5" gradientUnits="userSpaceOnUse">
			<stop offset="0" stop-color="#8b0081"/>
			<stop offset="1" stop-color="#ff86a4"/>
		</linearGradient>
		<linearGradient id="g33" x1="392.1" y1="361.9" x2="392.1" y2="297.4" gradientUnits="userSpaceOnUse">
			<stop offset="0" stop-color="#8b0081"/>
			<stop offset="1" stop-color="#ff86a4"/>
		</linearGradient>
		<linearGradient id="g34" x1="427.7" y1="438.6" x2="427.7" y2="393.9" gradientUnits="userSpaceOnUse">
			<stop offset="0" stop-color="#8b0081"/>
			<stop offset="1" stop-color="#ff86a4"/>
		</linearGradient>
		<linearGradient id="g35" x1="321" y1="482.6" x2="378.9" y2="482.6" gradientUnits="userSpaceOnUse">
			<stop offset="0" stop-color="#8b6d81"/>
			<stop offset="1" stop-color="#6d86ff"/>
		</linearGradient>
		<linearGradient id="g36" x1="293.9" y1="14.4" x2="369.6" y2="14.4" gradientUnits="userSpaceOnUse">
			<stop offset="0" stop-color="#ffffff"/>
			<stop offset="1" stop-color="#c62a96"/>
		</linearGradient>
		<linearGradient id="g37" x1="346.6" y1="55.4" x2="410.3" y2="55.4" gradientUnits="userSpaceOnUse">
			<stop offset="0" stop-color="#ffffff"/>
			<stop offset="1" stop-color="#c62a96"/>
		</linearGradient>
	</defs>
	<style>
		.s0 { fill: url(#g1) } 
		.s1 { fill: url(#g2) } 
		.s2 { opacity: .6;mix-blend-mode: multiply;fill: url(#g3) } 
		.s3 { opacity: .6;mix-blend-mode: multiply;fill: url(#g4) } 
		.s4 { opacity: .6;mix-blend-mode: multiply;fill: url(#g5) } 
		.s5 { fill: url(#g6) } 
		.s6 { fill: url(#g7) } 
		.s7 { opacity: .5;mix-blend-mode: multiply;fill: url(#g8) } 
		.s8 { opacity: .5;mix-blend-mode: multiply;fill: url(#g9) } 
		.s9 { fill: url(#g10) } 
		.s10 { fill: url(#g11) } 
		.s11 { fill: url(#g12) } 
		.s12 { fill: url(#g13) } 
		.s13 { fill: url(#g14) } 
		.s14 { fill: url(#g15) } 
		.s15 { fill: url(#g16) } 
		.s16 { fill: url(#g17) } 
		.s17 { fill: url(#g18) } 
		.s18 { fill: url(#g19) } 
		.s19 { fill: url(#g20) } 
		.s20 { fill: url(#g21) } 
		.s21 { opacity: .8;mix-blend-mode: multiply;fill: url(#g22) } 
		.s22 { opacity: .8;mix-blend-mode: multiply;fill: url(#g23) } 
		.s23 { opacity: .7;mix-blend-mode: multiply;fill: url(#g24) } 
		.s24 { opacity: .7;mix-blend-mode: multiply;fill: url(#g25) } 
		.s25 { fill: #ffd142 } 
		.s26 { opacity: .9;mix-blend-mode: soft-light;fill: #ffa96f } 
		.s27 { opacity: .9;mix-blend-mode: soft-light;fill: #ffffff } 
		.s28 { opacity: .5;mix-blend-mode: multiply;fill: url(#g26) } 
		.s29 { fill: url(#g27) } 
		.s30 { fill: url(#g28) } 
		.s31 { opacity: .5;mix-blend-mode: multiply;fill: url(#g29) } 
		.s32 { opacity: .4;mix-blend-mode: multiply;fill: url(#g30) } 
		.s33 { opacity: .4;mix-blend-mode: multiply;fill: url(#g31) } 
		.s34 { opacity: .4;mix-blend-mode: multiply;fill: url(#g32) } 
		.s35 { opacity: .4;mix-blend-mode: multiply;fill: url(#g33) } 
		.s36 { opacity: .4;mix-blend-mode: multiply;fill: url(#g34) } 
		.s37 { mix-blend-mode: multiply;fill: url(#g35) } 
		.s38 { fill: #7effea } 
		.s39 { opacity: .9;mix-blend-mode: soft-light;fill: #acffea } 
		.s40 { fill: #ffe84a } 
		.s41 { opacity: .4;mix-blend-mode: soft-light;fill: #ffa96f } 
		.s42 { opacity: .5;mix-blend-mode: multiply;fill: url(#g36) } 
		.s43 { opacity: .5;mix-blend-mode: multiply;fill: url(#g37) } 
	</style>
	<g id="_Artboards_">
	</g>
	<g id="background">
	</g>
	<g id="objects">
		<g id="&lt;Group&gt;">
			<g id="&lt;Group&gt;">
				<path id="&lt;Path&gt;" class="s0" d="m225.9 400.9c0.2 10.7-18.1 18.4-42.7 23.1-41.4 7.8-100.3 6.8-116.3-3.9-40-26.8-55.6-73.3-54.7-113 0.8-30.3 11.1-56.6 27.6-67 26-16.5 182.4 24.3 186.1 160.8z"/>
				<path id="&lt;Path&gt;" class="s1" d="m539.3 424.8c-13.5 9.1-61 9.9-102.7 4.4h-0.2c-37-4.9-69.4-14.8-69.1-28.3 3.7-136.5 160-177.3 186.1-160.8 17.3 10.9 29.9 40.7 32.1 74.1 2.7 40.2-9.5 85.7-46.2 110.6z"/>
				<path id="&lt;Path&gt;" class="s2" d="m183.2 424c-41.4 7.8-100.3 6.8-116.3-3.9-40-26.8-55.6-73.3-54.7-113h0.1c0 0 11.7 71.1 56.3 96.4 36.5 20.8 94.8 21.1 114.6 20.5z"/>
				<path id="&lt;Path&gt;" class="s3" d="m539.3 424.8c-13.5 9.1-61 9.9-102.7 4.4 8.9 0.9 70.8 5.6 110.7-33.8 29.1-28.9 36.5-62.5 38.2-81.2 2.7 40.2-9.5 85.7-46.2 110.6z"/>
				<path id="&lt;Path&gt;" class="s4" d="m113.7 293.5c-14.5 19.7 22.5 83.5 82 101.1 59.6 17.7 196.5 10.9 238.9-15.1 42.5-26 42-82.1 42-82.1z"/>
				<path id="&lt;Path&gt;" class="s5" d="m197.5 107.5c-5.4 7.3-34.5 16.8-65 2.5-30.5-14.2-64.5-51.8-42.1-63.6 17.4-9.2 70.8 16 96.8 31.3 7.5 4.4 12.7 8 14.1 9.7 2.2 2.7 1.7 12.9-3.8 20.1z"/>
				<path id="&lt;Path&gt;" class="s6" d="m488.4 118.5c-30.8 13.3-59.7 3-64.9-4.4-5.2-7.4-5.4-17.6-3.1-20.3 1.8-2.1 9.9-7.1 21.2-12.9 28-14.4 75.1-33.7 90.8-24.8q1.2 0.7 2.2 1.4c17.3 13.6-16.4 48.1-46.2 61z"/>
				<path id="&lt;Path&gt;" class="s7" d="m488.4 118.5c-30.8 13.3-59.7 3-64.9-4.4-5.2-7.4-5.4-17.6-3.1-20.3 1.8-2.1 9.9-7.1 21.2-12.9-21.2 13 18.5 37.2 58.9 18.7 23.6-10.7 31.5-28.8 34.1-42.1 17.3 13.6-16.4 48.1-46.2 61z"/>
				<path id="&lt;Path&gt;" class="s8" d="m197.5 107.5c-5.4 7.3-34.5 16.8-65 2.5-30.5-14.2-64.5-51.8-42.1-63.6-6.8 43.8 87.9 51.2 96.8 31.3 7.5 4.4 12.7 8 14.1 9.7 2.2 2.7 1.7 12.9-3.8 20.1z"/>
				<path id="&lt;Path&gt;" class="s9" d="m276.8 522.8c0 0 40.5 31.7 53 34.6 12.6 2.9 38.6-37.3 38.6-37.3 0 0-62.6 12.3-91.6 2.7z"/>
				<path id="&lt;Path&gt;" class="s10" d="m245.2 318.7c2 14.9-51.7 165.6 36.9 206.3 38.5 17.6 73.9 14.1 96.3-13.7 29.2-36.3 37.4-106.4 14.3-149.4-40.9-76.1-147.5-43.2-147.5-43.2z"/>
				<path id="&lt;Path&gt;" class="s11" d="m230.2 415.3c0 0 8.9 39.7 81.1 47.2 71.6 7.4 93.7-59 93.7-59 0 0 7.1 63.7-19.5 97.7 0 0-60.4 34.6-133.6-0.2 0 0-28.8-40.7-21.7-85.7z"/>
				<path id="&lt;Path&gt;" class="s12" d="m500.3 264.4c-0.4 7.9-1.3 15-2.6 21-13.2 62.6-130.3 47.2-215.6 50.5-34.6 1.3-169 16.8-182.3-49.8-1.8-8.6-2.4-18.3-2-28.7 3.2-75.9 63.6-189.5 183.6-195.5 183.5-9 222.7 129.5 218.9 202.5z"/>
				<path id="&lt;Path&gt;" class="s13" d="m212.7 219c-8.4 34.9-38.2 59.4-66.7 54.7-28.4-4.6-44.6-36.7-36.2-71.7 8.3-34.9 38.2-59.4 66.6-54.7 28.4 4.6 44.6 36.7 36.3 71.7z"/>
				<path id="&lt;Path&gt;" class="s14" d="m391.8 219c8.2 34.9 37.3 59.4 65 54.7 27.8-4.6 43.6-36.7 35.5-71.7-8.2-34.9-37.3-59.4-65.1-54.7-27.7 4.6-43.6 36.7-35.4 71.7z"/>
				<path id="&lt;Path&gt;" class="s15" d="m246.8 235c0 0 23.8 32.7 52.3 34.3 30.8 1.7 58.1-30.5 58.1-30.5 0 0-25.7 44.9-58.1 43.2-33.5-1.7-52.3-47-52.3-47z"/>
				<path id="&lt;Path&gt;" class="s16" d="m391.8 219c0 0 25.9 23.1 65.5 16.5 39.6-6.6 35.7-30 35.7-30 0 0 17.8-0.5 23.7 5 5.9 5.5-4.9 43-62.1 43-41.8 0-62.8-34.5-62.8-34.5z"/>
				<path id="&lt;Path&gt;" class="s17" d="m213.7 219c0 0-25.8 23.1-65.4 16.5-39.6-6.6-35.8-30-35.8-30 0 0-17.7-0.5-23.6 5-5.9 5.5 15 41.6 56.8 43 41.8 1.3 68-34.5 68-34.5z"/>
				<path id="&lt;Path&gt;" class="s18" d="m308.1 368.4c0 0-10 193 98 259.6 15.7 9.7 31-4.2 28.2-25-2.7-20.9-92.2-77.3-107.9-234.6z"/>
				<path id="&lt;Path&gt;" class="s19" d="m230.9 363.9c0 0-55.7 34.7-36.9 91.7 18.7 57 142.2 46.3 136 28.6-6.3-17.7-86-26.1-91.2-60.5-5.2-34.3 5.8-59.8 5.8-59.8z"/>
				<path id="&lt;Path&gt;" class="s20" d="m389.5 356.3c0 0 49.9 22 55.5 72.1 5.6 50-83.6 55.9-91.2 50.6-7.7-5.2 42.2-39.2 47.2-66.2 5-27-11.5-56.5-11.5-56.5z"/>
				<path id="&lt;Path&gt;" class="s21" d="m104.9 238.5c0 0 13.4 30.5 45.9 28 32.5-2.6 53.2-37 53.2-37 0 0-17.7 17.3-53.2 20.4-35.5 3.2-45.9-11.4-45.9-11.4z"/>
				<path id="&lt;Path&gt;" class="s22" d="m399.1 228.5c0 0 28 36.4 59.8 35.4 31.7-1.1 41.7-22.3 41.7-22.3 0 0-23.2 15-50.8 9.8-27.5-5.3-50.7-22.9-50.7-22.9z"/>
				<path id="&lt;Path&gt;" class="s23" d="m348.8 230.9c0 0 11.2 6.7 13.8 18.4 0 0 5.8-15.3 1.3-18.4-4.4-3.1-15.1 0-15.1 0z"/>
				<path id="&lt;Path&gt;" class="s24" d="m253 230.9c0 0-11.2 6.7-13.8 18.4 0 0-5.8-15.3-1.4-18.4 4.5-3.1 15.2 0 15.2 0z"/>
				<path id="&lt;Path&gt;" class="s25" d="m253 249.3c0 0 18.5 32.7 46.1 32.7 27.6 0 45.4-25.7 45.4-25.7 0 0-14.3 28.5-45.8 29.5-31.4 1-45.7-36.5-45.7-36.5z"/>
				<path id="&lt;Path&gt;" class="s26" d="m190.1 112.7c-29.2 53.8 210.6 65.6 222.4 9.7 11.8-55.8-182.2-83.8-222.4-9.7z"/>
				<path id="&lt;Path&gt;" class="s27" d="m330.2 89.4c-18.4 20 16.7 31.3 22.8 15.4 6-16-17.2-21.6-22.8-15.4z"/>
				<path id="&lt;Path&gt;" class="s28" d="m500.3 264.4c-0.4 7.9-1.3 15-2.6 21-13.2 62.6-130.3 47.2-215.6 50.5-34.6 1.3-169 16.8-182.3-49.8-1.8-8.6-2.4-18.3-2-28.7 0.5 2 16.7 66.9 197.3 66.9 173.5 0 202.6-54.1 205.2-59.9z"/>
				<path id="&lt;Path&gt;" class="s29" d="m504.7 399.6q0.1 0.1 0 0.1c-3.7 23.3-30 44.5-62.7 37.6-30.6-6.4-59.9-28.8-71.7-38.7l-0.4-0.3q-0.6-0.5-1.1-1c6 5.9 17.4 18.6 19.9 34.6 1.3 8.2 0.3 17.3-5 26.8-19.6 34.7-89.9 43.7-116.3 19.8-20.3-18.5-8.3-57.8-1.7-74.9v-0.1c1.4-3.6 2.6-6.3 3.1-7.5-0.8 1.6-2.9 5.5-6.5 10.6q0 0-0.1 0.1c-12 16.5-40.6 44.8-93.7 40.8-74.4-5.7-81.3-66.6-48.7-77 15.7-5 37.2-6.7 55.5-7.2 14.5-0.3 26.9 0.1 32.5 0.4-6.6-0.5-22.9-2.4-41.6-9.1-32.2-11.5-43.3-29.3-17.2-43 5.6-2.9 13-5.6 22.2-8.1 67.4-17.7 115.7 31.9 122.7 50.2 0 0 12.1-31.2 36.4-53.1 20.5-18.4 87.4-19.8 114.6-3.2 5 3.1 8.7 6.9 10.5 11.2 7.2 18.2-21.2 34.2-41.7 43.1-10.9 4.7-19.7 7.4-19.7 7.4 0 0 102.4-1.8 110 25.9 1.4 4.9 1.5 9.8 0.7 14.6z"/>
				<path id="&lt;Path&gt;" class="s30" d="m244.7 358.8c-3 17.3 38 44.9 94.8 34.2 56.8-10.7 29.2-58.6-14-62.8-43.3-4.1-78.2 13.5-80.8 28.6z"/>
				<path id="&lt;Path&gt;" class="s31" d="m260.1 342c-22.2 16.7 18 52.8 70.1 45.5 52.1-7.3 37.1-33.7 37.1-33.7 0 0 11.1 12.5 11.1 23 0 10.4-43.7 32.3-115.3 21.1-71.5-11.1-30.2-51.5-3-55.9z"/>
				<path id="&lt;Path&gt;" class="s32" d="m262.2 406.7c-12 16.5-40.6 44.8-93.7 40.8-74.4-5.7-81.3-66.6-48.7-77-19.2 10.1-10.8 55.6 45.6 65 54.8 9.1 94.6-26.8 96.8-28.8z"/>
				<path id="&lt;Path&gt;" class="s33" d="m149 311.6c-22.8 14.1 62 52.3 62 52.3q0 0-0.6-0.1-0.3 0-0.9 0c0 0-0.1 0-0.2 0h-0.1c-4.7-0.2-18.4-0.7-33.9-0.5 14.5-0.3 26.9 0.1 32.5 0.4-6.6-0.5-22.9-2.4-41.6-9.1-32.2-11.5-43.3-29.3-17.2-43z"/>
				<path id="&lt;Path&gt;" class="s34" d="m388.7 431.9c1.3 8.2 0.3 17.3-5 26.8-19.6 34.7-89.9 43.7-116.3 19.8-20.3-18.5-8.3-57.8-1.7-74.9v-0.1c0 0-25.5 70.2 33 77.1 25.8 3.1 54.6 1.4 68.6-9.9 15.7-12.6 19.6-35.4 21.4-38.8z"/>
				<path id="&lt;Path&gt;" class="s35" d="m413.7 351.7l-21 10.2c0 0 44.7-29.7 55.2-44 3.6-4.9-0.1-14.9-3-20.5 5 3.1 8.7 6.9 10.5 11.2 7.2 18.2-21.2 34.2-41.7 43.1z"/>
				<path id="&lt;Path&gt;" class="s36" d="m504.7 399.7c-3.7 23.3-30 44.5-62.7 37.6-30.6-6.4-59.9-28.8-71.7-38.7l-0.4-0.3-1.9-1.7-0.1-0.1-2.6-2.2-0.2-0.2-0.1-0.1-0.1-0.1q0 0 0.1 0.1c3.2 2 60.3 44.6 106.9 35.1 19.3-3.9 28.9-19.1 32.8-29.4z"/>
				<path id="&lt;Path&gt;" class="s37" d="m354 574.7c0 0 23.9 15.3 24.9-47.6 0 0-16.2-23-23.6-44.5l-29.4 8.3-4.9 2.2c0 0 9.2 46.1 33 81.6z"/>
				<path id="&lt;Path&gt;" class="s38" d="m508.4 240.2c0 0 25.7-3.9 44 6 18.2 9.8 28.8 40.6 28.8 40.6 0 0-7.9-34.7-23.9-47.3-12.5-10-48.9 0.7-48.9 0.7z"/>
				<path id="&lt;Path&gt;" class="s26" d="m275.2 335.3c-10.1 10.4 13.5 49.6 63.6 38.2 50-11.5 16.1-40.1-18.2-43.2-34.4-3-45.4 5-45.4 5z"/>
				<path id="&lt;Path&gt;" class="s27" d="m321.7 356.1c-8 6.9 7.4 17.6 16.7 7.4 9.4-10.1-10.2-12.9-16.7-7.4z"/>
				<path id="&lt;Path&gt;" class="s39" d="m63.7 352.3c-31.2-22.9-44 8.8-16.9 32.1 27.1 23.3 31.5-21.3 16.9-32.1z"/>
				<path id="&lt;Path&gt;" class="s40" d="m412.8 86.8c-0.3-0.2-1.8-0.9-4.5-2-17.9-7.5-87-32.3-173.7-11.5 6.3-2.2-20.1-15-19.8-18.1 0.4-3.2 23.6 13.2 23.6 13.2 0 0-15.6-26.4-9.7-36.8 5.9-10.5 29.2 31.6 29.2 31.6 0 0-3.1-31 7.3-36.5 10.4-5.6 14.6 34.4 14.6 34.4 0 0 5.5-6.6 14-14.7q0 0 0.1-0.1c16-15.3 42.4-36.1 63.3-31.2 31.3 7.4-6.4 43.5-8.8 45.8l-0.1 0.1q0 0 0 0c1.7-0.6 27.3-9.7 47.9-3.4 21.1 6.6-8.4 13.2-8.4 13.2l22.5 14.4z"/>
				<path id="&lt;Path&gt;" class="s41" d="m483.1 67.7c-16.6 19 20.5 20.3 29.4 7.8 8.8-12.5-23.1-15.1-29.4-7.8z"/>
				<path id="&lt;Path&gt;" class="s41" d="m116.3 49.8c-24.2 6.8 6 28.3 20.3 22.7 14.2-5.5-11-25.3-20.3-22.7z"/>
				<path id="&lt;Path&gt;" class="s42" d="m293.9 46.3c16-15.3 42.4-36.1 63.3-31.2 31.3 7.4-6.4 43.5-8.8 45.8 5.6-9 22.1-37.3 5.5-41.7-19.1-5-57.8 25.3-60 27.1z"/>
				<path id="&lt;Path&gt;" class="s43" d="m410.3 85.2l-2-0.4-28.6-17c0 0 23.9-5.9 3.6-10.3-19.7-4.2-35.7 5.5-36.7 6.1 0.2-0.2 0.8-1.2 1.7-2.6 1.7-0.6 27.3-9.7 47.9-3.4 21.1 6.6-8.4 13.2-8.4 13.2z"/>
				<path id="&lt;Path&gt;" class="s39" d="m519.9 371.6c-14.4 35.9 19.4 40.4 35.2 8.4 15.8-32.1-28.5-25.3-35.2-8.4z"/>
			</g>
		</g>
	</g>
</svg>