<svg width="793" height="823" viewBox="0 0 793 823" fill="none" xmlns="http://www.w3.org/2000/svg">
<g clip-path="url(#clip0_10_170)">
<path d="M765.8 392.7C764 411.3 696.2 455.1 556.9 413C549.167 410.733 541.2 408.133 533 405.2C531.533 404.733 530.033 404.2 528.5 403.6L527.7 393.3L526.1 374.1C526.1 374.1 574.4 347 649 345C665.1 344.6 679.8 345.6 692.9 347.7C734.1 354.4 759.6 371.5 764.9 386C765.1 386.7 765.4 387.5 765.5 388.2C765.9 389.8 766 391.3 765.8 392.7Z" fill="url(#paint0_radial_10_170)"/>
<path d="M738.3 551C738.2 552 738 552.9 737.7 553.7C737.6 554.3 737.3 554.9 737.1 555.5C729.9 570.6 666.3 587.3 568.5 528.9C550 517.9 530.3 504.1 509.5 487.2L512.1 477.2L512.2 477L517 458.5C517 458.5 571.5 448.9 642.6 471.7C647.867 473.433 652.867 475.233 657.6 477.1C713.4 498.8 740.5 532.8 738.3 551Z" fill="url(#paint1_radial_10_170)"/>
<path d="M541.1 707.9C537.9 725.9 531.1 738.1 523.2 742.5C521.8 743.3 520.4 743.8 518.9 744C508.3 746 481.1 727.3 461.3 684.2C448.2 655.7 438.4 616.6 438.7 565.7C438.7 565.633 438.7 565.6 438.7 565.6C438.8 551.1 439.8 535.7 441.7 519.4L451.4 515.7L469.4 508.7C469.4 508.7 508.9 547.4 531.9 618.5C535.8 630.6 538.5 642.1 540.3 652.8C540.367 653.067 540.433 653.367 540.5 653.7C540.5 653.967 540.533 654.267 540.6 654.6C540.6 654.733 540.633 654.833 540.7 654.9C540.7 655.033 540.7 655.2 540.7 655.4C543.9 675.9 543.7 693.7 541.1 707.9Z" fill="url(#paint2_radial_10_170)"/>
<path d="M377.3 291.2L358.6 296.1L348.6 298.8C284.9 220.6 266.5 157.6 265.9 117.8C265.967 117.733 265.967 117.7 265.9 117.7C265.5 90.9001 273.1 74.6001 280.3 71.2001C281.7 70.6001 283.2 70.2001 284.7 70.0001C304.6 67.6001 342.9 99.7001 364.1 165.6C372.5 192 376.5 216 378.2 235.8C381.1 269.6 377.3 291.2 377.3 291.2Z" fill="url(#paint3_radial_10_170)"/>
<path d="M317.4 316.5L307.9 330.5L306.6 332.5L303.7 336.8L300.8 341.1C134.6 312.8 91.7001 232.8 99.7001 214.6C100.3 213.2 101.1 212 102.2 210.8C104.7 208 108.6 205.7 113.6 204L114.9 203.6C136.1 197.2 175.8 202.1 221.5 228.6C222.567 229.267 223.667 229.933 224.8 230.6C288.8 269.2 317.4 316.5 317.4 316.5Z" fill="url(#paint4_radial_10_170)"/>
<path d="M286.2 388.4L282.4 407.3L280.9 414.8L280.4 417.5C267.2 420.6 254.5 423.1 242.5 425.1C105.4 447.4 45.6999 397.8 45.8999 379.5C45.8999 378.1 46.1999 376.6 46.6999 375.1C48.7999 369.2 54.5999 363.2 63.7999 357.9C66.7999 356.2 70.1999 354.5 73.8999 353C95.0999 344.4 127.3 339.8 167.4 345.5C241.3 356 286.2 388.4 286.2 388.4Z" fill="url(#paint5_radial_10_170)"/>
<path d="M311.1 484.7C310.1 486.767 309.133 488.833 308.2 490.9V491C292.4 523.5 275.2 549.4 257.8 569.8V569.9C199.4 638.4 138.9 645.8 127.7 635.7C126.6 634.7 125.6 633.5 124.9 632.1C118.7 621.3 122.1 598.7 138.2 572.4C145.4 560.6 155.2 548 167.7 535.5C172.2 531 177.1 526.4 182.4 521.9C239.2 473.4 293.1 461.2 293.1 461.2L304.8 476.4L311.1 484.7Z" fill="url(#paint6_radial_10_170)"/>
<path d="M376.9 643.2C376.4 645.3 375.8 647.4 375.3 649.5C375.3 649.6 375.3 649.6 375.2 649.6C371.7 662.5 367.6 674 363.2 684.1C363.2 684.167 363.2 684.2 363.2 684.2C346.3 722.7 324.5 741.1 311.2 741.1C309.8 741.167 308.533 740.967 307.4 740.5C297.3 736.6 281.7 696.7 297.1 635C298.7 628.667 300.666 622.1 303 615.3C313.3 584.7 331.1 549.7 360.1 511.8L368.9 513.2L385.2 515.8C385.2 515.8 395.5 568.6 376.9 643.2Z" fill="url(#paint7_radial_10_170)"/>
<path d="M516 190.1C514.9 193.5 513.7 196.8 512.3 200.2C505.2 218 498.3 232.5 492.1 244.3C474.6 277 462 288.2 462 288.2L432.2 276.7C420.5 213.9 432.1 158.6 449.5 119.4C465.4 83.7001 486.1 61.4 498.3 59.2C500.6 58.8 502.7 59.1 504.3 60.3C522.5 73.2 537.7 127 516 190.1Z" fill="url(#paint8_radial_10_170)"/>
<path style="mix-blend-mode:multiply" opacity="0.5" d="M377.3 291.2L358.6 296.1L348.6 298.8C284.9 220.6 266.5 157.6 265.9 117.8C266.7 120.7 294.2 223.6 331.5 256.2C356.7 278.3 370.2 251.2 378.2 235.8C381.1 269.6 377.3 291.2 377.3 291.2Z" fill="url(#paint9_linear_10_170)"/>
<path style="mix-blend-mode:multiply" opacity="0.5" d="M488.9 240.8C495.8 231.7 506.9 209.7 516 190.1C514.9 193.5 513.7 196.8 512.3 200.2C505.2 218 498.3 232.5 492.1 244.3C474.6 277 462 288.2 462 288.2L432.2 276.7C420.5 213.9 432.1 158.6 449.5 119.4C448.2 123.4 425.3 194.6 434.7 233.8C444.5 274.2 475.1 258.6 488.9 240.8Z" fill="url(#paint10_linear_10_170)"/>
<path style="mix-blend-mode:multiply" opacity="0.5" d="M531.5 155.1C531.7 154.5 531.833 154.2 531.9 154.2C531.9 154.267 531.767 154.567 531.5 155.1Z" fill="url(#paint11_linear_10_170)"/>
<path style="mix-blend-mode:multiply" opacity="0.5" d="M533 405.2L553.7 384.2C553.7 384.2 580.1 409.1 658.5 419.1C719.6 426.9 753.1 398.8 764.9 386C765.167 386.733 765.367 387.467 765.5 388.2C765.9 389.8 766 391.3 765.8 392.8C763.8 412.3 688.5 460 533 405.2Z" fill="url(#paint12_linear_10_170)"/>
<path style="mix-blend-mode:multiply" opacity="0.5" d="M737.7 553.7C737.6 554.3 737.3 554.9 737.1 555.5C728.6 573.4 640.1 593.7 509.5 487.2L512.2 477.2V477L519.7 478.4C519.7 478.4 573.9 524.6 654.7 551C699.7 565.6 724.5 560.9 737.7 553.7Z" fill="url(#paint13_linear_10_170)"/>
<path style="mix-blend-mode:multiply" opacity="0.5" d="M523.2 742.5C521.8 743.3 520.4 743.8 518.9 744C501.4 747.3 437.8 693.6 438.7 565.7C439.3 569.3 455.7 686.2 496.2 714.1C522.2 732 535.1 719.5 541.1 707.8C537.9 725.9 531.1 738.1 523.2 742.5Z" fill="url(#paint14_linear_10_170)"/>
<path style="mix-blend-mode:multiply" opacity="0.5" d="M311.2 741.1C309.8 741.1 308.5 740.9 307.4 740.5C296.3 736.2 278.4 688.1 303 615.3V615.2C303 615.2 282.4 707.9 312.2 722.5C333.4 732.9 361 680.7 375.3 649.6C358.4 711.7 328 741.1 311.2 741.1Z" fill="url(#paint15_linear_10_170)"/>
<path style="mix-blend-mode:multiply" opacity="0.5" d="M308.2 490.9V491C239.8 632.5 142.2 648.8 127.7 635.7C126.6 634.7 125.6 633.5 124.9 632.1C118.7 621.3 122.1 598.7 138.2 572.4C123.1 608.8 131.4 623.5 183.4 612.6C235.4 601.8 308.2 490.9 308.2 490.9Z" fill="url(#paint16_linear_10_170)"/>
<path style="mix-blend-mode:multiply" opacity="0.5" d="M280.4 417.5C116.4 456.3 45.6998 399.4 45.8998 379.6C45.8998 378.1 46.1998 376.6 46.6998 375.1C48.6998 369.2 54.5998 363.2 63.7998 357.9C51.0998 367.8 88.5998 407.3 157.3 417.4C203.2 424.2 253 419 280.9 414.8L280.4 417.5Z" fill="url(#paint17_linear_10_170)"/>
<path style="mix-blend-mode:multiply" opacity="0.5" d="M303.7 336.8L300.8 341.1C134.6 312.8 91.7001 232.8 99.7001 214.6C100.3 213.2 101.1 212 102.2 210.8C104.7 208 108.6 205.7 113.6 204L114.9 203.6C98.9001 217.3 147.5 274.9 210 305.2C246.1 322.7 280.9 332 303.7 336.8Z" fill="url(#paint18_linear_10_170)"/>
<path style="mix-blend-mode:multiply" d="M317.4 316.5L307.9 330.5C304.5 328.9 300.9 326.8 297.3 324.4C268 304.6 229.1 241.3 221.5 228.6C222.567 229.267 223.667 229.933 224.8 230.6C288.8 269.2 317.4 316.5 317.4 316.5Z" fill="url(#paint19_linear_10_170)"/>
<path style="mix-blend-mode:multiply" d="M239.4 396.7C231.2 392.3 196.8 392 149.6 379.1C121 371.3 92.1999 360.4 73.8999 353C95.0999 344.4 127.3 339.8 167.4 345.5C241.3 356 286.2 388.4 286.2 388.4L282.4 407.3L280.9 414.8L280.4 417.5C267.2 420.6 254.5 423.1 242.5 425.1L251.2 418.3C251.2 418.3 247.7 401.1 239.4 396.7Z" fill="url(#paint20_linear_10_170)"/>
<path style="mix-blend-mode:multiply" d="M257.8 569.8C258.8 504.4 239.4 505.7 239.4 505.7C215.1 501.7 184.6 524.7 167.7 535.5C172.2 531 177.1 526.4 182.4 521.9C239.2 473.4 293.1 461.2 293.1 461.2L304.8 476.4L311.1 484.7C310.1 486.767 309.133 488.833 308.2 490.9V491C292.4 523.5 275.2 549.4 257.8 569.8Z" fill="url(#paint21_linear_10_170)"/>
<path style="mix-blend-mode:multiply" d="M385.2 515.8C385.2 515.8 395.5 568.6 376.9 643.2C376.4 645.3 375.8 647.4 375.3 649.5C375.3 649.6 375.3 649.6 375.2 649.6C371.7 662.5 367.6 674 363.2 684.1C363.9 681.2 381.6 603 356.7 582.2C342.4 570.3 313.4 598 297.1 635C298.7 628.667 300.667 622.1 303 615.3C313.3 584.7 331.1 549.7 360.1 511.8L368.9 513.2L385.2 515.8Z" fill="url(#paint22_linear_10_170)"/>
<path style="mix-blend-mode:multiply" d="M531.9 618.5C535.8 630.6 538.5 642.1 540.3 652.8C535 626.6 477.8 559.1 464 580.6C449.9 602.8 461.3 684.2 461.3 684.2C448.2 655.7 438.4 616.6 438.7 565.7C438.7 565.633 438.7 565.6 438.7 565.6C438.8 551.1 439.8 535.7 441.7 519.4L451.4 515.7L469.4 508.7C469.4 508.7 508.9 547.4 531.9 618.5Z" fill="url(#paint23_linear_10_170)"/>
<path style="mix-blend-mode:multiply" d="M642.6 471.7C647.9 473.4 679.8 486.9 684.6 488.8C643.3 496.3 558.9 490.5 565 516.6C565.8 520.2 567 524.3 568.5 528.9C550 517.9 530.3 504.1 509.5 487.2L512.1 477.2L512.2 477L517 458.5C517 458.5 571.5 448.9 642.6 471.7Z" fill="url(#paint24_linear_10_170)"/>
<path style="mix-blend-mode:multiply" d="M527.7 393.3L526.1 374.1C526.1 374.1 574.4 347 649 345C665.1 344.6 679.8 345.6 692.9 347.7C650.8 378.5 556.9 399.2 556.9 413C549.167 410.733 541.2 408.133 533 405.2C531.533 404.733 530.033 404.2 528.5 403.6L527.7 393.3Z" fill="url(#paint25_linear_10_170)"/>
<path d="M529.2 370.2C527.6 370.133 526 370.067 524.4 370L520.7 360.3L513.7 342.3C513.7 342.3 543.5 311.6 599 288.4C603 292.4 610.7 297.2 623.6 296.5C637.1 295.7 642.5 282.9 644.6 273.3C697 261.1 735.2 271.1 745.9 285.5C746.366 286.167 746.766 286.8 747.1 287.4C747.9 288.8 748.4 290.3 748.7 291.7C752.4 311.1 693.9 378.3 529.2 370.2Z" fill="url(#paint26_radial_10_170)"/>
<path d="M767.8 454C767.8 454.6 767.8 455.3 767.7 455.9C764.9 474.2 696 514.3 560.4 467.1C550.6 463.7 540.5 459.8 530.1 455.5L529.8 445.1V445L529.1 425.8C529.1 425.8 539.4 420.7 557.8 415.2C579.5 408.7 612.7 401.8 653.3 402.6C722.4 404.1 764.2 431.6 767.6 451.3C767.733 452.233 767.8 453.133 767.8 454Z" fill="url(#paint27_radial_10_170)"/>
<path d="M624.7 691.3C623.7 692.5 622.4 693.4 621.1 694.1C606.6 701.4 542 674.5 503.7 576.7C499.9 567.2 496.5 557 493.3 546C493.233 545.933 493.2 545.9 493.2 545.9C489.2 532.1 485.7 517.1 482.9 500.8L491.1 494.5L506.4 482.7C506.4 482.7 530.6 495.5 559.6 524.4C571.9 536.6 585.1 551.8 597.6 570.1C619.2 601.5 629.5 630.7 632 653C634.1 671.3 631 684.9 624.7 691.3Z" fill="url(#paint28_radial_10_170)"/>
<path d="M347.4 305.5L330.9 315.5L322 320.9C238.6 264.2 203.1 209.1 191.1 171.1C191.1 171.033 191.1 171 191.1 171C183 145.5 185.6 127.7 191.6 122.3C192.7 121.4 194 120.5 195.4 119.9C213.8 112 259.7 131.8 298.8 188.9C314.4 211.7 325.1 233.6 332.4 252.2C344.8 283.7 347.4 305.5 347.4 305.5Z" fill="url(#paint29_radial_10_170)"/>
<path d="M297.3 346.8L291.4 365.2L289.9 370.2L288.3 375.1C121 395.5 56.9998 331.1 59.3998 311.4C59.5998 309.9 59.9998 308.5 60.7998 307C62.3998 303.6 65.3998 300.3 69.6998 297.3L70.8998 296.5C89.8998 284.1 130.8 277.3 184 291C256.3 309.7 297.3 346.8 297.3 346.8Z" fill="url(#paint30_radial_10_170)"/>
<path d="M290.6 454.2C275.4 462.9 260.9 470.4 247.1 476.7C127.9 531.3 59.9 502 55 484.8C54.6 483.4 54.5 481.9 54.6 480.3C54.8 474.1 58.7 466.6 66 459C82 442.1 114.6 424.5 161.7 417.5C203.5 411.2 238.4 414.3 260.8 418.2C277.9 421.2 287.8 424.6 287.8 424.6L289.6 443.8L290.4 451.5L290.6 454.2Z" fill="url(#paint31_radial_10_170)"/>
<path d="M339.3 509.8C338.9 512.067 338.533 514.333 338.2 516.6V516.7C334.2 541.3 328.7 563 322 582.2V582.3C286.8 684.3 221.5 714 206.6 706.9C205.3 706.2 204 705.4 202.9 704.3C193.9 695.6 190.7 673.1 198.6 643.3V643.2C203.4 625.1 212.3 604.3 226.5 582.3C249 547.4 273.9 523.5 291.6 509.2C305.7 497.8 315.2 492.4 315.2 492.4L330.8 503.7L339.3 509.8Z" fill="url(#paint32_radial_10_170)"/>
<path d="M418.7 753.7C417.4 754.1 416.1 754.2 414.9 754.1C403.1 753.2 372.1 712.3 374.9 635.4C375.6 615 378.7 592 385.2 566.6C389 551.9 393.9 536.3 400.1 519.9L408.9 518.8L425.3 516.6C425.3 516.6 433.8 532.8 441.6 561.6C447.1 582.1 452.3 609.1 453.7 641C453.8 643.2 453.9 645.4 454 647.6C454 647.6 454 647.633 454 647.7C455.5 711.9 434.9 748.9 418.7 753.7Z" fill="url(#paint33_radial_10_170)"/>
<path d="M451.5 168.9C451.3 172.5 451.1 176 450.8 179.6C449 198.7 446.6 214.6 443.9 227.7C436.6 264 427.6 278.3 427.6 278.3L395.9 275.9C366.7 219 362 162.7 367.5 120.2C372.5 81.4001 386 54.2001 397 48.6001C399.2 47.5001 401.3 47.2001 403.1 47.9001C424.2 55.1001 454.2 102.2 451.5 168.9Z" fill="url(#paint34_radial_10_170)"/>
<path style="mix-blend-mode:multiply" opacity="0.5" d="M347.4 305.5L330.9 315.5L322 320.9C238.6 264.2 203.1 209.1 191.1 171.1C192.7 173.7 243.5 257.7 288.6 278.3C319.1 292.3 329.1 269.2 332.4 252.2C344.8 283.7 347.4 305.5 347.4 305.5Z" fill="url(#paint35_linear_10_170)"/>
<path style="mix-blend-mode:multiply" opacity="0.5" d="M439.9 225.3C444 214.6 448.3 190.3 451.5 168.9C451.3 172.5 451.1 176 450.8 179.6C449 198.7 446.6 214.6 443.9 227.7C436.6 264 427.6 278.3 427.6 278.3L395.9 275.9C366.7 219 362 162.7 367.5 120.2C367.4 124.4 365.7 199.2 386 234.1C406.9 270 431.8 246.3 439.9 225.3Z" fill="url(#paint36_linear_10_170)"/>
<path style="mix-blend-mode:multiply" opacity="0.5" d="M456.3 131C456.3 130.333 456.333 130 456.4 130C456.4 130.067 456.366 130.4 456.3 131Z" fill="url(#paint37_linear_10_170)"/>
<path style="mix-blend-mode:multiply" opacity="0.5" d="M529.2 370.2L543 344.1C543 344.1 575.4 360.4 653.4 347.6C714.2 337.6 738.2 301.2 745.9 285.5C746.366 286.167 746.766 286.8 747.1 287.4C747.9 288.8 748.4 290.3 748.7 291.7C752.4 311.1 693.9 378.3 529.2 370.2Z" fill="url(#paint38_linear_10_170)"/>
<path style="mix-blend-mode:multiply" opacity="0.5" d="M767.8 454C767.8 454.6 767.8 455.3 767.7 455.9C764.7 475.5 685.7 520.2 530.1 455.5L529.8 445.1V445L537.3 444.2C537.3 444.2 602.5 472.9 687.5 475.1C734.8 476.3 757.2 464.6 767.8 454Z" fill="url(#paint39_linear_10_170)"/>
<path style="mix-blend-mode:multiply" opacity="0.5" d="M624.7 691.3C623.7 692.5 622.4 693.4 621.1 694.1C605.2 702.2 529 668.9 493.3 546C494.8 549.4 543.9 656.7 590.8 671.8C620.8 681.5 629.6 665.9 632 653C634.1 671.3 631 684.9 624.7 691.3Z" fill="url(#paint40_linear_10_170)"/>
<path style="mix-blend-mode:multiply" opacity="0.5" d="M418.7 753.7C417.4 754.1 416.1 754.2 414.9 754.1C403.1 753.2 372.1 712.3 374.9 635.4C374.9 635.4 381.6 730.1 414.4 735.6C437.6 739.5 449.2 681.6 454 647.7C455.5 711.9 434.9 748.9 418.7 753.7Z" fill="url(#paint41_linear_10_170)"/>
<path style="mix-blend-mode:multiply" opacity="0.5" d="M338.2 516.6V516.7C313.2 671.8 224.3 715.3 206.6 706.9C205.3 706.2 204 705.4 202.9 704.3C193.9 695.6 190.7 673.1 198.6 643.3V643.2C194.5 682.5 206.7 694.2 253.4 668.9C300.1 643.6 338.2 516.6 338.2 516.6Z" fill="url(#paint42_linear_10_170)"/>
<path style="mix-blend-mode:multiply" opacity="0.5" d="M290.6 454.2C144.5 538.2 60.5 504 55 484.8C54.6 483.4 54.5 481.9 54.6 480.3C54.8 474.1 58.7 466.6 66 459C56.7 472.1 103.9 499.2 172.6 489.3C218.6 482.6 264.8 463.4 290.4 451.5L290.6 454.2Z" fill="url(#paint43_linear_10_170)"/>
<path style="mix-blend-mode:multiply" opacity="0.5" d="M289.9 370.2L288.3 375.1C121 395.5 56.9998 331.1 59.3998 311.4C59.5998 309.9 59.9998 308.5 60.7998 307C62.3998 303.6 65.3998 300.3 69.6998 297.3L70.8998 296.5C59.4998 314.2 122.5 355.5 191.1 366.7C230.7 373.1 266.6 372.1 289.9 370.2Z" fill="url(#paint44_linear_10_170)"/>
<path style="mix-blend-mode:multiply" d="M290.4 451.5L290.6 454.2C275.4 462.9 260.9 470.4 247.1 476.7C258.3 455 260.5 423.3 260.8 418.2C277.9 421.2 287.8 424.6 287.8 424.6L289.6 443.8L290.4 451.5Z" fill="url(#paint45_linear_10_170)"/>
<path style="mix-blend-mode:multiply" d="M330.8 503.7L339.3 509.8C338.9 512.067 338.533 514.333 338.2 516.6V516.7C334.2 541.3 328.7 563 322 582.2C324.6 567.8 326.6 544.9 323.1 533C320 522.2 302.3 508.2 291.6 509.2C305.7 497.8 315.2 492.4 315.2 492.4L330.8 503.7Z" fill="url(#paint46_linear_10_170)"/>
<path style="mix-blend-mode:multiply" d="M425.3 516.6C425.3 516.6 433.8 532.8 441.6 561.6C437.2 557.1 424.8 555.3 418.5 554.6C405.7 553.3 394.1 557.1 385.2 566.6C389 551.9 393.9 536.3 400.1 519.9L408.9 518.8L425.3 516.6Z" fill="url(#paint47_linear_10_170)"/>
<path style="mix-blend-mode:multiply" d="M506.4 482.7C506.4 482.7 530.6 495.5 559.6 524.4C549.9 518.3 538.9 511.4 529.1 513.2C514.5 515.9 494.4 537.3 503.7 576.7C499.9 567.2 496.5 557 493.3 546C493.233 545.933 493.2 545.9 493.2 545.9C489.2 532.1 485.7 517.1 482.9 500.8L491.1 494.5L506.4 482.7Z" fill="url(#paint48_linear_10_170)"/>
<path style="mix-blend-mode:multiply" d="M529.8 445L529.1 425.8C529.1 425.8 539.4 420.7 557.8 415.2C555.9 432.4 557.5 450.5 560.4 467.1C550.6 463.7 540.5 459.8 530.1 455.5L529.8 445.1V445Z" fill="url(#paint49_linear_10_170)"/>
<path d="M550.8 444.9C548.4 454 545 462.8 540.8 471.3C518.4 516 471.1 548.8 396.5 542.7C338.1 537.9 299.1 509.2 278.5 472.3C273.9 464.2 270.3 455.6 267.5 446.9C260.3 424.3 259 400.3 263.3 377.6C264.2 373 265.3 368.5 266.7 364C267.433 361.667 268.2 359.4 269 357.2C270.933 351.8 273.233 346.567 275.9 341.5C280.8 332.4 286.8 323.9 293.9 316.4C381.2 223.7 507.7 265 542.5 339.7C542.967 340.767 543.4 341.833 543.8 342.9C545.933 347.633 547.767 352.533 549.3 357.6C552.1 366.3 554 375.4 555.1 384.6C555.7 389.533 556.067 394.533 556.2 399.6C556.6 414.8 554.9 430.2 550.8 444.9Z" fill="url(#paint50_radial_10_170)"/>
<path style="mix-blend-mode:multiply" opacity="0.5" d="M396.5 542.7C292 534.2 249.6 448.7 263.3 377.6C263.3 380.9 263.5 507.9 408.4 523.5C518.7 535.3 547.6 435.2 555.1 384.6C564.8 463.4 515.4 552.4 396.5 542.7Z" fill="url(#paint51_linear_10_170)"/>
<path d="M556.2 399.6C555.5 396.3 533.3 290.5 419.9 279.6C306.4 268.6 267.8 361.2 266.7 364C272.1 346.2 281.2 329.8 293.9 316.4C381.2 223.7 507.7 265 542.5 339.7C548.9 353.7 553.2 369 555.1 384.6C555.7 389.533 556.066 394.533 556.2 399.6Z" fill="#FED95E"/>
<g style="mix-blend-mode:soft-light" opacity="0.4">
<path d="M327.2 306.5C261.6 340.5 259.6 470.5 388 505.1C516.5 539.7 558.5 415 525 349C491.6 283 390.5 273.6 327.2 306.5Z" fill="#FEFFFA"/>
</g>
<path style="mix-blend-mode:multiply" opacity="0.5" d="M289.9 488.8C289.9 488.8 357.6 527 421 526.5C484.4 526.1 526.1 494.3 526.1 494.3C526.1 494.3 493.4 544.5 414.4 544.3C324.1 544.1 289.9 488.8 289.9 488.8Z" fill="url(#paint52_linear_10_170)"/>
<g style="mix-blend-mode:multiply" opacity="0.5">
<path d="M378.4 478.6C365.4 490.1 368.7 519.6 400.2 506.3C431.7 493 391.4 467 378.4 478.6Z" fill="#FF93AD"/>
<path d="M415 467.1C400.2 472 414.8 490.5 424.9 482.4C434.9 474.3 424.3 464 415 467.1Z" fill="#FF93AD"/>
</g>
<g style="mix-blend-mode:soft-light">
<path d="M198 651.3C198 651.3 198.5 672.2 222.6 674C246.8 675.8 281.2 645 301.7 607.7C301.7 607.7 283.4 649.4 245 678.2C206.6 706.9 191.7 664.8 198 651.3Z" fill="white"/>
</g>
<g style="mix-blend-mode:soft-light">
<path d="M297.1 688C297.1 688 296.2 709.3 319.7 713.9C343.2 718.6 366.3 668.2 366.3 668.2C366.3 668.2 338.9 724.6 315.4 726.4C291.9 728.2 297.1 688 297.1 688Z" fill="white"/>
</g>
<g style="mix-blend-mode:soft-light">
<path d="M381.2 678.2C381.2 678.2 387.8 717.8 411.9 725.1C436.1 732.3 448.6 678.2 448.6 678.2C448.6 678.2 439.1 731.8 418.3 738.7C397.4 745.5 383.1 687.5 381.2 678.2Z" fill="white"/>
</g>
<g style="mix-blend-mode:soft-light">
<path d="M460 654.9C460 654.9 481 700.2 504.8 710.6C528.6 721.1 538.6 712.1 538.6 712.1C538.6 712.1 530.6 726.1 511.7 725.1C492.7 724.1 465.6 676.7 460 654.9Z" fill="white"/>
</g>
<g style="mix-blend-mode:soft-light">
<path d="M515.7 589C515.7 589 552.9 640.7 580.5 659.5C608.2 678.4 624 669.1 624 669.1C624 669.1 606.2 687.3 571.8 661.1C537.3 634.8 515.7 589 515.7 589Z" fill="white"/>
</g>
<g style="mix-blend-mode:soft-light">
<path d="M72.1997 473.4C72.1997 473.4 93.4997 486.7 147.6 487.6C201.8 488.4 250.9 468.1 250.9 468.1C250.9 468.1 190.5 495.3 140.5 492.4C90.4997 489.5 72.1997 473.4 72.1997 473.4Z" fill="white"/>
</g>
<g style="mix-blend-mode:soft-light">
<path d="M567.2 511C567.2 511 605.4 528.9 649.5 544.3C693.6 559.8 719.4 559.6 719.4 559.6C719.4 559.6 655.1 571.9 567.2 511Z" fill="white"/>
</g>
<path d="M563 453.5C563 453.5 611.9 464.2 660.8 469.4C709.8 474.7 748.9 466.2 748.9 466.2C748.9 466.2 726.4 481.4 662 473.6C597.7 465.9 563 453.5 563 453.5Z" fill="white"/>
<path d="M548.7 612.2C531.7 618.1 552.2 653 570.7 651.9C589.1 650.8 563.2 607.2 548.7 612.2Z" fill="white"/>
<path d="M639 468.1C620.3 464.6 678.1 442.8 697.9 456.5C717.7 470.2 686 476.9 639 468.1Z" fill="white"/>
<path d="M616.6 349.6C598.3 347.3 643.5 303.2 674.9 313.5C706.2 323.8 655.1 354.6 616.6 349.6Z" fill="white"/>
<path d="M139.1 460.5C115.2 482.4 158.1 496.9 191.1 480.3C224.1 463.7 161.8 439.8 139.1 460.5Z" fill="white"/>
<path d="M172.6 227.9C159 228.6 171.3 255.9 191.1 256.1C210.9 256.4 186.3 227.2 172.6 227.9Z" fill="white"/>
<path d="M482.9 108.4C470 130.8 494.6 148.4 500.4 127.3C506.2 106.2 489.6 96.7001 482.9 108.4Z" fill="white"/>
<path d="M247.1 668.2C232.9 670 246.4 633.2 262.2 639.3C278 645.5 261.3 666.4 247.1 668.2Z" fill="white"/>
<path d="M489 429.9C485.3 431.7 486.1 443.8 497 441.6C507.8 439.4 501.1 423.8 489 429.9Z" fill="white"/>
</g>
<defs>
<radialGradient id="paint0_radial_10_170" cx="0" cy="0" r="1" gradientUnits="userSpaceOnUse" gradientTransform="translate(420.1 150.1) scale(594.5 594.5)">
<stop stop-color="#FFEAED"/>
<stop offset="1" stop-color="#FFD6CB"/>
</radialGradient>
<radialGradient id="paint1_radial_10_170" cx="0" cy="0" r="1" gradientUnits="userSpaceOnUse" gradientTransform="translate(392.7 1) scale(730.2 730.2)">
<stop stop-color="#FFEAED"/>
<stop offset="1" stop-color="#FFD6CB"/>
</radialGradient>
<radialGradient id="paint2_radial_10_170" cx="0" cy="0" r="1" gradientUnits="userSpaceOnUse" gradientTransform="translate(386 33.8001) scale(663.6 663.6)">
<stop stop-color="#FFEAED"/>
<stop offset="1" stop-color="#FFD6CB"/>
</radialGradient>
<radialGradient id="paint3_radial_10_170" cx="0" cy="0" r="1" gradientUnits="userSpaceOnUse" gradientTransform="translate(506.5 67.5) scale(619.8 619.8)">
<stop stop-color="#FFEAED"/>
<stop offset="1" stop-color="#FFD6CB"/>
</radialGradient>
<radialGradient id="paint4_radial_10_170" cx="0" cy="0" r="1" gradientUnits="userSpaceOnUse" gradientTransform="translate(418.6 -134.5) scale(878.5 878.5)">
<stop stop-color="#FFEAED"/>
<stop offset="1" stop-color="#FFD6CB"/>
</radialGradient>
<radialGradient id="paint5_radial_10_170" cx="0" cy="0" r="1" gradientUnits="userSpaceOnUse" gradientTransform="translate(404.9 8.2001) scale(580.3 580.3)">
<stop stop-color="#FFEAED"/>
<stop offset="1" stop-color="#FFD6CB"/>
</radialGradient>
<radialGradient id="paint6_radial_10_170" cx="0" cy="0" r="1" gradientUnits="userSpaceOnUse" gradientTransform="translate(399.8 98.8) scale(516.5 516.5)">
<stop stop-color="#FFEAED"/>
<stop offset="1" stop-color="#FFD6CB"/>
</radialGradient>
<radialGradient id="paint7_radial_10_170" cx="0" cy="0" r="1" gradientUnits="userSpaceOnUse" gradientTransform="translate(330.6 65.6001) scale(599 599)">
<stop stop-color="#FFEAED"/>
<stop offset="1" stop-color="#FFD6CB"/>
</radialGradient>
<radialGradient id="paint8_radial_10_170" cx="0" cy="0" r="1" gradientUnits="userSpaceOnUse" gradientTransform="translate(506.5 67.5001) scale(619.8 619.8)">
<stop stop-color="#FFEAED"/>
<stop offset="1" stop-color="#FFD6CB"/>
</radialGradient>
<linearGradient id="paint9_linear_10_170" x1="229.2" y1="263.1" x2="272" y2="119.6" gradientUnits="userSpaceOnUse">
<stop stop-color="#8B0059"/>
<stop offset="1" stop-color="white"/>
</linearGradient>
<linearGradient id="paint10_linear_10_170" x1="304.3" y1="241.1" x2="349.5" y2="89.6" gradientUnits="userSpaceOnUse">
<stop stop-color="#8B0059"/>
<stop offset="1" stop-color="white"/>
</linearGradient>
<linearGradient id="paint11_linear_10_170" x1="525.2" y1="153.3" x2="525.5" y2="152.3" gradientUnits="userSpaceOnUse">
<stop stop-color="#8B0059"/>
<stop offset="1" stop-color="white"/>
</linearGradient>
<linearGradient id="paint12_linear_10_170" x1="622.2" y1="432.5" x2="646.6" y2="350.7" gradientUnits="userSpaceOnUse">
<stop stop-color="#8B0059"/>
<stop offset="1" stop-color="white"/>
</linearGradient>
<linearGradient id="paint13_linear_10_170" x1="609.5" y1="552.3" x2="622.4" y2="509" gradientUnits="userSpaceOnUse">
<stop stop-color="#8B0059"/>
<stop offset="1" stop-color="white"/>
</linearGradient>
<linearGradient id="paint14_linear_10_170" x1="386.4" y1="705.7" x2="429.1" y2="562.8" gradientUnits="userSpaceOnUse">
<stop stop-color="#8B0059"/>
<stop offset="1" stop-color="white"/>
</linearGradient>
<linearGradient id="paint15_linear_10_170" x1="221.6" y1="714.9" x2="255.6" y2="601.1" gradientUnits="userSpaceOnUse">
<stop stop-color="#8B0059"/>
<stop offset="1" stop-color="white"/>
</linearGradient>
<linearGradient id="paint16_linear_10_170" x1="62.6998" y1="617.3" x2="117.4" y2="434" gradientUnits="userSpaceOnUse">
<stop stop-color="#8B0059"/>
<stop offset="1" stop-color="white"/>
</linearGradient>
<linearGradient id="paint17_linear_10_170" x1="145.3" y1="433.6" x2="161.5" y2="379.2" gradientUnits="userSpaceOnUse">
<stop stop-color="#8B0059"/>
<stop offset="1" stop-color="white"/>
</linearGradient>
<linearGradient id="paint18_linear_10_170" x1="176.6" y1="308.1" x2="200.2" y2="229" gradientUnits="userSpaceOnUse">
<stop stop-color="#8B0059"/>
<stop offset="1" stop-color="white"/>
</linearGradient>
<linearGradient id="paint19_linear_10_170" x1="215.4" y1="330.5" x2="215.4" y2="228.6" gradientUnits="userSpaceOnUse">
<stop stop-color="#9700B3"/>
<stop offset="1" stop-color="#FFACAB"/>
</linearGradient>
<linearGradient id="paint20_linear_10_170" x1="164.2" y1="425.1" x2="164.2" y2="343" gradientUnits="userSpaceOnUse">
<stop stop-color="#FFACAB"/>
<stop offset="1" stop-color="#9700B3"/>
</linearGradient>
<linearGradient id="paint21_linear_10_170" x1="198.2" y1="569.8" x2="198.2" y2="461.2" gradientUnits="userSpaceOnUse">
<stop stop-color="#FFE3F7"/>
<stop offset="1" stop-color="#A92CB3"/>
</linearGradient>
<linearGradient id="paint22_linear_10_170" x1="179.3" y1="684.1" x2="179.3" y2="511.8" gradientUnits="userSpaceOnUse">
<stop stop-color="#FFE3F7"/>
<stop offset="1" stop-color="#A92CB3"/>
</linearGradient>
<linearGradient id="paint23_linear_10_170" x1="338.1" y1="684.2" x2="338.1" y2="508.7" gradientUnits="userSpaceOnUse">
<stop stop-color="#FFE3F7"/>
<stop offset="1" stop-color="#A92CB3"/>
</linearGradient>
<linearGradient id="paint24_linear_10_170" x1="582.1" y1="528.9" x2="582.1" y2="456.5" gradientUnits="userSpaceOnUse">
<stop stop-color="#FFE3F7"/>
<stop offset="1" stop-color="#A92CB3"/>
</linearGradient>
<linearGradient id="paint25_linear_10_170" x1="595.6" y1="413" x2="595.6" y2="344.9" gradientUnits="userSpaceOnUse">
<stop stop-color="#FFACAB"/>
<stop offset="1" stop-color="#9700B3"/>
</linearGradient>
<radialGradient id="paint26_radial_10_170" cx="0" cy="0" r="1" gradientUnits="userSpaceOnUse" gradientTransform="translate(409.7 33.9) scale(638.4 638.4)">
<stop stop-color="white"/>
<stop offset="1" stop-color="#FFEBD9"/>
</radialGradient>
<radialGradient id="paint27_radial_10_170" cx="0" cy="0" r="1" gradientUnits="userSpaceOnUse" gradientTransform="translate(407.3 54.3001) scale(619.7 619.7)">
<stop stop-color="white"/>
<stop offset="1" stop-color="#FFEBD9"/>
</radialGradient>
<radialGradient id="paint28_radial_10_170" cx="0" cy="0" r="1" gradientUnits="userSpaceOnUse" gradientTransform="translate(407.2 54.2002) scale(619.8 619.8)">
<stop stop-color="white"/>
<stop offset="1" stop-color="#FFEBD9"/>
</radialGradient>
<radialGradient id="paint29_radial_10_170" cx="0" cy="0" r="1" gradientUnits="userSpaceOnUse" gradientTransform="translate(407.2 54.2001) scale(619.8 619.8)">
<stop stop-color="white"/>
<stop offset="1" stop-color="#FFEBD9"/>
</radialGradient>
<radialGradient id="paint30_radial_10_170" cx="0" cy="0" r="1" gradientUnits="userSpaceOnUse" gradientTransform="translate(407.3 54.2) scale(619.8 619.8)">
<stop stop-color="white"/>
<stop offset="1" stop-color="#FFEBD9"/>
</radialGradient>
<radialGradient id="paint31_radial_10_170" cx="0" cy="0" r="1" gradientUnits="userSpaceOnUse" gradientTransform="translate(407.2 54.2001) scale(619.8 619.8)">
<stop stop-color="white"/>
<stop offset="1" stop-color="#FFEBD9"/>
</radialGradient>
<radialGradient id="paint32_radial_10_170" cx="0" cy="0" r="1" gradientUnits="userSpaceOnUse" gradientTransform="translate(407.3 54.2) scale(619.8 619.8)">
<stop stop-color="white"/>
<stop offset="1" stop-color="#FFEBD9"/>
</radialGradient>
<radialGradient id="paint33_radial_10_170" cx="0" cy="0" r="1" gradientUnits="userSpaceOnUse" gradientTransform="translate(407.3 54.2) scale(619.8 619.8)">
<stop stop-color="white"/>
<stop offset="1" stop-color="#FFEBD9"/>
</radialGradient>
<radialGradient id="paint34_radial_10_170" cx="0" cy="0" r="1" gradientUnits="userSpaceOnUse" gradientTransform="translate(407.3 54.2001) scale(619.8 619.8)">
<stop stop-color="white"/>
<stop offset="1" stop-color="#FFEBD9"/>
</radialGradient>
<linearGradient id="paint35_linear_10_170" x1="197.4" y1="320.9" x2="197.4" y2="171.1" gradientUnits="userSpaceOnUse">
<stop stop-color="#8B0059"/>
<stop offset="1" stop-color="white"/>
</linearGradient>
<linearGradient id="paint36_linear_10_170" x1="263.1" y1="278.3" x2="263.1" y2="120.2" gradientUnits="userSpaceOnUse">
<stop stop-color="#8B0059"/>
<stop offset="1" stop-color="white"/>
</linearGradient>
<linearGradient id="paint37_linear_10_170" x1="449.699" y1="131" x2="449.699" y2="130" gradientUnits="userSpaceOnUse">
<stop stop-color="#8B0059"/>
<stop offset="1" stop-color="white"/>
</linearGradient>
<linearGradient id="paint38_linear_10_170" x1="622.5" y1="370.9" x2="622.5" y2="285.5" gradientUnits="userSpaceOnUse">
<stop stop-color="#8B0059"/>
<stop offset="1" stop-color="white"/>
</linearGradient>
<linearGradient id="paint39_linear_10_170" x1="644.5" y1="489.3" x2="644.5" y2="444.2" gradientUnits="userSpaceOnUse">
<stop stop-color="#8B0059"/>
<stop offset="1" stop-color="white"/>
</linearGradient>
<linearGradient id="paint40_linear_10_170" x1="483.2" y1="695.2" x2="483.2" y2="546" gradientUnits="userSpaceOnUse">
<stop stop-color="#8B0059"/>
<stop offset="1" stop-color="white"/>
</linearGradient>
<linearGradient id="paint41_linear_10_170" x1="325.4" y1="754.2" x2="325.4" y2="635.4" gradientUnits="userSpaceOnUse">
<stop stop-color="#8B0059"/>
<stop offset="1" stop-color="white"/>
</linearGradient>
<linearGradient id="paint42_linear_10_170" x1="139.1" y1="707.9" x2="139.1" y2="516.6" gradientUnits="userSpaceOnUse">
<stop stop-color="#8B0059"/>
<stop offset="1" stop-color="white"/>
</linearGradient>
<linearGradient id="paint43_linear_10_170" x1="165.8" y1="508.2" x2="165.8" y2="451.5" gradientUnits="userSpaceOnUse">
<stop stop-color="#8B0059"/>
<stop offset="1" stop-color="white"/>
</linearGradient>
<linearGradient id="paint44_linear_10_170" x1="159.9" y1="379" x2="159.9" y2="296.5" gradientUnits="userSpaceOnUse">
<stop stop-color="#8B0059"/>
<stop offset="1" stop-color="white"/>
</linearGradient>
<linearGradient id="paint45_linear_10_170" x1="229.6" y1="476.7" x2="229.6" y2="418.2" gradientUnits="userSpaceOnUse">
<stop stop-color="#FFACAB"/>
<stop offset="1" stop-color="#9700B3"/>
</linearGradient>
<linearGradient id="paint46_linear_10_170" x1="230.8" y1="582.2" x2="230.8" y2="492.4" gradientUnits="userSpaceOnUse">
<stop stop-color="#FFACAB"/>
<stop offset="1" stop-color="#9700B3"/>
</linearGradient>
<linearGradient id="paint47_linear_10_170" x1="391.2" y1="566.6" x2="391.2" y2="516.6" gradientUnits="userSpaceOnUse">
<stop stop-color="#FFACAB"/>
<stop offset="1" stop-color="#9700B3"/>
</linearGradient>
<linearGradient id="paint48_linear_10_170" x1="463.7" y1="576.7" x2="463.7" y2="482.7" gradientUnits="userSpaceOnUse">
<stop stop-color="#FFACAB"/>
<stop offset="1" stop-color="#9700B3"/>
</linearGradient>
<linearGradient id="paint49_linear_10_170" x1="501.8" y1="467.1" x2="501.8" y2="415.2" gradientUnits="userSpaceOnUse">
<stop stop-color="#FFACAB"/>
<stop offset="1" stop-color="#9700B3"/>
</linearGradient>
<radialGradient id="paint50_radial_10_170" cx="0" cy="0" r="1" gradientUnits="userSpaceOnUse" gradientTransform="translate(410.5 362.9) scale(207.3 207.3)">
<stop stop-color="#FFB500"/>
<stop offset="1" stop-color="#FF892F"/>
</radialGradient>
<linearGradient id="paint51_linear_10_170" x1="362" y1="543.5" x2="362" y2="377.6" gradientUnits="userSpaceOnUse">
<stop stop-color="#BF0059"/>
<stop offset="1" stop-color="white"/>
</linearGradient>
<linearGradient id="paint52_linear_10_170" x1="401.5" y1="544.3" x2="401.5" y2="488.8" gradientUnits="userSpaceOnUse">
<stop stop-color="#BF0059"/>
<stop offset="1" stop-color="white"/>
</linearGradient>
<clipPath id="clip0_10_170">
<rect width="793" height="823" fill="white"/>
</clipPath>
</defs>
</svg>
