<svg width="1066" height="933" viewBox="0 0 1066 933" fill="none" xmlns="http://www.w3.org/2000/svg">
<g clip-path="url(#clip0_10_169)">
<path d="M27.1999 430.3C28.9999 411.7 96.7999 367.9 236.1 410C243.833 412.267 251.8 414.867 260 417.8C261.467 418.267 262.967 418.8 264.5 419.4L265.3 429.7L266.9 448.9C266.9 448.9 218.6 476 144 478C127.9 478.4 113.2 477.4 100.1 475.3C58.8999 468.6 33.3999 451.5 28.0999 437C27.8999 436.3 27.5999 435.5 27.4999 434.8C27.0999 433.2 26.9999 431.7 27.1999 430.3Z" fill="url(#paint0_radial_10_169)"/>
<path d="M54.6998 272C54.7998 271 54.9997 270.1 55.2997 269.3C55.3997 268.7 55.6998 268.1 55.8998 267.5C63.0998 252.4 126.7 235.7 224.5 294.1C243 305.1 262.7 318.9 283.5 335.8L280.9 345.8L280.8 346L276 364.5C276 364.5 221.5 374.1 150.4 351.3C145.133 349.567 140.133 347.767 135.4 345.9C79.5998 324.2 52.4998 290.2 54.6998 272Z" fill="url(#paint1_radial_10_169)"/>
<path d="M251.9 115.1C255.1 97.1 261.9 84.9 269.8 80.5C271.2 79.7 272.6 79.2 274.1 79C284.7 77 311.9 95.7 331.7 138.8C344.8 167.3 354.6 206.4 354.3 257.3C354.3 257.367 354.3 257.4 354.3 257.4C354.2 271.9 353.2 287.3 351.3 303.6L341.6 307.3L323.6 314.3C323.6 314.3 284.1 275.6 261.1 204.5C257.2 192.4 254.5 180.9 252.7 170.2C252.633 169.933 252.567 169.633 252.5 169.3C252.5 169.033 252.467 168.733 252.4 168.4C252.4 168.267 252.367 168.167 252.3 168.1C252.3 167.967 252.3 167.8 252.3 167.6C249.1 147.1 249.3 129.3 251.9 115.1Z" fill="url(#paint2_radial_10_169)"/>
<path d="M415.7 531.8L434.4 526.9L444.4 524.2C508.1 602.4 526.5 665.4 527.1 705.2C527.033 705.267 527.033 705.3 527.1 705.3C527.5 732.1 519.9 748.4 512.7 751.8C511.3 752.4 509.8 752.8 508.3 753C488.4 755.4 450.1 723.3 428.9 657.4C420.5 631 416.5 607 414.8 587.2C411.9 553.4 415.7 531.8 415.7 531.8Z" fill="url(#paint3_radial_10_169)"/>
<path d="M475.6 506.5L485.1 492.5L486.4 490.5L489.3 486.2L492.2 481.9C658.4 510.2 701.3 590.2 693.3 608.4C692.7 609.8 691.9 611 690.8 612.2C688.3 615 684.4 617.3 679.4 619L678.1 619.4C656.9 625.8 617.2 620.9 571.5 594.4C570.433 593.733 569.333 593.067 568.2 592.4C504.2 553.8 475.6 506.5 475.6 506.5Z" fill="url(#paint4_radial_10_169)"/>
<path d="M506.8 434.6L510.6 415.7L512.1 408.2L512.6 405.5C525.8 402.4 538.5 399.9 550.5 397.9C687.6 375.6 747.3 425.2 747.1 443.5C747.1 444.9 746.8 446.4 746.3 447.9C744.2 453.8 738.4 459.8 729.2 465.1C726.2 466.8 722.8 468.5 719.1 470C697.9 478.6 665.7 483.2 625.6 477.5C551.7 467 506.8 434.6 506.8 434.6Z" fill="url(#paint5_radial_10_169)"/>
<path d="M481.9 338.3C482.9 336.233 483.866 334.167 484.8 332.1V332C500.6 299.5 517.8 273.6 535.2 253.2V253.1C593.6 184.6 654.1 177.2 665.3 187.3C666.4 188.3 667.4 189.5 668.1 190.9C674.3 201.7 670.9 224.3 654.8 250.6C647.6 262.4 637.8 275 625.3 287.5C620.8 292 615.9 296.6 610.6 301.1C553.8 349.6 499.9 361.8 499.9 361.8L488.2 346.6L481.9 338.3Z" fill="url(#paint6_radial_10_169)"/>
<path d="M416.1 179.8C416.6 177.7 417.2 175.6 417.7 173.5C417.7 173.4 417.7 173.4 417.8 173.4C421.3 160.5 425.4 149 429.8 138.9C429.8 138.833 429.8 138.8 429.8 138.8C446.7 100.3 468.5 81.9 481.8 81.9C483.2 81.8334 484.466 82.0333 485.6 82.5C495.7 86.4 511.3 126.3 495.9 188C494.3 194.333 492.333 200.9 490 207.7C479.7 238.3 461.9 273.3 432.9 311.2L424.1 309.8L407.8 307.2C407.8 307.2 397.5 254.4 416.1 179.8Z" fill="url(#paint7_radial_10_169)"/>
<path d="M277 632.9C278.1 629.5 279.3 626.2 280.7 622.8C287.8 605 294.7 590.5 300.9 578.7C318.4 546 331 534.8 331 534.8L360.8 546.3C372.5 609.1 360.9 664.4 343.5 703.6C327.6 739.3 306.9 761.6 294.7 763.8C292.4 764.2 290.3 763.9 288.7 762.7C270.5 749.8 255.3 696 277 632.9Z" fill="url(#paint8_radial_10_169)"/>
<path style="mix-blend-mode:multiply" opacity="0.5" d="M415.7 531.8L434.4 526.9L444.4 524.2C508.1 602.4 526.5 665.4 527.1 705.2C526.3 702.3 498.8 599.4 461.5 566.8C436.3 544.7 422.8 571.8 414.8 587.2C411.9 553.4 415.7 531.8 415.7 531.8Z" fill="url(#paint9_linear_10_169)"/>
<path style="mix-blend-mode:multiply" opacity="0.5" d="M304.1 582.2C297.2 591.3 286.1 613.3 277 632.9C278.1 629.5 279.3 626.2 280.7 622.8C287.8 605 294.7 590.5 300.9 578.7C318.4 546 331 534.8 331 534.8L360.8 546.3C372.5 609.1 360.9 664.4 343.5 703.6C344.8 699.6 367.7 628.4 358.3 589.2C348.5 548.8 317.9 564.4 304.1 582.2Z" fill="url(#paint10_linear_10_169)"/>
<path style="mix-blend-mode:multiply" opacity="0.5" d="M261.5 667.9C261.3 668.5 261.166 668.8 261.1 668.8C261.1 668.733 261.233 668.433 261.5 667.9Z" fill="url(#paint11_linear_10_169)"/>
<path style="mix-blend-mode:multiply" opacity="0.5" d="M260 417.8L239.3 438.8C239.3 438.8 212.9 413.9 134.5 403.9C73.3998 396.1 39.8997 424.2 28.0997 437C27.8331 436.267 27.6331 435.533 27.4998 434.8C27.0998 433.2 26.9998 431.7 27.1998 430.2C29.1998 410.7 104.5 363 260 417.8Z" fill="url(#paint12_linear_10_169)"/>
<path style="mix-blend-mode:multiply" opacity="0.5" d="M55.2997 269.3C55.3997 268.7 55.6998 268.1 55.8998 267.5C64.3998 249.6 152.9 229.3 283.5 335.8L280.8 345.8V346L273.3 344.6C273.3 344.6 219.1 298.4 138.3 272C93.2997 257.4 68.4997 262.1 55.2997 269.3Z" fill="url(#paint13_linear_10_169)"/>
<path style="mix-blend-mode:multiply" opacity="0.5" d="M269.8 80.5C271.2 79.7 272.6 79.2 274.1 79C291.6 75.7 355.2 129.4 354.3 257.3C353.7 253.7 337.3 136.8 296.8 108.9C270.8 91 257.9 103.5 251.9 115.2C255.1 97.1 261.9 84.9 269.8 80.5Z" fill="url(#paint14_linear_10_169)"/>
<path style="mix-blend-mode:multiply" opacity="0.5" d="M481.8 81.9C483.2 81.9 484.5 82.1 485.6 82.5C496.7 86.8 514.6 134.9 490 207.7V207.8C490 207.8 510.6 115.1 480.8 100.5C459.6 90.1 432 142.3 417.7 173.4C434.6 111.3 465 81.9 481.8 81.9Z" fill="url(#paint15_linear_10_169)"/>
<path style="mix-blend-mode:multiply" opacity="0.5" d="M484.8 332.1V332C553.2 190.5 650.8 174.2 665.3 187.3C666.4 188.3 667.4 189.5 668.1 190.9C674.3 201.7 670.9 224.3 654.8 250.6C669.9 214.2 661.6 199.5 609.6 210.4C557.6 221.2 484.8 332.1 484.8 332.1Z" fill="url(#paint16_linear_10_169)"/>
<path style="mix-blend-mode:multiply" opacity="0.5" d="M512.6 405.5C676.6 366.7 747.3 423.6 747.1 443.4C747.1 444.9 746.8 446.4 746.3 447.9C744.3 453.8 738.4 459.8 729.2 465.1C741.9 455.2 704.4 415.7 635.7 405.6C589.8 398.8 540 404 512.1 408.2L512.6 405.5Z" fill="url(#paint17_linear_10_169)"/>
<path style="mix-blend-mode:multiply" opacity="0.5" d="M489.3 486.2L492.2 481.9C658.4 510.2 701.3 590.2 693.3 608.4C692.7 609.8 691.9 611 690.8 612.2C688.3 615 684.4 617.3 679.4 619L678.1 619.4C694.1 605.7 645.5 548.1 583 517.8C546.9 500.3 512.1 491 489.3 486.2Z" fill="url(#paint18_linear_10_169)"/>
<path style="mix-blend-mode:multiply" d="M475.6 506.5L485.1 492.5C488.5 494.1 492.1 496.2 495.7 498.6C525 518.4 563.9 581.7 571.5 594.4C570.433 593.733 569.333 593.067 568.2 592.4C504.2 553.8 475.6 506.5 475.6 506.5Z" fill="url(#paint19_linear_10_169)"/>
<path style="mix-blend-mode:multiply" d="M553.6 426.3C561.8 430.7 596.2 431 643.4 443.9C672 451.7 700.8 462.6 719.1 470C697.9 478.6 665.7 483.2 625.6 477.5C551.7 467 506.8 434.6 506.8 434.6L510.6 415.7L512.1 408.2L512.6 405.5C525.8 402.4 538.5 399.9 550.5 397.9L541.8 404.7C541.8 404.7 545.3 421.9 553.6 426.3Z" fill="url(#paint20_linear_10_169)"/>
<path style="mix-blend-mode:multiply" d="M535.2 253.2C534.2 318.6 553.6 317.3 553.6 317.3C577.9 321.3 608.4 298.3 625.3 287.5C620.8 292 615.9 296.6 610.6 301.1C553.8 349.6 499.9 361.8 499.9 361.8L488.2 346.6L481.9 338.3C482.9 336.233 483.866 334.167 484.8 332.1V332C500.6 299.5 517.8 273.6 535.2 253.2Z" fill="url(#paint21_linear_10_169)"/>
<path style="mix-blend-mode:multiply" d="M407.8 307.2C407.8 307.2 397.5 254.4 416.1 179.8C416.6 177.7 417.2 175.6 417.7 173.5C417.7 173.4 417.7 173.4 417.8 173.4C421.3 160.5 425.4 149 429.8 138.9C429.1 141.8 411.4 220 436.3 240.8C450.6 252.7 479.6 225 495.9 188C494.3 194.333 492.333 200.9 490 207.7C479.7 238.3 461.9 273.3 432.9 311.2L424.1 309.8L407.8 307.2Z" fill="url(#paint22_linear_10_169)"/>
<path style="mix-blend-mode:multiply" d="M261.1 204.5C257.2 192.4 254.5 180.9 252.7 170.2C258 196.4 315.2 263.9 329 242.4C343.1 220.2 331.7 138.8 331.7 138.8C344.8 167.3 354.6 206.4 354.3 257.3C354.3 257.367 354.3 257.4 354.3 257.4C354.2 271.9 353.2 287.3 351.3 303.6L341.6 307.3L323.6 314.3C323.6 314.3 284.1 275.6 261.1 204.5Z" fill="url(#paint23_linear_10_169)"/>
<path style="mix-blend-mode:multiply" d="M150.4 351.3C145.1 349.6 113.2 336.1 108.4 334.2C149.7 326.7 234.1 332.5 228 306.4C227.2 302.8 226 298.7 224.5 294.1C243 305.1 262.7 318.9 283.5 335.8L280.9 345.8L280.8 346L276 364.5C276 364.5 221.5 374.1 150.4 351.3Z" fill="url(#paint24_linear_10_169)"/>
<path style="mix-blend-mode:multiply" d="M265.3 429.7L266.9 448.9C266.9 448.9 218.6 476 144 478C127.9 478.4 113.2 477.4 100.1 475.3C142.2 444.5 236.1 423.8 236.1 410C243.833 412.267 251.8 414.867 260 417.8C261.467 418.267 262.967 418.8 264.5 419.4L265.3 429.7Z" fill="url(#paint25_linear_10_169)"/>
<path d="M263.8 452.8C265.4 452.867 267 452.933 268.6 453L272.3 462.7L279.3 480.7C279.3 480.7 249.5 511.4 194 534.6C190 530.6 182.3 525.8 169.4 526.5C155.9 527.3 150.5 540.1 148.4 549.7C95.9998 561.9 57.7998 551.9 47.0998 537.5C46.6331 536.833 46.2332 536.2 45.8998 535.6C45.0998 534.2 44.5998 532.7 44.2998 531.3C40.5998 511.9 99.0998 444.7 263.8 452.8Z" fill="url(#paint26_radial_10_169)"/>
<path d="M25.1999 369C25.1999 368.4 25.1999 367.7 25.2999 367.1C28.0999 348.8 96.9998 308.7 232.6 355.9C242.4 359.3 252.5 363.2 262.9 367.5L263.2 377.9V378L263.9 397.2C263.9 397.2 253.6 402.3 235.2 407.8C213.5 414.3 180.3 421.2 139.7 420.4C70.5999 418.9 28.7999 391.4 25.3999 371.7C25.2666 370.767 25.1999 369.867 25.1999 369Z" fill="url(#paint27_radial_10_169)"/>
<path d="M168.3 131.7C169.3 130.5 170.6 129.6 171.9 128.9C186.4 121.6 251 148.5 289.3 246.3C293.1 255.8 296.5 266 299.7 277C299.767 277.067 299.8 277.1 299.8 277.1C303.8 290.9 307.3 305.9 310.1 322.2L301.9 328.5L286.6 340.3C286.6 340.3 262.4 327.5 233.4 298.6C221.1 286.4 207.9 271.2 195.4 252.9C173.8 221.5 163.5 192.3 161 170C158.9 151.7 162 138.1 168.3 131.7Z" fill="url(#paint28_radial_10_169)"/>
<path d="M445.6 517.5L462.1 507.5L471 502.1C554.4 558.8 589.9 613.9 601.9 651.9C601.9 651.967 601.9 652 601.9 652C610 677.5 607.4 695.3 601.4 700.7C600.3 701.6 599 702.5 597.6 703.1C579.2 711 533.3 691.2 494.2 634.1C478.6 611.3 467.9 589.4 460.6 570.8C448.2 539.3 445.6 517.5 445.6 517.5Z" fill="url(#paint29_radial_10_169)"/>
<path d="M495.7 476.2L501.6 457.8L503.1 452.8L504.7 447.9C672 427.5 736 491.9 733.6 511.6C733.4 513.1 733 514.5 732.2 516C730.6 519.4 727.6 522.7 723.3 525.7L722.1 526.5C703.1 538.9 662.2 545.7 609 532C536.7 513.3 495.7 476.2 495.7 476.2Z" fill="url(#paint30_radial_10_169)"/>
<path d="M502.4 368.8C517.6 360.1 532.1 352.6 545.9 346.3C665.1 291.7 733.1 321 738 338.2C738.4 339.6 738.5 341.1 738.4 342.7C738.2 348.9 734.3 356.4 727 364C711 380.9 678.4 398.5 631.3 405.5C589.5 411.8 554.6 408.7 532.2 404.8C515.1 401.8 505.2 398.4 505.2 398.4L503.4 379.2L502.6 371.5L502.4 368.8Z" fill="url(#paint31_radial_10_169)"/>
<path d="M453.7 313.2C454.1 310.933 454.467 308.667 454.8 306.4V306.3C458.8 281.7 464.3 260 471 240.8V240.7C506.2 138.7 571.5 109 586.4 116.1C587.7 116.8 589 117.6 590.1 118.7C599.1 127.4 602.3 149.9 594.4 179.7V179.8C589.6 197.9 580.7 218.7 566.5 240.7C544 275.6 519.1 299.5 501.4 313.8C487.3 325.2 477.8 330.6 477.8 330.6L462.2 319.3L453.7 313.2Z" fill="url(#paint32_radial_10_169)"/>
<path d="M374.3 69.3C375.6 68.9 376.9 68.8 378.1 68.9C389.9 69.8 420.9 110.7 418.1 187.6C417.4 208 414.3 231 407.8 256.4C404 271.1 399.1 286.7 392.9 303.1L384.1 304.2L367.7 306.4C367.7 306.4 359.2 290.2 351.4 261.4C345.9 240.9 340.7 213.9 339.3 182C339.2 179.8 339.1 177.6 339 175.4C339 175.4 339 175.367 339 175.3C337.5 111.1 358.1 74.1 374.3 69.3Z" fill="url(#paint33_radial_10_169)"/>
<path d="M341.5 654.1C341.7 650.5 341.9 647 342.2 643.4C344 624.3 346.4 608.4 349.1 595.3C356.4 559 365.4 544.7 365.4 544.7L397.1 547.1C426.3 604 431 660.3 425.5 702.8C420.5 741.6 407 768.8 396 774.4C393.8 775.5 391.7 775.8 389.9 775.1C368.8 767.9 338.8 720.8 341.5 654.1Z" fill="url(#paint34_radial_10_169)"/>
<path style="mix-blend-mode:multiply" opacity="0.5" d="M445.6 517.5L462.1 507.5L471 502.1C554.4 558.8 589.9 613.9 601.9 651.9C600.3 649.3 549.5 565.3 504.4 544.7C473.9 530.7 463.9 553.8 460.6 570.8C448.2 539.3 445.6 517.5 445.6 517.5Z" fill="url(#paint35_linear_10_169)"/>
<path style="mix-blend-mode:multiply" opacity="0.5" d="M353.1 597.7C349 608.4 344.7 632.7 341.5 654.1C341.7 650.5 341.9 647 342.2 643.4C344 624.3 346.4 608.4 349.1 595.3C356.4 559 365.4 544.7 365.4 544.7L397.1 547.1C426.3 604 431 660.3 425.5 702.8C425.6 698.6 427.3 623.8 407 588.9C386.1 553 361.2 576.7 353.1 597.7Z" fill="url(#paint36_linear_10_169)"/>
<path style="mix-blend-mode:multiply" opacity="0.5" d="M336.7 692C336.7 692.667 336.667 693 336.6 693C336.6 692.933 336.633 692.6 336.7 692Z" fill="url(#paint37_linear_10_169)"/>
<path style="mix-blend-mode:multiply" opacity="0.5" d="M263.8 452.8L250 478.9C250 478.9 217.6 462.6 139.6 475.4C78.7998 485.4 54.7998 521.8 47.0998 537.5C46.6331 536.833 46.2332 536.2 45.8998 535.6C45.0998 534.2 44.5998 532.7 44.2998 531.3C40.5998 511.9 99.0998 444.7 263.8 452.8Z" fill="url(#paint38_linear_10_169)"/>
<path style="mix-blend-mode:multiply" opacity="0.5" d="M25.2 369C25.2 368.4 25.1999 367.7 25.2999 367.1C28.2999 347.5 107.3 302.8 262.9 367.5L263.2 377.9V378L255.7 378.8C255.7 378.8 190.5 350.1 105.5 347.9C58.1999 346.7 35.8 358.4 25.2 369Z" fill="url(#paint39_linear_10_169)"/>
<path style="mix-blend-mode:multiply" opacity="0.5" d="M168.3 131.7C169.3 130.5 170.6 129.6 171.9 128.9C187.8 120.8 264 154.1 299.7 277C298.2 273.6 249.1 166.3 202.2 151.2C172.2 141.5 163.4 157.1 161 170C158.9 151.7 162 138.1 168.3 131.7Z" fill="url(#paint40_linear_10_169)"/>
<path style="mix-blend-mode:multiply" opacity="0.5" d="M374.3 69.3C375.6 68.9 376.9 68.8 378.1 68.9C389.9 69.8 420.9 110.7 418.1 187.6C418.1 187.6 411.4 92.9 378.6 87.4C355.4 83.5 343.8 141.4 339 175.3C337.5 111.1 358.1 74.1 374.3 69.3Z" fill="url(#paint41_linear_10_169)"/>
<path style="mix-blend-mode:multiply" opacity="0.5" d="M454.8 306.4V306.3C479.8 151.2 568.7 107.7 586.4 116.1C587.7 116.8 589 117.6 590.1 118.7C599.1 127.4 602.3 149.9 594.4 179.7V179.8C598.5 140.5 586.3 128.8 539.6 154.1C492.9 179.4 454.8 306.4 454.8 306.4Z" fill="url(#paint42_linear_10_169)"/>
<path style="mix-blend-mode:multiply" opacity="0.5" d="M502.4 368.8C648.5 284.8 732.5 319 738 338.2C738.4 339.6 738.5 341.1 738.4 342.7C738.2 348.9 734.3 356.4 727 364C736.3 350.9 689.1 323.8 620.4 333.7C574.4 340.4 528.2 359.6 502.6 371.5L502.4 368.8Z" fill="url(#paint43_linear_10_169)"/>
<path style="mix-blend-mode:multiply" opacity="0.5" d="M503.1 452.8L504.7 447.9C672 427.5 736 491.9 733.6 511.6C733.4 513.1 733 514.5 732.2 516C730.6 519.4 727.6 522.7 723.3 525.7L722.1 526.5C733.5 508.8 670.5 467.5 601.9 456.3C562.3 449.9 526.4 450.9 503.1 452.8Z" fill="url(#paint44_linear_10_169)"/>
<path style="mix-blend-mode:multiply" d="M502.6 371.5L502.4 368.8C517.6 360.1 532.1 352.6 545.9 346.3C534.7 368 532.5 399.7 532.2 404.8C515.1 401.8 505.2 398.4 505.2 398.4L503.4 379.2L502.6 371.5Z" fill="url(#paint45_linear_10_169)"/>
<path style="mix-blend-mode:multiply" d="M462.2 319.3L453.7 313.2C454.1 310.933 454.467 308.667 454.8 306.4V306.3C458.8 281.7 464.3 260 471 240.8C468.4 255.2 466.4 278.1 469.9 290C473 300.8 490.7 314.8 501.4 313.8C487.3 325.2 477.8 330.6 477.8 330.6L462.2 319.3Z" fill="url(#paint46_linear_10_169)"/>
<path style="mix-blend-mode:multiply" d="M367.7 306.4C367.7 306.4 359.2 290.2 351.4 261.4C355.8 265.9 368.2 267.7 374.5 268.4C387.3 269.7 398.9 265.9 407.8 256.4C404 271.1 399.1 286.7 392.9 303.1L384.1 304.2L367.7 306.4Z" fill="url(#paint47_linear_10_169)"/>
<path style="mix-blend-mode:multiply" d="M286.6 340.3C286.6 340.3 262.4 327.5 233.4 298.6C243.1 304.7 254.1 311.6 263.9 309.8C278.5 307.1 298.6 285.7 289.3 246.3C293.1 255.8 296.5 266 299.7 277C299.767 277.067 299.8 277.1 299.8 277.1C303.8 290.9 307.3 305.9 310.1 322.2L301.9 328.5L286.6 340.3Z" fill="url(#paint48_linear_10_169)"/>
<path style="mix-blend-mode:multiply" d="M263.2 378L263.9 397.2C263.9 397.2 253.6 402.3 235.2 407.8C237.1 390.6 235.5 372.5 232.6 355.9C242.4 359.3 252.5 363.2 262.9 367.5L263.2 377.9V378Z" fill="url(#paint49_linear_10_169)"/>
<path d="M242.2 378.1C244.6 369 248 360.2 252.2 351.7C274.6 307 321.9 274.2 396.5 280.3C454.9 285.1 493.9 313.8 514.5 350.7C519.1 358.8 522.7 367.4 525.5 376.1C532.7 398.7 534 422.7 529.7 445.4C528.8 450 527.7 454.5 526.3 459C525.566 461.333 524.8 463.6 524 465.8C522.066 471.2 519.766 476.433 517.1 481.5C512.2 490.6 506.2 499.1 499.1 506.6C411.8 599.3 285.3 558 250.5 483.3C250.033 482.233 249.6 481.167 249.2 480.1C247.066 475.367 245.233 470.467 243.7 465.4C240.9 456.7 239 447.6 237.9 438.4C237.3 433.467 236.933 428.467 236.8 423.4C236.4 408.2 238.1 392.8 242.2 378.1Z" fill="url(#paint50_radial_10_169)"/>
<path style="mix-blend-mode:multiply" opacity="0.5" d="M396.5 280.3C501 288.8 543.4 374.3 529.7 445.4C529.7 442.1 529.5 315.1 384.6 299.5C274.3 287.7 245.4 387.8 237.9 438.4C228.2 359.6 277.6 270.6 396.5 280.3Z" fill="url(#paint51_linear_10_169)"/>
<path d="M236.8 423.4C237.5 426.7 259.7 532.5 373.1 543.4C486.6 554.4 525.2 461.8 526.3 459C520.9 476.8 511.8 493.2 499.1 506.6C411.8 599.3 285.3 558 250.5 483.3C244.1 469.3 239.8 454 237.9 438.4C237.3 433.467 236.933 428.467 236.8 423.4Z" fill="#FED95E"/>
<g style="mix-blend-mode:soft-light" opacity="0.4">
<path d="M465.8 516.5C531.4 482.5 533.4 352.5 405 317.9C276.5 283.3 234.5 408 268 474C301.4 540 402.5 549.4 465.8 516.5Z" fill="#FEFFFA"/>
</g>
<path style="mix-blend-mode:multiply" opacity="0.5" d="M503.1 334.2C503.1 334.2 435.4 296 372 296.5C308.6 296.9 266.9 328.7 266.9 328.7C266.9 328.7 299.6 278.5 378.6 278.7C468.9 278.9 503.1 334.2 503.1 334.2Z" fill="url(#paint52_linear_10_169)"/>
<g style="mix-blend-mode:multiply" opacity="0.5">
<path d="M414.6 344.4C427.6 332.9 424.3 303.4 392.8 316.7C361.3 330 401.6 356 414.6 344.4Z" fill="#FF93AD"/>
<path d="M378 355.9C392.8 351 378.2 332.5 368.1 340.6C358.1 348.7 368.7 359 378 355.9Z" fill="#FF93AD"/>
</g>
<g style="mix-blend-mode:soft-light">
<path d="M595 171.7C595 171.7 594.5 150.8 570.4 149C546.2 147.2 511.8 178 491.3 215.3C491.3 215.3 509.6 173.6 548 144.8C586.4 116.1 601.3 158.2 595 171.7Z" fill="white"/>
</g>
<g style="mix-blend-mode:soft-light">
<path d="M495.9 135C495.9 135 496.8 113.7 473.3 109.1C449.8 104.4 426.7 154.8 426.7 154.8C426.7 154.8 454.1 98.4 477.6 96.6C501.1 94.8 495.9 135 495.9 135Z" fill="white"/>
</g>
<g style="mix-blend-mode:soft-light">
<path d="M411.8 144.8C411.8 144.8 405.2 105.2 381.1 97.9C356.9 90.7 344.4 144.8 344.4 144.8C344.4 144.8 353.9 91.2 374.7 84.3C395.6 77.5 409.9 135.5 411.8 144.8Z" fill="white"/>
</g>
<g style="mix-blend-mode:soft-light">
<path d="M333 168.1C333 168.1 312 122.8 288.2 112.4C264.4 101.9 254.4 110.9 254.4 110.9C254.4 110.9 262.4 96.9 281.3 97.9C300.3 98.9 327.4 146.3 333 168.1Z" fill="white"/>
</g>
<g style="mix-blend-mode:soft-light">
<path d="M277.3 234C277.3 234 240.1 182.3 212.5 163.5C184.8 144.6 169 153.9 169 153.9C169 153.9 186.8 135.7 221.2 161.9C255.7 188.2 277.3 234 277.3 234Z" fill="white"/>
</g>
<g style="mix-blend-mode:soft-light">
<path d="M720.8 349.6C720.8 349.6 699.5 336.3 645.4 335.4C591.2 334.6 542.1 354.9 542.1 354.9C542.1 354.9 602.5 327.7 652.5 330.6C702.5 333.5 720.8 349.6 720.8 349.6Z" fill="white"/>
</g>
<g style="mix-blend-mode:soft-light">
<path d="M225.8 312C225.8 312 187.6 294.1 143.5 278.7C99.3998 263.2 73.5998 263.4 73.5998 263.4C73.5998 263.4 137.9 251.1 225.8 312Z" fill="white"/>
</g>
<path d="M230 369.5C230 369.5 181.1 358.8 132.2 353.6C83.1998 348.3 44.0997 356.8 44.0997 356.8C44.0997 356.8 66.5998 341.6 131 349.4C195.3 357.1 230 369.5 230 369.5Z" fill="white"/>
<path d="M244.3 210.8C261.3 204.9 240.8 170 222.3 171.1C203.9 172.2 229.8 215.8 244.3 210.8Z" fill="white"/>
<path d="M154 354.9C172.7 358.4 114.9 380.2 95.0998 366.5C75.2998 352.8 107 346.1 154 354.9Z" fill="white"/>
<path d="M176.4 473.4C194.7 475.7 149.5 519.8 118.1 509.5C86.7996 499.2 137.9 468.4 176.4 473.4Z" fill="white"/>
<path d="M653.9 362.5C677.8 340.6 634.9 326.1 601.9 342.7C568.9 359.3 631.2 383.2 653.9 362.5Z" fill="white"/>
<path d="M620.4 595.1C634 594.4 621.7 567.1 601.9 566.9C582.1 566.6 606.7 595.8 620.4 595.1Z" fill="white"/>
<path d="M310.1 714.6C323 692.2 298.4 674.6 292.6 695.7C286.8 716.8 303.4 726.3 310.1 714.6Z" fill="white"/>
<path d="M545.9 154.8C560.1 153 546.6 189.8 530.8 183.7C515 177.5 531.7 156.6 545.9 154.8Z" fill="white"/>
<path d="M304 393.1C307.7 391.3 306.9 379.2 296 381.4C285.2 383.6 291.9 399.2 304 393.1Z" fill="white"/>
</g>
<g clip-path="url(#clip1_10_169)">
<path d="M412.395 634.92C408.671 620.682 445.369 570.606 556.357 565.503C562.5 565.168 568.899 565.018 575.555 565.055C576.73 565.019 577.947 565.023 579.205 565.068L582.552 572.484L588.87 586.281C588.87 586.281 561.622 618.917 508.797 639.821C497.388 644.309 486.603 647.396 476.667 649.252C445.39 655.019 422.542 648.999 414.844 639.645C414.512 639.179 414.082 638.665 413.822 638.173C413.105 637.092 412.629 636.008 412.395 634.92Z" fill="url(#paint53_radial_10_169)"/>
<path d="M389.415 510.575C389.217 509.809 389.118 509.09 389.117 508.42C389.026 507.95 389.079 507.428 389.061 506.931C390.143 493.879 431.138 464.958 516.832 482.726C533.029 486.053 550.839 491.139 570.272 498.234L571.106 506.314L571.088 506.488L572.639 521.433C572.639 521.433 536.241 542.729 479.238 544.362C475.003 544.45 470.942 544.42 467.053 544.27C421.291 542.734 392.745 524.621 389.415 510.575Z" fill="url(#paint54_radial_10_169)"/>
<path d="M488.203 343.084C485.642 328.926 487.219 318.125 491.684 312.811C492.47 311.854 493.337 311.119 494.356 310.581C501.4 306.34 525.895 313.102 551.671 339.852C568.721 357.539 586.266 383.932 599.766 421.69C599.784 421.739 599.793 421.764 599.793 421.764C603.628 432.524 607.062 444.185 610.095 456.746L604.153 462.01L593.163 471.878C593.163 471.878 554.481 453.514 518.871 406.869C512.821 398.927 507.791 391.117 503.621 383.665C503.501 383.485 503.373 383.28 503.235 383.051C503.163 382.853 503.059 382.64 502.921 382.411C502.885 382.312 502.834 382.247 502.769 382.215C502.733 382.116 502.688 381.992 502.634 381.844C494.822 367.502 490.169 354.273 488.203 343.084Z" fill="url(#paint55_radial_10_169)"/>
<path d="M717.647 608.908L729.703 600.412L736.129 595.81C802.765 637.114 832.902 678.96 844.054 708.267C844.025 708.334 844.034 708.358 844.081 708.341C851.588 728.076 850.544 742.121 846.309 746.513C845.47 747.321 844.504 748.008 843.485 748.546C829.897 755.504 793.851 741.713 760.93 698.449C747.808 681.093 738.481 664.368 731.93 650.153C720.748 625.887 717.647 608.908 717.647 608.908Z" fill="url(#paint56_radial_10_169)"/>
<path d="M753.678 574.584L756.702 561.747L757.093 559.928L758.009 555.989L758.925 552.051C885.437 529.729 937.679 577.782 936.86 593.337C936.808 594.53 936.56 595.627 936.096 596.801C935.062 599.525 932.892 602.243 929.773 604.803L928.951 605.438C915.511 615.695 885.792 622.404 845.962 614.685C845.019 614.469 844.052 614.262 843.062 614.064C786.881 602.152 753.678 574.584 753.678 574.584Z" fill="url(#paint57_radial_10_169)"/>
<path d="M756.624 513.235L754.25 498.255L753.302 492.312L752.933 490.183C761.54 484.452 769.951 479.295 777.996 474.69C870.059 422.487 926.128 443.661 930.915 457.26C931.292 458.296 931.482 459.485 931.529 460.725C931.616 465.64 929.084 471.591 923.931 477.91C922.243 479.949 920.269 482.093 918.026 484.167C905.178 496.053 883.384 507.842 853.164 514.062C797.472 525.53 756.624 513.235 756.624 513.235Z" fill="url(#paint58_radial_10_169)"/>
<path d="M712.866 448.43C713.024 446.64 713.159 444.858 713.27 443.086L713.243 443.012C715.788 414.839 721.114 391.188 728.064 371.556L728.037 371.482C751.356 305.569 792.639 284.339 803.372 288.9C804.428 289.354 805.467 289.982 806.345 290.836C813.69 297.217 817.347 314.832 812.916 338.493C810.945 349.103 807.33 360.981 801.756 373.489C799.75 377.992 797.484 382.673 794.905 387.384C767.342 438.076 732.073 461.14 732.073 461.14L719.609 452.934L712.866 448.43Z" fill="url(#paint59_radial_10_169)"/>
<path d="M623.092 348.229C622.884 346.544 622.747 344.834 622.539 343.149C622.512 343.075 622.512 343.075 622.583 343.049C621.611 332.588 621.446 323.008 621.872 314.385C621.854 314.336 621.845 314.311 621.845 314.311C623.561 281.411 634.197 262.114 643.711 258.651C644.694 258.237 645.654 258.056 646.591 258.106C654.866 258.364 676.776 283.839 682.384 333.523C682.946 338.628 683.309 344.001 683.472 349.642C684.348 374.976 681.046 405.52 670.513 441.127L663.841 442.381L651.481 444.7C651.481 444.7 629.887 408.296 623.092 348.229Z" fill="url(#paint60_radial_10_169)"/>
<path d="M645.671 719.861C645.542 717.057 645.511 714.302 645.597 711.421C645.88 696.395 646.908 683.865 648.164 673.516C651.872 644.753 657.867 633.181 657.867 633.181L682.282 633.936C707.572 677.378 714.174 721.335 712.29 754.884C710.535 785.451 701.736 807.349 693.602 812.154C692.064 813.049 690.481 813.373 689.013 812.902C672.519 808.091 647.15 772.222 645.671 719.861Z" fill="url(#paint61_radial_10_169)"/>
<path style="mix-blend-mode:multiply" opacity="0.5" d="M717.647 608.908L729.703 600.412L736.129 595.81C802.765 637.114 832.902 678.96 844.055 708.267C842.701 706.328 795.305 637.314 759.839 622.893C735.859 613.094 733.503 636.67 731.93 650.153C720.749 625.887 717.647 608.908 717.647 608.908Z" fill="url(#paint62_linear_10_169)"/>
<path style="mix-blend-mode:multiply" opacity="0.5" d="M651.396 675.273C648.912 683.806 646.9 702.982 645.671 719.861C645.542 717.057 645.511 714.302 645.597 711.421C645.88 696.395 646.909 683.865 648.164 673.516C651.872 644.753 657.867 633.181 657.867 633.181L682.283 633.936C707.572 677.378 714.175 721.335 712.29 754.884C712.142 751.584 709.339 692.915 692.053 666.344C674.158 638.989 656.472 658.504 651.396 675.273Z" fill="url(#paint63_linear_10_169)"/>
<path style="mix-blend-mode:multiply" opacity="0.5" d="M644.014 749.806C644.033 750.302 644.018 750.559 643.97 750.576C643.952 750.527 643.967 750.27 644.014 749.806Z" fill="url(#paint64_linear_10_169)"/>
<path style="mix-blend-mode:multiply" opacity="0.5" d="M575.555 565.055L566.406 585.99C566.406 585.99 540.812 574.431 482.036 587.44C436.228 597.574 419.836 627.097 414.844 639.645C414.456 639.172 414.115 638.681 413.822 638.173C413.105 637.092 412.629 636.008 412.368 634.846C408.545 619.89 449.557 564.974 575.555 565.055Z" fill="url(#paint65_linear_10_169)"/>
<path style="mix-blend-mode:multiply" opacity="0.5" d="M389.117 508.42C389.026 507.95 389.079 507.428 389.061 506.931C390.318 491.468 448.155 453.398 570.272 498.234L571.034 506.34L571.088 506.488L565.346 507.404C565.346 507.404 514.128 487.315 449.216 488.809C413.093 489.717 396.619 499.653 389.117 508.42Z" fill="url(#paint66_linear_10_169)"/>
<path style="mix-blend-mode:multiply" opacity="0.5" d="M491.685 312.811C492.47 311.854 493.337 311.119 494.356 310.581C505.985 303.582 565.949 326.775 599.766 421.69C598.367 419.181 555.138 336.914 518.65 326.805C495.229 320.323 489.369 332.935 488.23 343.158C485.642 328.926 487.219 318.125 491.685 312.811Z" fill="url(#paint67_linear_10_169)"/>
<path style="mix-blend-mode:multiply" opacity="0.5" d="M643.711 258.651C644.712 258.287 645.696 258.096 646.591 258.106C655.69 258.399 681.454 289.346 683.472 349.642L683.499 349.716C683.499 349.716 673.258 275.73 648.007 272.681C630.04 270.501 624.362 316.329 622.512 343.075C617.869 292.704 631.693 263.025 643.711 258.651Z" fill="url(#paint68_linear_10_169)"/>
<path style="mix-blend-mode:multiply" opacity="0.5" d="M713.27 443.086L713.243 443.011C724.046 320.455 789.47 282.978 803.372 288.9C804.428 289.354 805.467 289.982 806.345 290.836C813.69 297.217 817.347 314.832 812.916 338.493C813.91 307.616 804.012 298.895 769.752 320.502C735.465 342.036 713.27 443.086 713.27 443.086Z" fill="url(#paint69_linear_10_169)"/>
<path style="mix-blend-mode:multiply" opacity="0.5" d="M752.933 490.183C859.792 418.762 925.697 442.476 930.888 457.186C931.292 458.296 931.482 459.485 931.528 460.725C931.688 465.614 929.084 471.591 923.931 477.91C930.348 467.275 892.88 447.798 841.016 458.207C806.351 465.124 772.128 481.939 753.302 492.312L752.933 490.183Z" fill="url(#paint70_linear_10_169)"/>
<path style="mix-blend-mode:multiply" opacity="0.5" d="M758.009 555.989L758.925 552.051C885.437 529.729 937.679 577.782 936.86 593.337C936.808 594.53 936.56 595.627 936.096 596.801C935.062 599.525 932.892 602.243 929.773 604.803L928.951 605.438C936.705 591.13 886.421 561.144 833.549 554.986C803.011 551.431 775.612 553.607 758.009 555.989Z" fill="url(#paint71_linear_10_169)"/>
<path style="mix-blend-mode:multiply" d="M753.678 574.584L756.702 561.747C759.565 562.046 762.706 562.663 765.928 563.502C792.222 570.531 837.103 607.262 845.961 614.685C845.019 614.469 844.052 614.262 843.062 614.064C786.881 602.152 753.678 574.584 753.678 574.584Z" fill="url(#paint72_linear_10_169)"/>
<path style="mix-blend-mode:multiply" d="M787.865 494.906C794.916 496.028 819.604 487.294 856.843 484.555C879.403 482.883 902.942 483.453 918.026 484.167C905.178 496.053 883.384 507.841 853.164 514.062C797.472 525.53 756.624 513.235 756.624 513.235L754.25 498.255L753.302 492.312L752.932 490.183C761.539 484.452 769.95 479.295 777.996 474.69L773.604 481.989C773.604 481.989 780.742 493.81 787.865 494.906Z" fill="url(#paint73_linear_10_169)"/>
<path style="mix-blend-mode:multiply" d="M728.064 371.556C744.97 420.23 758.497 414.217 758.497 414.217C776.957 410.851 792.577 385.884 801.756 373.489C799.75 377.992 797.484 382.673 794.905 387.384C767.342 438.076 732.073 461.14 732.073 461.14L719.609 452.934L712.866 448.43C713.024 446.64 713.159 444.858 713.27 443.086L713.243 443.012C715.788 414.839 721.114 391.188 728.064 371.556Z" fill="url(#paint74_linear_10_169)"/>
<path style="mix-blend-mode:multiply" d="M651.481 444.7C651.481 444.7 629.887 408.296 623.092 348.229C622.884 346.544 622.747 344.834 622.539 343.149C622.512 343.075 622.512 343.075 622.583 343.049C621.611 332.588 621.446 323.008 621.872 314.385C622.152 316.714 630.561 379.212 653.977 388.126C667.412 393.212 680.693 365.157 682.384 333.523C682.946 338.628 683.309 344.001 683.472 349.642C684.348 374.976 681.046 405.52 670.513 441.126L663.841 442.381L651.481 444.7Z" fill="url(#paint75_linear_10_169)"/>
<path style="mix-blend-mode:multiply" d="M518.871 406.869C512.821 398.927 507.791 391.117 503.621 383.665C514.471 401.68 573.575 436.756 577.653 417.247C581.758 397.142 551.671 339.852 551.671 339.852C568.721 357.539 586.266 383.932 599.766 421.69C599.784 421.739 599.793 421.764 599.793 421.764C603.628 432.524 607.062 444.184 610.095 456.746L604.153 462.01L593.163 471.878C593.163 471.878 554.481 453.514 518.871 406.869Z" fill="url(#paint76_linear_10_169)"/>
<path style="mix-blend-mode:multiply" d="M479.238 544.362C474.989 544.484 448.532 542.795 444.587 542.639C472.109 526.334 534.045 508.653 522.65 490.92C521.107 488.464 519.144 485.741 516.832 482.726C533.029 486.053 550.839 491.139 570.272 498.234L571.106 506.314L571.088 506.488L572.639 521.433C572.639 521.433 536.241 542.729 479.238 544.362Z" fill="url(#paint77_linear_10_169)"/>
<path style="mix-blend-mode:multiply" d="M582.552 572.484L588.87 586.281C588.87 586.281 561.622 618.917 508.797 639.821C497.388 644.308 486.603 647.395 476.667 649.252C498.483 615.49 560.075 575.719 556.357 565.503C562.5 565.168 568.899 565.018 575.555 565.055C576.73 565.019 577.947 565.023 579.205 565.068L582.552 572.484Z" fill="url(#paint78_linear_10_169)"/>
<path d="M587.704 589.975C588.866 589.608 590.029 589.241 591.191 588.873L596.451 595.091L606.308 606.593C606.308 606.593 593.263 637.078 559.814 668.702C555.875 666.782 549.073 665.234 540.034 669.111C530.593 673.218 530.179 684.099 531.263 691.752C497.067 714.426 467.047 716.969 455.514 709.095C455 708.723 454.543 708.359 454.143 708.001C453.194 707.173 452.432 706.193 451.84 705.235C443.966 691.837 467.707 626.86 587.704 589.975Z" fill="url(#paint79_radial_10_169)"/>
<path d="M394.448 590.062C394.286 589.618 394.098 589.099 394.008 588.629C391.08 574.353 429.561 526.73 539.277 526.366C547.203 526.332 555.479 526.589 564.077 527.064L567.094 534.685L567.121 534.759L572.794 548.79C572.794 548.79 566.801 555.247 555.121 564.109C541.349 574.571 519.46 588.322 490.202 598.301C440.369 615.181 403.059 605.707 395.319 592.008C394.972 591.352 394.681 590.703 394.448 590.062Z" fill="url(#paint80_radial_10_169)"/>
<path d="M432.874 377.139C433.266 375.99 433.954 374.985 434.695 374.129C443.1 364.95 496.558 368.044 550.306 430.47C555.584 436.514 560.764 443.179 566.017 450.489C566.083 450.521 566.115 450.537 566.115 450.537C572.695 459.711 579.24 469.904 585.635 481.241L581.467 488.04L573.702 500.759C573.702 500.759 552.942 497.584 524.411 483.74C512.325 477.911 498.787 470.096 484.915 459.804C461.004 442.183 445.768 423.249 437.972 407.392C431.539 394.392 430.092 383.517 432.874 377.139Z" fill="url(#paint81_radial_10_169)"/>
<path d="M735.183 590.537L744.291 578.839L749.203 572.524C824.138 592.784 864.378 624.33 883.2 649.336C883.218 649.385 883.227 649.41 883.227 649.41C895.892 666.178 898.828 680.031 895.991 685.591C895.447 686.544 894.759 687.548 893.92 688.357C882.886 698.996 844.718 696.289 801.364 664.199C784.061 651.383 770.507 637.957 760.273 626.088C742.916 605.998 735.183 590.537 735.183 590.537Z" fill="url(#paint82_radial_10_169)"/>
<path d="M759.892 546.92L759.155 531.763L758.881 527.671L758.705 523.628C872.883 464.968 936.015 495.979 939.607 511.187C939.868 512.349 939.959 513.49 939.791 514.809C939.562 517.742 938.305 520.966 936.038 524.306L935.395 525.211C925.145 539.337 897.72 555.02 855.973 558.729C799.217 563.71 759.892 546.92 759.892 546.92Z" fill="url(#paint83_radial_10_169)"/>
<path d="M735.748 465.671C744.277 455.273 752.628 445.946 760.802 437.689C831.358 366.236 887.894 370.222 896.034 381.679C896.697 382.611 897.173 383.695 897.532 384.906C899.06 389.547 898.291 396.115 895.117 403.642C888.225 420.318 869.647 441.834 837.842 459.279C809.638 474.826 783.838 481.617 766.764 484.562C753.724 486.793 745.726 486.854 745.726 486.854L739.265 473.11L736.618 467.618L735.748 465.671Z" fill="url(#paint84_radial_10_169)"/>
<path d="M685.931 437.192C685.606 435.409 685.258 433.636 684.885 431.871L684.858 431.797C681.092 412.545 679.179 395.049 678.799 379.092L678.772 379.018C676.469 294.346 715.177 255.358 727.749 256.735C728.867 256.915 730.013 257.169 731.096 257.696C739.878 261.794 748.229 277.616 750.607 301.733L750.634 301.807C752.078 316.456 751.315 334.171 747.085 354.154C740.394 385.847 729.022 410.022 720.213 425.217C713.199 437.327 707.858 443.798 707.858 443.798L693.655 439.494L685.931 437.192Z" fill="url(#paint85_radial_10_169)"/>
<path d="M563.418 277.312C564.241 276.678 565.144 276.265 566.029 276.027C574.712 273.621 607.907 295.827 626.624 353.482C631.62 368.766 635.599 386.6 637.793 407.095C639.036 418.966 639.734 431.79 639.718 445.545L633.719 448.65L622.581 454.548C622.581 454.548 612.135 444.769 598.796 425.48C589.338 411.737 578.344 393.103 568.747 369.853C568.083 368.251 567.419 366.648 566.755 365.045C566.755 365.045 566.746 365.021 566.728 364.971C548.357 317.837 553.123 285.083 563.418 277.312Z" fill="url(#paint86_radial_10_169)"/>
<path d="M697.522 718.761C696.695 716.044 695.895 713.401 695.139 710.658C691.281 696.05 688.714 683.655 687.115 673.255C682.557 644.482 685.142 631.553 685.142 631.553L708.464 625.077C744.683 659.596 763.214 700.049 770.731 732.942C777.608 762.967 775.28 786.617 768.92 793.626C767.643 795.013 766.221 795.782 764.745 795.733C747.712 795.896 713.562 768.84 697.522 718.761Z" fill="url(#paint87_radial_10_169)"/>
<path style="mix-blend-mode:multiply" opacity="0.5" d="M735.182 590.537L744.291 578.839L749.202 572.524C824.138 592.784 864.378 624.33 883.2 649.336C881.355 647.828 822.384 598.871 784.572 595.364C758.983 592.941 758.053 612.645 760.273 626.088C742.916 605.998 735.182 590.537 735.182 590.537Z" fill="url(#paint88_linear_10_169)"/>
<path style="mix-blend-mode:multiply" opacity="0.5" d="M690.623 673.99C690.573 682.978 694.045 702.087 697.522 718.761C696.695 716.044 695.895 713.401 695.14 710.658C691.281 696.05 688.714 683.655 687.115 673.255C682.557 644.482 685.142 631.553 685.142 631.553L708.464 625.077C744.683 659.596 763.214 700.049 770.731 732.942C769.671 729.807 750.733 673.993 726.808 653.442C702.185 632.308 690.759 656.336 690.623 673.99Z" fill="url(#paint89_linear_10_169)"/>
<path style="mix-blend-mode:multiply" opacity="0.5" d="M704.3 748.067C704.48 748.561 704.545 748.816 704.498 748.834C704.48 748.784 704.414 748.529 704.3 748.067Z" fill="url(#paint90_linear_10_169)"/>
<path style="mix-blend-mode:multiply" opacity="0.5" d="M587.703 589.975L584.864 612.889C584.864 612.889 557.296 609.258 504.949 639.041C464.152 662.274 456.791 695.468 455.513 709.095C455 708.723 454.543 708.359 454.143 708.001C453.194 707.173 452.432 706.193 451.84 705.235C443.966 691.837 467.707 626.86 587.703 589.975Z" fill="url(#paint91_linear_10_169)"/>
<path style="mix-blend-mode:multiply" opacity="0.5" d="M394.448 590.062C394.286 589.618 394.098 589.099 394.008 588.629C390.873 573.339 435.34 519.681 564.077 527.064L567.094 534.685L567.121 534.759L561.971 537.304C561.971 537.304 507.599 533.034 446.204 553.535C412.045 564.962 399.174 579.455 394.448 590.062Z" fill="url(#paint92_linear_10_169)"/>
<path style="mix-blend-mode:multiply" opacity="0.5" d="M432.874 377.139C433.266 375.99 433.953 374.985 434.695 374.129C443.886 363.993 507.366 368.805 566.017 450.489C564.028 448.363 499.995 381.715 462.377 382.748C438.304 383.378 436.212 397.217 437.971 407.392C431.539 394.392 430.092 383.517 432.874 377.139Z" fill="url(#paint93_linear_10_169)"/>
<path style="mix-blend-mode:multiply" opacity="0.5" d="M563.418 277.312C564.241 276.678 565.144 276.265 566.029 276.027C574.712 273.621 607.907 295.827 626.624 353.482C626.624 353.482 596.316 285.123 571.371 289.592C553.725 292.745 561.027 338.627 566.728 364.971C548.357 317.837 553.123 285.083 563.418 277.312Z" fill="url(#paint94_linear_10_169)"/>
<path style="mix-blend-mode:multiply" opacity="0.5" d="M684.886 431.871L684.859 431.797C660.952 310.473 712.824 255.125 727.749 256.735C728.868 256.915 730.013 257.169 731.096 257.696C739.878 261.794 748.23 277.616 750.608 301.733L750.635 301.807C742.979 271.647 731.099 266.162 704.51 297.05C677.921 327.937 684.886 431.871 684.886 431.871Z" fill="url(#paint95_linear_10_169)"/>
<path style="mix-blend-mode:multiply" opacity="0.5" d="M735.748 465.671C817.624 365.45 886.926 368.897 896.034 381.679C896.697 382.611 897.173 383.695 897.532 384.906C899.06 389.547 898.291 396.115 895.117 403.642C898.24 391.523 857.174 383.75 810.699 408.965C779.599 425.902 751.724 452.143 736.618 467.618L735.748 465.671Z" fill="url(#paint96_linear_10_169)"/>
<path style="mix-blend-mode:multiply" opacity="0.5" d="M758.881 527.671L758.705 523.628C872.883 464.968 936.015 495.979 939.607 511.187C939.868 512.349 939.959 513.49 939.791 514.809C939.562 517.742 938.305 520.966 936.038 524.306L935.395 525.211C938.781 509.14 882.587 494.97 830.498 504.539C800.447 510.112 775.036 520.199 758.881 527.671Z" fill="url(#paint97_linear_10_169)"/>
<path style="mix-blend-mode:multiply" d="M736.618 467.618L735.748 465.671C744.277 455.273 752.628 445.946 760.802 437.689C758.637 456.669 765.605 480.709 766.764 484.562C753.724 486.793 745.726 486.854 745.726 486.854L739.265 473.11L736.618 467.618Z" fill="url(#paint98_linear_10_169)"/>
<path style="mix-blend-mode:multiply" d="M693.655 439.494L685.931 437.192C685.606 435.409 685.258 433.636 684.885 431.871L684.858 431.797C681.092 412.545 679.179 395.049 678.799 379.092C680.819 390.429 685.558 407.902 691.268 415.8C696.396 422.987 712.829 428.743 720.213 425.217C713.199 437.327 707.858 443.798 707.858 443.798L693.655 439.494Z" fill="url(#paint99_linear_10_169)"/>
<path style="mix-blend-mode:multiply" d="M622.581 454.548C622.581 454.548 612.135 444.769 598.796 425.48C603.156 427.666 612.511 425.77 617.206 424.648C626.713 422.278 633.987 416.444 637.793 407.095C639.036 418.966 639.734 431.79 639.718 445.545L633.719 448.65L622.581 454.548Z" fill="url(#paint100_linear_10_169)"/>
<path style="mix-blend-mode:multiply" d="M573.702 500.759C573.702 500.759 552.942 497.584 524.411 483.74C532.993 485.731 542.721 487.974 549.246 484.091C558.962 478.291 567.574 457.216 550.306 430.47C555.584 436.514 560.764 443.179 566.017 450.489C566.083 450.521 566.115 450.537 566.115 450.537C572.695 459.711 579.24 469.904 585.635 481.241L581.467 488.04L573.702 500.759Z" fill="url(#paint101_linear_10_169)"/>
<path style="mix-blend-mode:multiply" d="M567.12 534.759L572.794 548.79C572.794 548.79 566.801 555.247 555.121 564.109C551.845 550.882 545.824 537.9 539.277 526.366C547.203 526.331 555.479 526.589 564.077 527.064L567.094 534.685L567.12 534.759Z" fill="url(#paint102_linear_10_169)"/>
<path d="M552.125 540.301C551.39 532.939 551.451 525.54 552.166 518.154C556.145 479.232 581.143 442.636 636.149 427.729C679.218 416.078 714.848 427.169 739.526 449.122C744.999 453.92 749.892 459.349 754.239 465.061C765.478 479.916 772.875 497.344 775.915 515.268C776.51 518.907 776.936 522.525 777.147 526.221C777.251 528.139 777.313 530.017 777.334 531.853C777.406 536.354 777.171 540.827 776.628 545.272C775.575 553.284 773.573 561.139 770.515 568.539C733.044 659.891 631.427 662.254 586.407 616.016C585.786 615.348 585.189 614.671 584.615 613.986C581.814 611.037 579.182 607.887 576.72 604.536C572.373 598.824 568.562 592.582 565.297 586.058C563.538 582.563 561.929 578.957 560.468 575.241C556.087 564.093 553.153 552.25 552.125 540.301Z" fill="url(#paint103_radial_10_169)"/>
<path style="mix-blend-mode:multiply" opacity="0.5" d="M636.15 427.729C713.191 406.814 766.558 459.068 775.915 515.268C775.026 512.825 740.664 418.863 632.81 445.041C550.731 465.023 557.028 546.648 565.297 586.058C537.126 530.251 548.484 451.505 636.15 427.729Z" fill="url(#paint104_linear_10_169)"/>
<path d="M560.468 575.241C561.858 577.501 606.245 650.042 690.3 628.586C774.453 607.179 777.115 528.58 777.147 526.221C778.08 540.804 775.99 555.313 770.515 568.539C733.044 659.892 631.428 662.254 586.407 616.016C578.057 607.318 570.859 597.112 565.297 586.058C563.538 582.563 561.929 578.957 560.468 575.241Z" fill="#FED95E"/>
<g style="mix-blend-mode:soft-light" opacity="0.4">
<path d="M749.362 584.538C787.127 542.289 753.531 445.534 652.361 453.35C551.119 461.193 554.674 564.439 596.42 604.575C638.094 644.737 712.947 625.373 749.362 584.538Z" fill="#FEFFFA"/>
</g>
<path style="mix-blend-mode:multiply" opacity="0.5" d="M726.926 439.876C726.926 439.876 668.206 429.223 622.989 446.1C577.745 462.903 556.484 497.301 556.484 497.301C556.484 497.301 566.35 451.625 622.914 431.205C687.562 407.843 726.926 439.876 726.926 439.876Z" fill="url(#paint105_linear_10_169)"/>
<g style="mix-blend-mode:multiply" opacity="0.5">
<path d="M666.368 470.468C672.569 458.57 662.26 437.591 643.31 455.638C624.361 473.685 660.194 482.44 666.368 470.468Z" fill="#FF93AD"/>
<path d="M643.286 488.51C652.552 481.029 637.124 471.136 632.081 479.762C627.111 488.361 637.468 493.226 643.286 488.51Z" fill="#FF93AD"/>
</g>
<g style="mix-blend-mode:soft-light">
<path d="M748.881 295.655C748.881 295.655 742.892 280.313 725.168 285.256C707.372 290.224 691.063 321.98 686.449 354.93C686.449 354.93 688.304 319.296 708.013 287.978C727.749 256.735 749.75 284.021 748.881 295.655Z" fill="white"/>
</g>
<g style="mix-blend-mode:soft-light">
<path d="M668.104 294.289C668.104 294.289 663.009 278.286 644.959 281C626.883 283.639 623.938 326.963 623.938 326.963C623.938 326.963 628.342 278.078 644.667 270.627C660.993 263.176 668.104 294.289 668.104 294.289Z" fill="white"/>
</g>
<g style="mix-blend-mode:soft-light">
<path d="M610.585 323.439C610.585 323.439 595.195 295.843 575.988 296.714C556.738 297.684 562.372 340.987 562.372 340.987C562.372 340.987 554.726 298.835 567.746 288.312C580.864 277.837 606.721 317.049 610.585 323.439Z" fill="white"/>
</g>
<g style="mix-blend-mode:soft-light">
<path d="M560.496 361.204C560.496 361.204 533.268 333.137 513.441 331.635C493.588 330.058 488.859 339.324 488.859 339.324C488.859 339.324 490.81 326.878 504.599 322.697C518.459 318.491 550.616 346.524 560.496 361.204Z" fill="white"/>
</g>
<g style="mix-blend-mode:soft-light">
<path d="M538.408 424.489C538.408 424.489 497.868 395.903 473.06 389.172C448.153 382.392 439.356 393.39 439.356 393.39C439.356 393.39 447.185 375.283 478.852 385.722C510.617 396.209 538.408 424.489 538.408 424.489Z" fill="white"/>
</g>
<g style="mix-blend-mode:soft-light">
<path d="M886.802 394.596C886.802 394.596 867.982 390.296 829.04 403.715C790.054 417.234 760.401 445.045 760.401 445.045C760.401 445.045 796.278 409.184 832.826 398.313C869.374 387.442 886.802 394.596 886.802 394.596Z" fill="white"/>
</g>
<g style="mix-blend-mode:soft-light">
<path d="M522.584 495.639C522.584 495.639 490.436 492.334 454.741 492.415C419.019 492.423 400.617 499.288 400.617 499.288C400.617 499.288 443.299 473.442 522.584 495.639Z" fill="white"/>
</g>
<path d="M541.082 537.111C541.082 537.111 503.219 541.921 466.839 550.803C430.36 559.637 404.681 576.11 404.681 576.11C404.681 576.11 416.68 559 464.849 548.007C512.919 536.966 541.082 537.111 541.082 537.111Z" fill="white"/>
<path d="M508.551 415.907C519.122 407.113 495.055 386.615 482.117 392.246C469.252 397.851 499.526 423.383 508.551 415.907Z" fill="white"/>
<path d="M482.783 546.09C497.103 543.812 461.63 574.999 443.776 570.012C425.921 565.025 446.792 551.812 482.783 546.09Z" fill="white"/>
<path d="M530.734 627.98C544.445 624.918 523.994 669.332 498.757 669.882C473.593 670.407 501.847 634.302 530.734 627.98Z" fill="white"/>
<path d="M842.422 421.563C853.618 399.129 819.023 399.564 799.89 420.445C780.757 441.325 831.762 442.797 842.422 421.563Z" fill="white"/>
<path d="M881.13 602.472C890.669 598.413 874.515 581.406 860.298 586.413C846.054 591.346 871.518 606.557 881.13 602.472Z" fill="white"/>
<path d="M691.361 771.723C694.554 751.782 672.215 745.158 673.751 762.288C675.287 779.418 689.721 782.128 691.361 771.723Z" fill="white"/>
<path d="M709.205 295.928C718.878 290.898 719.136 321.655 706.19 321.253C693.218 320.777 699.533 300.957 709.205 295.928Z" fill="white"/>
<path d="M600.374 535.315C602.536 533.019 598.704 524.27 591.499 528.736C584.367 533.177 593.363 542.981 600.374 535.315Z" fill="white"/>
</g>
<defs>
<radialGradient id="paint0_radial_10_169" cx="0" cy="0" r="1" gradientUnits="userSpaceOnUse" gradientTransform="translate(372.9 672.9) rotate(180) scale(594.5 594.5)">
<stop stop-color="#FFEAED"/>
<stop offset="1" stop-color="#FFD6CB"/>
</radialGradient>
<radialGradient id="paint1_radial_10_169" cx="0" cy="0" r="1" gradientUnits="userSpaceOnUse" gradientTransform="translate(400.3 822) rotate(-180) scale(730.2 730.2)">
<stop stop-color="#FFEAED"/>
<stop offset="1" stop-color="#FFD6CB"/>
</radialGradient>
<radialGradient id="paint2_radial_10_169" cx="0" cy="0" r="1" gradientUnits="userSpaceOnUse" gradientTransform="translate(407 789.2) rotate(180) scale(663.6 663.6)">
<stop stop-color="#FFEAED"/>
<stop offset="1" stop-color="#FFD6CB"/>
</radialGradient>
<radialGradient id="paint3_radial_10_169" cx="0" cy="0" r="1" gradientUnits="userSpaceOnUse" gradientTransform="translate(286.5 755.5) rotate(180) scale(619.8 619.8)">
<stop stop-color="#FFEAED"/>
<stop offset="1" stop-color="#FFD6CB"/>
</radialGradient>
<radialGradient id="paint4_radial_10_169" cx="0" cy="0" r="1" gradientUnits="userSpaceOnUse" gradientTransform="translate(374.4 957.5) rotate(-180) scale(878.5 878.5)">
<stop stop-color="#FFEAED"/>
<stop offset="1" stop-color="#FFD6CB"/>
</radialGradient>
<radialGradient id="paint5_radial_10_169" cx="0" cy="0" r="1" gradientUnits="userSpaceOnUse" gradientTransform="translate(388.1 814.8) rotate(180) scale(580.3 580.3)">
<stop stop-color="#FFEAED"/>
<stop offset="1" stop-color="#FFD6CB"/>
</radialGradient>
<radialGradient id="paint6_radial_10_169" cx="0" cy="0" r="1" gradientUnits="userSpaceOnUse" gradientTransform="translate(393.2 724.2) rotate(180) scale(516.5 516.5)">
<stop stop-color="#FFEAED"/>
<stop offset="1" stop-color="#FFD6CB"/>
</radialGradient>
<radialGradient id="paint7_radial_10_169" cx="0" cy="0" r="1" gradientUnits="userSpaceOnUse" gradientTransform="translate(462.4 757.4) rotate(180) scale(599 599)">
<stop stop-color="#FFEAED"/>
<stop offset="1" stop-color="#FFD6CB"/>
</radialGradient>
<radialGradient id="paint8_radial_10_169" cx="0" cy="0" r="1" gradientUnits="userSpaceOnUse" gradientTransform="translate(286.5 755.5) rotate(180) scale(619.8 619.8)">
<stop stop-color="#FFEAED"/>
<stop offset="1" stop-color="#FFD6CB"/>
</radialGradient>
<linearGradient id="paint9_linear_10_169" x1="563.8" y1="559.9" x2="521" y2="703.4" gradientUnits="userSpaceOnUse">
<stop stop-color="#8B0059"/>
<stop offset="1" stop-color="white"/>
</linearGradient>
<linearGradient id="paint10_linear_10_169" x1="488.7" y1="581.9" x2="443.5" y2="733.4" gradientUnits="userSpaceOnUse">
<stop stop-color="#8B0059"/>
<stop offset="1" stop-color="white"/>
</linearGradient>
<linearGradient id="paint11_linear_10_169" x1="267.8" y1="669.7" x2="267.5" y2="670.7" gradientUnits="userSpaceOnUse">
<stop stop-color="#8B0059"/>
<stop offset="1" stop-color="white"/>
</linearGradient>
<linearGradient id="paint12_linear_10_169" x1="170.8" y1="390.5" x2="146.4" y2="472.3" gradientUnits="userSpaceOnUse">
<stop stop-color="#8B0059"/>
<stop offset="1" stop-color="white"/>
</linearGradient>
<linearGradient id="paint13_linear_10_169" x1="183.5" y1="270.7" x2="170.6" y2="314" gradientUnits="userSpaceOnUse">
<stop stop-color="#8B0059"/>
<stop offset="1" stop-color="white"/>
</linearGradient>
<linearGradient id="paint14_linear_10_169" x1="406.6" y1="117.3" x2="363.9" y2="260.2" gradientUnits="userSpaceOnUse">
<stop stop-color="#8B0059"/>
<stop offset="1" stop-color="white"/>
</linearGradient>
<linearGradient id="paint15_linear_10_169" x1="571.4" y1="108.1" x2="537.4" y2="221.9" gradientUnits="userSpaceOnUse">
<stop stop-color="#8B0059"/>
<stop offset="1" stop-color="white"/>
</linearGradient>
<linearGradient id="paint16_linear_10_169" x1="730.3" y1="205.7" x2="675.6" y2="389" gradientUnits="userSpaceOnUse">
<stop stop-color="#8B0059"/>
<stop offset="1" stop-color="white"/>
</linearGradient>
<linearGradient id="paint17_linear_10_169" x1="647.7" y1="389.4" x2="631.5" y2="443.8" gradientUnits="userSpaceOnUse">
<stop stop-color="#8B0059"/>
<stop offset="1" stop-color="white"/>
</linearGradient>
<linearGradient id="paint18_linear_10_169" x1="616.4" y1="514.9" x2="592.8" y2="594" gradientUnits="userSpaceOnUse">
<stop stop-color="#8B0059"/>
<stop offset="1" stop-color="white"/>
</linearGradient>
<linearGradient id="paint19_linear_10_169" x1="577.6" y1="492.5" x2="577.6" y2="594.4" gradientUnits="userSpaceOnUse">
<stop stop-color="#9700B3"/>
<stop offset="1" stop-color="#FFACAB"/>
</linearGradient>
<linearGradient id="paint20_linear_10_169" x1="628.8" y1="397.9" x2="628.8" y2="480" gradientUnits="userSpaceOnUse">
<stop stop-color="#FFACAB"/>
<stop offset="1" stop-color="#9700B3"/>
</linearGradient>
<linearGradient id="paint21_linear_10_169" x1="594.8" y1="253.2" x2="594.8" y2="361.8" gradientUnits="userSpaceOnUse">
<stop stop-color="#FFE3F7"/>
<stop offset="1" stop-color="#A92CB3"/>
</linearGradient>
<linearGradient id="paint22_linear_10_169" x1="613.7" y1="138.9" x2="613.7" y2="311.2" gradientUnits="userSpaceOnUse">
<stop stop-color="#FFE3F7"/>
<stop offset="1" stop-color="#A92CB3"/>
</linearGradient>
<linearGradient id="paint23_linear_10_169" x1="454.9" y1="138.8" x2="454.9" y2="314.3" gradientUnits="userSpaceOnUse">
<stop stop-color="#FFE3F7"/>
<stop offset="1" stop-color="#A92CB3"/>
</linearGradient>
<linearGradient id="paint24_linear_10_169" x1="210.9" y1="294.1" x2="210.9" y2="366.5" gradientUnits="userSpaceOnUse">
<stop stop-color="#FFE3F7"/>
<stop offset="1" stop-color="#A92CB3"/>
</linearGradient>
<linearGradient id="paint25_linear_10_169" x1="197.4" y1="410" x2="197.4" y2="478.1" gradientUnits="userSpaceOnUse">
<stop stop-color="#FFACAB"/>
<stop offset="1" stop-color="#9700B3"/>
</linearGradient>
<radialGradient id="paint26_radial_10_169" cx="0" cy="0" r="1" gradientUnits="userSpaceOnUse" gradientTransform="translate(383.3 789.1) rotate(180) scale(638.4 638.4)">
<stop stop-color="white"/>
<stop offset="1" stop-color="#FFEBD9"/>
</radialGradient>
<radialGradient id="paint27_radial_10_169" cx="0" cy="0" r="1" gradientUnits="userSpaceOnUse" gradientTransform="translate(385.7 768.7) rotate(180) scale(619.7 619.7)">
<stop stop-color="white"/>
<stop offset="1" stop-color="#FFEBD9"/>
</radialGradient>
<radialGradient id="paint28_radial_10_169" cx="0" cy="0" r="1" gradientUnits="userSpaceOnUse" gradientTransform="translate(385.8 768.8) rotate(180) scale(619.8 619.8)">
<stop stop-color="white"/>
<stop offset="1" stop-color="#FFEBD9"/>
</radialGradient>
<radialGradient id="paint29_radial_10_169" cx="0" cy="0" r="1" gradientUnits="userSpaceOnUse" gradientTransform="translate(385.8 768.8) rotate(180) scale(619.8 619.8)">
<stop stop-color="white"/>
<stop offset="1" stop-color="#FFEBD9"/>
</radialGradient>
<radialGradient id="paint30_radial_10_169" cx="0" cy="0" r="1" gradientUnits="userSpaceOnUse" gradientTransform="translate(385.7 768.8) rotate(180) scale(619.8 619.8)">
<stop stop-color="white"/>
<stop offset="1" stop-color="#FFEBD9"/>
</radialGradient>
<radialGradient id="paint31_radial_10_169" cx="0" cy="0" r="1" gradientUnits="userSpaceOnUse" gradientTransform="translate(385.8 768.8) rotate(180) scale(619.8 619.8)">
<stop stop-color="white"/>
<stop offset="1" stop-color="#FFEBD9"/>
</radialGradient>
<radialGradient id="paint32_radial_10_169" cx="0" cy="0" r="1" gradientUnits="userSpaceOnUse" gradientTransform="translate(385.7 768.8) rotate(180) scale(619.8 619.8)">
<stop stop-color="white"/>
<stop offset="1" stop-color="#FFEBD9"/>
</radialGradient>
<radialGradient id="paint33_radial_10_169" cx="0" cy="0" r="1" gradientUnits="userSpaceOnUse" gradientTransform="translate(385.7 768.8) rotate(180) scale(619.8 619.8)">
<stop stop-color="white"/>
<stop offset="1" stop-color="#FFEBD9"/>
</radialGradient>
<radialGradient id="paint34_radial_10_169" cx="0" cy="0" r="1" gradientUnits="userSpaceOnUse" gradientTransform="translate(385.7 768.8) rotate(180) scale(619.8 619.8)">
<stop stop-color="white"/>
<stop offset="1" stop-color="#FFEBD9"/>
</radialGradient>
<linearGradient id="paint35_linear_10_169" x1="595.6" y1="502.1" x2="595.6" y2="651.9" gradientUnits="userSpaceOnUse">
<stop stop-color="#8B0059"/>
<stop offset="1" stop-color="white"/>
</linearGradient>
<linearGradient id="paint36_linear_10_169" x1="529.9" y1="544.7" x2="529.9" y2="702.8" gradientUnits="userSpaceOnUse">
<stop stop-color="#8B0059"/>
<stop offset="1" stop-color="white"/>
</linearGradient>
<linearGradient id="paint37_linear_10_169" x1="343.3" y1="692" x2="343.3" y2="693" gradientUnits="userSpaceOnUse">
<stop stop-color="#8B0059"/>
<stop offset="1" stop-color="white"/>
</linearGradient>
<linearGradient id="paint38_linear_10_169" x1="170.5" y1="452.1" x2="170.5" y2="537.5" gradientUnits="userSpaceOnUse">
<stop stop-color="#8B0059"/>
<stop offset="1" stop-color="white"/>
</linearGradient>
<linearGradient id="paint39_linear_10_169" x1="148.5" y1="333.7" x2="148.5" y2="378.8" gradientUnits="userSpaceOnUse">
<stop stop-color="#8B0059"/>
<stop offset="1" stop-color="white"/>
</linearGradient>
<linearGradient id="paint40_linear_10_169" x1="309.8" y1="127.8" x2="309.8" y2="277" gradientUnits="userSpaceOnUse">
<stop stop-color="#8B0059"/>
<stop offset="1" stop-color="white"/>
</linearGradient>
<linearGradient id="paint41_linear_10_169" x1="467.6" y1="68.8" x2="467.6" y2="187.6" gradientUnits="userSpaceOnUse">
<stop stop-color="#8B0059"/>
<stop offset="1" stop-color="white"/>
</linearGradient>
<linearGradient id="paint42_linear_10_169" x1="653.9" y1="115.1" x2="653.9" y2="306.4" gradientUnits="userSpaceOnUse">
<stop stop-color="#8B0059"/>
<stop offset="1" stop-color="white"/>
</linearGradient>
<linearGradient id="paint43_linear_10_169" x1="627.2" y1="314.8" x2="627.2" y2="371.5" gradientUnits="userSpaceOnUse">
<stop stop-color="#8B0059"/>
<stop offset="1" stop-color="white"/>
</linearGradient>
<linearGradient id="paint44_linear_10_169" x1="633.1" y1="444" x2="633.1" y2="526.5" gradientUnits="userSpaceOnUse">
<stop stop-color="#8B0059"/>
<stop offset="1" stop-color="white"/>
</linearGradient>
<linearGradient id="paint45_linear_10_169" x1="563.4" y1="346.3" x2="563.4" y2="404.8" gradientUnits="userSpaceOnUse">
<stop stop-color="#FFACAB"/>
<stop offset="1" stop-color="#9700B3"/>
</linearGradient>
<linearGradient id="paint46_linear_10_169" x1="562.2" y1="240.8" x2="562.2" y2="330.6" gradientUnits="userSpaceOnUse">
<stop stop-color="#FFACAB"/>
<stop offset="1" stop-color="#9700B3"/>
</linearGradient>
<linearGradient id="paint47_linear_10_169" x1="401.8" y1="256.4" x2="401.8" y2="306.4" gradientUnits="userSpaceOnUse">
<stop stop-color="#FFACAB"/>
<stop offset="1" stop-color="#9700B3"/>
</linearGradient>
<linearGradient id="paint48_linear_10_169" x1="329.3" y1="246.3" x2="329.3" y2="340.3" gradientUnits="userSpaceOnUse">
<stop stop-color="#FFACAB"/>
<stop offset="1" stop-color="#9700B3"/>
</linearGradient>
<linearGradient id="paint49_linear_10_169" x1="291.2" y1="355.9" x2="291.2" y2="407.8" gradientUnits="userSpaceOnUse">
<stop stop-color="#FFACAB"/>
<stop offset="1" stop-color="#9700B3"/>
</linearGradient>
<radialGradient id="paint50_radial_10_169" cx="0" cy="0" r="1" gradientUnits="userSpaceOnUse" gradientTransform="translate(382.5 460.1) rotate(-180) scale(207.3 207.3)">
<stop stop-color="#FFB500"/>
<stop offset="1" stop-color="#FF892F"/>
</radialGradient>
<linearGradient id="paint51_linear_10_169" x1="431" y1="279.5" x2="431" y2="445.4" gradientUnits="userSpaceOnUse">
<stop stop-color="#BF0059"/>
<stop offset="1" stop-color="white"/>
</linearGradient>
<linearGradient id="paint52_linear_10_169" x1="391.5" y1="278.7" x2="391.5" y2="334.2" gradientUnits="userSpaceOnUse">
<stop stop-color="#BF0059"/>
<stop offset="1" stop-color="white"/>
</linearGradient>
<radialGradient id="paint53_radial_10_169" cx="0" cy="0" r="1" gradientUnits="userSpaceOnUse" gradientTransform="translate(725.048 724.503) rotate(160) scale(452.554 468.334)">
<stop stop-color="#FFEAED"/>
<stop offset="1" stop-color="#FFD6CB"/>
</radialGradient>
<radialGradient id="paint54_radial_10_169" cx="0" cy="0" r="1" gradientUnits="userSpaceOnUse" gradientTransform="translate(784.821 827.744) rotate(160) scale(555.853 575.235)">
<stop stop-color="#FFEAED"/>
<stop offset="1" stop-color="#FFD6CB"/>
</radialGradient>
<radialGradient id="paint55_radial_10_169" cx="0" cy="0" r="1" gradientUnits="userSpaceOnUse" gradientTransform="translate(780.776 801.718) rotate(160) scale(505.155 522.769)">
<stop stop-color="#FFEAED"/>
<stop offset="1" stop-color="#FFD6CB"/>
</radialGradient>
<radialGradient id="paint56_radial_10_169" cx="0" cy="0" r="1" gradientUnits="userSpaceOnUse" gradientTransform="translate(685.499 808.144) rotate(160) scale(471.813 488.265)">
<stop stop-color="#FFEAED"/>
<stop offset="1" stop-color="#FFD6CB"/>
</radialGradient>
<radialGradient id="paint57_radial_10_169" cx="0" cy="0" r="1" gradientUnits="userSpaceOnUse" gradientTransform="translate(802.803 934.793) rotate(160) scale(668.744 692.063)">
<stop stop-color="#FFEAED"/>
<stop offset="1" stop-color="#FFD6CB"/>
</radialGradient>
<radialGradient id="paint58_radial_10_169" cx="0" cy="0" r="1" gradientUnits="userSpaceOnUse" gradientTransform="translate(774.155 825.59) rotate(160) scale(441.744 457.148)">
<stop stop-color="#FFEAED"/>
<stop offset="1" stop-color="#FFD6CB"/>
</radialGradient>
<radialGradient id="paint59_radial_10_169" cx="0" cy="0" r="1" gradientUnits="userSpaceOnUse" gradientTransform="translate(753.392 757.194) rotate(160) scale(393.178 406.887)">
<stop stop-color="#FFEAED"/>
<stop offset="1" stop-color="#FFD6CB"/>
</radialGradient>
<radialGradient id="paint60_radial_10_169" cx="0" cy="0" r="1" gradientUnits="userSpaceOnUse" gradientTransform="translate(811.838 763.754) rotate(160) scale(455.979 471.879)">
<stop stop-color="#FFEAED"/>
<stop offset="1" stop-color="#FFD6CB"/>
</radialGradient>
<radialGradient id="paint61_radial_10_169" cx="0" cy="0" r="1" gradientUnits="userSpaceOnUse" gradientTransform="translate(685.5 808.144) rotate(160) scale(471.813 488.265)">
<stop stop-color="#FFEAED"/>
<stop offset="1" stop-color="#FFD6CB"/>
</radialGradient>
<linearGradient id="paint62_linear_10_169" x1="831.158" y1="591.151" x2="837" y2="708.632" gradientUnits="userSpaceOnUse">
<stop stop-color="#8B0059"/>
<stop offset="1" stop-color="white"/>
</linearGradient>
<linearGradient id="paint63_linear_10_169" x1="783.365" y1="626.989" x2="789.522" y2="751.024" gradientUnits="userSpaceOnUse">
<stop stop-color="#8B0059"/>
<stop offset="1" stop-color="white"/>
</linearGradient>
<linearGradient id="paint64_linear_10_169" x1="649.006" y1="749.498" x2="649.045" y2="750.317" gradientUnits="userSpaceOnUse">
<stop stop-color="#8B0059"/>
<stop offset="1" stop-color="white"/>
</linearGradient>
<linearGradient id="paint65_linear_10_169" x1="504.392" y1="568.07" x2="507.72" y2="635.039" gradientUnits="userSpaceOnUse">
<stop stop-color="#8B0059"/>
<stop offset="1" stop-color="white"/>
</linearGradient>
<linearGradient id="paint66_linear_10_169" x1="481.199" y1="476.079" x2="482.972" y2="511.524" gradientUnits="userSpaceOnUse">
<stop stop-color="#8B0059"/>
<stop offset="1" stop-color="white"/>
</linearGradient>
<linearGradient id="paint67_linear_10_169" x1="599.456" y1="304.436" x2="605.214" y2="421.446" gradientUnits="userSpaceOnUse">
<stop stop-color="#8B0059"/>
<stop offset="1" stop-color="white"/>
</linearGradient>
<linearGradient id="paint68_linear_10_169" x1="714.863" y1="254.718" x2="719.452" y2="347.899" gradientUnits="userSpaceOnUse">
<stop stop-color="#8B0059"/>
<stop offset="1" stop-color="white"/>
</linearGradient>
<linearGradient id="paint69_linear_10_169" x1="854.826" y1="285.598" x2="862.265" y2="435.67" gradientUnits="userSpaceOnUse">
<stop stop-color="#8B0059"/>
<stop offset="1" stop-color="white"/>
</linearGradient>
<linearGradient id="paint70_linear_10_169" x1="845.235" y1="443.091" x2="847.469" y2="487.621" gradientUnits="userSpaceOnUse">
<stop stop-color="#8B0059"/>
<stop offset="1" stop-color="white"/>
</linearGradient>
<linearGradient id="paint71_linear_10_169" x1="856.66" y1="544.144" x2="859.874" y2="608.904" gradientUnits="userSpaceOnUse">
<stop stop-color="#8B0059"/>
<stop offset="1" stop-color="white"/>
</linearGradient>
<linearGradient id="paint72_linear_10_169" x1="822.869" y1="537.664" x2="850.325" y2="613.097" gradientUnits="userSpaceOnUse">
<stop stop-color="#9700B3"/>
<stop offset="1" stop-color="#FFACAB"/>
</linearGradient>
<linearGradient id="paint73_linear_10_169" x1="834.006" y1="454.304" x2="856.126" y2="515.08" gradientUnits="userSpaceOnUse">
<stop stop-color="#FFACAB"/>
<stop offset="1" stop-color="#9700B3"/>
</linearGradient>
<linearGradient id="paint74_linear_10_169" x1="770.697" y1="356.039" x2="799.958" y2="436.432" gradientUnits="userSpaceOnUse">
<stop stop-color="#FFE3F7"/>
<stop offset="1" stop-color="#A92CB3"/>
</linearGradient>
<linearGradient id="paint75_linear_10_169" x1="753.42" y1="266.505" x2="799.844" y2="394.054" gradientUnits="userSpaceOnUse">
<stop stop-color="#FFE3F7"/>
<stop offset="1" stop-color="#A92CB3"/>
</linearGradient>
<linearGradient id="paint76_linear_10_169" x1="639.799" y1="307.776" x2="687.085" y2="437.693" gradientUnits="userSpaceOnUse">
<stop stop-color="#FFE3F7"/>
<stop offset="1" stop-color="#A92CB3"/>
</linearGradient>
<linearGradient id="paint77_linear_10_169" x1="507.103" y1="486.267" x2="526.611" y2="539.863" gradientUnits="userSpaceOnUse">
<stop stop-color="#FFE3F7"/>
<stop offset="1" stop-color="#A92CB3"/>
</linearGradient>
<linearGradient id="paint78_linear_10_169" x1="528.674" y1="575.579" x2="547.023" y2="625.992" gradientUnits="userSpaceOnUse">
<stop stop-color="#FFACAB"/>
<stop offset="1" stop-color="#9700B3"/>
</linearGradient>
<radialGradient id="paint79_radial_10_169" cx="0" cy="0" r="1" gradientUnits="userSpaceOnUse" gradientTransform="translate(763.796 807.815) rotate(160) scale(485.972 502.918)">
<stop stop-color="white"/>
<stop offset="1" stop-color="#FFEBD9"/>
</radialGradient>
<radialGradient id="paint80_radial_10_169" cx="0" cy="0" r="1" gradientUnits="userSpaceOnUse" gradientTransform="translate(760.017 792.088) rotate(160) scale(471.737 488.186)">
<stop stop-color="white"/>
<stop offset="1" stop-color="#FFEBD9"/>
</radialGradient>
<radialGradient id="paint81_radial_10_169" cx="0" cy="0" r="1" gradientUnits="userSpaceOnUse" gradientTransform="translate(760.115 792.136) rotate(160) scale(471.813 488.265)">
<stop stop-color="white"/>
<stop offset="1" stop-color="#FFEBD9"/>
</radialGradient>
<radialGradient id="paint82_radial_10_169" cx="0" cy="0" r="1" gradientUnits="userSpaceOnUse" gradientTransform="translate(760.115 792.136) rotate(160) scale(471.813 488.265)">
<stop stop-color="white"/>
<stop offset="1" stop-color="#FFEBD9"/>
</radialGradient>
<radialGradient id="paint83_radial_10_169" cx="0" cy="0" r="1" gradientUnits="userSpaceOnUse" gradientTransform="translate(760.043 792.162) rotate(160) scale(471.813 488.265)">
<stop stop-color="white"/>
<stop offset="1" stop-color="#FFEBD9"/>
</radialGradient>
<radialGradient id="paint84_radial_10_169" cx="0" cy="0" r="1" gradientUnits="userSpaceOnUse" gradientTransform="translate(760.115 792.136) rotate(160) scale(471.813 488.265)">
<stop stop-color="white"/>
<stop offset="1" stop-color="#FFEBD9"/>
</radialGradient>
<radialGradient id="paint85_radial_10_169" cx="0" cy="0" r="1" gradientUnits="userSpaceOnUse" gradientTransform="translate(760.044 792.162) rotate(160) scale(471.813 488.265)">
<stop stop-color="white"/>
<stop offset="1" stop-color="#FFEBD9"/>
</radialGradient>
<radialGradient id="paint86_radial_10_169" cx="0" cy="0" r="1" gradientUnits="userSpaceOnUse" gradientTransform="translate(760.044 792.162) rotate(160) scale(471.813 488.265)">
<stop stop-color="white"/>
<stop offset="1" stop-color="#FFEBD9"/>
</radialGradient>
<radialGradient id="paint87_radial_10_169" cx="0" cy="0" r="1" gradientUnits="userSpaceOnUse" gradientTransform="translate(760.043 792.162) rotate(160) scale(471.813 488.265)">
<stop stop-color="white"/>
<stop offset="1" stop-color="#FFEBD9"/>
</radialGradient>
<linearGradient id="paint88_linear_10_169" x1="838.332" y1="540.084" x2="878.694" y2="650.976" gradientUnits="userSpaceOnUse">
<stop stop-color="#8B0059"/>
<stop offset="1" stop-color="white"/>
</linearGradient>
<linearGradient id="paint89_linear_10_169" x1="802.813" y1="588.725" x2="845.411" y2="705.761" gradientUnits="userSpaceOnUse">
<stop stop-color="#8B0059"/>
<stop offset="1" stop-color="white"/>
</linearGradient>
<linearGradient id="paint90_linear_10_169" x1="709.021" y1="746.349" x2="709.291" y2="747.089" gradientUnits="userSpaceOnUse">
<stop stop-color="#8B0059"/>
<stop offset="1" stop-color="white"/>
</linearGradient>
<linearGradient id="paint91_linear_10_169" x1="520.775" y1="613.748" x2="543.785" y2="676.967" gradientUnits="userSpaceOnUse">
<stop stop-color="#8B0059"/>
<stop offset="1" stop-color="white"/>
</linearGradient>
<linearGradient id="paint92_linear_10_169" x1="473.137" y1="531.828" x2="485.288" y2="565.214" gradientUnits="userSpaceOnUse">
<stop stop-color="#8B0059"/>
<stop offset="1" stop-color="white"/>
</linearGradient>
<linearGradient id="paint93_linear_10_169" x1="533.042" y1="337.411" x2="573.242" y2="447.859" gradientUnits="userSpaceOnUse">
<stop stop-color="#8B0059"/>
<stop offset="1" stop-color="white"/>
</linearGradient>
<linearGradient id="paint94_linear_10_169" x1="630.024" y1="252.651" x2="662.033" y2="340.595" gradientUnits="userSpaceOnUse">
<stop stop-color="#8B0059"/>
<stop offset="1" stop-color="white"/>
</linearGradient>
<linearGradient id="paint95_linear_10_169" x1="775.764" y1="238.421" x2="827.307" y2="380.034" gradientUnits="userSpaceOnUse">
<stop stop-color="#8B0059"/>
<stop offset="1" stop-color="white"/>
</linearGradient>
<linearGradient id="paint96_linear_10_169" x1="810.471" y1="393.204" x2="825.748" y2="435.177" gradientUnits="userSpaceOnUse">
<stop stop-color="#8B0059"/>
<stop offset="1" stop-color="white"/>
</linearGradient>
<linearGradient id="paint97_linear_10_169" x1="849.502" y1="487.311" x2="871.731" y2="548.383" gradientUnits="userSpaceOnUse">
<stop stop-color="#8B0059"/>
<stop offset="1" stop-color="white"/>
</linearGradient>
<linearGradient id="paint98_linear_10_169" x1="773.32" y1="433.133" x2="789.082" y2="476.439" gradientUnits="userSpaceOnUse">
<stop stop-color="#FFACAB"/>
<stop offset="1" stop-color="#9700B3"/>
</linearGradient>
<linearGradient id="paint99_linear_10_169" x1="744.036" y1="355.347" x2="768.232" y2="421.823" gradientUnits="userSpaceOnUse">
<stop stop-color="#FFACAB"/>
<stop offset="1" stop-color="#9700B3"/>
</linearGradient>
<linearGradient id="paint100_linear_10_169" x1="633.501" y1="408.657" x2="646.973" y2="445.67" gradientUnits="userSpaceOnUse">
<stop stop-color="#FFACAB"/>
<stop offset="1" stop-color="#9700B3"/>
</linearGradient>
<linearGradient id="paint101_linear_10_169" x1="578.919" y1="420.056" x2="604.246" y2="489.641" gradientUnits="userSpaceOnUse">
<stop stop-color="#FFACAB"/>
<stop offset="1" stop-color="#9700B3"/>
</linearGradient>
<linearGradient id="paint102_linear_10_169" x1="581.195" y1="511.109" x2="595.179" y2="549.529" gradientUnits="userSpaceOnUse">
<stop stop-color="#FFACAB"/>
<stop offset="1" stop-color="#9700B3"/>
</linearGradient>
<radialGradient id="paint103_radial_10_169" cx="0" cy="0" r="1" gradientUnits="userSpaceOnUse" gradientTransform="translate(674.579 564.475) rotate(160) scale(157.804 163.306)">
<stop stop-color="#FFB500"/>
<stop offset="1" stop-color="#FF892F"/>
</radialGradient>
<linearGradient id="paint104_linear_10_169" x1="660.613" y1="418.155" x2="705.312" y2="540.965" gradientUnits="userSpaceOnUse">
<stop stop-color="#BF0059"/>
<stop offset="1" stop-color="white"/>
</linearGradient>
<linearGradient id="paint105_linear_10_169" x1="632.142" y1="427.847" x2="647.096" y2="468.931" gradientUnits="userSpaceOnUse">
<stop stop-color="#BF0059"/>
<stop offset="1" stop-color="white"/>
</linearGradient>
<clipPath id="clip0_10_169">
<rect width="793" height="823" fill="white" transform="matrix(-1 0 0 -1 793 823)"/>
</clipPath>
<clipPath id="clip1_10_169">
<rect width="603.659" height="648.341" fill="white" transform="translate(1066 726.241) rotate(160)"/>
</clipPath>
</defs>
</svg>
