<svg width="701" height="184" viewBox="0 0 701 184" fill="none" xmlns="http://www.w3.org/2000/svg">
<g clip-path="url(#clip0_7_4)">
<g clip-path="url(#clip1_7_4)">
<g clip-path="url(#clip2_7_4)">
<g clip-path="url(#clip3_7_4)">
<g clip-path="url(#clip4_7_4)">
<g clip-path="url(#clip5_7_4)">
<g clip-path="url(#clip6_7_4)">
<g clip-path="url(#clip7_7_4)">
<g clip-path="url(#clip8_7_4)">
<path d="M90.5058 60.7561C90.5058 73.5617 84.9649 83.289 73.8832 89.938C79.9166 92.1543 84.9649 95.9714 89.0282 101.389C93.0915 106.807 95.1231 114.478 95.1231 124.402C95.1231 134.302 91.4662 142.145 84.1523 147.932C76.8137 153.719 66.3107 156.613 52.6432 156.613H9.05517C6.96195 156.613 5.23813 155.899 3.8837 154.471C2.52927 153.067 1.85205 151.195 1.85205 148.856V30.6508C1.85205 29.2964 2.07369 28.3975 2.51695 27.9543C2.9356 27.5356 3.82213 27.3263 5.17657 27.3263H47.2871C76.0995 27.3263 90.5058 38.4696 90.5058 60.7561ZM41.1921 57.2469H37.3135V81.442H38.237C50.0575 81.442 55.9678 77.5019 55.9678 69.6215C55.9678 65.312 54.835 62.1721 52.5694 60.2021C50.2791 58.232 46.4867 57.2469 41.1921 57.2469ZM41.1921 103.236H37.3135V127.246H40.6381C45.9326 127.246 49.8113 126.261 52.2739 124.291C54.7365 122.321 55.9678 119.181 55.9678 114.872C55.9678 110.562 54.835 107.546 52.5694 105.822C50.2791 104.098 46.4867 103.236 41.1921 103.236ZM178.421 151.626C170.664 156.182 160.69 158.46 148.5 158.46C136.31 158.46 126.029 154.298 117.656 145.975C109.283 137.676 105.097 126.163 105.097 111.437C105.097 96.7348 109.123 84.8897 117.176 75.9012C125.253 66.9127 135.448 62.4184 147.761 62.4184C160.074 62.4184 169.58 65.5582 176.278 71.8379C183.001 78.1175 186.363 85.7516 186.363 94.7401C186.363 114.687 174.911 124.661 152.009 124.661H139.265C139.265 128.355 140.275 130.903 142.294 132.307C144.338 133.735 147.33 134.45 151.271 134.45C159.89 134.45 168.078 132.479 175.835 128.539C175.958 128.416 176.512 129.278 177.497 131.125C180.452 136.42 181.93 140.877 181.93 144.497C181.93 148.142 180.76 150.518 178.421 151.626ZM155.334 98.2493C155.334 93.0778 152.81 90.4921 147.761 90.4921C145.422 90.4921 143.415 91.2062 141.74 92.6345C140.09 94.0382 139.265 96.0945 139.265 98.8034V104.529H149.239C153.302 104.529 155.334 102.436 155.334 98.2493ZM268.183 151.626C260.425 156.182 250.452 158.46 238.262 158.46C226.072 158.46 215.791 154.298 207.418 145.975C199.045 137.676 194.859 126.163 194.859 111.437C194.859 96.7348 198.885 84.8897 206.938 75.9012C215.015 66.9127 225.198 62.4184 237.486 62.4184C249.799 62.4184 259.317 65.5582 266.04 71.8379C272.763 78.1175 276.124 85.7516 276.124 94.7401C276.124 114.687 264.673 124.661 241.771 124.661H229.027C229.027 128.355 230.037 130.903 232.056 132.307C234.1 133.735 237.092 134.45 241.032 134.45C249.652 134.45 257.84 132.479 265.597 128.539C265.72 128.416 266.274 129.278 267.259 131.125C270.19 136.42 271.655 140.877 271.655 144.497C271.655 148.142 270.497 150.518 268.183 151.626ZM245.096 98.2493C245.096 93.0778 242.559 90.4921 237.486 90.4921C235.171 90.4921 233.177 91.2062 231.502 92.6345C229.852 94.0382 229.027 96.0945 229.027 98.8034V104.529H239.001C243.064 104.529 245.096 102.436 245.096 98.2493ZM292.895 27.3263H358.092C360.185 27.3263 361.232 32.7687 361.232 43.6534C361.232 54.5627 360.185 60.0174 358.092 60.0174H324.293V81.0726H346.826C348.919 81.0726 349.966 85.8501 349.966 95.405C349.966 104.935 348.981 109.7 347.011 109.7H324.293V154.212C324.293 155.936 321.99 157.081 317.385 157.647C312.756 158.189 308.902 158.46 305.823 158.46L297.143 158.091C291.109 157.352 288.093 156.12 288.093 154.397V32.1284C288.093 30.1583 288.499 28.8654 289.312 28.2498C290.1 27.6341 291.294 27.3263 292.895 27.3263ZM409.068 64.8194V155.505C409.068 156.49 403.441 156.982 392.187 156.982C380.908 156.982 375.269 156.551 375.269 155.69V65.0041C375.269 64.1422 380.908 63.7113 392.187 63.7113C403.441 63.7113 409.068 64.0807 409.068 64.8194ZM409.068 26.7722V53.9224C409.068 54.7843 403.441 55.2153 392.187 55.2153C380.908 55.2153 375.269 54.8459 375.269 54.1071V27.511C375.269 26.2797 380.908 25.664 392.187 25.664C403.441 25.664 409.068 26.0334 409.068 26.7722ZM468.171 90.1227V155.505C468.171 156.982 462.999 157.721 452.656 157.721C440.343 157.229 434.187 156.428 434.187 155.32V89.938H424.767C422.305 89.938 421.073 85.69 421.073 77.194C421.073 74.9777 421.283 72.2688 421.701 69.0674C422.145 65.866 423.043 64.2654 424.398 64.2654H434.187V48.0122C434.187 45.5496 439.383 44.3183 449.775 44.3183C460.192 44.3183 465.4 45.3033 465.4 47.2734V59.0939L465.585 64.2654H481.284C483.377 64.2654 484.424 68.5749 484.424 77.194C484.424 85.8131 483.377 90.1227 481.284 90.1227H468.171Z" fill="white"/>
</g>
</g>
</g>
</g>
<g clip-path="url(#clip9_7_4)">
<g clip-path="url(#clip10_7_4)">
<path fill-rule="evenodd" clip-rule="evenodd" d="M515.86 128.432C517.846 106.695 519.322 84.9207 530.845 65.3631C540.798 48.4704 554.631 38.6457 574.769 39.6252C579.98 39.8788 582.334 38.5281 581.775 32.9982C581.2 27.2975 583.436 22.2454 587.182 18.2042C589.659 15.5302 588.913 14.0196 586.812 11.976C585.155 10.3624 583.414 8.68822 582.286 6.71262C581.271 4.93734 581.374 2.68791 583.072 1.10375C585.072 -0.761581 586.849 1.10192 587.661 2.29463C592.256 9.06129 598.1 11.0112 606.074 8.97491C609.577 8.07808 613.837 7.97149 617.297 10.0886C619.62 11.511 620.274 9.08702 621.226 8.44563C623.645 6.81186 625.473 4.31801 627.603 2.23398C628.732 1.12948 629.921 -0.487754 631.731 0.739875C633.203 1.73595 633.444 3.4855 633.192 5.1983C633.006 6.45349 632.874 7.81712 631.678 8.57795C625.587 12.4373 625.938 16.394 630.494 21.6169C633.681 25.2704 635.072 30.2507 634.807 35.3138C634.627 38.7045 635.929 39.8421 639.306 39.5866C667.924 37.4217 683.72 58.8115 690.484 77.134C697.744 96.7926 699.664 117.026 699.269 137.692C699.139 144.543 697.92 145.721 691.271 145.889C677.523 146.232 664.076 144.725 651.138 139.725C649.008 138.901 647.269 138.802 645.902 141.7C640.041 154.146 630.869 163.268 617.626 167.714C615.527 168.418 615.149 169.412 615.184 171.191C615.217 172.849 615.108 174.508 615.184 176.158C615.39 180.655 613.614 183.419 608.842 183.782C603.731 184.167 599.712 181.913 600.223 177.223C601.053 169.588 597.003 167.594 591.164 164.762C582.135 160.379 575.389 152.929 570.883 143.746C569.137 140.184 567.797 138.949 562.804 140.581C549.82 144.834 536.209 146.899 522.386 145.795C518.003 145.446 516.17 142.36 515.9 138.359C515.683 135.064 515.86 131.743 515.86 128.432ZM593.009 76.1343C594.174 71.0657 590.911 65.4256 590.673 59.3683C590.574 56.8543 588.211 55.3344 585.618 55.3712C579.687 55.4612 574.055 53.3827 567.793 54.7813C558.706 56.8138 551.711 61.105 546.51 68.5719C534.267 86.1538 532.459 106.489 531.165 126.971C530.968 130.089 532.403 130.483 535.066 130.538C544.141 130.718 552.968 128.637 561.078 125.348C584.166 115.979 591.778 100.788 593.009 76.1343ZM624.016 76.1122C622.579 88.7083 625.176 100.54 633.247 110.313C645.36 124.975 662.299 129.275 680.404 130.516C684.137 130.773 683.933 128.639 683.979 126.065C684.24 111.182 681.683 96.732 676.821 82.7594C673.796 74.0723 668.927 66.2857 661.519 60.5666C652.908 53.9212 643.048 53.4011 632.659 55.0533C626.453 56.042 624.347 57.593 624.051 63.9811C623.865 68.015 624.016 72.0673 624.016 76.1122ZM583.857 130.631C597.986 130.631 610.961 130.69 623.937 130.574C626.119 130.556 630.321 131.433 630.049 129.433C629.71 126.932 626.883 124.078 623.366 123.613C622.101 123.446 620.804 123.519 619.523 123.519C612.186 123.512 604.828 123.879 597.527 123.398C591.859 123.023 587.891 125.059 583.857 130.631ZM623.467 146.275C612.927 146.275 603.179 146.275 593.204 146.275C599.447 156.685 615.164 156.57 623.467 146.275ZM607.384 108.439C609.34 107.389 613.227 110.199 612.929 105.406C612.732 102.236 611.244 99.858 607.717 99.7037C603.043 99.5033 602.768 103.96 602.459 106.43C602.046 109.716 605.773 107.411 607.384 108.439Z" fill="white"/>
</g>
</g>
</g>
</g>
</g>
</g>
</g>
<defs>
<clipPath id="clip0_7_4">
<rect width="700" height="183.4" fill="white" transform="translate(0.575745 0.361938)"/>
</clipPath>
<clipPath id="clip1_7_4">
<rect width="697.484" height="183.524" fill="white" transform="translate(1.83356 0.300003)"/>
</clipPath>
<clipPath id="clip2_7_4">
<rect width="697.484" height="183.524" fill="white" transform="translate(1.83356 0.300003)"/>
</clipPath>
<clipPath id="clip3_7_4">
<rect width="697.484" height="183.524" fill="white" transform="translate(1.83356 0.300003)"/>
</clipPath>
<clipPath id="clip4_7_4">
<rect width="697.484" height="183.524" fill="white" transform="translate(1.83356 0.300003)"/>
</clipPath>
<clipPath id="clip5_7_4">
<rect width="482.609" height="132.796" fill="white" transform="translate(1.83356 25.664)"/>
</clipPath>
<clipPath id="clip6_7_4">
<rect width="482.609" height="132.796" fill="white" transform="translate(1.83356 25.664)"/>
</clipPath>
<clipPath id="clip7_7_4">
<rect width="482.609" height="132.796" fill="white" transform="translate(1.83356 25.664)"/>
</clipPath>
<clipPath id="clip8_7_4">
<rect width="482.609" height="132.796" fill="white" transform="translate(1.83356 25.664)"/>
</clipPath>
<clipPath id="clip9_7_4">
<rect width="183.526" height="183.524" fill="white" transform="translate(515.792 0.300018)"/>
</clipPath>
<clipPath id="clip10_7_4">
<rect width="183.526" height="183.524" fill="white" transform="translate(515.792 0.300018)"/>
</clipPath>
</defs>
</svg>
