<svg width="623" height="568" viewBox="0 0 623 568" fill="none" xmlns="http://www.w3.org/2000/svg">
<g filter="url(#filter0_d_17_703)">
<path d="M279.5 419.4C279.5 419.4 244.9 453 204.3 453C195.1 453 181.6 453.4 166 453.3C112.2 452.9 32.3999 445.8 10.7999 389.9C-1.3001 358.7 -2.90005 320.8 6.59995 290.3C18.9999 250.4 50.5998 223.4 103.2 240.9C196.1 271.9 279.5 419.4 279.5 419.4Z" fill="url(#paint0_linear_17_703)"/>
<path style="mix-blend-mode:multiply" opacity="0.6" d="M166 453.3C112.2 452.9 32.3999 445.8 10.7999 389.9C-1.3001 358.7 -2.90005 320.8 6.59995 290.3C6.59995 290.3 -0.400248 366.4 31.8998 402.4C64.1998 438.3 166 453.3 166 453.3Z" fill="url(#paint1_linear_17_703)"/>
<path style="mix-blend-mode:multiply" opacity="0.6" d="M148.8 358.4C148.8 358.4 151.8 405.4 197.9 413.6C244.1 421.9 260.6 370.9 260.6 370.9L148.8 358.4Z" fill="url(#paint2_linear_17_703)"/>
<path d="M438.9 95.0001C432.3 107.8 422.5 118.6 408.4 124.6C400.4 128 381.3 120.1 380.1 106.2C379.2 95.9001 393.7 41.4001 411 15.0001C411.067 14.9334 411.1 14.9001 411.1 14.9001C417.4 5.30006 424 -0.499936 430.4 0.700064C448.4 4.30006 457.6 58.1001 438.9 95.0001Z" fill="url(#paint3_linear_17_703)"/>
<path style="mix-blend-mode:multiply" opacity="0.5" d="M438.9 95C432.3 107.8 422.5 118.6 408.4 124.6C400.4 128 381.3 120.1 380.1 106.2C379.2 95.9 393.7 41.4 411 15C410.2 17.4 390.1 74.3 409.5 91.6C419.2 100.3 430.2 98.8 438.9 95Z" fill="url(#paint4_linear_17_703)"/>
<path d="M330.2 378.1C330.2 378.1 434.9 375 465.5 404C496.2 433 449.9 439.7 449.9 439.7C449.9 439.7 291.3 437.9 330.2 378.1Z" fill="url(#paint5_linear_17_703)"/>
<path d="M261.5 554.1C261.5 554.1 214.1 569.1 201.9 567.7C189.7 566.2 179.8 519.4 179.8 519.4C179.8 519.4 232.4 553.4 261.5 554.1Z" fill="url(#paint6_linear_17_703)"/>
<path d="M359.8 355.9C354.5 366.1 352.2 491.8 302.7 536.4C290.8 547.1 276.299 554.3 258.399 555.8C199.199 560.8 167.3 518.7 168 473.3C168.3 447.7 179.1 421 201.2 401.2C262.6 346.2 359.8 355.9 359.8 355.9Z" fill="url(#paint7_linear_17_703)"/>
<path d="M335.3 490.4C335.3 490.4 207.2 508.7 174.4 440C174.4 440 162.2 472.8 171.9 501.5C171.9 501.5 203.4 560.9 295.4 542.2C295.4 542.2 323.7 525.3 335.3 490.4Z" fill="url(#paint8_linear_17_703)"/>
<path d="M508.1 275.5C500.8 305.6 469.2 341 380.7 363.7C300.8 384.2 149.3 408.7 123.3 348.7C116.9 333.7 112.2 312.6 111.9 288.7C111 216.7 150.5 120.2 305.2 97.1001C434.2 77.8001 496.2 223.4 496.2 223.4C504.6 231.6 513.8 251.9 508.1 275.5Z" fill="url(#paint9_linear_17_703)"/>
<path d="M155.5 282.4C163 319.5 199.1 343.5 236.2 336C273.3 328.5 297.3 292.3 289.8 255.3C282.3 218.2 246.1 194.2 209 201.7C171.9 209.2 147.9 245.4 155.5 282.4Z" fill="url(#paint10_linear_17_703)"/>
<path d="M162.7 284.4C169.5 317.9 202.1 339.5 235.5 332.7C269 326 290.6 293.4 283.9 259.9C277.1 226.4 244.5 204.8 211 211.6C177.6 218.3 155.9 251 162.7 284.4Z" fill="url(#paint11_radial_17_703)"/>
<path d="M415.5 234.2C428.5 267.2 455.2 286.9 475.1 278.1C494.9 269.3 500.4 235.4 487.3 202.3C474.3 169.3 447.6 149.6 427.7 158.4C407.9 167.2 402.4 201.1 415.5 234.2Z" fill="url(#paint12_linear_17_703)"/>
<path d="M417.5 233.3C425.8 254.4 440.4 269.5 454.6 273.6C460.3 275.3 466 275.1 471.1 272.9C489 264.9 494 234.4 482.2 204.6C470.4 174.8 446.4 157.1 428.5 165C418.4 169.5 412.5 181.1 411.3 195.8C410.4 207.1 412.3 220.3 417.5 233.3Z" fill="url(#paint13_radial_17_703)"/>
<path d="M162.7 284.4C168.5 313 196.3 331.4 224.8 325.6C253.4 319.9 271.8 292 266 263.5C260.3 235 232.4 216.5 203.9 222.3C175.4 228.1 156.9 255.9 162.7 284.4Z" fill="url(#paint14_linear_17_703)"/>
<g style="mix-blend-mode:multiply">
<path d="M184.899 279.9C188.199 296.2 203.999 306.8 220.299 303.5C236.599 300.2 247.199 284.3 243.899 268C240.599 251.7 224.699 241.1 208.399 244.4C192.099 247.7 181.599 263.6 184.899 279.9Z" fill="#9C27B3"/>
</g>
<path d="M417.5 233.3C425.8 254.4 440.4 269.5 454.6 273.6C470.3 267.7 478.7 244.3 473.6 219C468.1 191.9 449.2 172.9 431.3 176.5C422.3 178.4 415.3 185.6 411.3 195.8C410.4 207.1 412.3 220.3 417.5 233.3Z" fill="url(#paint15_linear_17_703)"/>
<g style="mix-blend-mode:multiply">
<path d="M420 233.2C424.3 244.2 431.9 252 439.2 254.1C447.3 251.1 451.7 239 449.1 225.9C446.2 211.9 436.4 202 427.2 203.9C422.5 204.8 418.9 208.6 416.8 213.8C416.3 219.7 417.3 226.5 420 233.2Z" fill="#9C27B3"/>
</g>
<path d="M451.4 472C444.133 480.6 437.1 488.467 430.3 495.6L430.2 495.7C374.6 554.1 335.8 562.9 340 529.6C340.9 523.2 342.4 516.8 344.5 510.4C344.567 510.134 344.634 509.967 344.7 509.9C344.767 509.834 344.8 509.8 344.8 509.8C369.8 435.7 474.1 366.2 474.1 366.2L503 384.6C503 384.6 509.9 402.4 451.4 472Z" fill="url(#paint16_linear_17_703)"/>
<path d="M331.599 498.3C257.499 491.2 239.399 444.2 238.099 440.3C233.499 426.4 247.399 419.6 247.399 419.6C247.399 419.6 250.099 420.9 255.499 423.1C265.699 427.3 285.599 434.7 314.299 441.8C343.499 449 377.899 454.3 399.399 460.5C409.899 463.5 417.299 466.8 419.499 470.6C424.299 478.9 405.599 505.5 331.599 498.3Z" fill="url(#paint17_linear_17_703)"/>
<path d="M415 291.7C411.5 309 402.299 330.4 386.899 334.7C371.699 338.9 359.8 330.6 349 321.9C335.9 311.3 328.699 298.5 328.199 293.8C327.699 289.4 357.999 290.4 378.399 285.1C398.699 279.8 405.299 268.9 412.199 272.2C414.999 273.5 417.5 279.8 415 291.7Z" fill="url(#paint18_linear_17_703)"/>
<path d="M413.1 297.2C410 312 401.8 330.3 388.3 334C374.8 337.6 362.5 332.5 353 325.1C353 325 353 325 353 325C341.4 316 333.9 303.6 333.4 299.5C333 295.8 360.9 293.9 378.9 289.4C397 284.8 406.5 274.7 412.6 277.4C415.1 278.6 415.3 287.1 413.1 297.2Z" fill="url(#paint19_linear_17_703)"/>
<path style="mix-blend-mode:multiply" d="M413.1 297.2C409.5 295.4 404.5 294 397.3 293.8C375.9 293.3 339.6 310.9 353 325C341.4 316 333.9 303.6 333.4 299.5C333 295.8 360.9 293.9 378.9 289.4C397 284.8 406.5 274.7 412.6 277.4C415.1 278.6 415.3 287.1 413.1 297.2Z" fill="url(#paint20_linear_17_703)"/>
<path d="M403.3 279.1C403.3 279.1 395.6 306.2 382.1 308.3C368.5 310.3 350.899 294.5 350.899 294.5C356.899 293.3 362.299 292.1 367.199 290.9C367.266 290.833 367.266 290.8 367.199 290.8C372.799 289.467 377.733 288.167 382 286.9C382 286.833 382.033 286.8 382.1 286.8C382.566 286.667 383.033 286.533 383.5 286.4C383.7 286.333 383.933 286.267 384.199 286.2C397.099 282.2 403.3 279.1 403.3 279.1Z" fill="url(#paint21_linear_17_703)"/>
<path d="M411.1 212.5C411.1 212.5 400.7 178.7 431.7 153.4C457.8 132.3 477.2 154.1 476.9 160.7C476.5 167.3 470.6 174.4 470.6 174.4C470.6 174.4 459.6 157.7 436.9 164.2C414.3 170.7 408.1 194.7 411.1 212.5Z" fill="url(#paint22_linear_17_703)"/>
<path d="M286.3 243.6C286.3 243.6 272.5 196.5 214.4 187.5C156.2 178.5 136.9 221.5 140 232.4C143 243.2 157.6 247.2 157.6 247.2C157.6 247.2 171.6 207.3 214.4 203.7C257.2 200 286.3 243.6 286.3 243.6Z" fill="url(#paint23_linear_17_703)"/>
<path style="mix-blend-mode:multiply" opacity="0.8" d="M160.5 274C160.5 274 166.7 223.9 211.1 216.7C255.6 209.6 286.3 243.6 286.3 243.6C286.3 243.6 266.1 202.2 216.4 203.5C166.7 204.9 150.8 245.2 160.5 274Z" fill="url(#paint24_linear_17_703)"/>
<path style="mix-blend-mode:multiply" opacity="0.8" d="M410.399 205.6C410.399 205.6 410.5 175 437.6 168.7C464.7 162.5 484.399 195.6 484.399 195.6C484.399 195.6 467.399 165.7 451.399 159.5C432.999 152.4 403.999 173.8 410.399 205.6Z" fill="url(#paint25_linear_17_703)"/>
<path style="mix-blend-mode:screen" opacity="0.5" d="M203.199 270.4C206.899 271.4 204.699 304.9 198.399 315.3C193.799 322.9 171.499 307.9 174.799 290.1C177.499 275.9 198.999 269.2 203.199 270.4Z" fill="url(#paint26_linear_17_703)"/>
<path style="mix-blend-mode:screen" opacity="0.5" d="M428.7 221.4C430.4 221.9 441.2 253.6 442.6 264.1C443.6 271.9 430.3 260.8 425.3 243.7C421.3 230 426.8 220.9 428.7 221.4Z" fill="url(#paint27_linear_17_703)"/>
<path d="M253.9 262.8C254.5 273.3 273.7 267.1 271.5 257.7C269.2 248.3 252.8 243.5 253.9 262.8Z" fill="white"/>
<path d="M459.5 209.4C460.2 219.9 479.4 213.8 477.1 204.4C474.9 195 458.4 190.2 459.5 209.4Z" fill="white"/>
<path style="mix-blend-mode:multiply" opacity="0.5" d="M158 169.3C151 183.8 204.7 163.7 210.6 148.5C216.5 133.2 174.3 135.3 158 169.3Z" fill="url(#paint28_linear_17_703)"/>
<path style="mix-blend-mode:multiply" opacity="0.5" d="M508.1 275.5C500.8 305.6 469.199 341 380.699 363.7C300.799 384.2 149.3 408.7 123.3 348.7C116.9 333.7 112.199 312.6 111.899 288.7C123.499 348.7 248.4 377.8 359.8 352.1C444.2 332.7 490.6 294.7 508.1 275.5Z" fill="url(#paint29_linear_17_703)"/>
<path style="mix-blend-mode:multiply" d="M220.6 386.5C302.7 399 347.3 434.1 347.3 434.1C351.7 410.7 355.299 388.7 357.199 369.4C357.199 369.4 293.1 386.5 220.6 386.5Z" fill="url(#paint30_linear_17_703)"/>
<path style="mix-blend-mode:multiply" d="M331.599 498.3C257.499 491.2 239.399 444.2 238.099 440.3C233.499 426.4 247.399 419.6 247.399 419.6C247.399 419.6 250.099 420.9 255.499 423.1C233.599 420.4 273.699 492 342.999 492.9C395.599 493.7 400.199 471.3 399.399 460.5C409.899 463.5 417.299 466.8 419.499 470.6C424.299 478.9 405.599 505.5 331.599 498.3Z" fill="url(#paint31_linear_17_703)"/>
<path style="mix-blend-mode:multiply" d="M246 454.8C246 454.8 255.6 524.9 307.7 532.6C307.7 532.6 324.2 517.5 331.6 498.3C331.6 498.3 279.5 496.8 246 454.8Z" fill="url(#paint32_linear_17_703)"/>
<path style="mix-blend-mode:multiply" opacity="0.6" d="M302.7 536.4C290.8 547.1 276.299 554.3 258.399 555.8C199.199 560.8 167.3 518.7 168 473.3L168.3 472.7C168.3 472.7 174.1 523.8 233.5 538.7C275.3 549.1 300 537.7 302.7 536.4Z" fill="url(#paint33_linear_17_703)"/>
<path d="M183.399 325C183.399 325 215.099 341.3 245.699 331C276.299 320.7 287.699 290.3 287.699 290.3C287.699 290.3 281.499 325.2 241.699 338.1C201.899 350.9 183.399 325 183.399 325Z" fill="#FFD142"/>
<path d="M344.699 317.4C344.699 317.4 364.299 335.6 385.999 331C407.699 326.4 411.999 302 411.999 302C411.999 302 408.799 326.7 388.299 335.2C367.799 343.6 345.799 322.2 344.699 317.4Z" fill="#FFD142"/>
<path style="mix-blend-mode:multiply" opacity="0.8" d="M403.3 279.1C403.3 279.1 395.6 306.2 382.1 308.3C368.5 310.3 350.899 294.5 350.899 294.5C356.899 293.3 362.299 292.1 367.199 290.9C366.999 291.1 365.6 292.1 364.6 293.8C363.6 295.6 367.899 306.7 381.399 303.9C394.999 301.2 400.399 287.1 398.399 284.7C396.799 282.9 388.299 285 384.199 286.2C397.099 282.2 403.3 279.1 403.3 279.1Z" fill="url(#paint34_linear_17_703)"/>
<path d="M197.9 144.7C198 148.2 191.3 156.2 182.4 158.7C173.5 161.2 143.9 150.9 127.9 120.4C112 89.9001 107.6 38.3002 133.1 42.5002C135.3 42.9002 137.6 43.9001 139.9 45.4001H140C158.7 57.3001 181.8 101.9 192.2 127.4C195.8 136 197.8 142.3 197.9 144.7Z" fill="url(#paint35_linear_17_703)"/>
<path style="mix-blend-mode:multiply" opacity="0.5" d="M197.9 144.7C198 148.2 191.3 156.2 182.4 158.7C173.5 161.2 143.9 150.9 127.9 120.4C112 89.9001 107.6 38.3002 133.1 42.5002C135.3 42.9002 137.6 43.9001 139.9 45.4001C103.2 45.8001 119.4 133.3 161.5 136.1C176.1 137 185.8 133.1 192.2 127.4C195.8 136 197.8 142.3 197.9 144.7Z" fill="url(#paint36_linear_17_703)"/>
<path style="mix-blend-mode:multiply" d="M372.1 379.1C372.1 379.1 372.2 412.1 378.4 422.7C384.5 433.2 393.8 434.8 393.8 434.8C393.8 434.8 371.1 431.7 349.3 423.2L356.3 378L372.1 379.1Z" fill="url(#paint37_linear_17_703)"/>
<path d="M551.199 445.8C544.499 448.1 537.4 449.7 530 450.5C472.2 457.4 419.699 416 412.899 358.2C411.299 344.1 412.5 330.3 416.1 317.4C416.5 334.4 423 358.9 447 390.3C480.4 434 525.399 444 551.199 445.8Z" fill="url(#paint38_linear_17_703)"/>
<path d="M416.1 317.4C435.9 285.2 589.5 389.8 551.2 445.8C546 453.5 489.8 445.1 456.2 408.9C422.6 372.8 407.7 331.1 416.1 317.4Z" fill="url(#paint39_linear_17_703)"/>
<path d="M610.899 394.9C604.199 407.7 594.899 419 583.499 428.1C481.899 440.1 427.999 340.5 422.199 301.1V301C431.199 281.9 445.799 265.7 464.299 254.9C458.899 275.2 467.899 321 519.599 362.6C567.399 401.1 597.599 399.1 610.899 394.9Z" fill="url(#paint40_linear_17_703)"/>
<path d="M464.3 254.9C498.7 232.1 621.599 334.8 610.899 394.9C608.599 408 543.6 407 493.1 349.4C449.8 300 458.6 258.6 464.3 254.9Z" fill="url(#paint41_linear_17_703)"/>
<path d="M622.3 353.1C622.1 355.2 622 357.2 621.7 359.3C614.7 365.8 600.3 371.5 571.7 361.9C522.5 345.4 462.9 260.1 494.7 243.3C496.3 242.967 497.9 242.667 499.5 242.4C501.7 242 503.9 241.7 506.1 241.5C507.833 241.3 509.567 241.167 511.3 241.1C567 237.9 616 279.2 621.9 335.4C622.233 338.2 622.4 341 622.4 343.8C622.6 346.9 622.5 350 622.3 353.1Z" fill="url(#paint42_linear_17_703)"/>
<g style="mix-blend-mode:soft-light" opacity="0.9">
<path d="M622.4 343.8C558.6 343.1 508.8 270.6 511.3 241.1C567 237.9 616 279.2 621.9 335.4C622.233 338.2 622.4 341 622.4 343.8Z" fill="#FFA96F"/>
</g>
<path style="mix-blend-mode:multiply" d="M428.3 401.8C428.3 401.8 420.2 463.2 442.6 482.2C442.6 482.2 467.5 454.9 474.4 442C474.4 442 450.4 430.7 428.3 401.8Z" fill="url(#paint43_linear_17_703)"/>
<path style="mix-blend-mode:multiply" opacity="0.4" d="M430.3 495.6L430.2 495.7C374.6 554.1 335.8 562.9 340 529.6C340.9 523.2 342.4 516.8 344.5 510.4C344.567 510.133 344.634 509.967 344.7 509.9C344.4 511.5 341.1 531.4 359.8 532.6C379 533.8 428.7 496.8 430.3 495.6Z" fill="url(#paint44_linear_17_703)"/>
<path style="mix-blend-mode:multiply" d="M430.3 327.8C430.3 327.8 440.2 399.4 484.4 423.3C528.5 447.2 556.2 434.8 556.2 434.8L557.2 428.8C557.2 428.8 478.3 419.7 430.3 327.8Z" fill="url(#paint45_linear_17_703)"/>
<path style="mix-blend-mode:multiply" d="M485.8 264.4C485.8 264.4 470.8 315.7 523.9 359.4C577.1 403.2 612.2 386.5 611.6 382.9C611 379.3 608 367 608 367C608 367 584.9 371.8 547.7 349.3C503.1 322.2 485.8 264.4 485.8 264.4Z" fill="url(#paint46_linear_17_703)"/>
<g style="mix-blend-mode:soft-light" opacity="0.9">
<path d="M547.3 249.6C528.1 239.4 517.8 277.1 547.3 280.5C576.8 283.9 568.9 261.2 547.3 249.6Z" fill="#FFA96F"/>
</g>
<g style="mix-blend-mode:soft-light" opacity="0.9">
<path d="M459.5 270.3C459.5 270.3 484.3 347.8 520.5 374.6C520.5 374.6 453.9 338.4 459.5 270.3Z" fill="#FFA96F"/>
</g>
<g style="mix-blend-mode:soft-light" opacity="0.9">
<path d="M414.6 338.5C414.6 338.5 454 409.4 483.3 430.3C483.3 430.3 429.9 401 414.6 338.5Z" fill="#FFA96F"/>
</g>
<path style="mix-blend-mode:multiply" d="M339.8 532.6C339.8 532.6 387.8 518.9 405.8 489.9C405.8 489.9 387 500 348.7 499.5C348.7 499.5 340.6 518.4 339.8 532.6Z" fill="url(#paint47_linear_17_703)"/>
<g style="mix-blend-mode:soft-light" opacity="0.9">
<path d="M235.5 124.4C196.5 138.8 264.7 191.3 333.4 186.3C402.2 181.2 404.3 139.3 406.4 131.9C408.4 124.6 337.1 87.1001 235.5 124.4Z" fill="#FFA96F"/>
</g>
<g style="mix-blend-mode:soft-light" opacity="0.9">
<path d="M269.199 138.2C243.399 151.6 283.399 162.2 289.699 150.5C295.999 138.8 280.199 132.6 269.199 138.2Z" fill="white"/>
</g>
<path d="M462.6 303.7C462.6 303.7 471.4 308.6 477.3 317.3C483.2 326 489.8 345.6 489.8 345.6C489.8 345.6 470.9 332.6 462.6 303.7Z" fill="#FF8B4F"/>
<path d="M423.899 364.6C423.899 364.6 436.2 373.7 441.6 382C447 390.3 451.399 403.6 451.399 403.6C451.399 403.6 429.599 382.9 423.899 364.6Z" fill="#FF8B4F"/>
<path d="M519 270.3C521.3 261 542.4 281.6 544.3 290.3C546.1 299 544.3 305.6 544.3 305.6C544.3 305.6 526.9 285.6 519 270.3Z" fill="#FF8B4F"/>
<g style="mix-blend-mode:soft-light" opacity="0.9">
<path d="M32.4997 396.1C34.9997 346.3 112.5 369.5 121.1 414C129.6 458.6 30.3997 438 32.4997 396.1Z" fill="#9F98FF"/>
</g>
<g style="mix-blend-mode:soft-light" opacity="0.9">
<path d="M61.8004 408C51.9004 391.7 75.8003 380.7 79.0003 402.4C82.1003 424 61.8004 408 61.8004 408Z" fill="#9F98FF"/>
</g>
<path d="M9.89941 281.1C9.89941 281.1 29.2995 249.8 60.9995 243.8C92.6995 237.9 111.199 243.8 111.199 243.8C111.199 243.8 85.5996 230.2 56.5996 236.5C22.6996 243.8 9.89941 281.1 9.89941 281.1Z" fill="#7EFFEA"/>
<path d="M352.3 403.6C354.6 389.7 387.5 361.9 387.5 361.9C387.5 361.9 310.499 381.6 257.899 385.1C257.899 385.1 331.6 384.4 352.3 403.6Z" fill="#6D001F"/>
<g style="mix-blend-mode:soft-light" opacity="0.9">
<path d="M82.8 389.7C44.5 384.2 48.0999 418.1 82.8999 425.9C117.8 433.8 100.8 392.3 82.8 389.7Z" fill="#ACFFEA"/>
</g>
<path d="M401.1 113.4C399.2 112.8 369.6 103 327.1 102.3C298.5 101.8 264.1 105.4 228.3 118.5C228.3 118.5 218.1 105.9 221.1 103.4C223.9 101.1 229 111.8 229.6 113C229 111 220 81.0999 226.4 74.4999C233.1 67.6999 244.1 107.9 244.1 107.9C244.1 107.9 248.9 64.0999 269.3 55.8999C270.6 55.3999 271.9 55.0999 273.3 54.8999C295.2 51.6999 279.5 85.5999 276.8 91.0999C276.8 91.2999 276.7 91.3999 276.7 91.4999C276.567 91.6999 276.5 91.7999 276.5 91.7999C276.567 91.6666 276.733 91.3999 277 90.9999C277.067 90.8666 277.133 90.6999 277.2 90.4999C279.1 87.2999 284.2 78.6999 291.6 69.2999C292 68.8333 292.367 68.3666 292.7 67.8999C297.8 61.6999 303.9 55.1999 310.7 49.7999C310.7 49.7333 310.733 49.6999 310.8 49.6999C319.4 42.7999 329.2 37.5999 339.7 36.6999C374.6 33.8999 293.3 89.4999 291.2 90.8999C293.3 90.2999 353.7 72.0999 377.1 75.3999C401 78.5999 378.1 103.2 378.1 103.2L401.1 113.4Z" fill="#FFE84A"/>
<path d="M158 169.3C158 169.3 165.7 174.3 182.3 168.9C198.8 163.5 209 151.3 209 151.3C209 151.3 205.3 171.3 176.1 178.1C147 184.9 158 169.3 158 169.3Z" fill="#FFE84A"/>
<g style="mix-blend-mode:soft-light" opacity="0.4">
<path d="M411.6 42.6001C404.6 63.3001 426.2 69.8001 433.3 53.4001C440.3 36.9001 423.9 6.20008 411.6 42.6001Z" fill="#FFA96F"/>
</g>
<g style="mix-blend-mode:soft-light" opacity="0.4">
<path d="M134.8 94C140.9 114.9 162.4 107.9 158.8 90.3C155.1 72.8 124 57.1 134.8 94Z" fill="#FFA96F"/>
</g>
<path style="mix-blend-mode:multiply" opacity="0.5" d="M276.8 91.1001C276.8 91.3001 276.7 91.4001 276.7 91.5001C274.1 95.6001 272.6 98.2001 272.6 98.2001C272.6 98.2001 278.2 52.4001 269.3 56.0001V55.9001C270.6 55.4001 271.9 55.1001 273.3 54.9001C295.2 51.7001 279.5 85.6001 276.8 91.1001Z" fill="url(#paint48_linear_17_703)"/>
<path style="mix-blend-mode:multiply" opacity="0.5" d="M291.599 69.3C285.899 76.8 280.699 84.8001 277.199 90.5001C279.099 87.3001 284.199 78.7 291.599 69.3Z" fill="url(#paint49_linear_17_703)"/>
<path style="mix-blend-mode:multiply" opacity="0.5" d="M401.1 113.4C399.2 112.8 369.6 103 327.1 102.3C322.5 100.6 319.9 99.5999 319.9 99.5999L368.5 97.1999C368.5 97.1999 390.4 78.7999 361.6 77.5999C333.1 76.3999 282.5 98.8999 281 99.5999C282.7 97.9999 338.6 44.9999 336.2 42.2999C333.8 39.4999 327 39.8999 310.9 49.5999C310.833 49.6666 310.8 49.6999 310.8 49.6999C319.4 42.7999 329.2 37.5999 339.7 36.6999C374.6 33.8999 293.3 89.4999 291.2 90.8999C293.3 90.2999 353.7 72.0999 377.1 75.3999C401 78.5999 378.1 103.2 378.1 103.2L401.1 113.4Z" fill="url(#paint50_linear_17_703)"/>
<path d="M209 127C209 127 280.1 96.8002 339.7 102.6C399.4 108.3 437.5 141.5 437.5 141.5C437.5 141.5 401.5 100.9 347.8 93.9002C294.2 86.9002 222.7 119 209 127Z" fill="#FFE84A"/>
<g style="mix-blend-mode:soft-light" opacity="0.9">
<path d="M214 428.2C178.8 420.2 181.1 449.4 207.2 467.6C233.3 485.7 251.5 436.8 214 428.2Z" fill="#FFA96F"/>
</g>
<g style="mix-blend-mode:soft-light" opacity="0.9">
<path d="M200.8 453.3C192.7 463.3 214.9 479.1 221.8 464.8C228.7 450.5 208.9 443.3 200.8 453.3Z" fill="white"/>
</g>
<g style="mix-blend-mode:soft-light" opacity="0.9">
<path d="M186.9 472.6C178.8 482.6 200.7 501.8 212.3 490.9C217 486.6 194.9 462.6 186.9 472.6Z" fill="white"/>
</g>
<path d="M179.8 519.4C179.8 519.4 164.9 484 174.5 448.6C184 413.3 201.2 401.2 201.2 401.2C201.2 401.2 169.4 426 166 460.3C162.5 494.6 179.8 519.4 179.8 519.4Z" fill="#FFC54A"/>
<path d="M111.199 279.1C111.199 279.1 113.099 333.9 139.599 358.4C166.099 382.9 204.699 386 204.699 386C204.699 386 170.099 392.7 137.099 366.2C104.099 339.8 111.199 279.1 111.199 279.1Z" fill="#FFC54A"/>
</g>
<defs>
<filter id="filter0_d_17_703" x="-0.545898" y="0.543701" width="630.055" height="575.249" filterUnits="userSpaceOnUse" color-interpolation-filters="sRGB">
<feFlood flood-opacity="0" result="BackgroundImageFix"/>
<feColorMatrix in="SourceAlpha" type="matrix" values="0 0 0 0 0 0 0 0 0 0 0 0 0 0 0 0 0 0 127 0" result="hardAlpha"/>
<feOffset dx="3" dy="4"/>
<feGaussianBlur stdDeviation="2"/>
<feComposite in2="hardAlpha" operator="out"/>
<feColorMatrix type="matrix" values="0 0 0 0 0 0 0 0 0 0 0 0 0 0 0 0 0 0 0.25 0"/>
<feBlend mode="normal" in2="BackgroundImageFix" result="effect1_dropShadow_17_703"/>
<feBlend mode="normal" in="SourceGraphic" in2="effect1_dropShadow_17_703" result="shape"/>
</filter>
<linearGradient id="paint0_linear_17_703" x1="54.8999" y1="453.3" x2="54.8999" y2="235.5" gradientUnits="userSpaceOnUse">
<stop stop-color="#B6ECC2"/>
<stop offset="1" stop-color="#909FDC"/>
</linearGradient>
<linearGradient id="paint1_linear_17_703" x1="2.99993" y1="453.3" x2="2.99993" y2="290.3" gradientUnits="userSpaceOnUse">
<stop stop-color="#5C60B5"/>
<stop offset="1" stop-color="white"/>
</linearGradient>
<linearGradient id="paint2_linear_17_703" x1="148.8" y1="358.4" x2="260.6" y2="358.4" gradientUnits="userSpaceOnUse">
<stop stop-color="#5B8EFF"/>
<stop offset="1" stop-color="#1D0090"/>
</linearGradient>
<linearGradient id="paint3_linear_17_703" x1="302.001" y1="125.4" x2="302.001" y2="0.600056" gradientUnits="userSpaceOnUse">
<stop stop-color="#630E19"/>
<stop offset="1" stop-color="#8B311B"/>
</linearGradient>
<linearGradient id="paint4_linear_17_703" x1="380.1" y1="15" x2="438.9" y2="15" gradientUnits="userSpaceOnUse">
<stop stop-color="#8B0081"/>
<stop offset="1" stop-color="#B842FF"/>
</linearGradient>
<linearGradient id="paint5_linear_17_703" x1="468.8" y1="463.9" x2="312.4" y2="417.4" gradientUnits="userSpaceOnUse">
<stop stop-color="#3E0E19"/>
<stop offset="1" stop-color="#683131"/>
</linearGradient>
<linearGradient id="paint6_linear_17_703" x1="234.4" y1="568.1" x2="235" y2="520.1" gradientUnits="userSpaceOnUse">
<stop stop-color="#3E0E19"/>
<stop offset="1" stop-color="#31074B"/>
</linearGradient>
<linearGradient id="paint7_linear_17_703" x1="158.7" y1="556.2" x2="158.7" y2="355.3" gradientUnits="userSpaceOnUse">
<stop stop-color="#E5602F"/>
<stop offset="1" stop-color="#FFA400"/>
</linearGradient>
<linearGradient id="paint8_linear_17_703" x1="309.6" y1="539.5" x2="285.8" y2="418.1" gradientUnits="userSpaceOnUse">
<stop offset="0.006" stop-color="#982F00"/>
<stop offset="1" stop-color="#E36B00"/>
</linearGradient>
<linearGradient id="paint9_linear_17_703" x1="204.4" y1="386.5" x2="204.4" y2="95.4001" gradientUnits="userSpaceOnUse">
<stop stop-color="#FF962F"/>
<stop offset="1" stop-color="#FFC700"/>
</linearGradient>
<linearGradient id="paint10_linear_17_703" x1="303.4" y1="322.4" x2="276.2" y2="188.1" gradientUnits="userSpaceOnUse">
<stop stop-color="#F28727"/>
<stop offset="1" stop-color="#C72200"/>
</linearGradient>
<radialGradient id="paint11_radial_17_703" cx="0" cy="0" r="1" gradientUnits="userSpaceOnUse" gradientTransform="translate(226.6 266) scale(65.8 65.8)">
<stop offset="0.469" stop-color="white"/>
<stop offset="0.802" stop-color="#FFE5DD"/>
<stop offset="1" stop-color="#E3AAD7"/>
</radialGradient>
<linearGradient id="paint12_linear_17_703" x1="527.4" y1="294.3" x2="497" y2="144.3" gradientUnits="userSpaceOnUse">
<stop stop-color="#F28727"/>
<stop offset="1" stop-color="#C72200"/>
</linearGradient>
<radialGradient id="paint13_radial_17_703" cx="0" cy="0" r="1" gradientUnits="userSpaceOnUse" gradientTransform="translate(451.4 213.5) scale(47.6 47.6)">
<stop offset="0.469" stop-color="white"/>
<stop offset="0.802" stop-color="#FFE5DD"/>
<stop offset="1" stop-color="#E3AAD7"/>
</radialGradient>
<linearGradient id="paint14_linear_17_703" x1="276.5" y1="315.2" x2="255.6" y2="211.8" gradientUnits="userSpaceOnUse">
<stop stop-color="#683155"/>
<stop offset="1" stop-color="#3E0E19"/>
</linearGradient>
<linearGradient id="paint15_linear_17_703" x1="536.6" y1="257" x2="516.8" y2="159.2" gradientUnits="userSpaceOnUse">
<stop stop-color="#683155"/>
<stop offset="1" stop-color="#3E0E19"/>
</linearGradient>
<linearGradient id="paint16_linear_17_703" x1="319.5" y1="548.9" x2="319.5" y2="366.2" gradientUnits="userSpaceOnUse">
<stop stop-color="#852731"/>
<stop offset="1" stop-color="#C14A1B"/>
</linearGradient>
<linearGradient id="paint17_linear_17_703" x1="411.399" y1="529.3" x2="221.399" y2="472.8" gradientUnits="userSpaceOnUse">
<stop stop-color="#3E0E19"/>
<stop offset="1" stop-color="#683131"/>
</linearGradient>
<linearGradient id="paint18_linear_17_703" x1="348.599" y1="335.8" x2="348.599" y2="271.6" gradientUnits="userSpaceOnUse">
<stop stop-color="#F28727"/>
<stop offset="1" stop-color="#C72200"/>
</linearGradient>
<linearGradient id="paint19_linear_17_703" x1="353.1" y1="335.2" x2="353.1" y2="277" gradientUnits="userSpaceOnUse">
<stop stop-color="#C23600"/>
<stop offset="0.994" stop-color="#862200"/>
</linearGradient>
<linearGradient id="paint20_linear_17_703" x1="359.8" y1="325" x2="359.8" y2="277" gradientUnits="userSpaceOnUse">
<stop stop-color="#E04FEA"/>
<stop offset="1" stop-color="#9700B3"/>
</linearGradient>
<linearGradient id="paint21_linear_17_703" x1="368.899" y1="308.4" x2="368.899" y2="279.1" gradientUnits="userSpaceOnUse">
<stop stop-color="#FFBE8C"/>
<stop offset="1" stop-color="#FFE5BC"/>
</linearGradient>
<linearGradient id="paint22_linear_17_703" x1="408.8" y1="212.5" x2="408.8" y2="144.4" gradientUnits="userSpaceOnUse">
<stop stop-color="#3E0E19"/>
<stop offset="1" stop-color="#31074B"/>
</linearGradient>
<linearGradient id="paint23_linear_17_703" x1="200.3" y1="247.2" x2="200.3" y2="186.3" gradientUnits="userSpaceOnUse">
<stop stop-color="#3E0E19"/>
<stop offset="1" stop-color="#31074B"/>
</linearGradient>
<linearGradient id="paint24_linear_17_703" x1="213.6" y1="302" x2="173.3" y2="197.6" gradientUnits="userSpaceOnUse">
<stop stop-color="#A69CEA"/>
<stop offset="1" stop-color="#DE27B3"/>
</linearGradient>
<linearGradient id="paint25_linear_17_703" x1="438.699" y1="223.2" x2="413.099" y2="156.7" gradientUnits="userSpaceOnUse">
<stop stop-color="#A69CEA"/>
<stop offset="1" stop-color="#DE27B3"/>
</linearGradient>
<linearGradient id="paint26_linear_17_703" x1="213.099" y1="339.6" x2="241.099" y2="291.1" gradientUnits="userSpaceOnUse">
<stop/>
<stop offset="1" stop-color="#39FFFF"/>
</linearGradient>
<linearGradient id="paint27_linear_17_703" x1="520.1" y1="283.8" x2="527.9" y2="237.8" gradientUnits="userSpaceOnUse">
<stop/>
<stop offset="1" stop-color="#39FFFF"/>
</linearGradient>
<linearGradient id="paint28_linear_17_703" x1="155.6" y1="171.6" x2="186.4" y2="126.2" gradientUnits="userSpaceOnUse">
<stop stop-color="#8B0081"/>
<stop offset="1" stop-color="#B842FF"/>
</linearGradient>
<linearGradient id="paint29_linear_17_703" x1="294.4" y1="386.5" x2="294.4" y2="275.5" gradientUnits="userSpaceOnUse">
<stop stop-color="#8B0081"/>
<stop offset="1" stop-color="#B842FF"/>
</linearGradient>
<linearGradient id="paint30_linear_17_703" x1="273.6" y1="434.1" x2="273.6" y2="369.4" gradientUnits="userSpaceOnUse">
<stop stop-color="#8B0081"/>
<stop offset="1" stop-color="#B842FF"/>
</linearGradient>
<linearGradient id="paint31_linear_17_703" x1="311.299" y1="499.5" x2="311.299" y2="419.6" gradientUnits="userSpaceOnUse">
<stop stop-color="#8B0081"/>
<stop offset="1" stop-color="#B842FF"/>
</linearGradient>
<linearGradient id="paint32_linear_17_703" x1="253.5" y1="532.6" x2="253.5" y2="454.8" gradientUnits="userSpaceOnUse">
<stop stop-color="#8B0081"/>
<stop offset="1" stop-color="#B842FF"/>
</linearGradient>
<linearGradient id="paint33_linear_17_703" x1="209.5" y1="556.2" x2="209.5" y2="472.7" gradientUnits="userSpaceOnUse">
<stop stop-color="#8B0081"/>
<stop offset="1" stop-color="white"/>
</linearGradient>
<linearGradient id="paint34_linear_17_703" x1="350.899" y1="279.1" x2="403.3" y2="279.1" gradientUnits="userSpaceOnUse">
<stop stop-color="#A69CEA"/>
<stop offset="1" stop-color="#DE27B3"/>
</linearGradient>
<linearGradient id="paint35_linear_17_703" x1="74.2001" y1="159.1" x2="74.2001" y2="42.3002" gradientUnits="userSpaceOnUse">
<stop stop-color="#630E19"/>
<stop offset="1" stop-color="#8B311B"/>
</linearGradient>
<linearGradient id="paint36_linear_17_703" x1="115" y1="42.3002" x2="197.9" y2="42.3002" gradientUnits="userSpaceOnUse">
<stop stop-color="#8B0081"/>
<stop offset="1" stop-color="#B842FF"/>
</linearGradient>
<linearGradient id="paint37_linear_17_703" x1="335.3" y1="434.8" x2="335.3" y2="378" gradientUnits="userSpaceOnUse">
<stop stop-color="#8B0081"/>
<stop offset="1" stop-color="#B842FF"/>
</linearGradient>
<linearGradient id="paint38_linear_17_703" x1="405.599" y1="465.2" x2="388.499" y2="320.6" gradientUnits="userSpaceOnUse">
<stop stop-color="#852731"/>
<stop offset="1" stop-color="#C14A1B"/>
</linearGradient>
<linearGradient id="paint39_linear_17_703" x1="410.3" y1="464.1" x2="392.8" y2="315.5" gradientUnits="userSpaceOnUse">
<stop stop-color="#AC434C"/>
<stop offset="1" stop-color="#D3571B"/>
</linearGradient>
<linearGradient id="paint40_linear_17_703" x1="429.499" y1="446.3" x2="407.699" y2="261.6" gradientUnits="userSpaceOnUse">
<stop stop-color="#852731"/>
<stop offset="1" stop-color="#C14A1B"/>
</linearGradient>
<linearGradient id="paint41_linear_17_703" x1="449.2" y1="419" x2="430.1" y2="256.9" gradientUnits="userSpaceOnUse">
<stop stop-color="#AC434C"/>
<stop offset="1" stop-color="#D3571B"/>
</linearGradient>
<linearGradient id="paint42_linear_17_703" x1="496.6" y1="365.6" x2="498.3" y2="240.7" gradientUnits="userSpaceOnUse">
<stop stop-color="#852731"/>
<stop offset="1" stop-color="#C14A1B"/>
</linearGradient>
<linearGradient id="paint43_linear_17_703" x1="382.7" y1="482.2" x2="382.7" y2="401.8" gradientUnits="userSpaceOnUse">
<stop stop-color="#8B0081"/>
<stop offset="1" stop-color="#B842FF"/>
</linearGradient>
<linearGradient id="paint44_linear_17_703" x1="369.3" y1="548.9" x2="369.3" y2="495.6" gradientUnits="userSpaceOnUse">
<stop stop-color="#8B0081"/>
<stop offset="1" stop-color="white"/>
</linearGradient>
<linearGradient id="paint45_linear_17_703" x1="445.9" y1="438" x2="445.9" y2="327.8" gradientUnits="userSpaceOnUse">
<stop stop-color="#8B0081"/>
<stop offset="1" stop-color="#B842FF"/>
</linearGradient>
<linearGradient id="paint46_linear_17_703" x1="486.9" y1="389" x2="486.9" y2="264.4" gradientUnits="userSpaceOnUse">
<stop stop-color="#8B0081"/>
<stop offset="1" stop-color="#B842FF"/>
</linearGradient>
<linearGradient id="paint47_linear_17_703" x1="339.8" y1="489.9" x2="405.8" y2="489.9" gradientUnits="userSpaceOnUse">
<stop stop-color="#8B0081"/>
<stop offset="1" stop-color="#B842FF"/>
</linearGradient>
<linearGradient id="paint48_linear_17_703" x1="269.3" y1="54.7001" x2="284.8" y2="54.7001" gradientUnits="userSpaceOnUse">
<stop stop-color="white"/>
<stop offset="1" stop-color="#C62A96"/>
</linearGradient>
<linearGradient id="paint49_linear_17_703" x1="277.199" y1="69.3" x2="291.599" y2="69.3" gradientUnits="userSpaceOnUse">
<stop stop-color="#8B0081"/>
<stop offset="1" stop-color="#B842FF"/>
</linearGradient>
<linearGradient id="paint50_linear_17_703" x1="281" y1="36.6" x2="401.1" y2="36.6" gradientUnits="userSpaceOnUse">
<stop stop-color="white"/>
<stop offset="1" stop-color="#C62A96"/>
</linearGradient>
</defs>
</svg>
