<svg width="528" height="525" viewBox="0 0 528 525" fill="none" xmlns="http://www.w3.org/2000/svg">
<g filter="url(#filter0_d_16_648)">
<path d="M225.2 398C225.5 409.3 212.9 415.3 194.7 417.8C155.1 423.1 88.4999 412 67.2999 402.5C-5.50008 370 -16.0001 267.5 22.9999 214.7V214.6C27.6999 208.3 33.0998 202.7 39.1998 198C56.3998 184.6 130 201.9 179.2 263.7C202 292.2 219.5 330 224.1 378.7C224.7 384.967 225.066 391.4 225.2 398Z" fill="url(#paint0_linear_16_648)"/>
<path style="mix-blend-mode:multiply" opacity="0.6" d="M194.7 417.8C155.1 423.1 88.4999 412 67.2999 402.5C-5.50008 370 -16.0001 267.5 22.9999 214.7V214.6C22.9999 214.6 -14.4001 314 44.9999 369.2C85.2999 406.6 155.8 414.5 194.7 417.8Z" fill="url(#paint1_linear_16_648)"/>
<g style="mix-blend-mode:soft-light" opacity="0.9">
<path d="M72.4997 319.7C29.1997 341.6 90.1996 417.4 152.7 407.4C215.2 397.5 131 290.1 72.4997 319.7Z" fill="#9F98FF"/>
</g>
<path style="mix-blend-mode:multiply" opacity="0.6" d="M224.1 378.7L208.3 413.3C208.3 413.3 200.7 338.6 151 314.7L179.2 263.7C202 292.2 219.5 330 224.1 378.7Z" fill="url(#paint2_linear_16_648)"/>
<path d="M422.8 125.4C414.6 122.9 405.1 105.1 413 93.7999C415.2 90.6999 423.2 83.8999 433.9 76.2999C456.4 60.3999 490.8 40.6 508.2 42C511.7 42.2 514.6 43.4 516.5 45.7C531.8 64.3 478.5 141.8 422.8 125.4Z" fill="url(#paint3_linear_16_648)"/>
<path style="mix-blend-mode:multiply" opacity="0.5" d="M422.8 125.4C414.6 122.9 405.1 105.1 413 93.8C415.2 90.7 423.2 83.9 433.9 76.3C419.5 87.4 465.3 106.2 495.2 84.8C512.3 72.5 511.8 54.8 508.2 42C511.7 42.2 514.6 43.4 516.5 45.7C531.8 64.3 478.5 141.8 422.8 125.4Z" fill="url(#paint4_linear_16_648)"/>
<path d="M399 503.3C396.8 510.1 381.2 513.6 367.7 515.3L367.6 515.4C356.7 516.8 347.2 517.1 347.2 517.1C347.8 516.5 355.2 508.2 364.1 496.7C376.1 481.3 390.8 460.1 396.1 443.3C396.567 441.9 396.934 440.533 397.2 439.2C397.2 439.267 397.234 439.4 397.3 439.6C397.7 444 402.8 491.6 399 503.3Z" fill="url(#paint5_linear_16_648)"/>
<path d="M396.099 443.3C396.033 444.1 395.966 444.9 395.899 445.7C395.299 450.4 394.499 455 393.499 459.3C386.599 488.6 368.999 507.7 347.199 517.1C306.899 534.5 252.399 518.8 225.199 472.9C224.466 471.633 223.733 470.3 222.999 468.9C208.099 439.2 199.699 373.6 213.299 342.2C226.899 298.3 265.599 313.4 265.599 313.4C277.199 322.7 404.599 348.4 396.099 443.3Z" fill="url(#paint6_linear_16_648)"/>
<path d="M524.9 276.6C524.1 309 483.9 334.9 367.7 351.2C287.9 362.5 142.1 345.1 128.9 282.6C126.9 273.4 126 262.3 126.4 250C129 178.5 178.5 67.8998 351.9 76.7998C479.2 83.3998 514 241.8 514 241.8C521.1 254 525.3 265.7 524.9 276.6Z" fill="url(#paint7_linear_16_648)"/>
<path d="M172.5 241.9C172.5 278.9 202.5 308.9 239.5 308.9C276.5 308.9 306.4 278.9 306.4 241.9C306.4 204.9 276.5 174.9 239.5 174.9C202.5 174.9 172.5 204.9 172.5 241.9Z" fill="url(#paint8_linear_16_648)"/>
<path d="M266.4 512.3C266.4 512.3 323.3 515.9 355.1 489.4C386.9 462.8 396.2 427.4 396.2 427.4C396.2 427.4 397.3 407 382.7 384.6C382.7 384.6 335 453 214.2 444.6C214.2 444.6 225.2 494.4 266.4 512.3Z" fill="url(#paint9_linear_16_648)"/>
<path d="M293.6 458.7C233.2 447 217.3 407 213.3 391.1C213.3 391.033 213.3 391 213.3 391C212.4 387.7 212.1 385.5 212 384.8C210 370.4 224.9 366.1 224.9 366.1C224.9 366.1 245.7 381.5 286.7 400C308.4 409.8 332.4 411.6 351.3 411.9C367.9 412.2 380.6 411.4 384.2 413.9C392.1 419.4 356 470.8 293.6 458.7Z" fill="url(#paint10_linear_16_648)"/>
<path d="M305.699 252.1C305.699 252.1 252.699 208.5 172.599 244.7C172.599 244.7 159.499 232.8 163.699 223.8C167.899 214.8 260.599 190.2 305.699 252.1Z" fill="url(#paint11_linear_16_648)"/>
<path d="M418.2 314.6C407.4 326.7 391.8 336.2 373.5 333C354.7 329.8 342.3 319.3 335.5 308.1C328 296 327 283.1 331.5 277.5C337.9 269.6 373.2 277.6 385.8 276.9C402.3 275.9 428.6 269.4 433.4 278.2C436.6 283.9 430.4 300.9 418.2 314.6Z" fill="url(#paint12_linear_16_648)"/>
<path d="M416.2 314.7C406 325.7 391.2 334.4 373.9 331.5C356.2 328.5 344.4 319 337.9 308.7C330.9 297.7 330 286 334.2 280.9C340.2 273.7 373.7 281 385.6 280.3C401.2 279.4 425.3 271.4 430.6 281.5C433.5 286.8 427.7 302.3 416.2 314.7Z" fill="url(#paint13_linear_16_648)"/>
<path style="mix-blend-mode:multiply" d="M416.2 314.7C415.3 314.1 414.3 313.4 413.2 312.7C401 305.2 347.6 303.5 337.9 308.7C330.9 297.7 330 286 334.2 280.9C340.2 273.7 373.7 281 385.6 280.3C401.2 279.4 425.3 271.4 430.6 281.5C433.5 286.8 427.7 302.3 416.2 314.7Z" fill="url(#paint14_linear_16_648)"/>
<path d="M419.3 276.4C419.3 276.4 416 281.3 410.5 286C406.7 289.3 402 292.6 396.5 294.3C393.1 295.4 389.5 295.9 385.7 295.6C370.8 294.1 361.5 278.8 361.5 278.8C400.7 280.4 419.3 276.4 419.3 276.4Z" fill="url(#paint15_linear_16_648)"/>
<path d="M360.6 323.4C360.6 323.4 401.6 322.8 410.6 319.7C410.6 319.7 405.4 329.9 387.4 332C369.3 334 360.6 323.4 360.6 323.4Z" fill="url(#paint16_linear_16_648)"/>
<path d="M390.5 426.7C387.2 425.3 384.8 420.9 383 415.5C381.8 411.8 380.9 407.6 380.2 403.5V403.4C378.4 393 378.1 383.3 378.1 383.3L373.8 375.1C373.8 375.1 395.3 374.7 411.4 378.8C416.8 380.2 421.7 382 424.8 384.6C437.3 394.9 408.4 434.4 390.5 426.7Z" fill="url(#paint17_linear_16_648)"/>
<g style="mix-blend-mode:soft-light" opacity="0.9">
<path d="M96.3001 362.3C57.7001 360.1 64.3 393.6 99.7 398.3C135.1 403.1 114.5 363.3 96.3001 362.3Z" fill="#ACFFEA"/>
</g>
<path style="mix-blend-mode:multiply" opacity="0.5" d="M524.9 276.6C524.1 309 483.9 334.9 367.7 351.2C287.9 362.5 142.1 345.1 128.9 282.6C126.9 273.4 125.4 262.2 126.4 250C129.8 210.3 149.7 164.7 149.7 164.7C149.7 164.7 106.3 332.1 358 341.5C480.5 346.1 515.6 291.3 524.9 276.6Z" fill="url(#paint18_linear_16_648)"/>
<path style="mix-blend-mode:multiply" d="M213.2 342.2C213.2 342.2 274.9 385.7 318 389.3C361.1 393 367.7 371.8 367.7 371.8C367.7 371.8 357.6 358.1 350.8 354.4C350.8 354.4 273.3 357 213.2 342.2Z" fill="url(#paint19_linear_16_648)"/>
<path style="mix-blend-mode:multiply" d="M293.6 458.7C233.2 447 217.3 407 213.3 391.1C214.4 393.8 230.4 440.2 284.3 451.3C339.9 462.7 362.9 426.3 362.2 419.1C361.9 416.3 357 413.8 351.3 411.9C367.9 412.2 380.6 411.4 384.2 413.9C392.1 419.4 356 470.8 293.6 458.7Z" fill="url(#paint20_linear_16_648)"/>
<path style="mix-blend-mode:multiply" d="M390.5 426.7C387.2 425.3 384.8 420.9 383 415.5L380.3 403.9C381.2 406.9 386 420.7 402.5 414.7C420.9 408 424.8 384.6 411.4 378.8C416.8 380.2 421.7 382 424.8 384.6C437.3 394.9 408.4 434.4 390.5 426.7Z" fill="url(#paint21_linear_16_648)"/>
<path style="mix-blend-mode:multiply" d="M225.2 419.2C225.2 419.2 243 456.7 286.1 478.2C329.2 499.6 361.1 448.6 361.1 448.6C361.1 448.6 337.4 465.5 293.6 458.7C249.7 451.9 225.2 419.2 225.2 419.2Z" fill="url(#paint22_linear_16_648)"/>
<path style="mix-blend-mode:multiply" opacity="0.6" d="M367.7 515.3L367.6 515.4C356.7 516.8 347.2 517.1 347.2 517.1C306.9 534.5 252.4 518.8 225.2 472.9C224.467 471.633 223.734 470.3 223 468.9L222.9 467.9C222.9 467.9 265.9 498.7 325.6 489.4C375.2 481.6 397.2 439.8 397.2 439.2C397.2 439.267 397.234 439.4 397.3 439.6C397.5 443.9 399 490.6 367.7 515.3Z" fill="url(#paint23_linear_16_648)"/>
<g style="mix-blend-mode:soft-light" opacity="0.9">
<path d="M263.2 110.1C242.9 142.7 273.5 220.1 367.7 220.7C461.9 221.4 445.8 120 410 96.3999C374.3 72.6999 284 76.6999 263.2 110.1Z" fill="#FFA96F"/>
</g>
<path d="M455 240.9C458.7 275.5 472.3 297.1 488.3 298C497.4 298.5 515.9 266.8 512.2 232.3C508.5 197.7 476.7 172.6 470.1 172.6C454 172.6 451.3 206.4 455 240.9Z" fill="url(#paint24_linear_16_648)"/>
<path d="M457.4 255.1C457.4 255.1 473.3 234.7 493.7 233.1C514.2 231.5 512.6 245.6 512.6 245.6C512.6 245.6 526.8 233.1 527.2 224.8C527.5 216.5 480.6 205.6 457.4 255.1Z" fill="url(#paint25_linear_16_648)"/>
<g style="mix-blend-mode:soft-light" opacity="0.9">
<path d="M320.8 116.1C319.8 134.5 353.6 132.8 347.6 116.1C341.7 99.3998 321.5 103.6 320.8 116.1Z" fill="white"/>
</g>
<path style="mix-blend-mode:multiply" opacity="0.8" d="M172.6 244.7C172.6 244.7 190.4 235.8 234.3 236.7C278.2 237.7 296.7 246.2 296.7 246.2C296.7 246.2 283 227.2 237.5 224.6C192 222.1 172.6 244.7 172.6 244.7Z" fill="url(#paint26_linear_16_648)"/>
<path style="mix-blend-mode:multiply" opacity="0.8" d="M457.4 255.1C457.4 255.1 466.4 243.8 488.8 240.1C511.2 236.4 512.2 250.6 512.2 250.6C512.2 250.6 520.1 231.2 496.9 228.9C473.7 226.5 457.4 255.1 457.4 255.1Z" fill="url(#paint27_linear_16_648)"/>
<path d="M261.4 84.7999C261.4 84.7999 330.6 72.3999 393.1 94.9999C455.6 117.5 492.3 183 492.3 183C492.3 183 466.6 111.9 396.5 86.1999C326.4 60.4999 261.4 84.7999 261.4 84.7999Z" fill="#FFE84A"/>
<path style="mix-blend-mode:multiply" opacity="0.5" d="M180.799 134.1C166.499 162.1 243.399 128.8 248.099 110.6C252.699 92.2999 194.399 107.6 180.799 134.1Z" fill="url(#paint28_linear_16_648)"/>
<path d="M239.5 113.2C238.9 116.6 226.2 121.9 217.1 122.6C208.1 123.3 181.8 107.7 172.4 75.3999C163 43.0999 168.9 -7.30008 192.5 1.79992C209.5 8.29992 227.3 58.2999 235.3 89.3999C238.3 101.4 239.9 110.5 239.5 113.2Z" fill="url(#paint29_linear_16_648)"/>
<path style="mix-blend-mode:multiply" opacity="0.5" d="M239.5 113.2C238.9 116.6 226.2 121.9 217.1 122.6C208.1 123.3 181.8 107.7 172.4 75.3999C163 43.0999 168.9 -7.30008 192.5 1.79992C181.2 -2.00008 155.1 63.2999 195.1 88.9999C218.9 104.4 230.1 97.4999 235.3 89.3999C238.3 101.4 239.9 110.5 239.5 113.2Z" fill="url(#paint30_linear_16_648)"/>
<path style="mix-blend-mode:multiply" opacity="0.8" d="M419.3 276.4C419.3 276.4 416 281.3 410.5 286C409.6 277.8 373.4 282.1 373.8 286.8C374.2 291.5 386.2 297 396.5 294.3C393.1 295.4 389.5 295.9 385.7 295.6C370.8 294.1 361.5 278.8 361.5 278.8C400.7 280.4 419.3 276.4 419.3 276.4Z" fill="url(#paint31_linear_16_648)"/>
<g style="mix-blend-mode:soft-light" opacity="0.9">
<path d="M273.6 403.2C248.6 405.1 286.5 450.9 310.1 449.5C333.7 448 352 436.8 347.2 425.8C342.4 414.8 273.6 403.2 273.6 403.2Z" fill="#AE979A"/>
</g>
<g style="mix-blend-mode:soft-light" opacity="0.9">
<path d="M396.199 380.5C374.299 382.5 383.099 414.2 396.199 416.1C409.399 418 419.799 391.7 414.999 386.1C410.099 380.5 396.199 380.5 396.199 380.5Z" fill="#AE979A"/>
</g>
<path d="M23 214.6C23 214.6 36 202.9 66.2 202.6C96.5 202.4 126.3 217.1 126.3 217.1C126.3 217.1 86 189.6 57.9 190.2C29.7 190.8 23 214.6 23 214.6Z" fill="#7EFFEA"/>
<path d="M359 361.4C355.5 358 396.2 346.8 396.2 346.8C396.2 346.8 334.6 361.2 253.8 350.2C253.8 350.2 319.9 370.5 359 361.4Z" fill="#6D001F"/>
<path d="M442.6 113.5C441.7 113 436.6 110 428.2 106.1C420.9 102.6 411 98.3998 399 94.2998H398.9C382.5 88.7998 362.1 83.4998 339 80.7998C338.8 80.7998 338.634 80.7998 338.5 80.7998C318.4 78.4998 296.3 78.1998 272.8 81.2998C272.8 81.2998 265.6 66.7998 269.1 65.0998C272.3 63.3998 275 74.7998 275.3 76.1998C275.1 73.7998 272.8 42.9998 280.5 37.9998C288.5 32.6998 290.6 74.3998 290.6 74.3998C290.6 74.3998 301.1 43.2998 317.9 32.4998C321.8 29.9998 326.1 28.5998 330.6 28.8998C353.8 30.5998 327.4 63.5998 325.8 65.5998C328.1 63.0998 368.8 20.8998 402.8 25.5998C437.9 30.4998 361.5 68.6998 361.5 68.6998C361.5 68.6998 374.1 66.9998 389.2 66.7998C389.3 66.7998 389.4 66.7998 389.4 66.7998C394.9 66.6998 400.7 66.7998 406.4 67.2998C406.467 67.2332 406.5 67.2332 406.5 67.2998C414.1 67.8998 421.5 69.0998 427.5 71.2998C450.1 79.5998 422.4 98.6999 422.4 98.6999L433.8 107.1L442.6 113.5Z" fill="#FFE84A"/>
<path d="M179.1 139.3C179.1 139.3 205.8 138.6 224.1 128.7C242.5 118.7 245.8 115 245.8 115C245.8 115 228 142.6 198.3 147.3C168.6 152 179.1 139.3 179.1 139.3Z" fill="#FFE84A"/>
<g style="mix-blend-mode:soft-light" opacity="0.4">
<path d="M473.699 61.6999C463.399 80.8999 485.199 85.0999 492.299 68.6999C499.399 52.1999 477.999 53.5999 473.699 61.6999Z" fill="#FFA96F"/>
</g>
<g style="mix-blend-mode:soft-light" opacity="0.4">
<path d="M187.5 31.3999C174.9 33.9999 187.4 61.5999 199.9 55.8999C212.5 50.0999 206.7 27.4999 187.5 31.3999Z" fill="#FFA96F"/>
</g>
<path style="mix-blend-mode:multiply" opacity="0.5" d="M361.5 68.6998C361.5 68.6998 374.1 66.9998 389.2 66.7998C368 68.6998 345.4 77.9998 339 80.7998C338 81.1998 337.5 81.4998 337.2 81.5998L338.5 80.7998L367.9 61.6998C367.9 61.6998 409.1 32.3998 383 30.9998C357.5 29.4998 322.2 72.7998 320.8 74.4998C321.7 72.3998 341.9 21.4998 317.9 32.4998C321.8 29.9998 326.1 28.5998 330.6 28.8998C353.8 30.5998 327.4 63.5998 325.8 65.5998C328.1 63.0998 368.8 20.8998 402.8 25.5998C437.9 30.4998 361.5 68.6998 361.5 68.6998Z" fill="url(#paint32_linear_16_648)"/>
<path style="mix-blend-mode:multiply" opacity="0.5" d="M422.4 98.6998L433.8 107.1L428.2 106.1L423.1 105.1L399 94.2998H398.9C398.9 94.2998 443.7 87.0998 418.2 71.4998C414.7 69.3998 410.8 67.9998 406.5 67.2998C414.1 67.8998 421.5 69.0998 427.5 71.2998C450.1 79.5998 422.4 98.6998 422.4 98.6998Z" fill="url(#paint33_linear_16_648)"/>
<path d="M209.3 420.7C209.3 420.7 216.6 473 242.7 495.1C268.8 517.3 298.6 522.9 298.6 522.9C298.6 522.9 271.3 522.2 242.1 500C212.9 477.7 209.3 420.7 209.3 420.7Z" fill="#FFC54A"/>
<path d="M127.899 238C127.899 238 124.999 275.2 142.399 298C159.799 320.8 192.699 336 192.699 336C192.699 336 158.099 327.3 138.999 306.5C119.799 285.6 127.899 238 127.899 238Z" fill="#FFC54A"/>
</g>
<defs>
<filter id="filter0_d_16_648" x="-3.31738" y="0.718506" width="534.52" height="531.295" filterUnits="userSpaceOnUse" color-interpolation-filters="sRGB">
<feFlood flood-opacity="0" result="BackgroundImageFix"/>
<feColorMatrix in="SourceAlpha" type="matrix" values="0 0 0 0 0 0 0 0 0 0 0 0 0 0 0 0 0 0 127 0" result="hardAlpha"/>
<feOffset dy="4"/>
<feGaussianBlur stdDeviation="2"/>
<feComposite in2="hardAlpha" operator="out"/>
<feColorMatrix type="matrix" values="0 0 0 0 0 0 0 0 0 0 0 0 0 0 0 0 0 0 0.25 0"/>
<feBlend mode="normal" in2="BackgroundImageFix" result="effect1_dropShadow_16_648"/>
<feBlend mode="normal" in="SourceGraphic" in2="effect1_dropShadow_16_648" result="shape"/>
</filter>
<linearGradient id="paint0_linear_16_648" x1="-0.200124" y1="419.2" x2="-0.200124" y2="193.7" gradientUnits="userSpaceOnUse">
<stop stop-color="#B6ECC2"/>
<stop offset="1" stop-color="#909FDC"/>
</linearGradient>
<linearGradient id="paint1_linear_16_648" x1="-10.1001" y1="419.2" x2="-10.1001" y2="214.6" gradientUnits="userSpaceOnUse">
<stop stop-color="#5C60B5"/>
<stop offset="1" stop-color="white"/>
</linearGradient>
<linearGradient id="paint2_linear_16_648" x1="151" y1="263.7" x2="224.1" y2="263.7" gradientUnits="userSpaceOnUse">
<stop stop-color="#5B8EFF"/>
<stop offset="1" stop-color="#1D0090"/>
</linearGradient>
<linearGradient id="paint3_linear_16_648" x1="430.9" y1="127.6" x2="430.9" y2="41.9" gradientUnits="userSpaceOnUse">
<stop stop-color="#630E19"/>
<stop offset="1" stop-color="#8B311B"/>
</linearGradient>
<linearGradient id="paint4_linear_16_648" x1="410" y1="42" x2="519.1" y2="42" gradientUnits="userSpaceOnUse">
<stop stop-color="#8B0081"/>
<stop offset="1" stop-color="#B842FF"/>
</linearGradient>
<linearGradient id="paint5_linear_16_648" x1="316.9" y1="517.1" x2="316.9" y2="439.2" gradientUnits="userSpaceOnUse">
<stop stop-color="#3E0E19"/>
<stop offset="1" stop-color="#31074B"/>
</linearGradient>
<linearGradient id="paint6_linear_16_648" x1="387.299" y1="567.4" x2="162.299" y2="519.9" gradientUnits="userSpaceOnUse">
<stop stop-color="#E5602F"/>
<stop offset="1" stop-color="#FFA400"/>
</linearGradient>
<linearGradient id="paint7_linear_16_648" x1="228.7" y1="354.4" x2="228.7" y2="76.3998" gradientUnits="userSpaceOnUse">
<stop stop-color="#FF962F"/>
<stop offset="1" stop-color="#FFC700"/>
</linearGradient>
<linearGradient id="paint8_linear_16_648" x1="306.4" y1="308.9" x2="306.4" y2="174.9" gradientUnits="userSpaceOnUse">
<stop stop-color="#FF9828"/>
<stop offset="1" stop-color="#FFC713"/>
</linearGradient>
<linearGradient id="paint9_linear_16_648" x1="260.3" y1="512.5" x2="260.3" y2="384.6" gradientUnits="userSpaceOnUse">
<stop offset="0.006" stop-color="#982F00"/>
<stop offset="1" stop-color="#E36B00"/>
</linearGradient>
<linearGradient id="paint10_linear_16_648" x1="272.9" y1="460.6" x2="272.9" y2="366.1" gradientUnits="userSpaceOnUse">
<stop stop-color="#3E0E19"/>
<stop offset="1" stop-color="#683131"/>
</linearGradient>
<linearGradient id="paint11_linear_16_648" x1="228.399" y1="252.1" x2="228.399" y2="211.3" gradientUnits="userSpaceOnUse">
<stop stop-color="#3E0E19"/>
<stop offset="1" stop-color="#31074B"/>
</linearGradient>
<linearGradient id="paint12_linear_16_648" x1="364.5" y1="333.7" x2="364.5" y2="273.6" gradientUnits="userSpaceOnUse">
<stop stop-color="#F28727"/>
<stop offset="1" stop-color="#C72200"/>
</linearGradient>
<linearGradient id="paint13_linear_16_648" x1="366" y1="332.1" x2="366" y2="276.4" gradientUnits="userSpaceOnUse">
<stop stop-color="#C23600"/>
<stop offset="0.994" stop-color="#862200"/>
</linearGradient>
<linearGradient id="paint14_linear_16_648" x1="374.2" y1="314.7" x2="374.2" y2="276.4" gradientUnits="userSpaceOnUse">
<stop stop-color="#E04FEA"/>
<stop offset="1" stop-color="#9700B3"/>
</linearGradient>
<linearGradient id="paint15_linear_16_648" x1="387.2" y1="295.7" x2="387.2" y2="276.4" gradientUnits="userSpaceOnUse">
<stop stop-color="#FFBE8C"/>
<stop offset="1" stop-color="#FFE5BC"/>
</linearGradient>
<linearGradient id="paint16_linear_16_648" x1="384" y1="332.2" x2="384" y2="319.7" gradientUnits="userSpaceOnUse">
<stop stop-color="#FFBE8C"/>
<stop offset="1" stop-color="#FFE5BC"/>
</linearGradient>
<linearGradient id="paint17_linear_16_648" x1="375.3" y1="427.7" x2="375.3" y2="375.1" gradientUnits="userSpaceOnUse">
<stop stop-color="#3E0E19"/>
<stop offset="1" stop-color="#683131"/>
</linearGradient>
<linearGradient id="paint18_linear_16_648" x1="280.4" y1="354.4" x2="280.4" y2="164.7" gradientUnits="userSpaceOnUse">
<stop stop-color="#8B0081"/>
<stop offset="1" stop-color="#B842FF"/>
</linearGradient>
<linearGradient id="paint19_linear_16_648" x1="213.2" y1="342.2" x2="367.7" y2="342.2" gradientUnits="userSpaceOnUse">
<stop stop-color="#8B0081"/>
<stop offset="1" stop-color="#B842FF"/>
</linearGradient>
<linearGradient id="paint20_linear_16_648" x1="285.3" y1="460.6" x2="285.3" y2="391.1" gradientUnits="userSpaceOnUse">
<stop stop-color="#8B0081"/>
<stop offset="1" stop-color="#B842FF"/>
</linearGradient>
<linearGradient id="paint21_linear_16_648" x1="378.9" y1="427.7" x2="378.9" y2="378.8" gradientUnits="userSpaceOnUse">
<stop stop-color="#8B0081"/>
<stop offset="1" stop-color="#B842FF"/>
</linearGradient>
<linearGradient id="paint22_linear_16_648" x1="278" y1="483.4" x2="278" y2="419.2" gradientUnits="userSpaceOnUse">
<stop stop-color="#8B0081"/>
<stop offset="1" stop-color="#B842FF"/>
</linearGradient>
<linearGradient id="paint23_linear_16_648" x1="289.5" y1="524" x2="289.5" y2="439.2" gradientUnits="userSpaceOnUse">
<stop stop-color="#8B0081"/>
<stop offset="1" stop-color="white"/>
</linearGradient>
<linearGradient id="paint24_linear_16_648" x1="525.5" y1="328.4" x2="529.6" y2="179.2" gradientUnits="userSpaceOnUse">
<stop stop-color="#FF9828"/>
<stop offset="1" stop-color="#FFC713"/>
</linearGradient>
<linearGradient id="paint25_linear_16_648" x1="483.1" y1="257" x2="486.2" y2="215.8" gradientUnits="userSpaceOnUse">
<stop stop-color="#3E0E19"/>
<stop offset="1" stop-color="#31074B"/>
</linearGradient>
<linearGradient id="paint26_linear_16_648" x1="232.7" y1="246.2" x2="232.7" y2="224.4" gradientUnits="userSpaceOnUse">
<stop stop-color="#A69CEA"/>
<stop offset="1" stop-color="#DE27B3"/>
</linearGradient>
<linearGradient id="paint27_linear_16_648" x1="479.3" y1="255.1" x2="479.3" y2="228.8" gradientUnits="userSpaceOnUse">
<stop stop-color="#A69CEA"/>
<stop offset="1" stop-color="#DE27B3"/>
</linearGradient>
<linearGradient id="paint28_linear_16_648" x1="179.099" y1="102.6" x2="248.299" y2="102.6" gradientUnits="userSpaceOnUse">
<stop stop-color="#8B0081"/>
<stop offset="1" stop-color="#B842FF"/>
</linearGradient>
<linearGradient id="paint29_linear_16_648" x1="99.6" y1="122.7" x2="99.6" y2="0.699919" gradientUnits="userSpaceOnUse">
<stop stop-color="#630E19"/>
<stop offset="1" stop-color="#8B311B"/>
</linearGradient>
<linearGradient id="paint30_linear_16_648" x1="168.1" y1="0.699921" x2="239.5" y2="0.699921" gradientUnits="userSpaceOnUse">
<stop stop-color="#8B0081"/>
<stop offset="1" stop-color="#B842FF"/>
</linearGradient>
<linearGradient id="paint31_linear_16_648" x1="361.5" y1="276.4" x2="419.3" y2="276.4" gradientUnits="userSpaceOnUse">
<stop stop-color="#A69CEA"/>
<stop offset="1" stop-color="#DE27B3"/>
</linearGradient>
<linearGradient id="paint32_linear_16_648" x1="317.9" y1="25.2998" x2="412" y2="25.2998" gradientUnits="userSpaceOnUse">
<stop stop-color="white"/>
<stop offset="1" stop-color="#C62A96"/>
</linearGradient>
<linearGradient id="paint33_linear_16_648" x1="398.9" y1="67.2998" x2="436.3" y2="67.2998" gradientUnits="userSpaceOnUse">
<stop stop-color="white"/>
<stop offset="1" stop-color="#C62A96"/>
</linearGradient>
</defs>
</svg>
