<svg width="583" height="629" viewBox="0 0 583 629" fill="none" xmlns="http://www.w3.org/2000/svg">
<g filter="url(#filter0_d_16_508)">
<path d="M213.9 386.9C214.1 397.6 195.8 405.3 171.2 410C129.8 417.8 70.9002 416.8 54.9002 406.1C14.9002 379.3 -0.699766 332.8 0.200234 293.1C1.00023 262.8 11.3002 236.5 27.8002 226.1C53.8002 209.6 210.2 250.4 213.9 386.9Z" fill="url(#paint0_linear_16_508)"/>
<path d="M527.3 410.8C513.8 419.9 466.3 420.7 424.6 415.2H424.4C387.4 410.3 355 400.4 355.3 386.9C359 250.4 515.3 209.6 541.4 226.1C558.7 237 571.3 266.8 573.5 300.2C576.2 340.4 564 385.9 527.3 410.8Z" fill="url(#paint1_linear_16_508)"/>
<path style="mix-blend-mode:multiply" opacity="0.6" d="M171.2 410C129.8 417.8 70.9002 416.8 54.9002 406.1C14.9002 379.3 -0.699766 332.8 0.200234 293.1H0.300234C0.300234 293.1 12.0002 364.2 56.6002 389.5C93.1002 410.3 151.4 410.6 171.2 410Z" fill="url(#paint2_linear_16_508)"/>
<path style="mix-blend-mode:multiply" opacity="0.6" d="M527.3 410.8C513.8 419.9 466.3 420.7 424.6 415.2C433.5 416.1 495.4 420.8 535.3 381.4C564.4 352.5 571.8 318.9 573.5 300.2C576.2 340.4 564 385.9 527.3 410.8Z" fill="url(#paint3_linear_16_508)"/>
<path style="mix-blend-mode:multiply" opacity="0.6" d="M101.7 279.5C87.2003 299.2 124.2 363 183.7 380.6C243.3 398.3 380.2 391.5 422.6 365.5C465.1 339.5 464.6 283.4 464.6 283.4L101.7 279.5Z" fill="url(#paint4_linear_16_508)"/>
<path d="M185.5 93.5C180.1 100.8 151 110.3 120.5 96C90.0002 81.8 56.0002 44.2 78.4002 32.4C95.8002 23.2 149.2 48.4 175.2 63.7C182.7 68.1 187.9 71.7 189.3 73.4C191.5 76.1 191 86.3 185.5 93.5Z" fill="url(#paint5_linear_16_508)"/>
<path d="M476.4 104.5C445.6 117.8 416.7 107.5 411.5 100.1C406.3 92.7 406.1 82.5 408.4 79.8C410.2 77.7 418.3 72.7 429.6 66.9C457.6 52.5 504.7 33.2 520.4 42.1C521.2 42.5667 521.934 43.0334 522.6 43.5C539.9 57.1 506.2 91.6 476.4 104.5Z" fill="url(#paint6_linear_16_508)"/>
<path style="mix-blend-mode:multiply" opacity="0.5" d="M476.4 104.5C445.6 117.8 416.7 107.5 411.5 100.1C406.3 92.7 406.1 82.5 408.4 79.8C410.2 77.7 418.3 72.7 429.6 66.9C408.4 79.9 448.1 104.1 488.5 85.6C512.1 74.9 520 56.8 522.6 43.5C539.9 57.1 506.2 91.6 476.4 104.5Z" fill="url(#paint7_linear_16_508)"/>
<path style="mix-blend-mode:multiply" opacity="0.5" d="M185.5 93.5C180.1 100.8 151 110.3 120.5 96C90.0002 81.8 56.0002 44.2 78.4002 32.4C71.6002 76.2 166.3 83.6 175.2 63.7C182.7 68.1 187.9 71.7 189.3 73.4C191.5 76.1 191 86.3 185.5 93.5Z" fill="url(#paint8_linear_16_508)"/>
<path d="M264.8 508.8C264.8 508.8 305.3 540.5 317.8 543.4C330.4 546.3 356.4 506.1 356.4 506.1C356.4 506.1 293.8 518.4 264.8 508.8Z" fill="url(#paint9_linear_16_508)"/>
<path d="M233.2 304.7C235.2 319.6 181.5 470.3 270.1 511C308.6 528.6 344 525.1 366.4 497.3C395.6 461 403.8 390.9 380.7 347.9C339.8 271.8 233.2 304.7 233.2 304.7Z" fill="url(#paint10_linear_16_508)"/>
<path d="M218.2 401.3C218.2 401.3 227.1 441 299.3 448.5C370.9 455.9 393 389.5 393 389.5C393 389.5 400.1 453.2 373.5 487.2C373.5 487.2 313.1 521.8 239.9 487C239.9 487 211.1 446.3 218.2 401.3Z" fill="url(#paint11_linear_16_508)"/>
<path d="M488.3 250.4C487.9 258.3 487 265.4 485.7 271.4C472.5 334 355.4 318.6 270.1 321.9C235.5 323.2 101.1 338.7 87.8001 272.1C86.0001 263.5 85.4001 253.8 85.8001 243.4C89.0001 167.5 149.4 53.9 269.4 47.9C452.9 38.9 492.1 177.4 488.3 250.4Z" fill="url(#paint12_linear_16_508)"/>
<path d="M200.7 205C192.3 239.9 162.5 264.4 134 259.7C105.6 255.1 89.4003 223 97.8003 188C106.1 153.1 136 128.6 164.4 133.3C192.8 137.9 209 170 200.7 205Z" fill="url(#paint13_linear_16_508)"/>
<path d="M379.8 205C388 239.9 417.1 264.4 444.8 259.7C472.6 255.1 488.4 223 480.3 188C472.1 153.1 443 128.6 415.2 133.3C387.5 137.9 371.6 170 379.8 205Z" fill="url(#paint14_linear_16_508)"/>
<path d="M234.8 221C234.8 221 258.6 253.7 287.1 255.3C317.9 257 345.2 224.8 345.2 224.8C345.2 224.8 319.5 269.7 287.1 268C253.6 266.3 234.8 221 234.8 221Z" fill="url(#paint15_linear_16_508)"/>
<path d="M379.8 205C379.8 205 405.7 228.1 445.3 221.5C484.9 214.9 481 191.5 481 191.5C481 191.5 498.8 191 504.7 196.5C510.6 202 499.8 239.5 442.6 239.5C400.8 239.5 379.8 205 379.8 205Z" fill="url(#paint16_linear_16_508)"/>
<path d="M201.7 205C201.7 205 175.9 228.1 136.3 221.5C96.7001 214.9 100.5 191.5 100.5 191.5C100.5 191.5 82.8001 191 76.9001 196.5C71.0001 202 91.9001 238.1 133.7 239.5C175.5 240.8 201.7 205 201.7 205Z" fill="url(#paint17_linear_16_508)"/>
<path d="M296.1 354.4C296.1 354.4 286.1 547.4 394.1 614C409.8 623.7 425.1 609.8 422.3 589C419.6 568.1 330.1 511.7 314.4 354.4H296.1Z" fill="url(#paint18_linear_16_508)"/>
<path d="M218.9 349.9C218.9 349.9 163.2 384.6 182 441.6C200.7 498.6 324.2 487.9 318 470.2C311.7 452.5 232 444.1 226.8 409.7C221.6 375.4 232.6 349.9 232.6 349.9H218.9Z" fill="url(#paint19_linear_16_508)"/>
<path d="M377.5 342.3C377.5 342.3 427.4 364.3 433 414.4C438.6 464.4 349.4 470.3 341.8 465C334.1 459.8 384 425.8 389 398.8C394 371.8 377.5 342.3 377.5 342.3Z" fill="url(#paint20_linear_16_508)"/>
<path style="mix-blend-mode:multiply" opacity="0.8" d="M92.9004 224.5C92.9004 224.5 106.3 255 138.8 252.5C171.3 249.9 192 215.5 192 215.5C192 215.5 174.3 232.8 138.8 235.9C103.3 239.1 92.9004 224.5 92.9004 224.5Z" fill="url(#paint21_linear_16_508)"/>
<path style="mix-blend-mode:multiply" opacity="0.8" d="M387.1 214.5C387.1 214.5 415.1 250.9 446.9 249.9C478.6 248.8 488.6 227.6 488.6 227.6C488.6 227.6 465.4 242.6 437.8 237.4C410.3 232.1 387.1 214.5 387.1 214.5Z" fill="url(#paint22_linear_16_508)"/>
<path style="mix-blend-mode:multiply" opacity="0.7" d="M336.8 216.9C336.8 216.9 348 223.6 350.6 235.3C350.6 235.3 356.4 220 351.9 216.9C347.5 213.8 336.8 216.9 336.8 216.9Z" fill="url(#paint23_linear_16_508)"/>
<path style="mix-blend-mode:multiply" opacity="0.7" d="M241 216.9C241 216.9 229.8 223.6 227.2 235.3C227.2 235.3 221.4 220 225.8 216.9C230.3 213.8 241 216.9 241 216.9Z" fill="url(#paint24_linear_16_508)"/>
<path d="M241 235.3C241 235.3 259.5 268 287.1 268C314.7 268 332.5 242.3 332.5 242.3C332.5 242.3 318.2 270.8 286.7 271.8C255.3 272.8 241 235.3 241 235.3Z" fill="#FFD142"/>
<g style="mix-blend-mode:soft-light" opacity="0.9">
<path d="M178.1 98.7C148.9 152.5 388.7 164.3 400.5 108.4C412.3 52.6 218.3 24.6 178.1 98.7Z" fill="#FFA96F"/>
</g>
<g style="mix-blend-mode:soft-light" opacity="0.9">
<path d="M318.2 75.4C299.8 95.4 334.9 106.7 341 90.8C347 74.8 323.8 69.2 318.2 75.4Z" fill="white"/>
</g>
<path style="mix-blend-mode:multiply" opacity="0.5" d="M488.3 250.4C487.9 258.3 487 265.4 485.7 271.4C472.5 334 355.4 318.6 270.1 321.9C235.5 323.2 101.1 338.7 87.8001 272.1C86.0001 263.5 85.4001 253.8 85.8001 243.4C86.3001 245.4 102.5 310.3 283.1 310.3C456.6 310.3 485.7 256.2 488.3 250.4Z" fill="url(#paint25_linear_16_508)"/>
<path d="M492.7 385.6C492.767 385.667 492.767 385.7 492.7 385.7C489 409 462.7 430.2 430 423.3C399.4 416.9 370.1 394.5 358.3 384.6L357.9 384.3C357.5 383.967 357.134 383.633 356.8 383.3C362.8 389.2 374.2 401.9 376.7 417.9C378 426.1 377 435.2 371.7 444.7C352.1 479.4 281.8 488.4 255.4 464.5C235.1 446 247.1 406.7 253.7 389.6V389.5C255.1 385.9 256.3 383.2 256.8 382C256 383.6 253.9 387.5 250.3 392.6C250.3 392.6 250.267 392.633 250.2 392.7C238.2 409.2 209.6 437.5 156.5 433.5C82.1002 427.8 75.2003 366.9 107.8 356.5C123.5 351.5 145 349.8 163.3 349.3C177.8 349 190.2 349.4 195.8 349.7C189.2 349.2 172.9 347.3 154.2 340.6C122 329.1 110.9 311.3 137 297.6C142.6 294.7 150 292 159.2 289.5C226.6 271.8 274.9 321.4 281.9 339.7C281.9 339.7 294 308.5 318.3 286.6C338.8 268.2 405.7 266.8 432.9 283.4C437.9 286.5 441.6 290.3 443.4 294.6C450.6 312.8 422.2 328.8 401.7 337.7C390.8 342.4 382 345.1 382 345.1C382 345.1 484.4 343.3 492 371C493.4 375.9 493.5 380.8 492.7 385.6Z" fill="url(#paint26_linear_16_508)"/>
<path d="M232.7 344.8C229.7 362.1 270.7 389.7 327.5 379C384.3 368.3 356.7 320.4 313.5 316.2C270.2 312.1 235.3 329.7 232.7 344.8Z" fill="url(#paint27_linear_16_508)"/>
<path style="mix-blend-mode:multiply" opacity="0.5" d="M248.1 328C225.9 344.7 266.1 380.8 318.2 373.5C370.3 366.2 355.3 339.8 355.3 339.8C355.3 339.8 366.4 352.3 366.4 362.8C366.4 373.2 322.7 395.1 251.1 383.9C179.6 372.8 220.9 332.4 248.1 328Z" fill="url(#paint28_linear_16_508)"/>
<path style="mix-blend-mode:multiply" opacity="0.4" d="M250.2 392.7C238.2 409.2 209.6 437.5 156.5 433.5C82.1002 427.8 75.2003 366.9 107.8 356.5C88.6002 366.6 97.0002 412.1 153.4 421.5C208.2 430.6 248 394.7 250.2 392.7Z" fill="url(#paint29_linear_16_508)"/>
<path style="mix-blend-mode:multiply" opacity="0.4" d="M137 297.6C114.2 311.7 199 349.9 199 349.9C199 349.9 198.8 349.867 198.4 349.8C198.2 349.8 197.9 349.8 197.5 349.8C197.5 349.8 197.4 349.8 197.3 349.8H197.2C192.5 349.6 178.8 349.1 163.3 349.3C177.8 349 190.2 349.4 195.8 349.7C189.2 349.2 172.9 347.3 154.2 340.6C122 329.1 110.9 311.3 137 297.6Z" fill="url(#paint30_linear_16_508)"/>
<path style="mix-blend-mode:multiply" opacity="0.4" d="M376.7 417.9C378 426.1 377 435.2 371.7 444.7C352.1 479.4 281.8 488.4 255.4 464.5C235.1 446 247.1 406.7 253.7 389.6V389.5C253.7 389.5 228.2 459.7 286.7 466.6C312.5 469.7 341.3 468 355.3 456.7C371 444.1 374.9 421.3 376.7 417.9Z" fill="url(#paint31_linear_16_508)"/>
<path style="mix-blend-mode:multiply" opacity="0.4" d="M401.7 337.7L380.7 347.9C380.7 347.9 425.4 318.2 435.9 303.9C439.5 299 435.8 289 432.9 283.4C437.9 286.5 441.6 290.3 443.4 294.6C450.6 312.8 422.2 328.8 401.7 337.7Z" fill="url(#paint32_linear_16_508)"/>
<path style="mix-blend-mode:multiply" opacity="0.4" d="M492.7 385.7C489 409 462.7 430.2 430 423.3C399.4 416.9 370.1 394.5 358.3 384.6L357.9 384.3L356 382.6L355.9 382.5L353.3 380.3L353.1 380.1L353 380L352.9 379.9C352.9 379.9 352.934 379.933 353 380C356.2 382 413.3 424.6 459.9 415.1C479.2 411.2 488.8 396 492.7 385.7Z" fill="url(#paint33_linear_16_508)"/>
<path style="mix-blend-mode:multiply" d="M342 560.7C342 560.7 365.9 576 366.9 513.1C366.9 513.1 350.7 490.1 343.3 468.6L313.9 476.9L309 479.1C309 479.1 318.2 525.2 342 560.7Z" fill="url(#paint34_linear_16_508)"/>
<path d="M496.4 226.2C496.4 226.2 522.1 222.3 540.4 232.2C558.6 242 569.2 272.8 569.2 272.8C569.2 272.8 561.3 238.1 545.3 225.5C532.8 215.5 496.4 226.2 496.4 226.2Z" fill="#7EFFEA"/>
<g style="mix-blend-mode:soft-light" opacity="0.9">
<path d="M263.2 321.3C253.1 331.7 276.7 370.9 326.8 359.5C376.8 348 342.9 319.4 308.6 316.3C274.2 313.3 263.2 321.3 263.2 321.3Z" fill="#FFA96F"/>
</g>
<g style="mix-blend-mode:soft-light" opacity="0.9">
<path d="M309.7 342.1C301.7 349 317.1 359.7 326.4 349.5C335.8 339.4 316.2 336.6 309.7 342.1Z" fill="white"/>
</g>
<g style="mix-blend-mode:soft-light" opacity="0.9">
<path d="M51.7001 338.3C20.5001 315.4 7.70015 347.1 34.8001 370.4C61.9001 393.7 66.3001 349.1 51.7001 338.3Z" fill="#ACFFEA"/>
</g>
<path d="M400.8 72.8C400.5 72.6 399 71.9 396.3 70.8C378.4 63.3 309.3 38.5 222.6 59.3C228.9 57.1 202.5 44.3 202.8 41.2C203.2 38 226.4 54.4 226.4 54.4C226.4 54.4 210.8 28 216.7 17.6C222.6 7.1 245.9 49.2 245.9 49.2C245.9 49.2 242.8 18.2 253.2 12.7C263.6 7.1 267.8 47.1 267.8 47.1C267.8 47.1 273.3 40.5 281.8 32.4C281.8 32.4 281.834 32.3667 281.9 32.3C297.9 17 324.3 -3.8 345.2 1.1C376.5 8.5 338.8 44.6 336.4 46.9L336.3 47C338 46.4 363.6 37.3 384.2 43.6C405.3 50.2 375.8 56.8 375.8 56.8L398.3 71.2L400.8 72.8Z" fill="#FFE84A"/>
<g style="mix-blend-mode:soft-light" opacity="0.4">
<path d="M471.1 53.7C454.5 72.7 491.6 74 500.5 61.5C509.3 49 477.4 46.4 471.1 53.7Z" fill="#FFA96F"/>
</g>
<g style="mix-blend-mode:soft-light" opacity="0.4">
<path d="M104.3 35.8C80.1004 42.6 110.3 64.1 124.6 58.5C138.8 53 113.6 33.2 104.3 35.8Z" fill="#FFA96F"/>
</g>
<path style="mix-blend-mode:multiply" opacity="0.5" d="M281.9 32.3C297.9 17 324.3 -3.8 345.2 1.1C376.5 8.5 338.8 44.6 336.4 46.9C342 37.9 358.5 9.6 341.9 5.2C322.8 0.200002 284.1 30.5 281.9 32.3Z" fill="url(#paint35_linear_16_508)"/>
<path style="mix-blend-mode:multiply" opacity="0.5" d="M398.3 71.2L396.3 70.8L367.7 53.8C367.7 53.8 391.6 47.9 371.3 43.5C351.6 39.3 335.6 49 334.6 49.6C334.8 49.4 335.4 48.4 336.3 47C338 46.4 363.6 37.3 384.2 43.6C405.3 50.2 375.8 56.8 375.8 56.8L398.3 71.2Z" fill="url(#paint36_linear_16_508)"/>
<g style="mix-blend-mode:soft-light" opacity="0.9">
<path d="M507.9 357.6C493.5 393.5 527.3 398 543.1 366C558.9 333.9 514.6 340.7 507.9 357.6Z" fill="#ACFFEA"/>
</g>
</g>
<defs>
<filter id="filter0_d_16_508" x="0.163574" y="0.369629" width="582.697" height="629.784" filterUnits="userSpaceOnUse" color-interpolation-filters="sRGB">
<feFlood flood-opacity="0" result="BackgroundImageFix"/>
<feColorMatrix in="SourceAlpha" type="matrix" values="0 0 0 0 0 0 0 0 0 0 0 0 0 0 0 0 0 0 127 0" result="hardAlpha"/>
<feOffset dx="5" dy="9"/>
<feGaussianBlur stdDeviation="2"/>
<feComposite in2="hardAlpha" operator="out"/>
<feColorMatrix type="matrix" values="0 0 0 0 0 0 0 0 0 0 0 0 0 0 0 0 0 0 0.25 0"/>
<feBlend mode="normal" in2="BackgroundImageFix" result="effect1_dropShadow_16_508"/>
<feBlend mode="normal" in="SourceGraphic" in2="effect1_dropShadow_16_508" result="shape"/>
</filter>
<linearGradient id="paint0_linear_16_508" x1="20.4002" y1="415.1" x2="20.4002" y2="222.7" gradientUnits="userSpaceOnUse">
<stop stop-color="#B6ECC2"/>
<stop offset="1" stop-color="#909FDC"/>
</linearGradient>
<linearGradient id="paint1_linear_16_508" x1="376.7" y1="418.7" x2="376.7" y2="222.7" gradientUnits="userSpaceOnUse">
<stop stop-color="#B6ECC2"/>
<stop offset="1" stop-color="#909FDC"/>
</linearGradient>
<linearGradient id="paint2_linear_16_508" x1="42.2002" y1="415.1" x2="42.2002" y2="293.1" gradientUnits="userSpaceOnUse">
<stop stop-color="#5C60B5"/>
<stop offset="1" stop-color="white"/>
</linearGradient>
<linearGradient id="paint3_linear_16_508" x1="452.2" y1="418.7" x2="452.2" y2="300.2" gradientUnits="userSpaceOnUse">
<stop stop-color="#5C60B5"/>
<stop offset="1" stop-color="white"/>
</linearGradient>
<linearGradient id="paint4_linear_16_508" x1="264.8" y1="390.4" x2="264.8" y2="279.5" gradientUnits="userSpaceOnUse">
<stop stop-color="#5B8EFF"/>
<stop offset="1" stop-color="#1D0090"/>
</linearGradient>
<linearGradient id="paint5_linear_16_508" x1="108.5" y1="103.4" x2="108.5" y2="30.4" gradientUnits="userSpaceOnUse">
<stop stop-color="#630E19"/>
<stop offset="1" stop-color="#8B311B"/>
</linearGradient>
<linearGradient id="paint6_linear_16_508" x1="446.1" y1="110.9" x2="446.1" y2="39.8" gradientUnits="userSpaceOnUse">
<stop stop-color="#630E19"/>
<stop offset="1" stop-color="#8B311B"/>
</linearGradient>
<linearGradient id="paint7_linear_16_508" x1="407" y1="43.5" x2="527.3" y2="43.5" gradientUnits="userSpaceOnUse">
<stop stop-color="#8B0081"/>
<stop offset="1" stop-color="#B842FF"/>
</linearGradient>
<linearGradient id="paint8_linear_16_508" x1="71.2002" y1="32.4" x2="190.5" y2="32.4" gradientUnits="userSpaceOnUse">
<stop stop-color="#8B0081"/>
<stop offset="1" stop-color="#B842FF"/>
</linearGradient>
<linearGradient id="paint9_linear_16_508" x1="287.6" y1="533" x2="303.3" y2="487.7" gradientUnits="userSpaceOnUse">
<stop stop-color="#3E0E19"/>
<stop offset="1" stop-color="#31074B"/>
</linearGradient>
<linearGradient id="paint10_linear_16_508" x1="153.2" y1="471.1" x2="223.7" y2="267.9" gradientUnits="userSpaceOnUse">
<stop stop-color="#E5602F"/>
<stop offset="1" stop-color="#FFA400"/>
</linearGradient>
<linearGradient id="paint11_linear_16_508" x1="223.9" y1="482.6" x2="270.9" y2="347.2" gradientUnits="userSpaceOnUse">
<stop offset="0.006" stop-color="#982F00"/>
<stop offset="1" stop-color="#E36B00"/>
</linearGradient>
<linearGradient id="paint12_linear_16_508" x1="192" y1="324.4" x2="192" y2="47.5" gradientUnits="userSpaceOnUse">
<stop stop-color="#FF962F"/>
<stop offset="1" stop-color="#FFC700"/>
</linearGradient>
<linearGradient id="paint13_linear_16_508" x1="100.5" y1="289.6" x2="100.5" y2="124.8" gradientUnits="userSpaceOnUse">
<stop stop-color="#FF9D2F"/>
<stop offset="1" stop-color="#FFC713"/>
</linearGradient>
<linearGradient id="paint14_linear_16_508" x1="479.5" y1="289.2" x2="479.5" y2="125.6" gradientUnits="userSpaceOnUse">
<stop stop-color="#FF9D2F"/>
<stop offset="1" stop-color="#FFC713"/>
</linearGradient>
<linearGradient id="paint15_linear_16_508" x1="280" y1="268" x2="280" y2="221" gradientUnits="userSpaceOnUse">
<stop offset="0.006" stop-color="#862200"/>
<stop offset="1" stop-color="#C23600"/>
</linearGradient>
<linearGradient id="paint16_linear_16_508" x1="433.9" y1="239.5" x2="433.9" y2="191.5" gradientUnits="userSpaceOnUse">
<stop stop-color="#3E0E19"/>
<stop offset="1" stop-color="#683131"/>
</linearGradient>
<linearGradient id="paint17_linear_16_508" x1="147.9" y1="239.5" x2="147.9" y2="191.5" gradientUnits="userSpaceOnUse">
<stop stop-color="#3E0E19"/>
<stop offset="1" stop-color="#683131"/>
</linearGradient>
<linearGradient id="paint18_linear_16_508" x1="87.1001" y1="617.2" x2="87.1001" y2="354.4" gradientUnits="userSpaceOnUse">
<stop stop-color="#005E54"/>
<stop offset="1" stop-color="#438B6D"/>
</linearGradient>
<linearGradient id="paint19_linear_16_508" x1="183.6" y1="484.3" x2="183.6" y2="349.9" gradientUnits="userSpaceOnUse">
<stop stop-color="#3E0E19"/>
<stop offset="1" stop-color="#683131"/>
</linearGradient>
<linearGradient id="paint20_linear_16_508" x1="303.4" y1="466.6" x2="303.4" y2="342.3" gradientUnits="userSpaceOnUse">
<stop stop-color="#3E0E19"/>
<stop offset="1" stop-color="#683131"/>
</linearGradient>
<linearGradient id="paint21_linear_16_508" x1="92.9004" y1="215.5" x2="192" y2="215.5" gradientUnits="userSpaceOnUse">
<stop stop-color="#A69CEA"/>
<stop offset="1" stop-color="#DE27B3"/>
</linearGradient>
<linearGradient id="paint22_linear_16_508" x1="387.1" y1="214.5" x2="488.6" y2="214.5" gradientUnits="userSpaceOnUse">
<stop stop-color="#A69CEA"/>
<stop offset="1" stop-color="#DE27B3"/>
</linearGradient>
<linearGradient id="paint23_linear_16_508" x1="338.5" y1="244.1" x2="325.8" y2="221.9" gradientUnits="userSpaceOnUse">
<stop stop-color="white"/>
<stop offset="1" stop-color="#8B0081"/>
</linearGradient>
<linearGradient id="paint24_linear_16_508" x1="239.2" y1="244.1" x2="252" y2="221.9" gradientUnits="userSpaceOnUse">
<stop stop-color="white"/>
<stop offset="1" stop-color="#8B0081"/>
</linearGradient>
<linearGradient id="paint25_linear_16_508" x1="278.9" y1="324.4" x2="278.9" y2="243.4" gradientUnits="userSpaceOnUse">
<stop stop-color="#8B0081"/>
<stop offset="1" stop-color="#B842FF"/>
</linearGradient>
<linearGradient id="paint26_linear_16_508" x1="238.7" y1="477.9" x2="238.7" y2="271.8" gradientUnits="userSpaceOnUse">
<stop stop-color="#FFBE8C"/>
<stop offset="1" stop-color="#FFF6E8"/>
</linearGradient>
<linearGradient id="paint27_linear_16_508" x1="279" y1="381.4" x2="279" y2="315.6" gradientUnits="userSpaceOnUse">
<stop stop-color="#FF892F"/>
<stop offset="1" stop-color="#FFB500"/>
</linearGradient>
<linearGradient id="paint28_linear_16_508" x1="277.6" y1="387" x2="277.6" y2="328" gradientUnits="userSpaceOnUse">
<stop stop-color="#8B0081"/>
<stop offset="1" stop-color="#B842FF"/>
</linearGradient>
<linearGradient id="paint29_linear_16_508" x1="151.1" y1="433.9" x2="151.1" y2="356.5" gradientUnits="userSpaceOnUse">
<stop stop-color="#8B0081"/>
<stop offset="1" stop-color="#FF86A4"/>
</linearGradient>
<linearGradient id="paint30_linear_16_508" x1="142.9" y1="349.9" x2="142.9" y2="297.6" gradientUnits="userSpaceOnUse">
<stop stop-color="#8B0081"/>
<stop offset="1" stop-color="#FF86A4"/>
</linearGradient>
<linearGradient id="paint31_linear_16_508" x1="281.4" y1="477.9" x2="281.4" y2="389.5" gradientUnits="userSpaceOnUse">
<stop stop-color="#8B0081"/>
<stop offset="1" stop-color="#FF86A4"/>
</linearGradient>
<linearGradient id="paint32_linear_16_508" x1="380.1" y1="347.9" x2="380.1" y2="283.4" gradientUnits="userSpaceOnUse">
<stop stop-color="#8B0081"/>
<stop offset="1" stop-color="#FF86A4"/>
</linearGradient>
<linearGradient id="paint33_linear_16_508" x1="415.7" y1="424.6" x2="415.7" y2="379.9" gradientUnits="userSpaceOnUse">
<stop stop-color="#8B0081"/>
<stop offset="1" stop-color="#FF86A4"/>
</linearGradient>
<linearGradient id="paint34_linear_16_508" x1="309" y1="468.6" x2="366.9" y2="468.6" gradientUnits="userSpaceOnUse">
<stop stop-color="#8B6D81"/>
<stop offset="1" stop-color="#6D86FF"/>
</linearGradient>
<linearGradient id="paint35_linear_16_508" x1="281.9" y1="0.400002" x2="357.6" y2="0.400002" gradientUnits="userSpaceOnUse">
<stop stop-color="white"/>
<stop offset="1" stop-color="#C62A96"/>
</linearGradient>
<linearGradient id="paint36_linear_16_508" x1="334.6" y1="41.4" x2="398.3" y2="41.4" gradientUnits="userSpaceOnUse">
<stop stop-color="white"/>
<stop offset="1" stop-color="#C62A96"/>
</linearGradient>
</defs>
</svg>
