<svg width="491" height="573" viewBox="0 0 491 573" fill="none" xmlns="http://www.w3.org/2000/svg">
<g filter="url(#filter0_d_43_9)">
<path d="M116.1 102.401C110.7 109.601 81.5002 119.101 51.1002 104.901C20.6002 90.6013 -13.3997 53.0013 9.00027 41.2013C10.2003 40.5346 11.6003 40.0346 13.2003 39.7013C29.2003 36.5013 61.8003 49.6013 86.8003 62.2013C103.9 70.9013 117.5 79.3013 119.8 82.3013C122 85.0013 121.5 95.2013 116.1 102.401Z" fill="url(#paint0_linear_43_9)"/>
<path d="M406.999 113.3C376.099 126.6 347.299 116.3 342.099 108.9C336.799 101.5 336.599 91.3005 338.899 88.7005C341.299 85.9005 353.999 78.4005 370.299 70.7005C397.099 57.9005 433.299 44.4004 448.799 49.9004C449.599 50.1671 450.333 50.5004 450.999 50.9004C472.999 63.4004 437.899 100 406.999 113.3Z" fill="url(#paint1_linear_43_9)"/>
<path style="mix-blend-mode:multiply" opacity="0.5" d="M406.999 113.3C376.099 126.6 347.299 116.3 342.099 108.9C336.799 101.5 336.599 91.3004 338.899 88.7004C341.299 85.9004 353.999 78.4004 370.299 70.7004C343.399 85.2004 388.299 108 421.299 96.6004C446.999 87.7004 449.099 61.2004 448.799 49.9004C449.599 50.1671 450.333 50.5004 450.999 50.9004C472.999 63.4004 437.899 100 406.999 113.3Z" fill="url(#paint2_linear_43_9)"/>
<path style="mix-blend-mode:multiply" opacity="0.5" d="M116.1 102.401C110.7 109.601 81.5002 119.101 51.1002 104.901C20.6002 90.6012 -13.3997 53.0012 9.00027 41.2012C10.2003 40.5345 11.6003 40.0345 13.2003 39.7012C10.3003 57.5012 12.2003 82.7012 48.4003 94.1012C106.2 112.301 87.1003 63.1012 86.8003 62.2012C103.9 70.9012 117.5 79.3011 119.8 82.3011C122 85.0011 121.5 95.2012 116.1 102.401Z" fill="url(#paint3_linear_43_9)"/>
<path d="M433 541.8C406 540 368 509.1 341.2 481.4C341.133 481.333 341.1 481.3 341.1 481.3C327.4 467 316.6 453.6 311.9 445.4C311.433 444.667 311.033 444 310.7 443.4C299.6 421.4 310.7 344.9 310.7 344.9C310.7 344.9 362.6 317.5 414.4 334.7C431.7 340.4 449.1 351.1 464.4 369.6C466.4 371.9 468.3 374.3 470.1 376.9C519 444.1 469.5 544.2 433 541.8Z" fill="url(#paint4_linear_43_9)"/>
<path d="M235.599 422.401C235.599 429.501 234.999 437.301 234.099 445.401C232.199 462.301 228.499 480.801 223.499 498.401C211.999 538.601 193.699 573.701 173.299 572.601C139.799 570.701 41.0994 554.901 43.7994 476.101C44.1994 465.001 46.0994 454.701 49.0994 445.201C49.1661 445.067 49.1995 444.967 49.1995 444.901C49.4661 444.034 49.7328 443.201 49.9994 442.401C50.1328 442.134 50.2661 441.834 50.3995 441.501C60.9995 411.901 82.7995 390.201 102.899 375.301C125.699 358.601 146.399 350.801 146.399 350.801C146.399 350.801 236.199 367.201 235.599 422.401Z" fill="url(#paint5_linear_43_9)"/>
<path style="mix-blend-mode:multiply" opacity="0.6" d="M223.499 498.401C211.999 538.601 193.699 573.701 173.299 572.601C139.799 570.701 41.0994 554.901 43.7994 476.101C44.1994 465.001 46.0994 454.701 49.0994 445.201C37.7994 484.301 72.6994 557.201 157.499 563.401C192.999 566.101 207.799 524.701 223.499 498.401Z" fill="url(#paint6_linear_43_9)"/>
<path style="mix-blend-mode:multiply" opacity="0.6" d="M433 541.802C406 540.002 368 509.102 341.2 481.402C343.8 483.402 390.4 533.602 430.3 535.002C471.3 536.502 496.4 429.502 464.4 369.602C466.4 371.902 468.3 374.302 470.1 376.902C519 444.102 469.5 544.202 433 541.802Z" fill="url(#paint7_linear_43_9)"/>
<path style="mix-blend-mode:multiply" opacity="0.6" d="M235.599 422.401C235.599 429.501 234.999 437.301 234.099 445.401C185.999 454.201 133.599 448.701 102.899 375.301C125.699 358.601 146.399 350.801 146.399 350.801C146.399 350.801 236.199 367.201 235.599 422.401Z" fill="url(#paint8_linear_43_9)"/>
<path style="mix-blend-mode:multiply" opacity="0.6" d="M414.4 334.7L410.3 338.4C410.3 338.4 401.2 419.2 341.2 438.7C332.6 441.5 322.7 443.8 311.9 445.4C311.433 444.667 311.033 444 310.7 443.4C299.6 421.4 310.7 344.9 310.7 344.9C310.7 344.9 362.6 317.5 414.4 334.7Z" fill="url(#paint9_linear_43_9)"/>
<path d="M328.8 473.4C328.8 473.4 327.6 477.9 325.7 484.2C325.7 484.267 325.666 484.367 325.6 484.5C321.4 498.3 313.3 520.3 304.5 521.2C295.1 522.3 266.3 513.5 251.7 508.8C246.5 507.1 243.1 505.9 243.1 505.9C273.6 505.5 328.8 473.4 328.8 473.4Z" fill="url(#paint10_linear_43_9)"/>
<path d="M248.799 506.3C177.499 499.3 159.299 411.1 151.999 359.5C149.399 340.9 148.099 327 146.399 323.5C146.399 323.5 247.199 286.4 310.699 344.9C319.199 352.7 325.999 361.4 331.299 370.7C331.599 371.2 331.899 371.8 332.299 372.4C332.499 372.8 332.699 373.2 332.899 373.6C333.299 374.4 333.699 375.2 334.099 376C363.599 435.9 330.499 514.2 248.799 506.3Z" fill="url(#paint11_linear_43_9)"/>
<path d="M417.5 273.001C417.1 275.601 416.699 278.001 416.199 280.301C402.999 342.801 285.9 327.501 200.6 330.701C166 332.001 31.5995 347.501 18.2995 280.901C17.2995 276.035 16.6662 270.868 16.3996 265.401C12.4996 190.301 72.6996 63.0012 199.9 56.8012C395.7 47.1012 427.3 205.501 417.5 273.001Z" fill="url(#paint12_linear_43_9)"/>
<path d="M131.2 213.801C122.8 248.701 92.9997 273.301 64.5997 268.601C36.1997 263.901 19.8997 231.801 28.2997 196.901C36.6997 162.001 66.4997 137.401 94.8997 142.101C123.3 146.801 139.6 178.901 131.2 213.801Z" fill="url(#paint13_linear_43_9)"/>
<path d="M128.3 213.301C123 235.701 107.8 253.301 90.2998 260.101C83.1998 262.901 75.6998 263.901 68.2998 262.701C42.6998 258.501 28.0998 229.601 35.5998 198.101C43.1998 166.601 69.9998 144.501 95.6998 148.701C110.1 151.101 121 161.301 126.5 175.401C130.7 186.301 131.6 199.601 128.3 213.301Z" fill="url(#paint14_radial_43_9)"/>
<path d="M128.3 211.401C125.2 224.501 119 236.101 110.9 245.101C104 252.801 95.7998 258.701 87.0998 262.101C63.0998 259.201 44.2998 236.201 44.2998 208.301C44.2998 178.401 65.7998 154.201 92.1998 154.201C105.6 154.201 117.6 160.301 126.3 170.301C127.9 174.401 129.1 178.901 129.7 183.501C131 192.201 130.6 201.701 128.3 211.401Z" fill="url(#paint15_linear_43_9)"/>
<path d="M310.3 213.801C318.5 248.701 347.599 273.301 375.399 268.601C403.099 263.901 419 231.801 410.8 196.901C402.6 162.001 373.5 137.401 345.8 142.101C318 146.801 302.2 178.901 310.3 213.801Z" fill="url(#paint16_linear_43_9)"/>
<path d="M313.199 213.301C318.399 235.701 333.199 253.301 350.299 260.101C357.199 262.901 364.499 263.901 371.699 262.701C396.699 258.501 410.999 229.601 403.599 198.101C396.299 166.601 369.999 144.501 344.999 148.701C330.999 151.101 320.299 161.301 314.899 175.401C310.799 186.301 309.899 199.601 313.199 213.301Z" fill="url(#paint17_radial_43_9)"/>
<path d="M395.7 210.5C395.7 238.9 377.1 262.3 353.2 265.2C344.2 261.6 335.8 255.4 328.9 247.1C321.2 238 315.3 226.5 312.3 213.6C310.3 204.9 309.7 196.4 310.5 188.4C311.1 182.5 312.4 176.9 314.3 171.8C322.9 161.7 334.9 155.5 348.1 155.5C374.4 155.5 395.7 180.1 395.7 210.5Z" fill="url(#paint18_linear_43_9)"/>
<path d="M266.2 287.101C254.8 298.801 238.7 307.401 217.5 305.801C192.2 303.901 175.7 290.501 166.1 275.801C155.3 259.401 153.1 241.401 156.6 236.301C164.5 224.601 202 239.401 217.5 239.501C242.4 239.701 279.9 226.201 286.4 236.301C290.4 242.501 284.2 268.701 266.2 287.101Z" fill="url(#paint19_linear_43_9)"/>
<path d="M264.599 287.202C253.599 298.002 238.099 306.002 217.599 304.502C193.299 302.702 177.399 290.302 168.099 276.802C168.099 276.802 168.099 276.768 168.099 276.702C157.699 261.602 155.599 244.902 158.899 240.202C166.599 229.302 202.699 243.102 217.599 243.202C241.599 243.402 277.699 230.802 283.999 240.202C287.799 245.902 281.899 270.102 264.599 287.202Z" fill="url(#paint20_linear_43_9)"/>
<path style="mix-blend-mode:multiply" d="M264.599 287.202C263.999 284.502 261.899 281.502 256.799 278.902C242.799 272.002 161.099 263.202 168.099 276.702C157.699 261.602 155.599 244.902 158.899 240.202C166.599 229.302 202.699 243.102 217.599 243.202C241.599 243.402 277.699 230.802 283.999 240.202C287.799 245.902 281.899 270.102 264.599 287.202Z" fill="url(#paint21_linear_43_9)"/>
<path d="M256.8 238.402C256.8 238.402 244.9 265.102 221.3 265.102C197.7 265.102 186 237.602 186 237.602C189.7 238.402 193.3 239.102 196.8 239.602C212.2 242.002 225.2 242.202 235 241.602H235.4C249.1 240.702 256.8 238.402 256.8 238.402Z" fill="url(#paint22_linear_43_9)"/>
<path d="M163.899 419.601C163.899 419.601 190.699 446.701 262.599 436.801C334.499 426.901 339.199 388.201 339.199 388.201C339.199 388.201 349.599 419.501 339.199 453.401C339.199 453.401 292.999 502.501 212.399 493.501C212.399 493.501 171.899 464.401 163.899 419.601Z" fill="url(#paint23_linear_43_9)"/>
<path d="M310.2 183.9C310.2 183.9 318.4 140.3 358.4 131.3C398.3 122.3 416.5 161.4 414.3 172.3C412.2 183.2 407.5 186 407.5 186C407.5 186 393.3 148.2 359.6 143.9C324.5 139.4 310.2 183.9 310.2 183.9Z" fill="url(#paint24_linear_43_9)"/>
<path d="M133.1 183.9C133.1 183.9 124.9 140.3 84.9 131.3C45 122.3 26.8 161.4 29 172.3C31.1 183.2 35.8 186 35.8 186C35.8 186 50 148.2 83.7 143.9C118.8 139.4 133.1 183.9 133.1 183.9Z" fill="url(#paint25_linear_43_9)"/>
<g style="mix-blend-mode:multiply">
<path d="M376.1 211.701C376.1 232.001 359.5 248.601 339.2 248.601C335.6 248.601 332.1 248.101 328.9 247.101C321.2 238.001 315.3 226.501 312.3 213.601C310.3 204.901 309.7 196.401 310.5 188.401C317.3 180.101 327.6 174.801 339.2 174.801C359.5 174.801 376.1 191.301 376.1 211.701Z" fill="#9C27B3"/>
</g>
<g style="mix-blend-mode:multiply">
<path d="M128.3 211.402C125.2 224.502 119 236.102 110.9 245.102C108.766 245.502 106.6 245.702 104.4 245.702C84.2997 245.702 68.0996 229.402 68.0996 209.402C68.0996 189.402 84.2997 173.102 104.4 173.102C114.3 173.102 123.2 177.102 129.7 183.502C131 192.202 130.6 201.702 128.3 211.402Z" fill="#9C27B3"/>
</g>
<path style="mix-blend-mode:multiply" opacity="0.8" d="M311.199 198.2C311.199 198.2 314.6 158.8 352.5 152.8C390.4 146.9 407.5 186 407.5 186C407.5 186 394.7 141.4 359.3 140C324 138.6 307.099 181.7 311.199 198.2Z" fill="url(#paint26_linear_43_9)"/>
<path style="mix-blend-mode:multiply" opacity="0.8" d="M36.5996 194.601C36.5996 194.601 51.9996 158.401 87.0996 156.301C122.2 154.201 130.1 191.701 130.1 191.701C130.1 191.701 132.5 151.701 94.6996 144.101C56.8996 136.501 39.1996 180.801 36.5996 194.601Z" fill="url(#paint27_linear_43_9)"/>
<path style="mix-blend-mode:screen" opacity="0.5" d="M318.299 186.001C314.499 187.101 316.799 220.601 322.999 230.901C327.599 238.501 349.999 223.501 346.599 205.801C343.999 191.601 322.499 184.901 318.299 186.001Z" fill="url(#paint28_linear_43_9)"/>
<path style="mix-blend-mode:screen" opacity="0.5" d="M124.4 186.001C128.2 187.101 124.8 214.701 118.5 225.101C113.9 232.701 91.6001 217.701 94.9001 199.901C97.6001 185.701 120.2 184.901 124.4 186.001Z" fill="url(#paint29_linear_43_9)"/>
<path d="M380.499 201.301C377.199 215.101 400.999 211.601 397.899 200.901C394.799 190.201 382.999 191.101 380.499 201.301Z" fill="white"/>
<path d="M40.1996 199.201C36.8996 213.101 60.6996 209.501 57.5996 198.801C54.4996 188.201 42.6996 189.101 40.1996 199.201Z" fill="white"/>
<path style="mix-blend-mode:multiply" d="M148.5 333.102C148.5 333.102 170.4 381.202 221.4 384.802C272.4 388.402 300 337.902 300 337.902L290.7 330.102C290.7 330.102 185.6 334.102 148.5 333.102Z" fill="url(#paint30_linear_43_9)"/>
<path style="mix-blend-mode:multiply" opacity="0.8" d="M256.8 238.402C256.8 238.402 244.9 265.102 221.3 265.102C197.7 265.102 186 237.602 186 237.602C189.7 238.402 193.3 239.102 196.8 239.602C180.6 239.702 206.8 263.702 222.9 261.602C239.1 259.502 244.6 245.002 243.3 243.002C242.3 241.602 237.9 241.502 235.4 241.602C249.1 240.702 256.8 238.402 256.8 238.402Z" fill="url(#paint31_linear_43_9)"/>
<path d="M161.7 265.102C161.7 265.102 177.6 302.902 219 302.902C260.4 302.902 274.6 274.902 274.6 274.902C274.6 274.902 261.3 308.602 218.1 308.602C175 308.602 161.7 265.102 161.7 265.102Z" fill="#FFD142"/>
<path d="M33.0996 245C33.0996 245 46.6997 269.3 77.3997 266.2C108 263.1 122.3 236 122.3 236C122.3 236 107.6 268.8 77.3997 273.7C47.0997 278.7 33.0996 245 33.0996 245Z" fill="#FFD142"/>
<path d="M323.8 243.4C323.8 243.4 343.5 267.1 371.8 265.1C400.1 263.1 410.3 234.4 410.3 234.4C410.3 234.4 406.1 267.5 374.8 271.4C343.6 275.3 323.8 243.4 323.8 243.4Z" fill="#FFD142"/>
<g style="mix-blend-mode:soft-light" opacity="0.9">
<path d="M139.7 88.1007C93.5995 113.201 143.1 187.501 220 183.701C296.9 179.901 334.9 113.901 328.8 96.7007C322.7 79.4007 222.1 43.1007 139.7 88.1007Z" fill="#FFA96F"/>
</g>
<g style="mix-blend-mode:soft-light" opacity="0.9">
<path d="M253.8 86.2001C247.1 99.9001 267.8 118.3 274.6 97.0001C281.3 75.7001 256.6 80.6001 253.8 86.2001Z" fill="white"/>
</g>
<g style="mix-blend-mode:soft-light" opacity="0.9">
<path d="M227.4 278.901C212.1 282.301 222.2 297.901 238.6 294.501C254.9 291.101 239.9 276.201 227.4 278.901Z" fill="white"/>
</g>
<path style="mix-blend-mode:multiply" opacity="0.5" d="M417.499 273C417.099 275.6 416.699 278 416.199 280.3C402.999 342.8 285.899 327.5 200.599 330.7C165.999 332 31.5994 347.5 18.2994 280.9C17.2994 276.034 16.6661 270.867 16.3994 265.4C37.8994 299.9 116.699 324.6 221.399 324.6C309.499 324.6 389.199 290.5 417.499 273Z" fill="url(#paint32_linear_43_9)"/>
<path d="M429.9 315.3C405 365 321.2 363.5 317.6 362.9C300 359.7 296 342.3 302.4 337.9C302.4 337.9 347.8 339.7 373.5 310C399 280.5 418.7 230.8 425.2 225.6C429.1 222.5 438.6 237 440.7 259.6C442.2 275.3 440.1 294.9 429.9 315.3Z" fill="url(#paint33_linear_43_9)"/>
<path d="M150.8 350.401L153.9 376.401C153.9 376.401 53.8998 380.801 19.6998 321.901C19.6332 321.901 19.5998 321.868 19.5998 321.801C18.3998 319.735 17.2665 317.568 16.1998 315.301C-14.2002 249.501 8.49984 221.201 16.3998 226.101C23.2998 230.501 28.1998 243.301 50.2998 280.301C53.1665 285.035 56.3331 290.201 59.7998 295.801C90.1998 344.801 150.8 350.401 150.8 350.401Z" fill="url(#paint34_linear_43_9)"/>
<path style="mix-blend-mode:multiply" d="M429.9 315.302C405 365.002 321.2 363.502 317.6 362.902C300 359.702 296 342.302 302.4 337.902C302.4 337.902 347.8 339.702 373.5 310.002C364.1 339.402 402.7 330.602 426.1 299.302C436.3 285.702 439.9 271.502 440.7 259.602C442.2 275.302 440.1 294.902 429.9 315.302Z" fill="url(#paint35_linear_43_9)"/>
<path style="mix-blend-mode:multiply" d="M150.8 350.401L153.9 376.401C153.9 376.401 53.9002 380.801 19.7002 321.901C33.7002 339.601 76.2002 345.201 85.9002 337.901C95.6002 330.601 61.7002 321.101 50.3002 280.301C53.1668 285.034 56.3335 290.201 59.8002 295.801C90.2002 344.801 150.8 350.401 150.8 350.401Z" fill="url(#paint36_linear_43_9)"/>
<path style="mix-blend-mode:multiply" opacity="0.6" d="M248.8 506.3C177.5 499.3 159.3 411.1 152 359.5C152.2 360.9 160.8 449.9 230 471.4C297.7 492.6 354.3 419.5 334.1 376C363.6 435.9 330.5 514.2 248.8 506.3Z" fill="url(#paint37_linear_43_9)"/>
<path style="mix-blend-mode:multiply" d="M325.6 484.5C321.4 498.3 313.3 520.3 304.5 521.2C295.1 522.3 266.3 513.5 251.7 508.8C251.7 508.8 294.8 514.2 306.8 508.8C317.7 503.8 324.5 487.5 325.6 484.5Z" fill="url(#paint38_linear_43_9)"/>
<path style="mix-blend-mode:multiply" opacity="0.6" d="M50.5 441.4C50.3667 441.734 50.2 442.067 50 442.4C50.1333 442.134 50.2667 441.834 50.4 441.5L50.5 441.4Z" fill="url(#paint39_linear_43_9)"/>
<g style="mix-blend-mode:soft-light" opacity="0.9">
<path d="M72.7 497.4C66.6 433.2 178.8 470 176 521.3C173.3 572.6 78.8 561.5 72.7 497.4Z" fill="#9F98FF"/>
</g>
<g style="mix-blend-mode:soft-light" opacity="0.9">
<path d="M374.8 441.4C331 469.8 400.8 550.7 446.8 529.4C492.8 508.2 484.9 370 374.8 441.4Z" fill="#9F98FF"/>
</g>
<path d="M94.5996 97.3002C94.5996 97.3002 134.3 65.3003 214.6 60.1003C294.8 54.9003 360.6 106.7 360.6 106.7C360.6 106.7 321.3 55.9002 227.6 52.3002C133.8 48.6002 94.5996 97.3002 94.5996 97.3002Z" fill="#FFE84A"/>
<g style="mix-blend-mode:soft-light" opacity="0.9">
<path d="M238.199 399.701C221.199 426.901 281.9 450.701 305.8 409.401C329.7 368.001 249.999 380.701 238.199 399.701Z" fill="#FFA96F"/>
</g>
<g style="mix-blend-mode:soft-light" opacity="0.9">
<path d="M430.699 474.201C402.299 489.801 406.299 513.501 430.699 502.901C454.999 492.201 440.299 468.901 430.699 474.201Z" fill="#ACFFEA"/>
</g>
<g style="mix-blend-mode:soft-light" opacity="0.9">
<path d="M126 513.2C97.5003 523.7 112.7 545.7 139.7 538.1C166.7 530.4 139.4 508.2 126 513.2Z" fill="#ACFFEA"/>
</g>
<path d="M163.899 419.601C163.899 419.601 206.599 443.301 256.799 435.401C306.999 427.601 331.699 404.201 331.699 404.201C331.699 404.201 310.599 433.201 251.699 438.101C191.399 443.101 163.899 419.601 163.899 419.601Z" fill="#FFB042"/>
<g style="mix-blend-mode:soft-light" opacity="0.9">
<path d="M382.9 308.6C395.7 341.5 449.1 289.4 435.5 259.6C421.9 229.9 381.6 305.4 382.9 308.6Z" fill="#AE979A"/>
</g>
<g style="mix-blend-mode:soft-light" opacity="0.9">
<path d="M19.7002 250.401C1.2002 249.101 0.300169 316.101 36.6002 324.601C72.9002 333.101 44.1002 252.001 19.7002 250.401Z" fill="#AE979A"/>
</g>
<path d="M133.1 333.101C159.4 332.901 192.9 347.701 221.3 348.401C249.7 349.101 280.6 329.801 303.9 330.101C303.9 330.101 181.9 332.101 133.1 333.101Z" fill="#6D001F"/>
<path d="M324 77.8008C323.4 77.5008 317.7 74.8008 307.8 71.4008C280 61.8008 219.2 46.8008 145.8 64.4008C152.2 62.1008 125.6 49.3008 126 46.2008C126.4 43.1008 149.6 59.4008 149.6 59.4008C149.6 59.4008 134 33.0008 139.9 22.6008C145.8 12.2008 169.1 54.2008 169.1 54.2008C169.1 54.2008 166 23.3008 176.4 17.7008C186.8 12.2008 191 52.1008 191 52.1008C191 52.1008 213.5 20.4008 244.3 6.90081C256.8 1.40081 270.8 -1.09918 285.1 2.80082C316.5 11.4008 261.6 50.6008 259.5 52.1008C259.5 52.1008 259.533 52.0675 259.6 52.0008C261.9 51.2008 287.2 42.4008 307.3 48.7008C328.5 55.2008 299 61.8008 299 61.8008L324 77.8008Z" fill="#FFE84A"/>
<g style="mix-blend-mode:soft-light" opacity="0.4">
<path d="M405.6 63.7007C389.1 82.8007 426.1 84.1007 435 71.6007C443.9 59.1007 411.9 56.5007 405.6 63.7007Z" fill="#FFA96F"/>
</g>
<g style="mix-blend-mode:soft-light" opacity="0.4">
<path d="M33.6996 52.1016C24.3996 61.0016 38.7995 78.2016 53.7995 65.9016C68.7995 53.7016 39.7996 46.2016 33.6996 52.1016Z" fill="#FFA96F"/>
</g>
<path style="mix-blend-mode:multiply" opacity="0.5" d="M259.5 52.1008C259.433 52.1008 259.4 52.1008 259.4 52.1008L238.6 56.4008C238.6 56.4008 283.1 31.9008 283.9 22.6008C284.7 13.2008 282.3 -4.29919 244.3 6.90081C256.8 1.40081 270.8 -1.09918 285.1 2.80082C316.5 11.4008 261.6 50.6008 259.5 52.1008Z" fill="url(#paint40_linear_43_9)"/>
<path style="mix-blend-mode:multiply" opacity="0.5" d="M324 77.8011C323.4 77.5011 317.7 74.8011 307.8 71.4011C306.733 70.4677 305.633 69.5678 304.5 68.7011C293.4 60.2011 267.8 60.1011 267.5 60.1011L296.9 57.5011C296.9 57.5011 307.3 51.8011 295.1 48.7011C283.5 45.7011 261.7 51.5011 259.6 52.0011C261.9 51.2011 287.2 42.4011 307.3 48.7011C328.5 55.2011 299 61.8011 299 61.8011L324 77.8011Z" fill="url(#paint41_linear_43_9)"/>
<g style="mix-blend-mode:soft-light" opacity="0.9">
<path d="M267.8 390.2C259.8 400.2 281.9 415.9 288.8 401.6C295.8 387.3 275.9 380.1 267.8 390.2Z" fill="white"/>
</g>
<g style="mix-blend-mode:soft-light" opacity="0.9">
<path d="M279.6 439.3C271.5 449.3 300 452.7 307 438.4C313.9 424.1 287.7 429.3 279.6 439.3Z" fill="white"/>
</g>
<path d="M332.3 372.4C332.3 372.4 345.6 397.2 343.2 428.8C340.9 460.3 328.8 473.4 328.8 473.4C328.8 473.4 344 459 347.4 429.8C350.8 400.6 332.3 372.4 332.3 372.4Z" fill="#FFC54A"/>
</g>
<defs>
<filter id="filter0_d_43_9" x="-3.17969" y="0.908203" width="497.729" height="579.719" filterUnits="userSpaceOnUse" color-interpolation-filters="sRGB">
<feFlood flood-opacity="0" result="BackgroundImageFix"/>
<feColorMatrix in="SourceAlpha" type="matrix" values="0 0 0 0 0 0 0 0 0 0 0 0 0 0 0 0 0 0 127 0" result="hardAlpha"/>
<feOffset dy="4"/>
<feGaussianBlur stdDeviation="2"/>
<feComposite in2="hardAlpha" operator="out"/>
<feColorMatrix type="matrix" values="0 0 0 0 0 0 0 0 0 0 0 0 0 0 0 0 0 0 0.25 0"/>
<feBlend mode="normal" in2="BackgroundImageFix" result="effect1_dropShadow_43_9"/>
<feBlend mode="normal" in="SourceGraphic" in2="effect1_dropShadow_43_9" result="shape"/>
</filter>
<linearGradient id="paint0_linear_43_9" x1="39.0003" y1="112.301" x2="39.0003" y2="39.2013" gradientUnits="userSpaceOnUse">
<stop stop-color="#630E19"/>
<stop offset="1" stop-color="#8B311B"/>
</linearGradient>
<linearGradient id="paint1_linear_43_9" x1="376.699" y1="119.8" x2="376.699" y2="48.7004" gradientUnits="userSpaceOnUse">
<stop stop-color="#630E19"/>
<stop offset="1" stop-color="#8B311B"/>
</linearGradient>
<linearGradient id="paint2_linear_43_9" x1="337.499" y1="49.9004" x2="457.799" y2="49.9004" gradientUnits="userSpaceOnUse">
<stop stop-color="#8B0081"/>
<stop offset="1" stop-color="#B842FF"/>
</linearGradient>
<linearGradient id="paint3_linear_43_9" x1="1.70027" y1="39.7012" x2="121" y2="39.7012" gradientUnits="userSpaceOnUse">
<stop stop-color="#8B0081"/>
<stop offset="1" stop-color="#B842FF"/>
</linearGradient>
<linearGradient id="paint4_linear_43_9" x1="275.6" y1="541.8" x2="275.6" y2="329" gradientUnits="userSpaceOnUse">
<stop stop-color="#B6ECC2"/>
<stop offset="1" stop-color="#909FDC"/>
</linearGradient>
<linearGradient id="paint5_linear_43_9" x1="11.3994" y1="572.601" x2="11.3994" y2="350.801" gradientUnits="userSpaceOnUse">
<stop stop-color="#B6ECC2"/>
<stop offset="1" stop-color="#909FDC"/>
</linearGradient>
<linearGradient id="paint6_linear_43_9" x1="88.3994" y1="572.601" x2="88.3994" y2="445.201" gradientUnits="userSpaceOnUse">
<stop stop-color="#5C60B5"/>
<stop offset="1" stop-color="white"/>
</linearGradient>
<linearGradient id="paint7_linear_43_9" x1="316.6" y1="541.802" x2="316.6" y2="369.602" gradientUnits="userSpaceOnUse">
<stop stop-color="#5C60B5"/>
<stop offset="1" stop-color="white"/>
</linearGradient>
<linearGradient id="paint8_linear_43_9" x1="133.299" y1="448.501" x2="133.299" y2="350.801" gradientUnits="userSpaceOnUse">
<stop stop-color="#5B8EFF"/>
<stop offset="1" stop-color="#1D0090"/>
</linearGradient>
<linearGradient id="paint9_linear_43_9" x1="297.7" y1="445.4" x2="297.7" y2="329" gradientUnits="userSpaceOnUse">
<stop stop-color="#5B8EFF"/>
<stop offset="1" stop-color="#1D0090"/>
</linearGradient>
<linearGradient id="paint10_linear_43_9" x1="272.5" y1="521.3" x2="272.5" y2="473.4" gradientUnits="userSpaceOnUse">
<stop stop-color="#3E0E19"/>
<stop offset="1" stop-color="#31074B"/>
</linearGradient>
<linearGradient id="paint11_linear_43_9" x1="149.799" y1="506.8" x2="149.799" y2="311.9" gradientUnits="userSpaceOnUse">
<stop stop-color="#E5602F"/>
<stop offset="1" stop-color="#FFA400"/>
</linearGradient>
<linearGradient id="paint12_linear_43_9" x1="122.5" y1="333.201" x2="122.5" y2="56.4012" gradientUnits="userSpaceOnUse">
<stop stop-color="#FF962F"/>
<stop offset="1" stop-color="#FFC700"/>
</linearGradient>
<linearGradient id="paint13_linear_43_9" x1="31.0997" y1="298.501" x2="31.0997" y2="133.601" gradientUnits="userSpaceOnUse">
<stop stop-color="#F28727"/>
<stop offset="1" stop-color="#C72200"/>
</linearGradient>
<radialGradient id="paint14_radial_43_9" cx="0" cy="0" r="1" gradientUnits="userSpaceOnUse" gradientTransform="translate(78.3998 200.701) scale(63.8 63.8)">
<stop offset="0.469" stop-color="white"/>
<stop offset="0.802" stop-color="#FFE5DD"/>
<stop offset="1" stop-color="#E3AAD7"/>
</radialGradient>
<linearGradient id="paint15_linear_43_9" x1="19.8998" y1="262.101" x2="19.8998" y2="154.201" gradientUnits="userSpaceOnUse">
<stop stop-color="#683155"/>
<stop offset="1" stop-color="#3E0E19"/>
</linearGradient>
<linearGradient id="paint16_linear_43_9" x1="410" y1="298.101" x2="410" y2="134.401" gradientUnits="userSpaceOnUse">
<stop stop-color="#F28727"/>
<stop offset="1" stop-color="#C72200"/>
</linearGradient>
<radialGradient id="paint17_radial_43_9" cx="0" cy="0" r="1" gradientUnits="userSpaceOnUse" gradientTransform="translate(361.799 200.701) scale(62.3 62.3)">
<stop offset="0.469" stop-color="white"/>
<stop offset="0.802" stop-color="#FFE5DD"/>
<stop offset="1" stop-color="#E3AAD7"/>
</radialGradient>
<linearGradient id="paint18_linear_43_9" x1="282.5" y1="265.2" x2="282.5" y2="155.5" gradientUnits="userSpaceOnUse">
<stop stop-color="#683155"/>
<stop offset="1" stop-color="#3E0E19"/>
</linearGradient>
<linearGradient id="paint19_linear_43_9" x1="200.5" y1="306.001" x2="200.5" y2="231.801" gradientUnits="userSpaceOnUse">
<stop stop-color="#F28727"/>
<stop offset="1" stop-color="#C72200"/>
</linearGradient>
<linearGradient id="paint20_linear_43_9" x1="202.799" y1="304.702" x2="202.799" y2="236.002" gradientUnits="userSpaceOnUse">
<stop stop-color="#C23600"/>
<stop offset="0.994" stop-color="#862200"/>
</linearGradient>
<linearGradient id="paint21_linear_43_9" x1="210.999" y1="287.202" x2="210.999" y2="236.002" gradientUnits="userSpaceOnUse">
<stop stop-color="#E04FEA"/>
<stop offset="1" stop-color="#9700B3"/>
</linearGradient>
<linearGradient id="paint22_linear_43_9" x1="216.1" y1="265.102" x2="216.1" y2="237.602" gradientUnits="userSpaceOnUse">
<stop stop-color="#FFBE8C"/>
<stop offset="1" stop-color="#FFE5BC"/>
</linearGradient>
<linearGradient id="paint23_linear_43_9" x1="222.399" y1="494.601" x2="222.399" y2="388.201" gradientUnits="userSpaceOnUse">
<stop offset="0.006" stop-color="#982F00"/>
<stop offset="1" stop-color="#E36B00"/>
</linearGradient>
<linearGradient id="paint24_linear_43_9" x1="377.4" y1="186" x2="377.4" y2="130" gradientUnits="userSpaceOnUse">
<stop stop-color="#3E0E19"/>
<stop offset="1" stop-color="#31074B"/>
</linearGradient>
<linearGradient id="paint25_linear_43_9" x1="65.9" y1="186" x2="65.9" y2="130" gradientUnits="userSpaceOnUse">
<stop stop-color="#3E0E19"/>
<stop offset="1" stop-color="#31074B"/>
</linearGradient>
<linearGradient id="paint26_linear_43_9" x1="350.1" y1="220.3" x2="317.999" y2="137.1" gradientUnits="userSpaceOnUse">
<stop stop-color="#A69CEA"/>
<stop offset="1" stop-color="#DE27B3"/>
</linearGradient>
<linearGradient id="paint27_linear_43_9" x1="77.0996" y1="215.101" x2="47.7996" y2="138.901" gradientUnits="userSpaceOnUse">
<stop stop-color="#A69CEA"/>
<stop offset="1" stop-color="#DE27B3"/>
</linearGradient>
<linearGradient id="paint28_linear_43_9" x1="308.299" y1="255.301" x2="280.299" y2="206.801" gradientUnits="userSpaceOnUse">
<stop/>
<stop offset="1" stop-color="#39FFFF"/>
</linearGradient>
<linearGradient id="paint29_linear_43_9" x1="126.9" y1="245.701" x2="152.7" y2="201.101" gradientUnits="userSpaceOnUse">
<stop/>
<stop offset="1" stop-color="#39FFFF"/>
</linearGradient>
<linearGradient id="paint30_linear_43_9" x1="148.5" y1="330.102" x2="300" y2="330.102" gradientUnits="userSpaceOnUse">
<stop stop-color="#8B0081"/>
<stop offset="1" stop-color="#B842FF"/>
</linearGradient>
<linearGradient id="paint31_linear_43_9" x1="186" y1="237.602" x2="256.8" y2="237.602" gradientUnits="userSpaceOnUse">
<stop stop-color="#A69CEA"/>
<stop offset="1" stop-color="#DE27B3"/>
</linearGradient>
<linearGradient id="paint32_linear_43_9" x1="211.199" y1="333.2" x2="211.199" y2="265.4" gradientUnits="userSpaceOnUse">
<stop stop-color="#8B0081"/>
<stop offset="1" stop-color="#B842FF"/>
</linearGradient>
<linearGradient id="paint33_linear_43_9" x1="303.2" y1="363" x2="303.2" y2="225.2" gradientUnits="userSpaceOnUse">
<stop stop-color="#3E0E19"/>
<stop offset="1" stop-color="#683131"/>
</linearGradient>
<linearGradient id="paint34_linear_43_9" x1="2.89983" y1="376.501" x2="2.89983" y2="225.601" gradientUnits="userSpaceOnUse">
<stop stop-color="#3E0E19"/>
<stop offset="1" stop-color="#683131"/>
</linearGradient>
<linearGradient id="paint35_linear_43_9" x1="299.5" y1="259.602" x2="441.1" y2="259.602" gradientUnits="userSpaceOnUse">
<stop stop-color="#8B0081"/>
<stop offset="1" stop-color="#B842FF"/>
</linearGradient>
<linearGradient id="paint36_linear_43_9" x1="19.7002" y1="280.301" x2="153.9" y2="280.301" gradientUnits="userSpaceOnUse">
<stop stop-color="#8B0081"/>
<stop offset="1" stop-color="#B842FF"/>
</linearGradient>
<linearGradient id="paint37_linear_43_9" x1="192.1" y1="506.8" x2="192.1" y2="359.5" gradientUnits="userSpaceOnUse">
<stop stop-color="#8B0081"/>
<stop offset="1" stop-color="white"/>
</linearGradient>
<linearGradient id="paint38_linear_43_9" x1="279.5" y1="521.3" x2="279.5" y2="484.5" gradientUnits="userSpaceOnUse">
<stop stop-color="#8B0081"/>
<stop offset="1" stop-color="#B842FF"/>
</linearGradient>
<linearGradient id="paint39_linear_43_9" x1="48.9" y1="442.4" x2="48.9" y2="441.4" gradientUnits="userSpaceOnUse">
<stop stop-color="#5C60B5"/>
<stop offset="1" stop-color="white"/>
</linearGradient>
<linearGradient id="paint40_linear_43_9" x1="238.6" y1="0.900814" x2="294.8" y2="0.900814" gradientUnits="userSpaceOnUse">
<stop stop-color="white"/>
<stop offset="1" stop-color="#C62A96"/>
</linearGradient>
<linearGradient id="paint41_linear_43_9" x1="259.6" y1="46.4011" x2="324" y2="46.4011" gradientUnits="userSpaceOnUse">
<stop stop-color="white"/>
<stop offset="1" stop-color="#C62A96"/>
</linearGradient>
</defs>
</svg>
