<svg width="582" height="548" viewBox="0 0 582 548" fill="none" xmlns="http://www.w3.org/2000/svg">
<g filter="url(#filter0_d_102_117)">
<path d="M289.3 365.399C299.5 363.099 262.3 180.999 205.7 158.699C165.6 142.899 127.4 272.599 145.4 338.799C163.4 404.999 253.1 373.499 289.3 365.399Z" fill="url(#paint0_linear_102_117)"/>
<path d="M18.2006 344.2C39.9006 397.7 101.901 403.7 148.701 403.3C164.501 403.2 178.601 402.4 188.901 402.4C229.501 402.4 264.101 368.8 264.101 368.8C264.101 368.8 198.201 206.4 105.301 175.4C73.6006 164.9 49.5006 171.7 32.9006 188.5C32.8339 188.566 32.8006 188.6 32.8006 188.6C0.80057 221 -3.49944 290.5 18.2006 344.2Z" fill="url(#paint1_linear_102_117)"/>
<path style="mix-blend-mode:multiply" opacity="0.6" d="M18.2006 344.2C39.9006 397.7 101.901 403.7 148.701 403.3L156.201 401.8C156.201 401.8 81.8006 401.6 43.6006 361C5.40056 320.5 4.00057 228.3 32.8006 188.6C0.80057 221 -3.49944 290.5 18.2006 344.2Z" fill="url(#paint2_linear_102_117)"/>
<g style="mix-blend-mode:soft-light" opacity="0.9">
<path d="M152.701 394.099C168.401 378.999 174.201 307.899 97.8011 298.899C21.4011 289.899 48.2011 364.699 74.2011 378.899C100.201 392.999 152.701 394.099 152.701 394.099Z" fill="#9F98FF"/>
</g>
<g style="mix-blend-mode:soft-light" opacity="0.9">
<path d="M130.9 392.7C158.8 390.2 137.7 333.1 99.7005 342C61.7005 350.9 64.0005 398.5 130.9 392.7Z" fill="#9F98FF"/>
</g>
<path style="mix-blend-mode:multiply" opacity="0.6" d="M179.801 259.7C179.801 259.7 165.201 282 162.401 323.8C159.601 365.6 191.901 374.7 191.901 374.7L260.701 338.9L207.901 311.2L179.801 259.7Z" fill="url(#paint3_linear_102_117)"/>
<path d="M315.401 531.5C318.101 530.5 320.501 529.3 322.901 527.8C354.701 508.3 372.901 462 369.401 419.7V419.3C368.201 400 365.301 385 363.201 380.9C360.901 376.3 352.301 364.8 346.001 356.6C342.101 351.4 339.001 347.6 339.001 347.6C338.601 351.8 336.001 358.6 335.901 367.5C335.001 452.6 284.901 543.4 315.401 531.5Z" fill="url(#paint4_linear_102_117)"/>
<path style="mix-blend-mode:multiply" d="M315.4 531.5C318.1 530.5 320.5 529.3 322.9 527.8C315.9 527.3 317.7 525.2 315.3 518.2C310.4 503.9 331.6 468.1 331.6 468.1C331.6 468.1 369.4 448.6 369.4 419.7V419.3C368.2 400 365.3 385 363.2 380.9C360.9 376.3 352.3 364.8 346 356.6L335.9 367.5C337.1 461.9 284.9 543.4 315.4 531.5Z" fill="url(#paint5_linear_102_117)"/>
<path d="M465.901 103.599C466.901 117.299 485.601 125.199 493.401 121.899C499.701 119.299 505.101 115.799 509.801 111.499C538.801 84.7993 538.401 30.1993 525.801 9.29934C523.101 4.79934 519.701 1.79934 516.001 1.09934C492.401 -3.80066 464.901 89.9993 465.901 103.599Z" fill="url(#paint6_linear_102_117)"/>
<path style="mix-blend-mode:multiply" opacity="0.5" d="M465.901 103.599C466.901 117.299 485.601 125.199 493.401 121.899C499.701 119.299 505.101 115.799 509.801 111.499C503.701 108.199 495.801 100.899 492.301 84.8993C487.101 60.8993 506.701 1.49934 525.801 9.29934C523.101 4.79934 519.701 1.79934 516.001 1.09934C492.401 -3.80066 464.901 89.9993 465.901 103.599Z" fill="url(#paint7_linear_102_117)"/>
<path d="M161.4 455.5C161.4 455.5 161.5 466.2 162.9 478.2C164.5 492.1 167.8 507.5 174.3 509.6C178 510.8 185.1 511.1 193.3 511C206.7 510.7 223 509.3 231.8 508.4C235.9 508 238.4 507.7 238.4 507.7C209.2 501.2 163.2 457.2 161.4 455.5Z" fill="url(#paint8_linear_102_117)"/>
<path d="M161.4 455.499C171 482.099 194.2 503.299 231.8 508.399C232.8 508.533 233.8 508.666 234.8 508.799C268.7 512.499 295 495.999 315.3 472.499C352.9 428.799 369.7 360.899 375.8 353.299C375.8 353.299 281.4 293.999 207.3 338.199C186.4 350.599 171.7 368.699 163.7 388.599C154.7 410.599 153.8 434.599 161.4 455.499Z" fill="url(#paint9_linear_102_117)"/>
<path d="M182.301 285.3C195.501 347.8 339.001 365.5 418.901 354.5C502.901 343 546.201 321.1 563.101 295.7C575.401 277.2 573.801 257 563.801 237.5C563.801 237.5 532.701 86.0003 405.401 79.5003C292.401 73.7003 232.001 118.6 203.001 170.4C179.701 211.8 176.501 257.5 182.301 285.3Z" fill="url(#paint10_linear_102_117)"/>
<path d="M221.4 228C221.4 267.5 253.4 299.6 292.9 299.6C332.4 299.6 364.5 267.5 364.5 228C364.5 188.5 332.4 156.5 292.9 156.5C253.4 156.5 221.4 188.5 221.4 228Z" fill="url(#paint11_linear_102_117)"/>
<path d="M357.5 231.6C357.5 242 355 251.9 350.6 260.6C341.1 279.4 322.8 292.9 301 295.6C298.4 295.933 295.7 296.1 292.9 296.1C286.1 296.1 279.6 295.1 273.5 293.1C247.3 284.9 228.4 260.4 228.4 231.6C228.4 195.9 257.3 167 292.9 167C326.1 167 353.5 192.1 357.1 224.3C357.367 226.7 357.5 229.133 357.5 231.6Z" fill="url(#paint12_radial_102_117)"/>
<path d="M497 232.7C502 268.8 520.1 294.2 537.3 289.3C554.5 284.5 563.6 252 558.5 215.9C553.4 179.8 536.1 153.7 518.9 158.5C501.7 163.3 491.9 196.5 497 232.7Z" fill="url(#paint13_linear_102_117)"/>
<path d="M555.901 230.4C556.101 235 555.901 239.5 555.501 243.8C555.501 243.8 555.501 243.833 555.501 243.9C553.601 264 546.201 279.6 535.501 283C535.368 283.133 535.201 283.2 535.001 283.2C533.401 283.667 531.834 283.833 530.301 283.7C527.601 283.5 525.001 282.6 522.501 281.1C522.234 280.9 521.968 280.733 521.701 280.6C520.234 279.6 518.801 278.433 517.401 277.1C516.068 275.7 514.768 274.167 513.501 272.5C506.601 263.3 501.101 249 498.701 232.2C496.701 218 497.301 204.3 499.801 193C503.101 178.4 509.701 167.8 518.501 165.4C527.401 162.9 536.601 169.4 543.701 181.6C546.601 186.7 549.201 192.8 551.201 199.7C551.201 199.7 551.201 199.733 551.201 199.8C552.801 204.9 554.001 210.5 554.801 216.4C554.934 217.667 555.101 218.933 555.301 220.2C555.634 223.667 555.834 227.067 555.901 230.4Z" fill="url(#paint14_radial_102_117)"/>
<path d="M357.501 231.6C357.501 242 355.001 251.9 350.601 260.6C341.101 279.4 322.801 292.9 301.001 295.6C298.401 295.934 295.701 296.1 292.901 296.1C286.101 296.1 279.601 295.1 273.501 293.1C270.701 280.5 271.801 265.7 277.401 251C289.301 219.6 317.301 201.1 339.901 209.7C347.101 212.4 352.901 217.6 357.101 224.3C357.367 226.7 357.501 229.134 357.501 231.6Z" fill="url(#paint15_linear_102_117)"/>
<g style="mix-blend-mode:multiply">
<path d="M350.6 260.6C341.1 279.4 322.8 292.9 301 295.6C296.9 287.3 296.5 275.7 300.9 264.4C307.7 246.3 323.8 235.7 336.8 240.6C344.4 243.5 349.3 251.1 350.6 260.6Z" fill="#9C27B3"/>
</g>
<path d="M555.9 230.4C555.834 233.267 555.667 236.067 555.4 238.8C553.4 261.5 545.4 279.1 533.8 283C533.6 283 533.4 283.1 533.2 283.2C532.2 283.467 531.234 283.633 530.3 283.7C527.6 283.5 525 282.6 522.5 281.1C522.234 280.9 521.967 280.733 521.7 280.6C520.234 279.6 518.8 278.433 517.4 277.1C516.067 275.7 514.767 274.167 513.5 272.5C512.3 264.7 511.7 256.1 512 247.1C512.9 213 525 185.7 538.9 186.1C541.5 186.2 544 187.2 546.2 189C548 192.2 549.7 195.8 551.2 199.7C551.2 199.7 551.2 199.733 551.2 199.8C552.734 203.6 554.067 207.7 555.2 212.1C555.867 218.367 556.1 224.467 555.9 230.4Z" fill="url(#paint16_linear_102_117)"/>
<g style="mix-blend-mode:multiply">
<path d="M556.001 237.1C553.901 259.8 545.901 277.4 534.401 281.3C530.101 275.1 527.401 263.4 527.801 250.1C528.301 230.5 535.301 214.8 543.301 215.1C549.301 215.2 554.201 224.3 556.001 237.1Z" fill="#9C27B3"/>
</g>
<path d="M327.1 457C327.1 457 191.6 450 171.8 372.7C171.8 372.7 152.6 404 156.8 435.5C156.8 435.5 164.7 496.9 272.9 505.3C272.9 505.3 308.2 490.6 327.1 457Z" fill="url(#paint17_linear_102_117)"/>
<path style="mix-blend-mode:multiply" opacity="0.8" d="M357.701 220.4C357.701 220.4 349.001 175.5 295.001 171.1C241.101 166.6 227.801 216.2 227.801 216.2C227.801 216.2 229.401 162.7 288.501 157.2C347.701 151.6 360.401 210.3 357.701 220.4Z" fill="url(#paint18_linear_102_117)"/>
<path style="mix-blend-mode:multiply" opacity="0.8" d="M550.501 196.6C550.501 196.6 537.601 169.2 518.501 171.1C499.301 173 496.601 204.6 496.601 204.6C496.601 204.6 495.501 169 516.801 161.6C538.101 154.2 549.701 182.1 550.501 196.6Z" fill="url(#paint19_linear_102_117)"/>
<path style="mix-blend-mode:screen" opacity="0.5" d="M307.801 243.199C311.601 244.199 309.301 277.699 303.001 288.099C298.501 295.699 276.101 280.699 279.401 262.899C282.101 248.699 303.601 241.999 307.801 243.199Z" fill="url(#paint20_linear_102_117)"/>
<path style="mix-blend-mode:screen" opacity="0.5" d="M538.1 246.1C539.5 246.9 538.6 271.1 536.2 278.6C534.4 284.1 517.8 273.799 519.1 260.899C520.1 250.599 536.4 245.3 538.1 246.1Z" fill="url(#paint21_linear_102_117)"/>
<g style="mix-blend-mode:soft-light" opacity="0.9">
<path d="M117.602 358.6C146.602 384.2 118.402 403.5 89.9015 382C61.3015 360.5 103.902 346.6 117.602 358.6Z" fill="#ACFFEA"/>
</g>
<path style="mix-blend-mode:multiply" opacity="0.5" d="M182.301 285.299C195.501 347.799 339.001 365.499 418.901 354.499C502.901 342.999 546.201 321.099 563.101 295.699C561.701 296.899 517.601 336.599 395.801 338.599C272.201 340.599 223.601 298.099 210.701 263.799C197.801 229.499 198.301 197.499 203.001 170.399C179.701 211.799 176.501 257.499 182.301 285.299Z" fill="url(#paint22_linear_102_117)"/>
<path d="M555 268.7C555 268.7 546.4 288.7 530.5 285.6C514.6 282.4 508.4 269.7 508.4 269.7C508.4 269.7 515.3 289.6 531.7 293.9C548.1 298.2 555 268.7 555 268.7Z" fill="#FFD142"/>
<path d="M338.801 283.699C338.801 283.699 316.501 300.599 285.201 297.499C253.901 294.299 241.701 277.899 241.701 277.899C241.701 277.899 257.601 302.699 287.601 305.399C319.401 308.199 338.801 283.699 338.801 283.699Z" fill="#FFD142"/>
<path d="M290.2 213.799C289.8 221.099 276.4 216.899 278 210.299C279.5 203.799 291 200.399 290.2 213.799Z" fill="white"/>
<path d="M521.6 209C521.3 216.3 510.8 212 512 205.5C513.2 198.9 522.2 195.6 521.6 209Z" fill="white"/>
<g style="mix-blend-mode:soft-light" opacity="0.9">
<path d="M483.001 121.7C505.601 150 489.601 190 429.201 190.3C368.701 190.6 309.401 121.6 320.201 102.7C331.001 83.7997 441.701 69.8997 483.001 121.7Z" fill="#FFA96F"/>
</g>
<g style="mix-blend-mode:soft-light" opacity="0.9">
<path d="M388.1 108.4C389.8 134.7 353.6 132 358 113.3C362.5 94.6996 387.6 99.4996 388.1 108.4Z" fill="white"/>
</g>
<path style="mix-blend-mode:multiply" d="M361.201 389.8C361.201 389.8 339.901 416 299.301 411.3C258.601 406.6 227.801 331.6 227.801 331.6C227.801 331.6 279.301 355.9 372.901 357.6C372.901 357.6 363.201 384.8 361.201 389.8Z" fill="url(#paint23_linear_102_117)"/>
<path d="M516.2 138C516.2 138 487.5 101.5 428.6 90.3998C369.7 79.3998 296.5 92.9998 296.5 92.9998C296.5 92.9998 341.5 66.6998 419.1 76.3998C496.8 86.1998 516.2 138 516.2 138Z" fill="#FFE84A"/>
<path style="mix-blend-mode:multiply" opacity="0.5" d="M292.901 106.099C308.801 108.499 262.101 141.599 246.101 137.999C230.201 134.299 255.601 100.599 292.901 106.099Z" fill="url(#paint24_linear_102_117)"/>
<path d="M220.201 75.4998C229.601 107.8 246.401 128.4 255.501 127.7C264.501 127 281.901 115.7 282.501 112.3C282.901 109.8 281.901 102 279.801 91.5998C273.601 61.1998 257.901 8.59981 240.301 1.89981C232.401 -1.20019 226.501 2.39982 222.501 9.79982C214.501 24.3998 213.901 53.9998 220.201 75.4998Z" fill="url(#paint25_linear_102_117)"/>
<path style="mix-blend-mode:multiply" opacity="0.5" d="M220.201 75.4998C229.601 107.8 246.401 128.4 255.501 127.7C264.501 127 281.901 115.7 282.501 112.3C282.901 109.8 281.901 102 279.801 91.5998C270.701 112.4 242.601 101.4 227.801 66.3998C218.401 43.8998 219.501 23.4998 222.501 9.7998C214.501 24.3998 213.901 53.9998 220.201 75.4998Z" fill="url(#paint26_linear_102_117)"/>
<path style="mix-blend-mode:multiply" opacity="0.6" d="M161.4 455.5C161.4 455.5 161.5 466.2 162.9 478.2L174.7 487.9C174.7 487.9 182.8 502.2 193.3 511C206.7 510.7 223 509.3 231.8 508.4C232.8 508.533 233.8 508.666 234.8 508.8C268.7 512.5 295 496 315.3 472.5C306.5 475.5 260.8 489.2 206.5 468.6C164.4 452.6 161.5 411.8 163.7 388.6C154.7 410.6 153.8 434.6 161.4 455.5Z" fill="url(#paint27_linear_102_117)"/>
<path d="M327.1 457C327.1 457 285.5 461.1 231.5 437.1C177.6 413.1 174.4 381 174.4 381C174.4 381 190.7 415.4 233.5 435.1C276.3 454.8 327.1 457 327.1 457Z" fill="#FFB042"/>
<path d="M178.001 228C178.001 228 128.401 178.7 79.1008 177.4C29.9008 176.1 11.8008 225.3 11.8008 225.3C11.8008 225.3 24.9008 173.7 68.2008 168.2C111.401 162.8 164.701 208.4 178.001 228Z" fill="#7EFFEA"/>
<path d="M438.4 351.5C438.4 351.5 383.5 355.7 364.5 379C364.5 379 272.2 362.7 231.5 333.3C231.5 333.3 322.1 364.9 438.4 351.5Z" fill="#6D001F"/>
<path d="M333.102 79.9994C372.002 76.1994 435.702 88.8994 467.202 95.9994C478.802 98.6994 486.002 100.499 486.002 100.499C486.002 100.499 507.702 87.6994 486.002 81.3994C482.468 80.3994 479.168 79.5327 476.102 78.7994C468.402 76.8994 462.102 75.7994 457.702 75.0994C459.302 74.4994 503.202 39.7994 487.402 27.4994C487.135 27.2994 486.835 27.0994 486.502 26.8994C463.002 10.9994 405.202 60.1994 403.202 61.5994C403.068 61.7327 403.002 61.7994 403.002 61.7994C403.002 61.7994 433.202 23.0994 403.002 30.9994C400.202 31.666 397.635 32.566 395.302 33.6994H395.202C380.002 40.7994 372.902 54.5994 369.702 63.4994C370.102 60.0994 369.202 57.2994 364.502 58.9994C354.602 62.5994 333.102 79.9994 333.102 79.9994Z" fill="#FFE84A"/>
<path d="M293.401 114.1C293.401 114.1 271.701 131.2 256.001 134.4C240.401 137.5 241.301 129.7 241.301 129.7C241.301 129.7 237.001 145 261.201 138.2C285.501 131.5 293.401 114.1 293.401 114.1Z" fill="#FFE84A"/>
<g style="mix-blend-mode:soft-light" opacity="0.4">
<path d="M235.801 22.3994C258.901 22.3994 267.101 62.8994 248.801 61.7994C230.501 60.5994 224.401 22.3994 235.801 22.3994Z" fill="#FFA96F"/>
</g>
<g style="mix-blend-mode:soft-light" opacity="0.4">
<path d="M518.5 15.6994C527.5 18.6994 540.2 51.1994 521.5 51.8994C502.9 52.5994 508.6 12.4994 518.5 15.6994Z" fill="#FFA96F"/>
</g>
<g style="mix-blend-mode:soft-light" opacity="0.9">
<path d="M229 380.6C247.2 419.6 192.8 429.5 185.2 388.2C177.6 346.8 229 380.6 229 380.6Z" fill="#FFA96F"/>
</g>
<path style="mix-blend-mode:multiply" opacity="0.5" d="M467.201 95.9998C478.801 98.6998 486.001 100.5 486.001 100.5C486.001 100.5 507.701 87.6998 486.001 81.3998C482.468 80.3998 479.168 79.5331 476.101 78.7998C479.701 80.3998 482.701 82.5998 484.301 85.5998C488.101 92.9998 476.401 95.2998 467.201 95.9998Z" fill="url(#paint28_linear_102_117)"/>
<path style="mix-blend-mode:multiply" opacity="0.5" d="M403.002 61.8001C403.002 61.8001 433.202 23.1001 403.002 31.0001C400.202 31.6668 397.635 32.5668 395.302 33.7001C416.902 29.0001 386.602 74.3001 386.602 74.3001L403.002 61.8001Z" fill="url(#paint29_linear_102_117)"/>
<path style="mix-blend-mode:multiply" opacity="0.5" d="M435.801 78.7994C435.801 78.7994 443.201 76.6994 457.601 75.0994H457.701C459.301 74.4994 503.201 39.7994 487.401 27.4994C487.134 27.2994 486.834 27.0994 486.501 26.8994C490.301 43.7994 435.801 78.7994 435.801 78.7994Z" fill="url(#paint30_linear_102_117)"/>
<g style="mix-blend-mode:soft-light" opacity="0.9">
<path d="M203.501 391.3C211.601 401.3 198.501 414.9 191.601 400.6C184.601 386.3 195.501 381.2 203.501 391.3Z" fill="white"/>
</g>
<g style="mix-blend-mode:soft-light" opacity="0.9">
<path d="M187.601 409.8C198.001 417.4 188.901 433.9 178.501 421.9C168.101 409.9 177.201 402.2 187.601 409.8Z" fill="white"/>
</g>
<g style="mix-blend-mode:soft-light" opacity="0.9">
<path d="M255.701 450.499C267.901 454.599 262.001 467.599 248.501 459.299C235.001 450.899 243.501 446.299 255.701 450.499Z" fill="white"/>
</g>
<path d="M207.3 338.2C207.3 338.2 174.5 364.7 165.1 401.5C155.7 438.3 162.4 458.2 162.4 458.2C162.4 458.2 148.9 435 153.7 401.5C158.6 368.1 207.3 338.2 207.3 338.2Z" fill="#FFC54A"/>
<path d="M205.301 318.2C205.301 318.2 186.301 301.1 184.701 268.7C183.101 236.2 192.001 193.8 192.001 193.8C192.001 193.8 175.301 237.3 179.801 271.6C184.301 305.9 205.301 318.2 205.301 318.2Z" fill="#FFC54A"/>
<path d="M497.801 237.699C498.001 226.499 546.301 228.299 560.201 243.799C560.201 243.799 563.101 178.999 527.801 153.899C527.801 153.899 487.401 152.699 497.801 237.699Z" fill="url(#paint31_linear_102_117)"/>
<path d="M227.1 255.999C227.1 255.999 308.9 219.199 363.8 237.699C363.8 237.699 377 162.599 296.5 153.899C216.1 145.099 214.4 233.099 227.1 255.999Z" fill="url(#paint32_linear_102_117)"/>
<path d="M497.5 235.4C497.5 235.4 501.7 227.8 527.8 226.4C553.8 225.1 574.2 235.5 577 239.6C579.8 243.8 559.5 245.5 559.5 245.5C559.5 245.5 539.6 224.9 497.5 235.4Z" fill="url(#paint33_linear_102_117)"/>
<path d="M363.801 237.7C363.801 237.7 340.001 224.7 285.201 231.3C230.401 237.9 214.501 249 214.101 253.3C213.801 257.6 232.701 266.9 232.701 266.9C232.701 266.9 254.201 247.6 295.201 241.4C336.101 235.2 363.801 237.7 363.801 237.7Z" fill="url(#paint34_linear_102_117)"/>
<path d="M268.7 253.6C268.2 260.9 281.1 259.4 280.9 253.6C280.7 247.8 269.3 246.6 268.7 253.6Z" fill="white"/>
<path d="M508.7 250.9C508.2 258.2 521 256.7 520.9 250.9C520.7 245.1 509.2 243.8 508.7 250.9Z" fill="white"/>
<path d="M401.5 322.7C401.5 322.7 426.2 288.4 448 287.4C469.9 286.5 484.3 311.6 483.6 313.9C483.2 315.2 473 297.7 455.4 295.1C442.4 293.2 422.6 308.6 401.5 322.7Z" fill="url(#paint35_linear_102_117)"/>
<path d="M417.9 311.6C417.9 311.6 430.2 292.7 449.2 290.7C468.3 288.7 478.1 305.7 478.1 305.7C478.1 305.7 455.4 295.1 417.9 311.6Z" fill="#FFD142"/>
<path style="mix-blend-mode:multiply" opacity="0.5" d="M431.7 308.1C430.9 308.3 456.3 316.1 458.4 316.4C460.5 316.8 479.3 305.4 479.3 305.4C479.3 305.4 459.1 297.6 431.7 308.1Z" fill="url(#paint36_linear_102_117)"/>
<path d="M281.3 476.7C280 491.8 275.3 503.6 268.8 512.7L268.7 512.8C250.8 538.1 220.1 542.4 217.4 537.4C215.7 534.3 215.8 525.4 220.2 514.3C225.5 501 226.4 480.8 227.8 462C229.2 444.2 225.3 419.3 222.6 398.6C222.6 398.333 222.6 398.2 222.6 398.2C220.1 379 218.7 363.5 223.5 360.9C227.8 358.5 236.1 364.1 245 374.7C263.3 396.2 284.4 438.3 281.3 476.7Z" fill="url(#paint37_linear_102_117)"/>
<path style="mix-blend-mode:multiply" d="M268.7 512.8C250.8 538.1 220.1 542.4 217.4 537.4C215.7 534.3 215.8 525.4 220.2 514.3C225.5 501 226.4 480.8 227.8 462C229.2 444.2 225.3 419.3 222.6 398.6C223.5 403.9 233.9 467.7 231.5 498.5C229.1 530.7 258.8 524.1 268.7 512.8Z" fill="url(#paint38_linear_102_117)"/>
<g style="mix-blend-mode:soft-light" opacity="0.9">
<path d="M246.001 426.5C227.201 431.1 224.401 499.1 254.101 505.3C283.801 511.4 287.001 416.6 246.001 426.5Z" fill="#A2888B"/>
</g>
<g style="mix-blend-mode:soft-light" opacity="0.9">
<path d="M354.201 455.5C336.501 453.1 325.101 506.7 339.901 508.1C354.801 509.5 366.201 457.1 354.201 455.5Z" fill="#A2888B"/>
</g>
<path style="mix-blend-mode:multiply" opacity="0.8" d="M232.701 266.9L241.001 269.9C241.001 269.9 253.701 255.1 290.301 246C326.801 236.8 356.701 241.8 356.701 241.8L363.801 237.7C363.801 237.7 281.701 222.7 232.701 266.9Z" fill="url(#paint39_linear_102_117)"/>
<path style="mix-blend-mode:multiply" opacity="0.8" d="M499.901 243C499.901 243 511.101 236.6 531.201 237.4C551.201 238.1 554.701 250.1 554.701 250.1L559.501 245.5C559.501 245.5 549.201 234 531.701 231.6C514.201 229.3 498.201 235.2 498.201 235.2L499.901 243Z" fill="url(#paint40_linear_102_117)"/>
<path d="M261.602 288C261.602 288 278.302 289.7 298.502 288.3C320.002 286.9 335.002 280.5 335.002 280.5C335.002 280.5 319.602 296.3 295.802 296.1C272.002 295.9 261.602 288 261.602 288Z" fill="white"/>
<path d="M510.9 268.7C510.9 268.7 519.4 277.8 531.1 277.1C542.8 276.5 549.5 268.2 549.5 268.2C549.5 268.2 546.4 282.2 534.3 283.8C522.2 285.3 513.3 273 510.9 268.7Z" fill="white"/>
<path d="M301 295.599C307.1 293.499 304.6 309.999 307.1 318.199C309.7 326.499 325.1 329.399 327.1 318.199C329.2 306.999 325.1 297.999 332.4 290.099C339.7 282.099 344.9 269.899 344.9 269.899C344.9 269.899 324 292.499 301 295.599Z" fill="url(#paint41_linear_102_117)"/>
<path style="mix-blend-mode:multiply" opacity="0.5" d="M304.7 298.6C306.6 303.2 304.7 319.4 315.7 321.8C326.8 324.2 325.9 299.7 327.2 294.5C328.5 289.3 334.1 285.4 337.7 281.2C341.4 277 343.7 272.3 343.7 272.3C343.7 272.3 339.6 280.1 337.2 285.5C334.9 290.8 332.3 290.3 330.8 295.6C329.4 300.9 334 326.4 319.8 327.7C305.6 329 303.3 316.9 304.7 298.6Z" fill="url(#paint42_linear_102_117)"/>
<path style="mix-blend-mode:multiply" d="M223.801 411.899C223.801 411.899 221.201 470.199 212.601 485.699C206.601 496.499 197.701 497.699 197.701 497.699C197.701 497.699 210.201 503.999 222.601 506.799C222.601 506.799 234.201 451.499 223.801 411.899Z" fill="url(#paint43_linear_102_117)"/>
</g>
<defs>
<filter id="filter0_d_102_117" x="0.738281" y="0.785156" width="580.527" height="546.447" filterUnits="userSpaceOnUse" color-interpolation-filters="sRGB">
<feFlood flood-opacity="0" result="BackgroundImageFix"/>
<feColorMatrix in="SourceAlpha" type="matrix" values="0 0 0 0 0 0 0 0 0 0 0 0 0 0 0 0 0 0 127 0" result="hardAlpha"/>
<feOffset dy="4"/>
<feGaussianBlur stdDeviation="2"/>
<feComposite in2="hardAlpha" operator="out"/>
<feColorMatrix type="matrix" values="0 0 0 0 0 0 0 0 0 0 0 0 0 0 0 0 0 0 0.25 0"/>
<feBlend mode="normal" in2="BackgroundImageFix" result="effect1_dropShadow_102_117"/>
<feBlend mode="normal" in="SourceGraphic" in2="effect1_dropShadow_102_117" result="shape"/>
</filter>
<linearGradient id="paint0_linear_102_117" x1="455.9" y1="379.999" x2="394.1" y2="157.399" gradientUnits="userSpaceOnUse">
<stop stop-color="#B6ECC2"/>
<stop offset="1" stop-color="#7086CF"/>
</linearGradient>
<linearGradient id="paint1_linear_102_117" x1="239.001" y1="403.3" x2="239.001" y2="170.4" gradientUnits="userSpaceOnUse">
<stop stop-color="#B6ECC2"/>
<stop offset="1" stop-color="#909FDC"/>
</linearGradient>
<linearGradient id="paint2_linear_102_117" x1="232.701" y1="403.3" x2="232.701" y2="188.6" gradientUnits="userSpaceOnUse">
<stop stop-color="#5C60B5"/>
<stop offset="1" stop-color="white"/>
</linearGradient>
<linearGradient id="paint3_linear_102_117" x1="278.601" y1="374.7" x2="278.601" y2="259.7" gradientUnits="userSpaceOnUse">
<stop stop-color="#5B8EFF"/>
<stop offset="1" stop-color="#1D0090"/>
</linearGradient>
<linearGradient id="paint4_linear_102_117" x1="603.901" y1="532.6" x2="603.901" y2="347.6" gradientUnits="userSpaceOnUse">
<stop stop-color="#3E0E19"/>
<stop offset="1" stop-color="#683131"/>
</linearGradient>
<linearGradient id="paint5_linear_102_117" x1="581.2" y1="532.7" x2="581.2" y2="356.6" gradientUnits="userSpaceOnUse">
<stop stop-color="#8B0081"/>
<stop offset="1" stop-color="#B842FF"/>
</linearGradient>
<linearGradient id="paint6_linear_102_117" x1="608.901" y1="122.699" x2="608.901" y2="0.89934" gradientUnits="userSpaceOnUse">
<stop stop-color="#630E19"/>
<stop offset="1" stop-color="#8B311B"/>
</linearGradient>
<linearGradient id="paint7_linear_102_117" x1="525.801" y1="0.899342" x2="465.901" y2="0.899342" gradientUnits="userSpaceOnUse">
<stop stop-color="#8B0081"/>
<stop offset="1" stop-color="#B842FF"/>
</linearGradient>
<linearGradient id="paint8_linear_102_117" x1="219.9" y1="511" x2="219.9" y2="455.5" gradientUnits="userSpaceOnUse">
<stop stop-color="#3E0E19"/>
<stop offset="1" stop-color="#31074B"/>
</linearGradient>
<linearGradient id="paint9_linear_102_117" x1="346.1" y1="509.299" x2="346.1" y2="321.799" gradientUnits="userSpaceOnUse">
<stop stop-color="#E5602F"/>
<stop offset="1" stop-color="#FFA400"/>
</linearGradient>
<linearGradient id="paint10_linear_102_117" x1="474.801" y1="357.6" x2="474.801" y2="79.0003" gradientUnits="userSpaceOnUse">
<stop stop-color="#FF962F"/>
<stop offset="1" stop-color="#FFC700"/>
</linearGradient>
<linearGradient id="paint11_linear_102_117" x1="364.5" y1="299.6" x2="364.5" y2="156.5" gradientUnits="userSpaceOnUse">
<stop stop-color="#F28727"/>
<stop offset="1" stop-color="#C72200"/>
</linearGradient>
<radialGradient id="paint12_radial_102_117" cx="0" cy="0" r="1" gradientUnits="userSpaceOnUse" gradientTransform="translate(288.2 225.9) scale(68.7)">
<stop offset="0.469" stop-color="white"/>
<stop offset="0.802" stop-color="#FFE5DD"/>
<stop offset="1" stop-color="#E3AAD7"/>
</radialGradient>
<linearGradient id="paint13_linear_102_117" x1="601" y1="315.2" x2="601" y2="165.1" gradientUnits="userSpaceOnUse">
<stop stop-color="#F28727"/>
<stop offset="1" stop-color="#C72200"/>
</linearGradient>
<radialGradient id="paint14_radial_102_117" cx="0" cy="0" r="1" gradientUnits="userSpaceOnUse" gradientTransform="translate(519.401 219.8) scale(43.5 43.5)">
<stop offset="0.469" stop-color="white"/>
<stop offset="0.802" stop-color="#FFE5DD"/>
<stop offset="1" stop-color="#E3AAD7"/>
</radialGradient>
<linearGradient id="paint15_linear_102_117" x1="268.901" y1="296.1" x2="268.901" y2="207.6" gradientUnits="userSpaceOnUse">
<stop stop-color="#683155"/>
<stop offset="1" stop-color="#3E0E19"/>
</linearGradient>
<linearGradient id="paint16_linear_102_117" x1="425.9" y1="283.7" x2="425.9" y2="186.1" gradientUnits="userSpaceOnUse">
<stop stop-color="#683155"/>
<stop offset="1" stop-color="#3E0E19"/>
</linearGradient>
<linearGradient id="paint17_linear_102_117" x1="293.1" y1="505.3" x2="293.1" y2="372.7" gradientUnits="userSpaceOnUse">
<stop offset="0.006" stop-color="#982F00"/>
<stop offset="1" stop-color="#E36B00"/>
</linearGradient>
<linearGradient id="paint18_linear_102_117" x1="298.001" y1="247.5" x2="336.201" y2="148.4" gradientUnits="userSpaceOnUse">
<stop stop-color="#A69CEA"/>
<stop offset="1" stop-color="#DE27B3"/>
</linearGradient>
<linearGradient id="paint19_linear_102_117" x1="535.901" y1="219.8" x2="557.701" y2="163.2" gradientUnits="userSpaceOnUse">
<stop stop-color="#A69CEA"/>
<stop offset="1" stop-color="#DE27B3"/>
</linearGradient>
<linearGradient id="paint20_linear_102_117" x1="317.801" y1="312.399" x2="345.801" y2="263.899" gradientUnits="userSpaceOnUse">
<stop/>
<stop offset="1" stop-color="#39FFFF"/>
</linearGradient>
<linearGradient id="paint21_linear_102_117" x1="548.4" y1="297.1" x2="568.1" y2="263" gradientUnits="userSpaceOnUse">
<stop/>
<stop offset="1" stop-color="#39FFFF"/>
</linearGradient>
<linearGradient id="paint22_linear_102_117" x1="417.101" y1="357.599" x2="417.101" y2="170.399" gradientUnits="userSpaceOnUse">
<stop stop-color="#8B0081"/>
<stop offset="1" stop-color="#B842FF"/>
</linearGradient>
<linearGradient id="paint23_linear_102_117" x1="372.901" y1="331.6" x2="227.801" y2="331.6" gradientUnits="userSpaceOnUse">
<stop stop-color="#8B0081"/>
<stop offset="1" stop-color="#B842FF"/>
</linearGradient>
<linearGradient id="paint24_linear_102_117" x1="296.101" y1="105.499" x2="241.301" y2="105.499" gradientUnits="userSpaceOnUse">
<stop stop-color="#8B0081"/>
<stop offset="1" stop-color="#B842FF"/>
</linearGradient>
<linearGradient id="paint25_linear_102_117" x1="370.101" y1="127.7" x2="370.101" y2="0.799815" gradientUnits="userSpaceOnUse">
<stop stop-color="#630E19"/>
<stop offset="1" stop-color="#8B311B"/>
</linearGradient>
<linearGradient id="paint26_linear_102_117" x1="282.601" y1="9.7998" x2="215.901" y2="9.7998" gradientUnits="userSpaceOnUse">
<stop stop-color="#8B0081"/>
<stop offset="1" stop-color="#B842FF"/>
</linearGradient>
<linearGradient id="paint27_linear_102_117" x1="282.9" y1="511" x2="282.9" y2="388.6" gradientUnits="userSpaceOnUse">
<stop stop-color="#8B0081"/>
<stop offset="1" stop-color="white"/>
</linearGradient>
<linearGradient id="paint28_linear_102_117" x1="495.601" y1="78.7998" x2="467.201" y2="78.7998" gradientUnits="userSpaceOnUse">
<stop stop-color="#C62A96"/>
<stop offset="1" stop-color="white"/>
</linearGradient>
<linearGradient id="paint29_linear_102_117" x1="416.402" y1="29.9001" x2="386.602" y2="29.9001" gradientUnits="userSpaceOnUse">
<stop stop-color="#C62A96"/>
<stop offset="1" stop-color="white"/>
</linearGradient>
<linearGradient id="paint30_linear_102_117" x1="490.801" y1="26.8994" x2="435.801" y2="26.8994" gradientUnits="userSpaceOnUse">
<stop stop-color="#C62A96"/>
<stop offset="1" stop-color="white"/>
</linearGradient>
<linearGradient id="paint31_linear_102_117" x1="472.801" y1="269.599" x2="443.301" y2="169.399" gradientUnits="userSpaceOnUse">
<stop stop-color="#FF9D2F"/>
<stop offset="1" stop-color="#FFC713"/>
</linearGradient>
<linearGradient id="paint32_linear_102_117" x1="264.8" y1="285.499" x2="225.4" y2="151.999" gradientUnits="userSpaceOnUse">
<stop stop-color="#FF9D2F"/>
<stop offset="1" stop-color="#FFC713"/>
</linearGradient>
<linearGradient id="paint33_linear_102_117" x1="535" y1="245.5" x2="535" y2="226.3" gradientUnits="userSpaceOnUse">
<stop stop-color="#3E0E19"/>
<stop offset="1" stop-color="#31074B"/>
</linearGradient>
<linearGradient id="paint34_linear_102_117" x1="285.501" y1="264" x2="285.501" y2="230.7" gradientUnits="userSpaceOnUse">
<stop stop-color="#3E0E19"/>
<stop offset="1" stop-color="#31074B"/>
</linearGradient>
<linearGradient id="paint35_linear_102_117" x1="435" y1="322.7" x2="435" y2="287.4" gradientUnits="userSpaceOnUse">
<stop stop-color="#C23600"/>
<stop offset="0.994" stop-color="#862200"/>
</linearGradient>
<linearGradient id="paint36_linear_102_117" x1="453.5" y1="316.4" x2="453.5" y2="302.6" gradientUnits="userSpaceOnUse">
<stop stop-color="#8B0081"/>
<stop offset="1" stop-color="#B842FF"/>
</linearGradient>
<linearGradient id="paint37_linear_102_117" x1="3.50023" y1="539.2" x2="3.50023" y2="360.3" gradientUnits="userSpaceOnUse">
<stop stop-color="#3E0E19"/>
<stop offset="1" stop-color="#683131"/>
</linearGradient>
<linearGradient id="paint38_linear_102_117" x1="61.9002" y1="581" x2="32.5001" y2="435.7" gradientUnits="userSpaceOnUse">
<stop stop-color="#8B0081"/>
<stop offset="1" stop-color="#B842FF"/>
</linearGradient>
<linearGradient id="paint39_linear_102_117" x1="302.801" y1="293.4" x2="274.201" y2="219.2" gradientUnits="userSpaceOnUse">
<stop stop-color="#A69CEA"/>
<stop offset="1" stop-color="#DE27B3"/>
</linearGradient>
<linearGradient id="paint40_linear_102_117" x1="530.201" y1="261.4" x2="515.901" y2="224.3" gradientUnits="userSpaceOnUse">
<stop stop-color="#A69CEA"/>
<stop offset="1" stop-color="#DE27B3"/>
</linearGradient>
<linearGradient id="paint41_linear_102_117" x1="287.5" y1="325.599" x2="287.5" y2="269.899" gradientUnits="userSpaceOnUse">
<stop stop-color="#B6ECC2"/>
<stop offset="1" stop-color="#D7DDF3"/>
</linearGradient>
<linearGradient id="paint42_linear_102_117" x1="285" y1="327.8" x2="285" y2="272.3" gradientUnits="userSpaceOnUse">
<stop stop-color="#8B0081"/>
<stop offset="1" stop-color="white"/>
</linearGradient>
<linearGradient id="paint43_linear_102_117" x1="197.701" y1="411.899" x2="228.201" y2="411.899" gradientUnits="userSpaceOnUse">
<stop stop-color="#8B0081"/>
<stop offset="1" stop-color="#B842FF"/>
</linearGradient>
</defs>
</svg>
