<svg width="538" height="562" viewBox="0 0 538 562" fill="none" xmlns="http://www.w3.org/2000/svg">
<g filter="url(#filter0_d_101_5)">
<path d="M522.5 326.5C501.1 310 452.1 308 413.7 311.1C413.567 311.1 413.5 311.1 413.5 311.1C393.8 312.7 376.9 315.6 367.9 318.6C367.1 318.867 366.367 319.133 365.7 319.4C342.8 328.6 300.5 393.3 300.5 393.3C300.5 393.3 321.3 448.1 371.5 469.5C388.3 476.7 408.4 480.1 432.1 476.4C435.1 476 438.1 475.4 441.2 474.8C522.3 456.7 551.5 348.9 522.5 326.5Z" fill="url(#paint0_linear_101_5)"/>
<path style="mix-blend-mode:multiply" opacity="0.6" d="M522.499 326.5C501.099 310 452.099 308 413.699 311.1C416.999 311.3 485.099 304.5 515.999 329.8C547.699 355.8 495.699 452.6 432.099 476.4C435.099 476 438.099 475.4 441.199 474.8C522.299 456.7 551.499 348.9 522.499 326.5Z" fill="url(#paint1_linear_101_5)"/>
<path style="mix-blend-mode:multiply" opacity="0.6" d="M350.6 447.1C358.1 381.1 400.3 349.6 445.1 320.6L376.2 316.7C375.4 317 366.3 319.2 365.7 319.4C342.8 328.6 300.5 393.3 300.5 393.3C300.5 393.3 300.5 425.7 350.6 447.1Z" fill="url(#paint2_linear_101_5)"/>
<g style="mix-blend-mode:soft-light" opacity="0.9">
<path d="M370.301 410.5C356.301 360.2 462.101 345.8 482.501 392.1C503.001 438.5 405.601 536.9 370.301 410.5Z" fill="#9F98FF"/>
</g>
<g style="mix-blend-mode:soft-light" opacity="0.9">
<path d="M448.499 462.7C421.399 480.4 402.299 465.7 423.199 449.2C443.999 432.7 457.699 456.6 448.499 462.7Z" fill="#ACFFEA"/>
</g>
<path d="M161.699 121.3C153.399 124.7 123.499 117.8 104.699 89.9002C85.9993 62.0002 76.1993 12.2002 101.399 13.6002C102.799 13.6669 104.266 14.0002 105.799 14.6002C121.199 20.0002 142.399 48.0002 157.299 71.7002C157.299 71.7002 157.299 71.7335 157.299 71.8002C167.499 88.0002 174.799 102.2 175.299 105.9C175.799 109.4 170.099 117.9 161.699 121.3Z" fill="url(#paint3_linear_101_5)"/>
<path d="M442.199 76.3999C430.999 108.1 403.699 122.2 394.799 120.9C385.799 119.7 378.199 112.9 377.799 109.5C377.399 105.9 380.599 91.4 386.099 74.2C394.899 45.9 409.699 10.1999 424.299 2.59994C425.033 2.26661 425.766 1.9666 426.499 1.69993C450.599 -5.90007 453.499 44.6999 442.199 76.3999Z" fill="url(#paint4_linear_101_5)"/>
<path style="mix-blend-mode:multiply" opacity="0.5" d="M442.199 76.3999C430.999 108.1 403.699 122.2 394.799 120.9C385.799 119.7 378.199 112.9 377.799 109.5C377.399 105.9 380.599 91.4 386.099 74.2C378.299 103.8 425.599 86.4999 439.699 54.4999C450.699 29.5999 432.699 10.0999 424.299 2.59994C425.033 2.26661 425.766 1.9666 426.499 1.69993C450.599 -5.90007 453.499 44.6999 442.199 76.3999Z" fill="url(#paint5_linear_101_5)"/>
<path style="mix-blend-mode:multiply" opacity="0.5" d="M161.699 121.3C153.399 124.7 123.499 117.8 104.699 89.9002C85.9993 62.0002 76.1993 12.2002 101.399 13.6002C102.799 13.6669 104.266 14.0002 105.799 14.6002C94.1993 28.3002 82.7993 50.8002 107.999 79.3002C148.199 124.6 157.099 72.7002 157.299 71.8002C167.499 88.0002 174.799 102.2 175.299 105.9C175.799 109.4 170.099 117.9 161.699 121.3Z" fill="url(#paint6_linear_101_5)"/>
<path d="M15.5998 326.5C37.0998 310 85.9998 308 124.4 311.1C124.533 311.1 124.6 311.1 124.6 311.1C144.3 312.7 161.3 315.6 170.2 318.6C171.067 318.867 171.833 319.133 172.5 319.4C195.3 328.6 237.6 393.3 237.6 393.3C237.6 393.3 216.8 448.1 166.7 469.5C149.8 476.7 129.8 480.1 106 476.4C103 476 99.9998 475.4 96.8998 474.8C15.7998 456.7 -13.3002 348.9 15.5998 326.5Z" fill="url(#paint7_linear_101_5)"/>
<path style="mix-blend-mode:multiply" opacity="0.6" d="M15.5998 326.5C37.0998 310 85.9998 308 124.4 311.1C121.2 311.3 52.9998 304.5 22.1998 329.8C-9.50018 355.8 42.3998 452.6 106 476.4C103 476 99.9998 475.4 96.8998 474.8C15.7998 456.7 -13.3002 348.9 15.5998 326.5Z" fill="url(#paint8_linear_101_5)"/>
<path style="mix-blend-mode:multiply" opacity="0.6" d="M187.5 447.1C180.1 381.1 137.8 349.6 93 320.6L161.9 316.7C162.8 317 171.8 319.2 172.5 319.4C195.3 328.6 237.6 393.3 237.6 393.3C237.6 393.3 237.6 425.7 187.5 447.1Z" fill="url(#paint9_linear_101_5)"/>
<path d="M311.401 521.2C311.401 521.2 308.301 524.8 303.701 529.4C303.634 529.467 303.567 529.533 303.501 529.6C293.401 540 276.101 555.8 267.901 552.7C259.001 549.2 237.501 528.2 226.701 517.3C222.801 513.5 220.301 510.8 220.301 510.8C247.601 524.5 311.401 521.2 311.401 521.2Z" fill="url(#paint10_linear_101_5)"/>
<path d="M225.199 513.8C165.099 474.9 189.399 388.2 206.499 339C212.699 321.2 217.999 308.4 217.999 304.4C217.999 304.4 324.599 317.7 354.299 398.8C358.199 409.6 360.299 420.5 360.699 431.1C360.699 431.8 360.699 432.4 360.799 433.1C360.799 433.567 360.799 434.034 360.799 434.5C360.799 435.367 360.799 436.267 360.799 437.2C359.499 503.9 294.199 558.3 225.199 513.8Z" fill="url(#paint11_linear_101_5)"/>
<path d="M470.599 293.199C470.199 295.799 469.799 298.199 469.299 300.499C456.099 362.999 338.999 347.6 253.699 350.9C219.099 352.2 84.699 367.699 71.399 301.099C70.399 296.233 69.7657 291.066 69.499 285.599C65.499 210.499 125.799 83.1995 252.999 76.9995C448.799 67.2995 480.399 225.699 470.599 293.199Z" fill="url(#paint12_linear_101_5)"/>
<path d="M184.3 247.5C175.9 282.5 146.1 307 117.7 302.3C89.2003 297.7 73.0003 265.6 81.4003 230.6C89.7003 195.7 119.6 171.2 148 175.8C176.4 180.5 192.7 212.6 184.3 247.5Z" fill="url(#paint13_linear_101_5)"/>
<path d="M181.399 247C178.899 257.3 174.499 266.5 168.599 274.2C163.899 280.4 158.399 285.5 152.399 289.3C149.499 291.2 146.499 292.7 143.399 293.9C136.299 296.7 128.799 297.6 121.399 296.4C95.7994 292.2 81.1994 263.3 88.6994 231.8C96.1994 200.4 123.099 178.3 148.699 182.5C154.599 183.4 159.899 185.7 164.499 189.1C170.699 193.5 175.599 199.9 178.899 207.5C179.099 208.034 179.333 208.6 179.599 209.2C183.799 220.1 184.699 233.3 181.399 247Z" fill="url(#paint14_radial_101_5)"/>
<path d="M181.401 247C178.901 257.3 174.501 266.5 168.601 274.2C163.901 280.4 158.401 285.5 152.401 289.3C152.201 289.367 151.967 289.467 151.701 289.6C127.601 286.8 108.801 265.3 108.801 239.2C108.801 211.1 130.301 188.4 156.801 188.4C159.401 188.4 161.967 188.634 164.501 189.1C170.701 193.5 175.601 199.9 178.901 207.5C179.101 208.034 179.334 208.6 179.601 209.2C183.801 220.1 184.701 233.3 181.401 247Z" fill="url(#paint15_linear_101_5)"/>
<path d="M363.4 247.5C371.6 282.5 400.7 307 428.5 302.3C456.2 297.7 472.1 265.6 463.9 230.6C455.7 195.7 426.6 171.2 398.8 175.8C371.1 180.5 355.2 212.6 363.4 247.5Z" fill="url(#paint16_linear_101_5)"/>
<path d="M424.8 296.4C417.6 297.6 410.3 296.7 403.3 293.9C398.2 291.8 393.2 288.8 388.7 284.9C384.6 281.4 380.8 277.2 377.5 272.5C372.4 265.2 368.5 256.5 366.2 247C363 233.3 363.9 220.1 368 209.2C368.8 207 369.8 204.9 370.9 203C376.7 192.1 386.2 184.5 398.1 182.5C398.5 182.433 398.867 182.366 399.2 182.3C423.9 179 449.5 200.8 456.7 231.8C464.1 263.3 449.8 292.2 424.8 296.4Z" fill="url(#paint17_radial_101_5)"/>
<path d="M439.1 235.7C439.1 263.6 420.9 286.5 397.4 289.4C394.4 288.2 391.5 286.7 388.7 284.9C384.6 281.4 380.8 277.2 377.5 272.5C372.4 265.2 368.5 256.5 366.2 247C363 233.3 363.9 220.1 368 209.2C368.8 207 369.8 204.9 370.9 203C376.7 192.1 386.2 184.5 398.1 182.5C398.5 182.433 398.867 182.366 399.2 182.3C421.8 186.1 439.1 208.5 439.1 235.7Z" fill="url(#paint18_linear_101_5)"/>
<path d="M189.799 414.5C189.799 414.5 197.899 442.7 270.799 452.3C343.599 461.9 358.699 414.5 358.699 414.5C358.699 414.5 368.199 468.6 345.499 494.5C345.499 494.5 274.399 521.1 201.999 492.6C201.999 492.6 176.799 456.4 189.799 414.5Z" fill="url(#paint19_linear_101_5)"/>
<g style="mix-blend-mode:multiply">
<path d="M419.9 236.8C419.9 256.8 403.7 273.1 383.7 273.1C381.567 273.1 379.5 272.9 377.5 272.5C372.4 265.2 368.5 256.5 366.2 247C363 233.3 363.9 220.1 368 209.2C368.8 207 369.8 204.9 370.9 203C374.8 201.5 379.1 200.6 383.7 200.6C403.7 200.6 419.9 216.9 419.9 236.8Z" fill="#9C27B3"/>
</g>
<g style="mix-blend-mode:multiply">
<path d="M181.4 247C178.9 257.3 174.5 266.5 168.6 274.2C148.7 274 132.6 258.9 132.6 240.2C132.6 221.4 148.9 206.2 169 206.2C172.4 206.2 175.7 206.6 178.9 207.5C179.1 208.034 179.333 208.6 179.6 209.2C183.8 220.1 184.7 233.3 181.4 247Z" fill="#9C27B3"/>
</g>
<path style="mix-blend-mode:multiply" opacity="0.8" d="M364.3 231.9C364.3 231.9 367.7 192.5 405.6 186.6C443.4 180.7 460.5 219.8 460.5 219.8C460.5 219.8 447.8 175.1 412.4 173.7C377.1 172.4 360.2 215.4 364.3 231.9Z" fill="url(#paint20_linear_101_5)"/>
<path style="mix-blend-mode:multiply" opacity="0.8" d="M89.5996 228.4C89.5996 228.4 105.1 192.2 140.2 190.1C175.3 188 183.2 225.5 183.2 225.5C183.2 225.5 185.6 185.5 147.8 177.9C110 170.3 92.2996 214.6 89.5996 228.4Z" fill="url(#paint21_linear_101_5)"/>
<path style="mix-blend-mode:screen" opacity="0.5" d="M378.601 233C374.901 234.1 377.201 267.5 383.401 277.9C388.001 285.5 410.301 270.5 407.001 252.8C404.401 238.6 382.801 231.9 378.601 233Z" fill="url(#paint22_linear_101_5)"/>
<path style="mix-blend-mode:screen" opacity="0.5" d="M172.199 236.599C175.899 237.599 172.499 265.299 166.199 275.699C161.599 283.299 139.299 268.299 142.599 250.499C145.299 236.299 167.899 235.399 172.199 236.599Z" fill="url(#paint23_linear_101_5)"/>
<path d="M433.6 234.999C430.3 248.899 454.1 245.299 451 234.699C447.9 223.999 436 224.899 433.6 234.999Z" fill="white"/>
<path d="M93.2992 233C89.9992 246.8 113.799 243.3 110.699 232.6C107.499 221.9 95.6992 222.8 93.2992 233Z" fill="white"/>
<path style="mix-blend-mode:multiply" d="M199.9 354.5C199.9 354.5 222 402.5 273.1 405.7C324.1 409 337.8 368.6 337.8 368.6L326.8 353.4C326.8 353.4 237 355.3 199.9 354.5Z" fill="url(#paint24_linear_101_5)"/>
<path d="M86.1992 278.8C86.1992 278.8 99.6992 303.1 130.399 299.9C161.099 296.8 175.399 269.8 175.399 269.8C175.399 269.8 160.699 302.5 130.399 307.5C100.099 312.4 86.1992 278.8 86.1992 278.8Z" fill="#FFD142"/>
<path d="M376.9 277.1C376.9 277.1 396.5 300.8 424.8 298.8C453.2 296.8 463.4 268.2 463.4 268.2C463.4 268.2 459.2 301.2 427.9 305.1C396.6 309 376.9 277.1 376.9 277.1Z" fill="#FFD142"/>
<g style="mix-blend-mode:soft-light" opacity="0.9">
<path d="M192.8 108.3C146.7 133.4 196.2 207.7 273.1 203.9C350 200.1 387.9 134.1 381.8 116.9C375.8 99.5999 275.2 63.2999 192.8 108.3Z" fill="#FFA96F"/>
</g>
<g style="mix-blend-mode:soft-light" opacity="0.9">
<path d="M306.899 106.4C300.199 120.1 320.899 138.5 327.599 117.2C334.399 95.9003 309.699 100.8 306.899 106.4Z" fill="white"/>
</g>
<path style="mix-blend-mode:multiply" opacity="0.5" d="M470.6 293.2C470.2 295.8 469.8 298.2 469.3 300.5C456.1 363 339 347.6 253.7 350.9C219.1 352.2 84.7 367.7 71.4 301.1C70.4 296.233 69.7667 291.066 69.5 285.6C91 320.1 169.7 344.8 274.5 344.8C362.6 344.8 442.3 310.7 470.6 293.2Z" fill="url(#paint25_linear_101_5)"/>
<path style="mix-blend-mode:multiply" opacity="0.6" d="M225.199 513.8C165.099 474.9 189.399 388.2 206.499 339C206.099 340.3 170.899 416.8 222.399 467.6C272.999 517.5 358.799 485 360.799 437.2C359.499 503.9 294.199 558.3 225.199 513.8Z" fill="url(#paint26_linear_101_5)"/>
<path style="mix-blend-mode:multiply" d="M303.499 529.6C293.399 540 276.099 555.8 267.899 552.7C258.999 549.2 237.499 528.2 226.699 517.3C226.699 517.3 262.499 542 275.599 542.6C287.499 543.2 301.099 531.8 303.499 529.6Z" fill="url(#paint27_linear_101_5)"/>
<path style="mix-blend-mode:multiply" opacity="0.6" d="M103.5 461.6C103.366 461.933 103.233 462.266 103.1 462.6C103.233 462.333 103.333 462.033 103.4 461.7L103.5 461.6Z" fill="url(#paint28_linear_101_5)"/>
<g style="mix-blend-mode:soft-light" opacity="0.9">
<path d="M167.8 410.5C181.9 360.2 76.0997 345.8 55.5997 392.1C35.0997 438.5 132.6 536.9 167.8 410.5Z" fill="#9F98FF"/>
</g>
<path d="M147.699 117.499C147.699 117.499 187.399 85.4995 267.699 80.2995C347.899 75.0995 413.599 126.899 413.599 126.899C413.599 126.899 374.399 76.0995 280.699 72.4995C186.899 68.7995 147.699 117.499 147.699 117.499Z" fill="#FFE84A"/>
<g style="mix-blend-mode:soft-light" opacity="0.9">
<path d="M268.899 424C256.299 453.5 319.999 467.7 337.199 423.2C354.399 378.6 277.699 403.5 268.899 424Z" fill="#FFA96F"/>
</g>
<g style="mix-blend-mode:soft-light" opacity="0.9">
<path d="M89.6992 462.7C116.699 480.4 135.799 465.7 114.999 449.2C94.0992 432.7 80.3992 456.6 89.6992 462.7Z" fill="#ACFFEA"/>
</g>
<path d="M189.801 414.5C189.801 414.5 218.701 447.8 270.201 450.7C322.801 453.8 350.701 428.2 350.701 428.2C350.701 428.2 325.601 461.6 264.801 453.3C204.601 445.2 189.801 414.5 189.801 414.5Z" fill="#FFB042"/>
<path d="M186.199 353.3C212.499 353.1 245.999 367.9 274.399 368.6C302.699 369.3 333.699 350 356.899 350.3C356.899 350.3 234.999 352.3 186.199 353.3Z" fill="#6D001F"/>
<path d="M377 98C376.5 97.7 370.7 95 360.8 91.6C333.1 82 272.2 67 198.8 84.6C205.2 82.3 178.7 69.5 179.1 66.4C179.4 63.3 202.7 79.6 202.7 79.6C202.7 79.6 187.1 53.2 193 42.8C198.9 32.4 222.2 74.4 222.2 74.4C222.2 74.4 219 43.5 229.5 37.9C239.9 32.4 244.1 72.3 244.1 72.3C244.1 72.3 266.6 40.6 297.3 27.1C309.9 21.6 323.8 19.1 338.2 23C369.6 31.6 314.7 70.7 312.5 72.3C312.567 72.3 312.6 72.2667 312.6 72.2C315 71.4 340.2 62.6 360.4 68.9C381.6 75.4 352.1 82 352.1 82L377 98Z" fill="#FFE84A"/>
<g style="mix-blend-mode:soft-light" opacity="0.4">
<path d="M405 43.6996C407.6 68.6996 433.9 42.4996 430.8 27.4996C427.6 12.4996 404 34.0996 405 43.6996Z" fill="#FFA96F"/>
</g>
<g style="mix-blend-mode:soft-light" opacity="0.4">
<path d="M116.999 35.7003C104.499 38.6003 107.899 60.7003 127.099 57.9003C146.299 55.2003 125.299 33.8003 116.999 35.7003Z" fill="#FFA96F"/>
</g>
<path style="mix-blend-mode:multiply" opacity="0.5" d="M312.5 72.2995L291.6 76.5996C291.6 76.5996 336.2 52.0996 337 42.7996C337.7 33.3996 335.4 15.8996 297.3 27.0996C309.9 21.5996 323.8 18.9996 338.2 22.9996C369.6 31.5996 314.7 70.6995 312.5 72.2995Z" fill="url(#paint29_linear_101_5)"/>
<path style="mix-blend-mode:multiply" opacity="0.5" d="M377 98.0003C376.5 97.7003 370.7 95.0003 360.8 91.6003C359.8 90.667 358.7 89.767 357.5 88.9003C346.4 80.3003 320.9 80.3003 320.6 80.3003L350 77.7003C350 77.7003 360.4 72.0003 348.2 68.9003C336.5 65.9003 314.8 71.7003 312.6 72.2003C315 71.4003 340.2 62.6003 360.4 68.9003C381.6 75.4003 352.1 82.0003 352.1 82.0003L377 98.0003Z" fill="url(#paint30_linear_101_5)"/>
<g style="mix-blend-mode:soft-light" opacity="0.9">
<path d="M295.4 419.3C283.6 424.5 296.1 448.7 308.8 439.2C321.5 429.6 307.1 414.1 295.4 419.3Z" fill="white"/>
</g>
<g style="mix-blend-mode:soft-light" opacity="0.9">
<path d="M292.7 459.9C283 468.4 310.5 476.6 319.8 463.8C329.1 450.9 302.4 451.4 292.7 459.9Z" fill="white"/>
</g>
<path d="M360.8 433.1C360.8 433.1 361.2 461.3 344.7 488.2C328.2 515.2 311.4 521.2 311.4 521.2C311.4 521.2 331.5 515.4 347.9 491.1C364.3 466.7 360.8 433.1 360.8 433.1Z" fill="#FFC54A"/>
<path d="M370.499 266.7C370.499 266.7 423.499 206 456.899 211.5C456.899 211.5 439.199 164.7 400.099 173.7C342.199 187.1 360.699 246.5 370.499 266.7Z" fill="url(#paint31_linear_101_5)"/>
<path d="M372.6 265.8C372.6 265.8 395 226.5 422.9 207.8C450.8 189 469.5 194.2 472.2 195.6C477.6 198.4 461.7 217.6 461.7 217.6C461.7 217.6 448.2 209.6 420.1 225C392 240.3 372.6 265.8 372.6 265.8Z" fill="url(#paint32_linear_101_5)"/>
<path d="M176.8 266.7C176.8 266.7 123.8 206 90.4004 211.5C90.4004 211.5 108.1 164.7 147.2 173.7C205.1 187.1 186.6 246.5 176.8 266.7Z" fill="url(#paint33_linear_101_5)"/>
<path d="M174.699 265.8C174.699 265.8 152.299 226.5 124.399 207.8C96.3994 189 77.7994 194.2 75.0994 195.6C69.6994 198.4 85.5994 217.6 85.5994 217.6C85.5994 217.6 99.0994 209.6 127.199 225C155.299 240.3 174.699 265.8 174.699 265.8Z" fill="url(#paint34_linear_101_5)"/>
<path style="mix-blend-mode:multiply" opacity="0.8" d="M381.7 279C381.7 279 398.1 241 422.9 229.8C447.8 218.6 454.3 223.7 454.3 223.7L460.5 217.1C460.5 217.1 451.9 209 420.1 223.1C388.4 237.1 373.4 268.2 373.4 268.2L381.7 279Z" fill="url(#paint35_linear_101_5)"/>
<path style="mix-blend-mode:multiply" opacity="0.8" d="M85.5996 217.6L89.5996 227C89.5996 227 100.2 220.9 124.4 231.9C148.5 242.9 171.7 269.8 171.7 269.8V265.8C171.7 265.8 160.4 243.9 132.8 225C105.2 206 85.5996 217.6 85.5996 217.6Z" fill="url(#paint36_linear_101_5)"/>
<path d="M232.6 308.5C232.6 308.5 243.1 291.7 271.8 289.6C355.1 283.3 315.3 321.8 316.1 324.3C316.8 326.8 301.4 294.6 274.8 294.8C248.2 294.9 232.6 308.5 232.6 308.5Z" fill="url(#paint37_linear_101_5)"/>
<path style="mix-blend-mode:multiply" d="M334.199 461.6C334.199 461.6 344.999 474.9 344.699 488.2C344.699 488.2 352.199 478.5 357.099 471C357.099 471 340.599 465.6 334.199 461.6Z" fill="url(#paint38_linear_101_5)"/>
<path d="M395.1 464.8C392.1 466.7 376.9 472 363.7 471.8C356.7 471.7 341 467.6 334.2 461.6C332.1 459.8 330.9 457.8 330.9 455.8C330.9 437.5 369.9 429 371.3 426.1C371.3 426.1 372.4 424.9 373.4 422.7C374.9 419.4 376.2 413.6 372.6 405.9C366.7 393.3 353.9 388.4 348.1 384.7C334.2 376 328.9 356.1 328.9 356.1C328.9 356.1 366.8 361.1 395.1 368C406.5 370.8 416.7 374.5 422.9 379.6C424.834 381.2 426.434 382.9 427.7 384.7C446 409.8 410.4 455.3 395.1 464.8Z" fill="url(#paint39_linear_101_5)"/>
<path style="mix-blend-mode:multiply" d="M395.1 368C359 366.9 375.1 398.3 375.1 398.3C375.1 398.3 380.2 416.9 373.4 422.7C374.9 419.4 376.2 413.6 372.6 405.9C366.7 393.3 353.9 388.4 348.1 384.7C334.2 376 328.9 356.1 328.9 356.1C328.9 356.1 366.8 361.1 395.1 368Z" fill="url(#paint40_linear_101_5)"/>
<path style="mix-blend-mode:multiply" d="M395.101 464.799C392.101 466.699 376.901 471.999 363.701 471.799C356.701 471.699 341.001 467.599 334.201 461.599C334.201 461.599 365.701 473.499 399.101 453.299C432.401 432.999 432.601 399.699 427.701 384.699C446.001 409.799 410.401 455.299 395.101 464.799Z" fill="url(#paint41_linear_101_5)"/>
<path style="mix-blend-mode:multiply" d="M371.301 426.1C395.401 421 400.101 444.5 400.101 444.5C400.101 444.5 402.001 431.6 392.301 421.7C382.601 411.8 375.401 420.1 375.401 420.1L371.301 426.1Z" fill="url(#paint42_linear_101_5)"/>
<path d="M146.6 464.8C149.5 466.7 164.8 472 178 471.8C185 471.7 200.7 467.6 207.5 461.6C209.5 459.8 210.8 457.8 210.8 455.8C210.8 437.5 171.7 429 170.4 426.1C170.4 426.1 169.2 424.9 168.3 422.7C166.7 419.4 165.5 413.6 169.1 405.9C175 393.3 187.8 388.4 193.6 384.7C207.4 376 200.6 356.8 200.6 356.8C200.6 356.8 174.9 361.1 146.6 368C135.1 370.8 124.9 374.5 118.7 379.6C116.833 381.2 115.233 382.9 113.9 384.7C95.5999 409.8 131.3 455.3 146.6 464.8Z" fill="url(#paint43_linear_101_5)"/>
<path style="mix-blend-mode:multiply" d="M146.6 368C182.7 366.9 166.6 398.3 166.6 398.3C166.6 398.3 161.5 416.9 168.3 422.7C166.7 419.4 165.5 413.6 169.1 405.9C175 393.3 187.8 388.4 193.6 384.7C207.4 376 200.6 356.8 200.6 356.8C200.6 356.8 174.9 361.1 146.6 368Z" fill="url(#paint44_linear_101_5)"/>
<path style="mix-blend-mode:multiply" d="M146.6 464.8C149.5 466.7 164.8 472 178 471.8C185 471.7 200.7 467.6 207.5 461.6C207.5 461.6 175.9 473.5 142.6 453.3C109.2 433 109 399.7 113.9 384.7C95.5999 409.8 131.3 455.3 146.6 464.8Z" fill="url(#paint45_linear_101_5)"/>
<path style="mix-blend-mode:multiply" d="M170.4 426.1C146.2 421 141.6 444.5 141.6 444.5C141.6 444.5 139.6 431.6 149.4 421.7C159.1 411.8 166.3 420.1 166.3 420.1L170.4 426.1Z" fill="url(#paint46_linear_101_5)"/>
<g style="mix-blend-mode:soft-light" opacity="0.9">
<path d="M369.501 254.3C344.001 252.8 357.701 176.8 386.201 173.7C414.701 170.6 417.401 194.9 413.601 204.6C409.901 214.4 375.401 254.7 369.501 254.3Z" fill="#FFA96F"/>
</g>
<g style="mix-blend-mode:soft-light" opacity="0.9">
<path d="M124.401 169.4C110.801 179.2 150.401 240.9 176.101 246.9C201.801 252.9 194.501 201 183.201 182C171.901 163 129.701 165.5 124.401 169.4Z" fill="#FFA96F"/>
</g>
<path style="mix-blend-mode:multiply" opacity="0.5" d="M328.801 222.5C328.801 222.5 337.601 243.3 350.101 242C362.601 240.8 363.201 193.5 384.801 179.1C406.401 164.7 425.701 173.7 425.701 173.7C425.701 173.7 412.301 166.8 390.701 168.9C369.201 170.9 358.101 208.5 353.201 219.4C348.401 230.3 332.801 226.5 328.801 222.5Z" fill="url(#paint47_linear_101_5)"/>
<path style="mix-blend-mode:multiply" opacity="0.5" d="M216.9 222.399C216.9 222.399 208.1 243.099 195.6 241.899C183.1 240.599 182.5 193.299 160.9 178.899C139.3 164.499 120 173.499 120 173.499C120 173.499 133.4 166.599 154.9 168.699C176.5 170.799 187.6 208.299 192.4 219.199C197.3 230.199 212.8 226.399 216.9 222.399Z" fill="url(#paint48_linear_101_5)"/>
<path d="M284.699 292.9C284.699 292.9 304.599 302.2 310.799 312C316.999 321.7 319.299 312.1 317.399 302.4C315.399 292.7 284.699 292.9 284.699 292.9Z" fill="#7C001F"/>
<path d="M310.799 312C310.799 312 315.799 308 312.399 297.3C312.399 297.3 301.599 290.6 284.699 292.9C284.699 292.9 305.599 302.2 310.799 312Z" fill="url(#paint49_linear_101_5)"/>
<path d="M239.6 304.4C239.6 304.4 251.2 297.2 276.5 298.4C301.7 299.5 310.9 316.7 310.9 316.7C310.9 316.7 300.1 297.8 279.1 294.1C258 290.3 239.6 304.4 239.6 304.4Z" fill="#FFD142"/>
<g style="mix-blend-mode:soft-light" opacity="0.9">
<path d="M373.501 193.4C371.701 207.7 395.301 198.8 390.601 187.2C384.501 172.6 373.501 193.4 373.501 193.4Z" fill="white"/>
</g>
<g style="mix-blend-mode:soft-light" opacity="0.9">
<path d="M168.401 190.7C155.801 186.3 162.601 205.3 171.701 209.1C180.901 213 177.301 193.9 168.401 190.7Z" fill="white"/>
</g>
<path d="M472.199 311.2C472.199 311.2 509.299 322.2 521.099 335.8C532.999 349.4 533.399 358.3 533.399 358.3C533.399 358.3 535.499 340.7 524.399 328.3C513.399 315.8 472.199 311.2 472.199 311.2Z" fill="#7EFFEA"/>
<path d="M9.19922 334.5C9.19922 334.5 44.3992 315.2 71.7992 310.7C71.7992 310.7 21.0992 312.6 9.19922 334.5Z" fill="#7EFFEA"/>
</g>
<defs>
<filter id="filter0_d_101_5" x="0.705078" y="0.932617" width="536.852" height="560.163" filterUnits="userSpaceOnUse" color-interpolation-filters="sRGB">
<feFlood flood-opacity="0" result="BackgroundImageFix"/>
<feColorMatrix in="SourceAlpha" type="matrix" values="0 0 0 0 0 0 0 0 0 0 0 0 0 0 0 0 0 0 127 0" result="hardAlpha"/>
<feOffset dy="4"/>
<feGaussianBlur stdDeviation="2"/>
<feComposite in2="hardAlpha" operator="out"/>
<feColorMatrix type="matrix" values="0 0 0 0 0 0 0 0 0 0 0 0 0 0 0 0 0 0 0.25 0"/>
<feBlend mode="normal" in2="BackgroundImageFix" result="effect1_dropShadow_101_5"/>
<feBlend mode="normal" in="SourceGraphic" in2="effect1_dropShadow_101_5" result="shape"/>
</filter>
<linearGradient id="paint0_linear_101_5" x1="588.3" y1="524.1" x2="588.3" y2="242.3" gradientUnits="userSpaceOnUse">
<stop stop-color="#B6ECC2"/>
<stop offset="1" stop-color="#909FDC"/>
</linearGradient>
<linearGradient id="paint1_linear_101_5" x1="584.099" y1="493.7" x2="584.099" y2="265.8" gradientUnits="userSpaceOnUse">
<stop stop-color="#5C60B5"/>
<stop offset="1" stop-color="white"/>
</linearGradient>
<linearGradient id="paint2_linear_101_5" x1="297.2" y1="190.1" x2="189" y2="312.7" gradientUnits="userSpaceOnUse">
<stop stop-color="#5B8EFF"/>
<stop offset="1" stop-color="#1D0090"/>
</linearGradient>
<linearGradient id="paint3_linear_101_5" x1="90.5993" y1="90.0002" x2="128.199" y2="27.4002" gradientUnits="userSpaceOnUse">
<stop stop-color="#630E19"/>
<stop offset="1" stop-color="#8B311B"/>
</linearGradient>
<linearGradient id="paint4_linear_101_5" x1="426.299" y1="103" x2="374.299" y2="54.5999" gradientUnits="userSpaceOnUse">
<stop stop-color="#630E19"/>
<stop offset="1" stop-color="#8B311B"/>
</linearGradient>
<linearGradient id="paint5_linear_101_5" x1="348.499" y1="84.0999" x2="430.499" y2="-4.00009" gradientUnits="userSpaceOnUse">
<stop stop-color="#8B0081"/>
<stop offset="1" stop-color="#B842FF"/>
</linearGradient>
<linearGradient id="paint6_linear_101_5" x1="95.9993" y1="8.70019" x2="198.299" y2="70.1002" gradientUnits="userSpaceOnUse">
<stop stop-color="#8B0081"/>
<stop offset="1" stop-color="#B842FF"/>
</linearGradient>
<linearGradient id="paint7_linear_101_5" x1="-50.1002" y1="524.1" x2="-50.1002" y2="242.3" gradientUnits="userSpaceOnUse">
<stop stop-color="#B6ECC2"/>
<stop offset="1" stop-color="#909FDC"/>
</linearGradient>
<linearGradient id="paint8_linear_101_5" x1="-46.0002" y1="493.7" x2="-46.0002" y2="265.8" gradientUnits="userSpaceOnUse">
<stop stop-color="#5C60B5"/>
<stop offset="1" stop-color="white"/>
</linearGradient>
<linearGradient id="paint9_linear_101_5" x1="240.9" y1="190.1" x2="349.1" y2="312.7" gradientUnits="userSpaceOnUse">
<stop stop-color="#5B8EFF"/>
<stop offset="1" stop-color="#1D0090"/>
</linearGradient>
<linearGradient id="paint10_linear_101_5" x1="239.401" y1="538" x2="261.401" y2="495.5" gradientUnits="userSpaceOnUse">
<stop stop-color="#3E0E19"/>
<stop offset="1" stop-color="#31074B"/>
</linearGradient>
<linearGradient id="paint11_linear_101_5" x1="136.999" y1="468.9" x2="226.299" y2="295.7" gradientUnits="userSpaceOnUse">
<stop stop-color="#E5602F"/>
<stop offset="1" stop-color="#FFA400"/>
</linearGradient>
<linearGradient id="paint12_linear_101_5" x1="175.599" y1="353.399" x2="175.599" y2="76.4995" gradientUnits="userSpaceOnUse">
<stop stop-color="#FF962F"/>
<stop offset="1" stop-color="#FFC700"/>
</linearGradient>
<linearGradient id="paint13_linear_101_5" x1="84.1003" y1="332.2" x2="84.1003" y2="167.4" gradientUnits="userSpaceOnUse">
<stop stop-color="#F28727"/>
<stop offset="1" stop-color="#C72200"/>
</linearGradient>
<radialGradient id="paint14_radial_101_5" cx="0" cy="0" r="1" gradientUnits="userSpaceOnUse" gradientTransform="translate(131.499 234.4) scale(56.6 56.6)">
<stop offset="0.469" stop-color="white"/>
<stop offset="0.802" stop-color="#FFE5DD"/>
<stop offset="1" stop-color="#E3AAD7"/>
</radialGradient>
<linearGradient id="paint15_linear_101_5" x1="77.5008" y1="289.6" x2="77.5008" y2="188.4" gradientUnits="userSpaceOnUse">
<stop stop-color="#683155"/>
<stop offset="1" stop-color="#3E0E19"/>
</linearGradient>
<linearGradient id="paint16_linear_101_5" x1="463.1" y1="331.8" x2="463.1" y2="168.1" gradientUnits="userSpaceOnUse">
<stop stop-color="#F28727"/>
<stop offset="1" stop-color="#C72200"/>
</linearGradient>
<radialGradient id="paint17_radial_101_5" cx="0" cy="0" r="1" gradientUnits="userSpaceOnUse" gradientTransform="translate(410.1 237) scale(56 56)">
<stop offset="0.469" stop-color="white"/>
<stop offset="0.802" stop-color="#FFE5DD"/>
<stop offset="1" stop-color="#E3AAD7"/>
</radialGradient>
<linearGradient id="paint18_linear_101_5" x1="325.1" y1="289.4" x2="325.1" y2="182.3" gradientUnits="userSpaceOnUse">
<stop stop-color="#683155"/>
<stop offset="1" stop-color="#3E0E19"/>
</linearGradient>
<linearGradient id="paint19_linear_101_5" x1="205.299" y1="494.6" x2="260.299" y2="388.1" gradientUnits="userSpaceOnUse">
<stop offset="0.006" stop-color="#982F00"/>
<stop offset="1" stop-color="#E36B00"/>
</linearGradient>
<linearGradient id="paint20_linear_101_5" x1="403.2" y1="254" x2="371.1" y2="170.9" gradientUnits="userSpaceOnUse">
<stop stop-color="#A69CEA"/>
<stop offset="1" stop-color="#DE27B3"/>
</linearGradient>
<linearGradient id="paint21_linear_101_5" x1="130.2" y1="248.8" x2="100.8" y2="172.7" gradientUnits="userSpaceOnUse">
<stop stop-color="#A69CEA"/>
<stop offset="1" stop-color="#DE27B3"/>
</linearGradient>
<linearGradient id="paint22_linear_101_5" x1="368.701" y1="302.2" x2="340.701" y2="253.8" gradientUnits="userSpaceOnUse">
<stop/>
<stop offset="1" stop-color="#39FFFF"/>
</linearGradient>
<linearGradient id="paint23_linear_101_5" x1="174.599" y1="296.299" x2="200.399" y2="251.599" gradientUnits="userSpaceOnUse">
<stop/>
<stop offset="1" stop-color="#39FFFF"/>
</linearGradient>
<linearGradient id="paint24_linear_101_5" x1="199.9" y1="354.2" x2="337.8" y2="353.3" gradientUnits="userSpaceOnUse">
<stop stop-color="#8B0081"/>
<stop offset="1" stop-color="#B842FF"/>
</linearGradient>
<linearGradient id="paint25_linear_101_5" x1="264.3" y1="353.4" x2="264.3" y2="285.6" gradientUnits="userSpaceOnUse">
<stop stop-color="#8B0081"/>
<stop offset="1" stop-color="#B842FF"/>
</linearGradient>
<linearGradient id="paint26_linear_101_5" x1="174.599" y1="488.3" x2="242.099" y2="357.4" gradientUnits="userSpaceOnUse">
<stop stop-color="#8B0081"/>
<stop offset="1" stop-color="white"/>
</linearGradient>
<linearGradient id="paint27_linear_101_5" x1="245.599" y1="541.2" x2="262.499" y2="508.5" gradientUnits="userSpaceOnUse">
<stop stop-color="#8B0081"/>
<stop offset="1" stop-color="#B842FF"/>
</linearGradient>
<linearGradient id="paint28_linear_101_5" x1="102" y1="462.6" x2="102" y2="461.6" gradientUnits="userSpaceOnUse">
<stop stop-color="#5C60B5"/>
<stop offset="1" stop-color="white"/>
</linearGradient>
<linearGradient id="paint29_linear_101_5" x1="291.6" y1="21.0996" x2="347.8" y2="21.0996" gradientUnits="userSpaceOnUse">
<stop stop-color="white"/>
<stop offset="1" stop-color="#C62A96"/>
</linearGradient>
<linearGradient id="paint30_linear_101_5" x1="312.6" y1="66.6003" x2="377" y2="66.6003" gradientUnits="userSpaceOnUse">
<stop stop-color="white"/>
<stop offset="1" stop-color="#C62A96"/>
</linearGradient>
<linearGradient id="paint31_linear_101_5" x1="362.699" y1="266.7" x2="362.699" y2="172.6" gradientUnits="userSpaceOnUse">
<stop stop-color="#FF9828"/>
<stop offset="1" stop-color="#FFC713"/>
</linearGradient>
<linearGradient id="paint32_linear_101_5" x1="397.3" y1="265.8" x2="397.3" y2="193.9" gradientUnits="userSpaceOnUse">
<stop stop-color="#3E0E19"/>
<stop offset="1" stop-color="#31074B"/>
</linearGradient>
<linearGradient id="paint33_linear_101_5" x1="184.6" y1="266.7" x2="184.6" y2="172.6" gradientUnits="userSpaceOnUse">
<stop stop-color="#FF9828"/>
<stop offset="1" stop-color="#FFC713"/>
</linearGradient>
<linearGradient id="paint34_linear_101_5" x1="149.999" y1="265.8" x2="149.999" y2="193.9" gradientUnits="userSpaceOnUse">
<stop stop-color="#3E0E19"/>
<stop offset="1" stop-color="#31074B"/>
</linearGradient>
<linearGradient id="paint35_linear_101_5" x1="402" y1="301.6" x2="369.2" y2="216.4" gradientUnits="userSpaceOnUse">
<stop stop-color="#A69CEA"/>
<stop offset="1" stop-color="#DE27B3"/>
</linearGradient>
<linearGradient id="paint36_linear_101_5" x1="118.6" y1="290.2" x2="88.6996" y2="212.9" gradientUnits="userSpaceOnUse">
<stop stop-color="#A69CEA"/>
<stop offset="1" stop-color="#DE27B3"/>
</linearGradient>
<linearGradient id="paint37_linear_101_5" x1="271.9" y1="324.4" x2="271.9" y2="288.9" gradientUnits="userSpaceOnUse">
<stop stop-color="#C23600"/>
<stop offset="0.994" stop-color="#862200"/>
</linearGradient>
<linearGradient id="paint38_linear_101_5" x1="330.199" y1="488.2" x2="330.199" y2="461.6" gradientUnits="userSpaceOnUse">
<stop stop-color="#8B0081"/>
<stop offset="1" stop-color="#B842FF"/>
</linearGradient>
<linearGradient id="paint39_linear_101_5" x1="316.4" y1="471.8" x2="316.4" y2="356.1" gradientUnits="userSpaceOnUse">
<stop stop-color="#3E0E19"/>
<stop offset="1" stop-color="#683131"/>
</linearGradient>
<linearGradient id="paint40_linear_101_5" x1="328.5" y1="422.7" x2="328.5" y2="356.1" gradientUnits="userSpaceOnUse">
<stop stop-color="#8B0081"/>
<stop offset="1" stop-color="#B842FF"/>
</linearGradient>
<linearGradient id="paint41_linear_101_5" x1="345.001" y1="471.799" x2="345.001" y2="384.699" gradientUnits="userSpaceOnUse">
<stop stop-color="#8B0081"/>
<stop offset="1" stop-color="#B842FF"/>
</linearGradient>
<linearGradient id="paint42_linear_101_5" x1="371.301" y1="416.9" x2="400.201" y2="416.9" gradientUnits="userSpaceOnUse">
<stop stop-color="#8B0081"/>
<stop offset="1" stop-color="white"/>
</linearGradient>
<linearGradient id="paint43_linear_101_5" x1="224.7" y1="471.8" x2="224.7" y2="356.8" gradientUnits="userSpaceOnUse">
<stop stop-color="#3E0E19"/>
<stop offset="1" stop-color="#683131"/>
</linearGradient>
<linearGradient id="paint44_linear_101_5" x1="213.4" y1="422.7" x2="213.4" y2="356.8" gradientUnits="userSpaceOnUse">
<stop stop-color="#8B0081"/>
<stop offset="1" stop-color="#B842FF"/>
</linearGradient>
<linearGradient id="paint45_linear_101_5" x1="196.6" y1="471.8" x2="196.6" y2="384.7" gradientUnits="userSpaceOnUse">
<stop stop-color="#8B0081"/>
<stop offset="1" stop-color="#B842FF"/>
</linearGradient>
<linearGradient id="paint46_linear_101_5" x1="170.4" y1="416.9" x2="141.4" y2="416.9" gradientUnits="userSpaceOnUse">
<stop stop-color="#8B0081"/>
<stop offset="1" stop-color="white"/>
</linearGradient>
<linearGradient id="paint47_linear_101_5" x1="349.301" y1="242.1" x2="349.301" y2="168.5" gradientUnits="userSpaceOnUse">
<stop stop-color="#8B0081"/>
<stop offset="1" stop-color="white"/>
</linearGradient>
<linearGradient id="paint48_linear_101_5" x1="196.4" y1="241.899" x2="196.4" y2="168.299" gradientUnits="userSpaceOnUse">
<stop stop-color="#8B0081"/>
<stop offset="1" stop-color="white"/>
</linearGradient>
<linearGradient id="paint49_linear_101_5" x1="284.699" y1="292.4" x2="313.599" y2="292.4" gradientUnits="userSpaceOnUse">
<stop stop-color="#FFC88C"/>
<stop offset="1" stop-color="#FFE5BC"/>
</linearGradient>
</defs>
</svg>
