<svg width="1284" height="888" viewBox="0 0 1284 888" fill="none" xmlns="http://www.w3.org/2000/svg">
<g filter="url(#filter0_d_53_2)">
<path d="M1261.2 143.7L1229 133.7L644.5 337.6V666.1C643.367 666.033 642.2 666 641 666C639.8 666 638.6 666.033 637.4 666.1V337.6L52.9 133.7L20.8 143.7L35.4 845.1C35.4 845.1 32.5 862.3 51.5 860.9C70.4 859.5 269.1 784.3 581.7 828.6C597.1 844.8 618 854.8 641 854.8C664 854.8 684.8 844.8 700.2 828.6C1012.8 784.3 1211.5 859.5 1230.5 860.9C1249.5 862.3 1246.5 845.1 1246.5 845.1L1261.2 143.7Z" fill="#5F6800"/>
<path d="M1261.2 133.7L1229 123.7L644.5 327.7V656.1C643.367 656.033 642.2 656 641 656C639.8 656 638.6 656.033 637.4 656.1V327.7L52.9 123.7L20.8 133.7L35.4 835.2C35.4 835.2 32.5 852.4 51.5 850.9C70.4 849.5 269.1 774.4 581.7 818.6C597.1 834.9 618 844.8 641 844.8C664 844.8 684.8 834.9 700.2 818.6C1012.8 774.4 1211.5 849.5 1230.5 850.9C1249.5 852.4 1246.5 835.2 1246.5 835.2L1261.2 133.7Z" fill="#9E9F00"/>
<g style="mix-blend-mode:multiply">
<path d="M604.3 822.8C596.6 818.6 588.5 815.1 580.3 812C580.233 812.4 580.167 812.833 580.1 813.3C579.833 814.967 579.6 816.633 579.4 818.3C580.133 818.433 580.9 818.533 581.7 818.6C596.2 833.9 615.6 843.6 637 844.7C626.7 836.5 615.9 829.1 604.3 822.8Z" fill="#9E9F00"/>
<path d="M1261.2 133.7L1229 123.7L644.5 327.7V656.1C643.367 656.033 642.2 656 641 656C639.8 656 638.6 656.033 637.4 656.1V327.7L52.9 123.7L49.3 124.8C47.1 187.3 47.7 249.8 49.2 312.3C52 427.4 57.9 542.5 55 657.7C53.6 715.2 51.1 772.6 52.6 830.1C52.6 831.2 52.6 841.7 53.9 841.2C57 840 60 838.7 62.9 837C67.9 834.3 72.5 831.1 77.4 828.1C87.5 822 98.6 817.3 109.9 813.9C134.8 806.4 160.9 804.2 186.5 800.2C242.3 791.6 298.8 786.6 355.3 786.2C383.7 786.1 411.9 787.7 440.2 788.8C465.9 789.7 491.5 791.5 516.9 795.5C538.1 798.8 559.7 803.2 579.8 810.8C581.1 803.4 583 795.9 586.6 789.4C586.9 789 587.5 789.4 587.3 789.8C583.7 796.3 581.8 803.7 580.5 811C583.633 812.2 586.767 813.5 589.9 814.9C607.3 822.6 623.4 832.8 638.2 844.8C638.667 844.8 639.133 844.8 639.6 844.8C656.5 834.8 674.4 826.3 692.5 818.6C695.833 817.2 699.167 815.867 702.5 814.6C702.5 807.7 702.2 800.9 701.1 794.1C701.1 793.6 701.8 793.5 701.9 793.9C702.9 800.7 703.2 807.5 703.2 814.3C708.6 812.167 714 810.1 719.4 808.1C729.1 804.7 739.5 802.7 749.6 800.8C769.2 797.1 789 795.2 808.9 793.7C891.5 787.5 974.9 784.4 1057.4 794.6C1097.7 799.6 1137.7 807.6 1176.4 819.9C1195.8 826 1214.9 833.1 1233.4 841.4C1237 843 1240.57 844.667 1244.1 846.4C1247.6 841.7 1246.5 835.2 1246.5 835.2L1261.2 133.7Z" fill="#9E9F00"/>
<path d="M702.5 815.4C696.033 817.934 689.6 820.634 683.2 823.5C668.8 829.9 654.9 837 641.4 844.8C664.2 844.7 684.9 834.8 700.2 818.6C701 818.534 701.767 818.434 702.5 818.3C702.5 817.3 702.5 816.334 702.5 815.4Z" fill="#9E9F00"/>
</g>
<path d="M701 308L644.5 327.7V656.1C643.367 656.033 642.2 656 641 656C639.8 656 638.6 656.033 637.4 656.1V327.7L582 308.3V818.9C597.3 835 618.1 844.8 641 844.8C664 844.8 684.8 834.9 700.2 818.6C700.467 818.6 700.733 818.567 701 818.5V308Z" fill="#5A6317"/>
<g style="mix-blend-mode:multiply">
<path d="M669.5 318.9V839.5C681.1 835 691.5 827.8 700.2 818.6C700.467 818.6 700.733 818.567 701 818.5V308L669.5 318.9Z" fill="#9E9F00"/>
</g>
<g style="mix-blend-mode:multiply">
<path d="M612.3 318.9L582 308.3V818.9C590.6 827.9 600.9 835 612.3 839.4V318.9Z" fill="#9E9F00"/>
</g>
<g style="mix-blend-mode:screen">
<path d="M672.7 829.8C655.7 835.7 637.7 837.1 620.2 832.8C606.8 829.5 593.1 823.8 582 815.3V818.9C597.3 835 618.1 844.8 641 844.8C664 844.8 684.8 834.9 700.2 818.6C700.467 818.6 700.733 818.567 701 818.5V814.4C692.5 821.1 682.8 826.3 672.7 829.8Z" fill="#9E9F00"/>
</g>
<path d="M1235.2 740.6C1235.8 739.1 1236.8 736.6 1238.2 735L1249 190.2C1074.8 106.9 781.8 118 640.9 219.2C501.9 114.8 210.5 105.9 34.4 190.2L45 735.8C46.2 737 47.4 739.1 47.6 739.5C48.9 741.7 50.4 744.1 51.1 746.6C52.6 751.8 53.5 757.1 54.1 762.5C55.4 773.5 56.1 784.6 55.9 795.7C55.7 811.9 53.5 828 48 843.1C60 833.5 181.8 741.7 418.7 771.1C494.3 780.5 544.9 795.1 581.5 809.3C583 801.9 586 794.8 588 787.4C589.2 782.7 590.5 778 592.6 773.6C594.6 769.2 597.3 765.3 600.4 761.7C606.8 754.4 614.6 747.7 623.6 743.8C631.9 740.3 640.8 740.1 649.6 741.7C658.3 743.3 667.9 746.2 674.7 752C678.6 755.2 681.8 759.2 684.9 763.2C687.8 767 690.8 770.7 693.1 774.9C697.5 783 699.8 791.8 701.1 800.9C701.6 803.6 701.9 806.4 702.2 809.2C738.8 795.1 789.3 780.5 864.6 771.1C1105.6 741.2 1227.3 836.1 1235.6 842.9C1230 824.3 1227.7 804.5 1227.8 785.1C1227.9 774.6 1228.3 763.8 1230.8 753.5C1231.9 749.1 1233.4 744.8 1235.2 740.6Z" fill="#F6E1CC"/>
<path opacity="0.9" d="M1235.2 740.6C1235.8 739.1 1236.8 736.6 1238.2 735L1249 190.2C1074.8 106.9 781.8 118 640.9 219.2C501.9 114.8 210.5 105.9 34.4 190.2L45 735.8C46.2 737 47.4 739.1 47.6 739.5C48.9 741.7 50.4 744.1 51.1 746.6C52.6 751.8 53.5 757.1 54.1 762.5C55.4 773.5 56.1 784.6 55.9 795.7C55.7 811.9 53.5 828 48 843.1C60 833.5 181.8 741.7 418.7 771.1C494.3 780.5 544.9 795.1 581.5 809.3C583 801.9 586 794.8 588 787.4C589.2 782.7 590.5 778 592.6 773.6C594.6 769.2 597.3 765.3 600.4 761.7C606.8 754.4 614.6 747.7 623.6 743.8C631.9 740.3 640.8 740.1 649.6 741.7C658.3 743.3 667.9 746.2 674.7 752C678.6 755.2 681.8 759.2 684.9 763.2C687.8 767 690.8 770.7 693.1 774.9C697.5 783 699.8 791.8 701.1 800.9C701.6 803.6 701.9 806.4 702.2 809.2C738.8 795.1 789.3 780.5 864.6 771.1C1105.6 741.2 1227.3 836.1 1235.6 842.9C1230 824.3 1227.7 804.5 1227.8 785.1C1227.9 774.6 1228.3 763.8 1230.8 753.5C1231.9 749.1 1233.4 744.8 1235.2 740.6Z" fill="#DE9E6C"/>
<g style="mix-blend-mode:multiply" opacity="0.5">
<path d="M1230.8 753.5C1231.9 749.1 1233.4 744.8 1235.2 740.6C1235.6 739.6 1236.2 738.1 1237 736.8C1229.7 740.8 1222.7 745.4 1214.4 747C1218.2 750.9 1223.7 752.7 1227.2 756.8C1227.4 757 1227.3 757.4 1227 757.4C1215.7 757.3 1204.4 753.3 1193.2 755.8C1198.4 759.3 1204.2 761.9 1209.4 765.5C1214.1 768.7 1218.7 772.7 1219.9 778.4C1220 778.7 1219.8 778.9 1219.5 778.9C1212.3 776.7 1205.13 774.567 1198 772.5C1135.5 754.3 1071.2 738.2 1005.7 739.6C1005.83 739.667 1005.93 739.7 1006 739.7C1055.7 752.4 1112.9 749.3 1155.5 781.9C1155.8 782.1 1155.6 782.7 1155.2 782.6C1147.9 780.7 1140.6 778.7 1133.4 776.6C1117.8 771.9 1102.3 766.6 1086.6 762.4C1071 758.1 1055.1 755.1 1039.1 753C1006.7 748.5 973.9 747.2 941.2 747.8C909 748.4 876.9 750.2 845.1 754.8C813.8 759.3 782.9 766.2 752.6 775.2C752.2 775.3 752 774.8 752.2 774.5C764.1 762.8 780 757.5 795.1 751.3C811 744.7 826.8 737.5 843.7 734.1C815.6 736.1 789.1 746.6 761.5 751.5C761.1 751.6 760.8 751 761.2 750.8C761.2 750.8 761.233 750.8 761.3 750.8C766.233 748.667 771.233 746.6 776.3 744.6C805.8 732.9 836.1 723.3 867.2 716.8C898.1 710.3 929.3 707.3 960.8 707.1C993.4 706.8 1026.1 708.5 1058.4 712.8C1066.3 713.9 1074.1 715.2 1081.9 716.3C1088.7 717.1 1095.5 718 1102.2 719.1C1108.6 720.2 1115 721.4 1121.3 723.1C1076.8 706.5 1028.8 699.4 981.6 695.4C949.8 692.7 918.1 691.5 886.2 693.7C852.9 695.9 820 700.9 787.3 707.2C786.9 707.2 786.7 706.7 787 706.5C797.7 698.8 810.4 694.3 823 690.8C836.6 687 850.6 683.9 864.5 681.4C879.9 678.6 895.5 676.8 911.1 675.7C924.6 674.7 938.8 677.1 952 673.6C940.6 670.8 928.7 670.1 917 670.3C888.4 671 860.5 677.3 832.4 681.9C800.4 687.2 769.4 696.6 739.3 708.6C738.9 708.8 738.7 708.2 739 708C744.067 704.934 749.233 702 754.5 699.2C803.4 673.6 858.5 660.7 913.3 656.7C941 654.7 968.8 655 996.5 657.6C1024.5 660.3 1052.4 665.4 1079.9 671.3C1134.8 683.2 1189.5 700.4 1238.3 728.8L1241.5 566.7H41.7L45 735.8C45.0667 735.867 45.1333 735.934 45.2 736C49.7 732.9 54.3 729.8 59.1 727C109.1 697 167.2 683.3 224.4 675.3C280 667.6 336.5 665.2 392.4 670.5C447.3 675.8 503 688.5 550.9 716.8C551.3 717 551 717.6 550.6 717.5C524.6 709.5 498 702.9 470.9 699.9C451.2 697.8 431.4 697.1 411.7 695.5C436.8 699.8 461.3 706.8 485.9 713.5C514.1 721.1 543.2 728.8 567.9 744.9C568.3 745.2 568 745.8 567.5 745.6C555.9 738.6 542.7 734.9 529.5 732.2C516 729.4 502.5 727.1 489 724.4C454.2 717.6 419.3 710.9 384 707.5C353.5 704.5 322.7 703.7 292.1 704.7C233 706.6 172.6 716 119.4 742.9C130.3 740.9 141 738 151.6 735C167.6 730.4 183.5 725.4 199.9 722.1C216.2 718.9 233 717.3 249.6 716.2C283.2 714 317 714.1 350.7 714.7C413.1 715.7 476.7 724.8 533.9 750.8C534.3 751 534 751.6 533.6 751.5C480.7 736.8 426 726.8 371.1 723.4C311 719.8 247.9 719.5 190.8 741.2C226.4 734.9 262.5 733.4 298.6 734C315.2 734.3 331.7 735 348.3 735.6C363.4 736.1 378.4 736.7 393.4 738C422.9 740.4 452.6 745.1 480 756.7C480.3 756.9 480.1 757.5 479.8 757.4C478.067 757.2 476.333 757 474.6 756.8C440.7 752.4 406.7 747.9 372.5 746C338.7 744.1 304.8 744.8 271.2 748.9C206.2 756.9 143.5 776.6 83 801C82.6 801.2 82.4 800.6 82.7 800.3C100.1 788.1 118.7 777.7 138.1 769.1C116.9 773.6 97.8 784.8 76.4 788.5C76 788.5 75.7 788.1 76 787.9C86.5 779.5 99.4 774.2 108.5 764.2C95.8 766 83.4 771.4 70.3 770C70.1 770 69.9 769.8 70 769.5C72.3 762.9 76.9 757.5 79.3 751C73.2 752.8 67 754.3 60.9 756.3C58.7 757 56.1 757.8 53.6 758.8C53.8 760.067 53.9667 761.3 54.1 762.5C55.4 773.5 56.1 784.6 55.9 795.7C55.7 811.9 53.5 828 48 843.1C60 833.5 181.8 741.7 418.7 771.1C494.3 780.5 544.9 795.1 581.5 809.3C583 801.9 586 794.8 588 787.4C589.2 782.7 590.5 778 592.6 773.6C594.6 769.2 597.3 765.3 600.4 761.7C606.8 754.4 614.6 747.7 623.6 743.8C631.9 740.3 640.8 740.1 649.6 741.7C658.3 743.3 667.9 746.2 674.7 752C678.6 755.2 681.8 759.2 684.9 763.2C687.8 767 690.8 770.7 693.1 774.9C697.5 783 699.8 791.8 701.1 800.9C701.6 803.6 701.9 806.4 702.2 809.2C738.8 795.1 789.3 780.5 864.6 771.1C1105.6 741.2 1227.3 836.1 1235.6 842.9C1230 824.3 1227.7 804.5 1227.8 785.1C1227.9 774.6 1228.3 763.8 1230.8 753.5Z" fill="#DE9E6C"/>
</g>
<path d="M583 813.1C584.6 813.7 585.9 813.5 587 812.9C591.3 775 614.6 746 642.7 746C670.7 746 694 774.7 698.4 812.3C701.1 813.7 705.1 810.8 707.3 807.7C700.7 766 674.3 734.9 642.7 734.9C610.9 734.9 584.3 766.6 578 808.7C579.3 810.7 580.9 812.4 583 813.1Z" fill="#9E9F00"/>
<g style="mix-blend-mode:multiply">
<path d="M126.5 785.2C126.5 785.2 359.3 695.7 576.8 794.8C576.8 794.8 415.8 708.7 126.5 785.2Z" fill="#F6E1CC"/>
<path d="M90.3 780C90.3 780 249.2 705.3 426.6 735.6C426.6 735.6 249.2 720.1 90.3 780Z" fill="#F6E1CC"/>
<path d="M204.9 720.1C204.9 720.1 417 668.4 585.5 763.7C585.5 763.7 440.6 691.3 204.9 720.1Z" fill="#F6E1CC"/>
<path d="M65.2 733.4C65.2 733.4 206.3 643.2 418.4 681.7C418.4 681.7 223.3 658 65.2 733.4Z" fill="#F6E1CC"/>
<path d="M453.2 682.4C453.2 682.4 552.9 704.6 611.3 741.5C611.3 741.5 502 694.2 453.2 682.4Z" fill="#F6E1CC"/>
<path d="M357.8 688.3C357.8 688.3 497.5 688.3 599.5 753.4C599.5 753.4 509.3 704.6 357.8 688.3Z" fill="#F6E1CC"/>
<path d="M197.5 709C197.5 709 99.2 729.7 64.4 755.6C64.4 755.6 139.8 728.2 197.5 709Z" fill="#F6E1CC"/>
</g>
<g style="mix-blend-mode:multiply">
<path d="M1162.3 785.2C1162.3 785.2 929.5 695.7 711.9 794.8C711.9 794.8 872.9 708.7 1162.3 785.2Z" fill="#F6E1CC"/>
<path d="M1198.5 780C1198.5 780 1039.6 705.3 862.2 735.6C862.2 735.6 1039.6 720.1 1198.5 780Z" fill="#F6E1CC"/>
<path d="M1083.9 720.1C1083.9 720.1 871.8 668.4 703.3 763.7C703.3 763.7 848.2 691.3 1083.9 720.1Z" fill="#F6E1CC"/>
<path d="M1223.6 733.4C1223.6 733.4 1082.5 643.2 870.3 681.7C870.3 681.7 1065.5 658 1223.6 733.4Z" fill="#F6E1CC"/>
<path d="M835.6 682.4C835.6 682.4 735.8 704.6 677.5 741.5C677.5 741.5 786.8 694.2 835.6 682.4Z" fill="#F6E1CC"/>
<path d="M930.9 688.3C930.9 688.3 791.3 688.3 689.3 753.4C689.3 753.4 779.4 704.6 930.9 688.3Z" fill="#F6E1CC"/>
<path d="M1091.3 709C1091.3 709 1189.6 729.7 1224.4 755.6C1224.4 755.6 1149 728.2 1091.3 709Z" fill="#F6E1CC"/>
</g>
<path d="M34.4 82.2998C210.8 -2.10023 503 6.89977 641.6 111.9V728.7C603.4 710.3 547.2 679.2 418.7 663.2C168.9 632.2 44.7 735.6 44.7 735.6L34.4 82.2998Z" fill="#F6E7CF"/>
<g style="mix-blend-mode:multiply">
<path fill-rule="evenodd" clip-rule="evenodd" d="M641.6 111.9V728.7C603.4 710.3 547.2 679.2 418.7 663.2C168.9 632.2 44.7 735.6 44.7 735.6L34.4 82.2998C210.8 -2.10023 503 6.89977 641.6 111.9ZM596.9 667.5C587.7 650.7 569.9 641.2 553.4 633.1C549.1 630.9 544.8 628.9 540.5 626.7C538.3 625.633 536.133 624.533 534 623.4C535.2 624 538 622.9 539.3 622.8C541 622.6 542.7 622.5 544.4 622.4C557.9 621.4 571.6 623.1 584.6 626.6C584.9 626.7 585.2 626.3 585 626.1C572.9 608.3 550.7 602.6 531.2 596.7C541.1 593.1 551.6 591.2 561.4 587.5C568.3 585 572.4 580.4 574.5 573.4C576.3 567.9 576.9 562 577.4 556.2C578.3 545.9 578.6 535.6 579.2 525.3C580.3 503.7 580.4 182.2 580.4 172.5C580.4 172.033 580.4 171.533 580.4 171C580.4 163 580.5 155 580.1 147C579.5 131.9 576.4 116.6 566.3 104.9C556.3 93.2998 542.1 84.8998 528.4 78.4998C513.7 71.4998 498 66.5998 482.2 62.6998C466.8 58.7998 451.1 55.8998 435.4 53.0998C414.7 49.4998 394.4 43.8998 373.8 39.5998C353.1 35.2998 213.8 39.9998 196 44.2998C181.9 47.6998 167.7 50.8998 153.6 54.2998C128.5 60.4998 71.4 96.8998 65.7 101.2C65.4 101.4 89.6 100.7 101.4 100.4C89.7 107.2 76.1 111.6 65.9 120.7C54.3 131.1 53.9 148.2 53.4 162.7C52.9 182.8 63.5 371.1 65.1 414.6C65.9 436.333 66.8333 458.066 67.9 479.8C69 501.3 70.5 522.8 71.5 544.3C71.5 545.033 71.5333 545.766 71.6 546.5C72.7 566.4 80.8 647.9 71.5 666C71.3 666.3 71.7 666.6 72 666.5C91.6 656.8 112.1 649.3 132.7 642.3C109.3 657.5 86.2 673.5 65.6 692.5C65.4 692.8 65.7 693.2 66 693.1C83 689.6 98.5 681.5 114 674C122.6 669.8 131.3 665.8 140.3 662.4C149.3 659.1 158.7 656.9 168 654.5C208.5 644.2 250.2 639.2 291.7 636.3C369.5 630.8 449.5 628.2 526.1 645.2C550.2 650.5 573.8 658 596.4 668C596.7 668.1 597.1 667.8 596.9 667.5Z" fill="#F6E1CC"/>
</g>
<g style="mix-blend-mode:multiply">
<path d="M578.5 75C581.367 77 584.167 79.0667 586.9 81.2C598.6 90.6 607.8 101.5 612.8 115.8C617.9 130.3 619.4 145.8 620 161.1C620.8 179.4 621.3 197.7 621.6 216C622.8 301.1 617.6 628.6 617.2 647C616.8 661.1 615.7 683.2 600.7 690.3C592.5 694.1 583.1 692.1 574.9 689.1C559.8 683.4 509.1 670.8 498.9 670.2C488.167 669.533 477.467 668.967 466.8 668.5C461.733 668.3 456.7 668.1 451.7 667.9C557.2 684.7 606.8 711.9 641.6 728.7V111.9C623.1 97.9 601.9 85.6 578.5 75Z" fill="#F6E1CC"/>
</g>
<g style="mix-blend-mode:screen" opacity="0.4">
<path d="M408.5 67.7002C397.7 65.6002 387 62.9002 376.2 60.8002C364.6 58.6002 353 56.6002 341.3 55.1002C317.8 52.1002 294.1 50.6002 270.5 52.1002C269.033 52.1668 267.567 52.2668 266.1 52.4002C264.1 52.6002 262.067 52.7668 260 52.9002C251.5 53.8002 243.1 55.1002 234.7 56.5002C223.2 58.4002 211.7 60.7002 200.4 63.4002C191.1 65.7002 182.1 68.4002 173 71.2002C172.533 71.4002 172.1 71.6335 171.7 71.9002C166.5 74.6002 161.3 77.1002 155.7 78.8002C154.9 79.0002 154.2 79.6002 153.6 80.3002C150.267 81.5668 146.967 82.8668 143.7 84.2002C139.5 85.9335 135.3 87.6668 131.1 89.4002C126.3 92.5002 121.7 95.8002 116.9 99.1002C114 101 111.1 103 108 104.5C108 105 108.4 105.3 109.1 105.2C111.3 105.1 113.3 104.1 115.3 103.3C118 102.3 120.8 102 123.6 101.5C130.9 100 138.1 98.0002 145.5 97.9002C148 97.8002 150.6 96.9002 153.1 96.7002C156.2 96.4002 159.3 96.4002 162.4 96.4002C163.4 96.3335 164.433 96.2668 165.5 96.2002C159.4 97.6002 153.4 99.0002 147.6 101C137.5 104.5 127.7 108.5 118.4 113.7C111.1 117.9 103.7 121.9 99.2 129.5C94.5 137.4 95.8 147.7 95.1 156.5C95.0333 157.567 94.9667 158.634 94.9 159.7C95 165.3 95.3 171 96 176.6C97.3 186.8 99.2 196.8 100.8 206.9C102.3 216.1 103.1 225.3 103.8 234.6C106.2 269.2 109.6 303.7 111.9 338.3C114.3 373.4 115.6 408.6 116.6 443.8C117.6 479.1 118.8 514.4 119.3 549.8C119.6 566.6 119.5 583.9 116.3 600.5C114.7 608.7 112.5 616.8 110.6 624.9C109.6 629.4 108.7 633.9 108.2 638.5C108.067 639.567 107.933 640.667 107.8 641.8C109.5 643.5 112 643.2 114.2 642.6C116.3 642.1 117.9 640.9 120.1 640.7C122.7 640.6 125.2 639.8 127.7 639.2C133.6 637.6 139.6 636.7 145.6 635.8C149.2 635.2 152.9 634.4 156.6 633.9C149.2 637.3 142.1 641.7 136.3 647.4C136 647.7 134 650.7 134.9 651.3C133.1 653.6 131 655.8 128.9 658C128.3 658.6 126.1 661.5 127.9 662C128.033 662 128.167 662.033 128.3 662.1C129.633 661.233 131 660.434 132.4 659.7C148.3 650.9 166.4 646.6 184.1 643.3C187.5 642.7 190.9 642.133 194.3 641.6C199 640.2 203.8 638.9 208.6 637.9C216.5 636.1 224.6 635.6 232.6 634.8C240.333 634 248.067 633.167 255.8 632.3C260.6 631.8 265.6 631.3 270.6 630.9C272.733 630.7 274.867 630.5 277 630.3C284.5 629.6 291.9 629 299.4 628.3C300.4 627.1 301 625.8 300 625.2C294.3 621.7 286.8 622 280.4 622C276 622 271.4 621 266.9 620.8C262 620.5 257.1 620.5 252.2 620.5C242.9 620.6 233.7 619.7 224.5 619.2C216.2 618.8 208 619.2 199.8 618.1C201.5 617.2 203.3 616.5 204.9 615.7C208.3 614 211 611.6 213.1 608.5C217 602.9 214 598.3 208.6 595.8C203.7 593.4 198.1 591.8 192.7 591.1C186.2 590.3 178.6 589.8 173.4 585.1C170.5 582.4 169.7 577.5 169.2 573.7C168.9 571 168.9 568.2 168.9 565.5C168.9 562.3 168.2 559.2 167.8 556C166.1 544.6 165.2 532.9 164 521.4C162.6 509.3 162.3 497.2 162.3 485C162.3 473.1 161.7 461.3 160.7 449.5C158.7 424.6 156.3 399.8 155.1 374.9C153.8 350.6 154.2 326.1 154.2 301.7C154.2 289.5 154.2 277.334 154.2 265.2C154.2 253.1 152.7 241.1 152.7 229C152.7 204.6 153.6 180 151.8 155.7C151.4 150.7 150.2 144.5 152.2 139.7C153.8 136 158.4 133.6 161.6 131.6C171.1 125.9 180.7 120.2 190.5 115C196.4 111.9 202.4 109.1 208.7 106.8C214.2 104.8 219.9 103.5 225.4 101.5C229.4 100 233.5 98.7002 237.7 97.8002C241.4 97.0002 244.4 95.5002 246.5 92.3002C247 91.6002 247.7 90.0002 246.9 89.3002C243.4 86.2002 238.8 85.9002 234.6 84.6002C229.9 83.2002 224.6 83.2002 219.7 83.2002C214.9 83.2002 210.2 83.2002 205.5 84.0002C202.4 84.4002 199.8 84.7002 196.7 84.3002C196.567 84.3002 196.433 84.3002 196.3 84.3002C209 77.8002 222.8 73.6002 236.8 71.0002C246.6 69.1002 256.2 66.3002 266.1 64.7002C276.2 63.0002 286.5 62.0002 296.7 61.7002C306.8 61.3002 316.8 61.4002 326.9 61.2002C337 61.1002 347.1 61.1002 357.2 61.9002C366.7 62.6002 376.2 64.1002 385.7 65.1002C393.2 65.9002 400.9 67.1002 408.4 68.4002C409.4 68.8002 410.5 69.0002 411.7 69.1002C412 69.1002 412.5 68.8002 413 68.5002C411.467 68.2335 409.967 67.9668 408.5 67.7002Z" fill="#F6E1CC"/>
</g>
<path d="M641.7 111.9V728.7C680 710.3 736.2 679.2 864.6 663.2C1114.5 632.2 1238.6 735.6 1238.6 735.6L1249 82.2998C1072.5 -2.10023 780.4 6.89977 641.7 111.9Z" fill="#F6E7CF"/>
<g style="mix-blend-mode:multiply">
<path fill-rule="evenodd" clip-rule="evenodd" d="M1249 82.2998L1238.6 735.6C1238.6 735.6 1114.5 632.2 864.6 663.2C736.2 679.2 680 710.3 641.7 728.7V111.9C780.4 6.89977 1072.5 -2.10023 1249 82.2998ZM1219.8 300.1C1218.2 259.9 1218.1 219.5 1218.3 179.2C1218.3 172.6 1218.3 165.7 1216 159.4C1213.8 153.3 1209.1 148.7 1204.3 144.6C1194.1 135.9 1180.9 131.4 1168.1 128.1C1151.3 123.8 1134 122 1116.9 118.8C1146.2 117.7 1175.7 116 1204.5 122.3C1204.9 122.3 1205.1 121.9 1204.9 121.7C1196.5 113.5 1185 110.9 1175.6 104.4C1185.9 102.4 1196.4 103.3 1206.8 102.3C1207.1 102.3 1207.3 102 1207.1 101.8C1193.7 80.4998 1167 69.6998 1144.1 62.1998C1116.3 53.0998 1087.1 48.5998 1058.2 43.8998C1019.2 37.4998 979.8 33.0998 940.2 32.9998C920 32.8998 899.8 33.9998 879.7 36.3998C861.9 38.3998 731.1 60.0998 700.2 103.2C692.3 114.3 692.1 129.4 692 143C692 147 693.9 218.2 693.2 249.5C691.2 331.8 695.5 414 696.4 496.3C696.8 538.1 695.2 580 696.5 621.9C696.5 622.1 696.8 622.4 697.1 622.2C711.1 612 726.9 607.5 743.5 604.4C728.5 609.9 716.7 621.5 705.5 632.7C705.2 633 705.6 633.5 705.9 633.3C716.7 627.9 728 623.8 739.8 621.4C725.1 632.8 708.1 647.2 704.3 666.1C704.2 666.4 704.5 666.6 704.7 666.6C716 663.7 726.7 659.3 737.4 654.9C746.8 653.1 756.1 650.6 765.3 648.6C784.5 644.5 804.2 641.9 823.6 639.1C864.4 633.3 905.3 630.9 946.4 632.1C987.5 633.3 1028.4 637.9 1068.7 645.3C1086.4 648.5 1103.6 652.2 1120.6 657.8C1136.3 662.9 1152.1 668.6 1168.7 669.7C1180.9 670.5 1193.9 668.5 1202.6 659.2C1210 651.4 1213.1 640.2 1214.9 629.8C1217 618.1 1217.2 606.1 1217.6 594.2C1218 579 1219 563.9 1219.6 548.8C1222.9 466 1223.1 382.9 1219.8 300.1Z" fill="#F6E1CC"/>
</g>
<g style="mix-blend-mode:multiply">
<path d="M660.2 718.5C653.7 710.9 651.5 700.3 650.4 690.7C648.2 670.4 638.4 194.6 657.2 133C661.2 119.7 665.8 106.7 673.8 95.1996C675.6 92.6663 677.467 90.1329 679.4 87.5996C665.9 95.0996 653.3 103.1 641.7 111.9V728.7C647.6 725.8 654 722.7 661 719.3C660.733 719.033 660.467 718.766 660.2 718.5Z" fill="#F6E1CC"/>
</g>
<g style="mix-blend-mode:screen" opacity="0.4">
<path d="M1107.9 68.4002C1105.7 65.6002 1102.2 64.5002 1098.8 63.5002C1094.6 62.2002 1090.6 60.1002 1086.4 58.6002C1075.8 54.8002 1065.1 51.2002 1054.2 48.5002C980.3 29.9002 901.2 43.3002 829.1 63.2002C819.9 65.7002 811.1 69.4002 802.3 72.8002C792.4 76.5002 782.5 80.0002 772.8 84.1002C763.3 88.3002 754.3 93.0002 745.3 98.3002C739.2 101.9 731.1 105.3 727.4 111.7C727 112.5 726.2 114.1 727.5 114.5C731.3 115.9 736.9 113.7 740.6 112.5C748.4 110.1 756.9 109.3 765 108.3C773.2 107.2 781.8 107.1 790 106.9C793.9 106.8 797.8 106.9 801.6 106.9C802.6 106.9 803.8 106.8 804.9 106.8C804.7 106.867 804.5 106.934 804.3 107C802.4 107.8 800.5 108.8 798.6 109.6C793.6 111.6 788.7 113.7 784 116.1C776.2 119.9 767.2 123.8 760.8 129.7C756.3 134 754 140.1 759.2 144.7C764 148.8 774 150.7 770.8 159C767 168.6 766.8 179.3 766.8 189.4C766.8 201.1 765.5 212.8 765.3 224.5C765 236.2 765.2 247.9 765 259.5C764.7 271.3 764.2 283.1 764 294.9C763.9 306.4 764.8 317.9 765.1 329.5C765.3 341.3 764.6 353.3 765.2 365.1C765.9 377.1 765.6 389.1 765.7 401.1C765.8 412.6 766.5 424.1 767.1 435.5C767.7 447 766.3 458.3 766.2 469.8C766.1 481.9 765.9 494.1 766 506.2C766.3 529.8 765.1 553.3 765.1 576.8C765.1 582.6 764.6 588.4 764.6 594.2C764.6 599.3 765.5 604.4 771.6 604.4C774.9 604.3 778.1 603.8 781.2 602.9C785.4 601.8 789.4 599.8 793.6 598.9C796.1 598.3 798.9 597.4 801.6 596.8C796.2 599.5 791.2 602.9 786.5 606.6C783.7 608.7 780.6 610.3 777.8 612.3C774.9 614.3 772.2 616.5 769.5 618.6C764.6 622.6 759.7 627.2 754.1 630.1C752.9 630.8 748.6 636.5 752.1 636C754.1 635.7 755.8 634.7 757.3 633.6C760.2 632.7 763.3 632.3 766 631.3C770.4 629.7 774.867 628.234 779.4 626.9C812.9 617 851.2 613.2 886.4 612.8C894.7 612.7 902.9 611.7 911.2 611.7C919.8 611.7 928.3 610.9 937 610.6C946.1 610.4 955.2 610.5 964.4 610.5C966.1 610.5 970.8 606.1 968.6 604.5C965.8 602.6 962.6 601.4 959.4 600.3C955.8 599 952.4 597.7 948.8 596.8C940 594.6 931 592.7 922 591.9C912.467 591.034 902.967 590.134 893.5 589.2C889.1 588.8 884.8 588.5 880.5 588C878.3 587.7 875.2 587.7 872.7 587C873.033 586.867 873.333 586.733 873.6 586.6C874.9 586 876.2 585.6 877.6 585C882.1 583.1 886.8 580.6 891.2 578.4C894.1 576.9 897.6 576.6 899.9 574.1C901.5 572.4 904.9 567.9 902.2 565.7C899.7 563.6 896.2 563.4 893.2 562.8C888 561.9 882.9 561.3 877.5 560.9C872.3 560.5 867.5 559.6 862.4 558.6C857.7 557.6 855 553.5 852.6 549.7C847.4 541.4 844.3 532.9 843.1 523.2C841.8 513.4 842.2 503.4 842.5 493.6C842.8 482.4 841.7 471.4 841.6 460.2C841.5 449.1 842.7 438.2 842.7 427.2C842.7 415.9 842.5 404.7 842.8 393.4C843.1 381.9 843.8 370.5 843.8 358.9V285C843.8 260.6 843.3 236.1 845.1 211.7C846.1 199.6 847.2 187.5 847.9 175.4C848.2 169.7 848.1 164 848.3 158.3C848.5 152.6 849.2 146.8 849.3 141.1C849.6 132.8 850.3 123.9 855.5 117.1C860.5 110.5 868.4 105.6 875.6 101.7C891.4 93.0002 909 88.0002 925.7 81.3002C926.7 80.9002 930.6 75.8002 928.1 75.8002C917.4 75.8002 906.6 75.7002 895.8 76.4002C884.3 77.3002 873 79.4002 861.8 82.2002C856.3 83.5002 850.8 84.9002 845.2 86.2002C842.5 86.8002 840 87.5002 837.3 88.3002C834.4 89.1002 831.5 89.2002 828.6 90.1002C827.533 90.4335 826.433 90.7668 825.3 91.1002C827.8 89.3002 830.5 87.9002 833.1 86.5002C839.4 83.2002 845.9 80.1002 852.3 77.1002C862.7 72.5002 873.3 69.4002 884.2 66.5002C895.6 63.3002 907.3 61.6002 919.1 60.5002C930.7 59.5002 942.2 57.2002 953.8 56.3002C966.6 55.4002 979.2 57.0002 991.9 58.6002C998.2 59.4002 1004.5 60.3002 1010.8 61.2002C1017.4 62.2002 1024.2 62.4002 1030.8 63.1002C1043.6 64.4002 1056.4 66.2002 1069.2 67.4002C1075.33 68.0002 1081.5 68.6002 1087.7 69.2002C1090.6 69.4002 1093.4 71.0002 1096.4 71.3002C1099.2 71.6002 1101.5 73.4002 1104.3 73.6002C1106.2 73.7002 1109.3 70.1002 1107.9 68.4002Z" fill="#F6E1CC"/>
</g>
</g>
<defs>
<filter id="filter0_d_53_2" x="16.8" y="25.3369" width="1248.4" height="843.645" filterUnits="userSpaceOnUse" color-interpolation-filters="sRGB">
<feFlood flood-opacity="0" result="BackgroundImageFix"/>
<feColorMatrix in="SourceAlpha" type="matrix" values="0 0 0 0 0 0 0 0 0 0 0 0 0 0 0 0 0 0 127 0" result="hardAlpha"/>
<feOffset dy="4"/>
<feGaussianBlur stdDeviation="2"/>
<feComposite in2="hardAlpha" operator="out"/>
<feColorMatrix type="matrix" values="0 0 0 0 0 0 0 0 0 0 0 0 0 0 0 0 0 0 0.25 0"/>
<feBlend mode="normal" in2="BackgroundImageFix" result="effect1_dropShadow_53_2"/>
<feBlend mode="normal" in="SourceGraphic" in2="effect1_dropShadow_53_2" result="shape"/>
</filter>
</defs>
</svg>
