<svg width="709" height="192" viewBox="0 0 709 192" fill="none" xmlns="http://www.w3.org/2000/svg">
<g clip-path="url(#clip0_7_2)" filter="url(#filter0_d_7_2)">
<g clip-path="url(#clip1_7_2)">
<g clip-path="url(#clip2_7_2)">
<g clip-path="url(#clip3_7_2)">
<g clip-path="url(#clip4_7_2)">
<g clip-path="url(#clip5_7_2)">
<g clip-path="url(#clip6_7_2)">
<g clip-path="url(#clip7_7_2)">
<g clip-path="url(#clip8_7_2)">
<g clip-path="url(#clip9_7_2)">
<path fill-rule="evenodd" clip-rule="evenodd" d="M94.5058 60.7561C94.5058 73.5617 88.9649 83.289 77.8832 89.938C83.9166 92.1543 88.9649 95.9714 93.0282 101.389C97.0915 106.807 99.1231 114.478 99.1231 124.402C99.1231 134.302 95.4662 142.145 88.1523 147.932C80.8137 153.719 70.3107 156.613 56.6432 156.613H13.0552C10.962 156.613 9.23813 155.899 7.8837 154.471C6.52927 153.067 5.85205 151.195 5.85205 148.856V30.6508C5.85205 29.2964 6.07369 28.3975 6.51695 27.9543C6.9356 27.5356 7.82213 27.3263 9.17657 27.3263H51.2871C80.0995 27.3263 94.5058 38.4696 94.5058 60.7561ZM45.1921 57.2469H41.3135V81.442H42.237C54.0575 81.442 59.9678 77.5019 59.9678 69.6215C59.9678 65.312 58.835 62.1721 56.5694 60.2021C54.2791 58.232 50.4867 57.2469 45.1921 57.2469ZM45.1921 103.236H41.3135V127.246H44.6381C49.9327 127.246 53.8112 126.261 56.2739 124.291C58.7365 122.321 59.9678 119.181 59.9678 114.872C59.9678 110.562 58.835 107.546 56.5694 105.822C54.2791 104.098 50.4867 103.236 45.1921 103.236ZM296.895 27.3263H362.092C364.185 27.3263 365.232 32.7687 365.232 43.6534C365.232 54.5627 364.185 60.0174 362.092 60.0174H328.293V81.0726H350.826C352.919 81.0726 353.966 85.8501 353.966 95.405C353.966 104.935 352.981 109.7 351.01 109.7H328.293V154.212C328.293 155.936 325.99 157.081 321.385 157.647C316.756 158.189 312.902 158.46 309.823 158.46L301.143 158.091C295.109 157.352 292.093 156.12 292.093 154.397V32.1284C292.093 30.1583 292.499 28.8654 293.312 28.2498C294.1 27.6341 295.294 27.3263 296.895 27.3263ZM413.068 64.8194V155.505C413.068 156.49 407.441 156.982 396.187 156.982C384.908 156.982 379.269 156.551 379.269 155.689V65.0041C379.269 64.1422 384.908 63.7113 396.187 63.7113C407.441 63.7113 413.068 64.0807 413.068 64.8194ZM413.068 26.7722V53.9224C413.068 54.7843 407.441 55.2153 396.187 55.2153C384.908 55.2153 379.269 54.8459 379.269 54.1071V27.511C379.269 26.2797 384.908 25.664 396.187 25.664C407.441 25.664 413.068 26.0334 413.068 26.7722ZM472.171 90.1227V155.505C472.171 156.982 466.999 157.721 456.656 157.721C444.343 157.229 438.187 156.428 438.187 155.32V89.938H428.767C426.305 89.938 425.073 85.69 425.073 77.194C425.073 74.9777 425.283 72.2688 425.701 69.0674C426.145 65.866 427.043 64.2654 428.398 64.2654H438.187V48.0122C438.187 45.5496 443.383 44.3183 453.775 44.3183C464.192 44.3183 469.4 45.3033 469.4 47.2734V59.0939L469.585 64.2654H485.284C487.377 64.2654 488.424 68.5749 488.424 77.194C488.424 85.8131 487.377 90.1227 485.284 90.1227H472.171Z" fill="white"/>
<path fill-rule="evenodd" clip-rule="evenodd" d="M272.183 151.626C264.425 156.182 254.452 158.46 242.262 158.46C230.072 158.46 219.791 154.298 211.418 145.975C203.045 137.676 198.859 126.163 198.859 111.437C198.859 96.7348 202.885 84.8897 210.938 75.9012C219.015 66.9127 229.198 62.4184 241.486 62.4184C253.799 62.4184 263.317 65.5582 270.04 71.8379C276.763 78.1175 280.124 85.7516 280.124 94.7401C280.124 114.687 268.673 124.661 245.771 124.661H233.027C233.027 128.355 234.037 130.903 236.056 132.307C238.1 133.735 241.092 134.45 245.032 134.45C253.652 134.45 261.84 132.479 269.597 128.539C269.72 128.416 270.274 129.278 271.259 131.125C274.19 136.42 275.655 140.877 275.655 144.497C275.655 148.142 274.497 150.518 272.183 151.626ZM241.486 90.4921C246.559 90.4921 249.096 93.0778 249.096 98.2493C249.096 102.436 247.064 104.529 243.001 104.529H233.027V98.8034C233.027 96.0945 233.852 94.0382 235.502 92.6345C237.177 91.2062 239.171 90.4921 241.486 90.4921Z" fill="black"/>
<path fill-rule="evenodd" clip-rule="evenodd" d="M182.421 151.626C174.664 156.182 164.69 158.46 152.5 158.46C140.31 158.46 130.029 154.298 121.656 145.975C113.283 137.676 109.097 126.163 109.097 111.437C109.097 96.7348 113.123 84.8897 121.176 75.9012C129.253 66.9127 139.448 62.4184 151.761 62.4184C164.074 62.4184 173.58 65.5582 180.278 71.8379C187.001 78.1175 190.363 85.7516 190.363 94.7401C190.363 114.687 178.912 124.661 156.009 124.661H143.265C143.265 128.355 144.275 130.903 146.294 132.307C148.338 133.735 151.33 134.45 155.271 134.45C163.89 134.45 172.078 132.479 179.835 128.539C179.958 128.416 180.512 129.278 181.497 131.125C184.452 136.42 185.93 140.877 185.93 144.497C185.93 148.142 184.76 150.518 182.421 151.626ZM151.761 90.4921C156.81 90.4921 159.334 93.0778 159.334 98.2493C159.334 102.436 157.302 104.529 153.239 104.529H143.265V98.8034C143.265 96.0945 144.09 94.0382 145.74 92.6345C147.415 91.2062 149.422 90.4921 151.761 90.4921Z" fill="black"/>
</g>
</g>
</g>
</g>
<g clip-path="url(#clip10_7_2)">
<g clip-path="url(#clip11_7_2)">
<rect x="588" y="94" width="46" height="64" rx="23" fill="black"/>
<path fill-rule="evenodd" clip-rule="evenodd" d="M519.86 128.432C521.846 106.695 523.322 84.9207 534.845 65.3631C544.798 48.4704 558.631 38.6457 578.769 39.6252C583.98 39.8788 586.334 38.5281 585.775 32.9982C585.2 27.2975 587.436 22.2454 591.182 18.2042C593.659 15.5302 592.913 14.0196 590.812 11.976C589.155 10.3624 587.414 8.68822 586.286 6.71262C585.271 4.93734 585.374 2.68791 587.072 1.10375C589.072 -0.761581 590.849 1.10192 591.661 2.29463C596.256 9.06129 602.1 11.0112 610.074 8.97491C613.577 8.07808 617.837 7.97149 621.297 10.0886C623.62 11.511 624.274 9.08702 625.226 8.44564C627.645 6.81186 629.473 4.31801 631.603 2.23398C632.732 1.12948 633.921 -0.487754 635.731 0.739875C637.203 1.73595 637.444 3.4855 637.192 5.1983C637.006 6.4535 636.874 7.81712 635.678 8.57796C629.587 12.4373 629.938 16.394 634.494 21.6169C637.681 25.2704 639.072 30.2508 638.807 35.3138C638.627 38.7045 639.929 39.8421 643.306 39.5866C671.924 37.4217 687.72 58.8115 694.485 77.134C701.744 96.7926 703.664 117.026 703.269 137.692C703.139 144.543 701.92 145.721 695.271 145.889C681.523 146.232 668.076 144.725 655.138 139.725C653.008 138.901 651.269 138.802 649.902 141.7C644.041 154.146 634.869 163.268 621.626 167.714C619.527 168.418 619.149 169.412 619.184 171.191C619.217 172.849 619.108 174.508 619.184 176.158C619.39 180.656 617.614 183.42 612.842 183.782C607.731 184.167 603.712 181.913 604.223 177.223C605.053 169.588 601.003 167.594 595.164 164.762C586.135 160.379 579.389 152.929 574.883 143.746C573.137 140.184 571.797 138.949 566.804 140.581C553.82 144.834 540.209 146.899 526.386 145.795C522.003 145.446 520.17 142.36 519.9 138.359C519.683 135.064 519.86 131.743 519.86 128.432ZM597.009 76.1343C598.174 71.0657 594.911 65.4256 594.673 59.3683C594.574 56.8543 592.211 55.3344 589.618 55.3712C583.687 55.4613 578.055 53.3827 571.793 54.7813C562.706 56.8138 555.711 61.105 550.51 68.5719C538.267 86.1538 536.459 106.489 535.165 126.971C534.968 130.089 536.403 130.483 539.066 130.538C548.141 130.718 556.968 128.637 565.078 125.348C588.166 115.979 595.778 100.788 597.009 76.1343ZM628.016 76.1122C626.579 88.7083 629.176 100.54 637.247 110.313C649.36 124.975 666.299 129.275 684.404 130.516C688.137 130.773 687.933 128.639 687.979 126.065C688.24 111.182 685.683 96.732 680.821 82.7595C677.796 74.0723 672.927 66.2857 665.519 60.5666C656.908 53.9212 647.048 53.4011 636.659 55.0533C630.453 56.042 628.347 57.5931 628.051 63.9811C627.865 68.015 628.016 72.0673 628.016 76.1122ZM587.857 130.631C601.986 130.631 614.961 130.69 627.937 130.574C630.119 130.556 634.321 131.433 634.05 129.433C633.71 126.932 630.883 124.078 627.366 123.613C626.101 123.446 624.804 123.519 623.523 123.519C616.186 123.512 608.828 123.88 601.527 123.398C595.859 123.023 591.891 125.059 587.857 130.631ZM627.467 146.275C616.927 146.275 607.18 146.275 597.204 146.275C603.447 156.686 619.164 156.57 627.467 146.275ZM611.384 108.439C613.34 107.389 617.227 110.199 616.929 105.406C616.732 102.236 615.244 99.858 611.717 99.7037C607.044 99.5034 606.768 103.96 606.459 106.43C606.046 109.716 609.773 107.411 611.384 108.439Z" fill="white"/>
</g>
</g>
</g>
</g>
</g>
</g>
</g>
</g>
<defs>
<filter id="filter0_d_7_2" x="0" y="0" width="709" height="192" filterUnits="userSpaceOnUse" color-interpolation-filters="sRGB">
<feFlood flood-opacity="0" result="BackgroundImageFix"/>
<feColorMatrix in="SourceAlpha" type="matrix" values="0 0 0 0 0 0 0 0 0 0 0 0 0 0 0 0 0 0 127 0" result="hardAlpha"/>
<feOffset dy="4"/>
<feGaussianBlur stdDeviation="2"/>
<feColorMatrix type="matrix" values="0 0 0 0 0 0 0 0 0 0 0 0 0 0 0 0 0 0 0.25 0"/>
<feBlend mode="normal" in2="BackgroundImageFix" result="effect1_dropShadow_7_2"/>
<feBlend mode="normal" in="SourceGraphic" in2="effect1_dropShadow_7_2" result="shape"/>
</filter>
<clipPath id="clip0_7_2">
<rect width="701" height="184" fill="white" transform="translate(4)"/>
</clipPath>
<clipPath id="clip1_7_2">
<rect width="700" height="183.4" fill="white" transform="translate(4.57574 0.361938)"/>
</clipPath>
<clipPath id="clip2_7_2">
<rect width="697.484" height="183.524" fill="white" transform="translate(5.83356 0.300003)"/>
</clipPath>
<clipPath id="clip3_7_2">
<rect width="697.484" height="183.524" fill="white" transform="translate(5.83356 0.300003)"/>
</clipPath>
<clipPath id="clip4_7_2">
<rect width="697.484" height="183.524" fill="white" transform="translate(5.83356 0.300003)"/>
</clipPath>
<clipPath id="clip5_7_2">
<rect width="697.484" height="183.524" fill="white" transform="translate(5.83356 0.300003)"/>
</clipPath>
<clipPath id="clip6_7_2">
<rect width="482.609" height="132.796" fill="white" transform="translate(5.83356 25.664)"/>
</clipPath>
<clipPath id="clip7_7_2">
<rect width="482.609" height="132.796" fill="white" transform="translate(5.83356 25.664)"/>
</clipPath>
<clipPath id="clip8_7_2">
<rect width="482.609" height="132.796" fill="white" transform="translate(5.83356 25.664)"/>
</clipPath>
<clipPath id="clip9_7_2">
<rect width="482.609" height="132.796" fill="white" transform="translate(5.83356 25.664)"/>
</clipPath>
<clipPath id="clip10_7_2">
<rect width="183.526" height="183.524" fill="white" transform="translate(519.792 0.300018)"/>
</clipPath>
<clipPath id="clip11_7_2">
<rect width="183.526" height="183.524" fill="white" transform="translate(519.792 0.300018)"/>
</clipPath>
</defs>
</svg>
