<svg width="185" height="184" viewBox="0 0 185 184" fill="none" xmlns="http://www.w3.org/2000/svg">
<g clip-path="url(#clip0_7_23)">
<g clip-path="url(#clip1_7_23)">
<rect x="69" y="94" width="46" height="64" rx="23" fill="black"/>
<path fill-rule="evenodd" clip-rule="evenodd" d="M0.859791 128.432C2.84642 106.695 4.32215 84.9207 15.845 65.3631C25.7983 48.4704 39.6312 38.6457 59.7695 39.6252C64.9795 39.8788 67.3337 38.5281 66.775 32.9982C66.1998 27.2975 68.4364 22.2454 72.1817 18.2042C74.659 15.5302 73.9129 14.0196 71.8123 11.976C70.1547 10.3624 68.4143 8.68822 67.2859 6.71262C66.2715 4.93734 66.3744 2.68791 68.0725 1.10375C70.072 -0.761581 71.8491 1.10192 72.6614 2.29463C77.2558 9.06129 83.0999 11.0112 91.074 8.97491C94.5768 8.07808 98.8367 7.97149 102.297 10.0886C104.62 11.511 105.274 9.08702 106.226 8.44564C108.645 6.81186 110.473 4.31801 112.603 2.23398C113.732 1.12948 114.921 -0.487754 116.731 0.739875C118.203 1.73595 118.444 3.4855 118.192 5.1983C118.006 6.4535 117.874 7.81712 116.678 8.57796C110.587 12.4373 110.938 16.394 115.494 21.6169C118.681 25.2704 120.072 30.2508 119.807 35.3138C119.627 38.7045 120.929 39.8421 124.306 39.5866C152.924 37.4217 168.72 58.8115 175.485 77.134C182.744 96.7926 184.664 117.026 184.269 137.692C184.139 144.543 182.92 145.721 176.271 145.889C162.523 146.232 149.076 144.725 136.138 139.725C134.008 138.901 132.269 138.802 130.902 141.7C125.041 154.146 115.869 163.268 102.626 167.714C100.527 168.418 100.149 169.412 100.184 171.191C100.217 172.849 100.108 174.508 100.184 176.158C100.39 180.656 98.6143 183.42 93.8417 183.782C88.7308 184.167 84.7116 181.913 85.2225 177.223C86.0532 169.588 82.0028 167.594 76.1642 164.762C67.1352 160.379 60.3888 152.929 55.8826 143.746C54.1367 140.184 52.797 138.949 47.8037 140.581C34.8199 144.834 21.2094 146.899 7.38571 145.795C3.00263 145.446 1.17037 142.36 0.900222 138.359C0.683365 135.064 0.859791 131.743 0.859791 128.432ZM78.0093 76.1343C79.1744 71.0657 75.9106 65.4256 75.6735 59.3683C75.5743 56.8543 73.2109 55.3344 70.6178 55.3712C64.6873 55.4613 59.0546 53.3827 52.7933 54.7813C43.7055 56.8138 36.711 61.105 31.5101 68.5719C19.2669 86.1538 17.4585 106.489 16.1647 126.971C15.9681 130.089 17.4034 130.483 20.0663 130.538C29.1412 130.718 37.968 128.637 46.0781 125.348C69.166 115.979 76.778 100.788 78.0093 76.1343ZM109.016 76.1122C107.579 88.7083 110.176 100.54 118.247 110.313C130.36 124.975 147.299 129.275 165.404 130.516C169.137 130.773 168.933 128.639 168.979 126.065C169.24 111.182 166.683 96.732 161.821 82.7595C158.796 74.0723 153.927 66.2857 146.519 60.5666C137.908 53.9212 128.048 53.4011 117.659 55.0533C111.453 56.042 109.347 57.5931 109.051 63.9811C108.865 68.015 109.016 72.0673 109.016 76.1122ZM68.8572 130.631C82.986 130.631 95.9606 130.69 108.937 130.574C111.119 130.556 115.321 131.433 115.05 129.433C114.71 126.932 111.883 124.078 108.366 123.613C107.101 123.446 105.804 123.519 104.523 123.519C97.1864 123.512 89.828 123.88 82.5265 123.398C76.8589 123.023 72.8911 125.059 68.8572 130.631ZM108.467 146.275C97.927 146.275 88.1795 146.275 78.2041 146.275C84.447 156.686 100.164 156.57 108.467 146.275ZM92.3843 108.439C94.3397 107.389 98.2266 110.199 97.9289 105.406C97.7322 102.236 96.2436 99.858 92.717 99.7037C88.0435 99.5034 87.7678 103.96 87.4591 106.43C87.0456 109.716 90.7726 107.411 92.3843 108.439Z" fill="white"/>
</g>
</g>
<defs>
<clipPath id="clip0_7_23">
<rect width="183.526" height="183.524" fill="white" transform="translate(0.792114 0.300018)"/>
</clipPath>
<clipPath id="clip1_7_23">
<rect width="183.526" height="183.524" fill="white" transform="translate(0.792114 0.300018)"/>
</clipPath>
</defs>
</svg>
